<svg width="34" height="34" viewBox="0 0 34 34" fill="none" xmlns="http://www.w3.org/2000/svg">
<path d="M17.0734 21.0071L19.0769 23.0105L25.0873 17.0001L19.0769 10.9897L17.0734 12.9932L19.6637 15.5835H8.98606V18.4168H19.6637L17.0734 21.0071Z" fill="white"/>
<path fill-rule="evenodd" clip-rule="evenodd" d="M28.0189 28.0192C34.1046 21.9335 34.1046 12.0667 28.0189 5.981C21.9332 -0.104669 12.0664 -0.104669 5.98076 5.981C-0.104913 12.0667 -0.104913 21.9335 5.98076 28.0192C12.0664 34.1048 21.9332 34.1048 28.0189 28.0192ZM26.0154 26.0157C30.9946 21.0365 30.9946 12.9637 26.0154 7.98447C21.0363 3.00528 12.9634 3.00528 7.98423 7.98447C3.00504 12.9637 3.00504 21.0365 7.98423 26.0157C12.9634 30.9949 21.0363 30.9949 26.0154 26.0157Z" fill="white"/>
</svg>
