<svg width="34" height="34" viewBox="0 0 34 34" fill="none" xmlns="http://www.w3.org/2000/svg">
<path d="M16.9263 21.0071L14.9228 23.0105L8.9124 17.0001L14.9228 10.9897L16.9263 12.9932L14.336 15.5835H25.0136V18.4168H14.336L16.9263 21.0071Z" fill="white"/>
<path fill-rule="evenodd" clip-rule="evenodd" d="M5.98076 28.0192C-0.104914 21.9335 -0.104914 12.0667 5.98076 5.981C12.0664 -0.10467 21.9332 -0.10467 28.0189 5.981C34.1046 12.0667 34.1046 21.9335 28.0189 28.0192C21.9332 34.1048 12.0664 34.1048 5.98076 28.0192ZM7.98423 26.0157C3.00504 21.0365 3.00504 12.9637 7.98423 7.98447C12.9634 3.00528 21.0363 3.00528 26.0154 7.98447C30.9946 12.9637 30.9946 21.0365 26.0154 26.0157C21.0363 30.9949 12.9634 30.9949 7.98423 26.0157Z" fill="white"/>
</svg>
