<svg width="57" height="57" viewBox="0 0 57 57" fill="none" xmlns="http://www.w3.org/2000/svg">
<path d="M42.4264 14.2133C34.6159 6.40278 21.9526 6.40285 14.1421 14.2133C6.33165 22.0238 6.33165 34.6871 14.1421 42.4976C21.9526 50.3081 34.6159 50.3081 42.4264 42.4976C50.2369 34.6871 50.2369 22.0238 42.4264 14.2133ZM37.7123 18.9274C37.879 19.1012 38.0103 19.2922 38.007 19.6299L38.3694 31.5963C38.3868 32.1475 37.928 32.6453 37.3606 32.6501C36.8234 32.6547 36.333 32.19 36.3183 31.6528L36.0352 22.0548L20.3066 37.7834C19.906 38.1841 19.2567 38.1838 18.8563 37.7834C18.4556 37.3828 18.4559 36.7335 18.8563 36.3331L34.5849 20.6045L24.9867 20.3212C24.4497 20.3063 23.9499 19.8039 23.9779 19.2674C24.0096 18.6672 24.4922 18.261 25.0434 18.2703L37.0098 18.6327C37.2208 18.6378 37.5446 18.7597 37.7123 18.9274L37.7123 18.9274Z" fill="white"/>
</svg>
