<svg width="493" height="240" viewBox="0 0 493 240" fill="none" xmlns="http://www.w3.org/2000/svg">
<path d="M2.87 17H14.49C18.4567 17 21.35 17.9333 23.17 19.8C24.99 21.62 25.9 24.4433 25.9 28.27V30.23C25.9 32.75 25.48 34.8033 24.64 36.39C23.8467 37.9767 22.61 39.12 20.93 39.82V39.96C24.7567 41.2667 26.67 44.6733 26.67 50.18V54.38C26.67 58.16 25.6667 61.0533 23.66 63.06C21.7 65.02 18.8067 66 14.98 66H2.87V17ZM13.58 36.95C15.12 36.95 16.2633 36.5533 17.01 35.76C17.8033 34.9667 18.2 33.6367 18.2 31.77V29.04C18.2 27.2667 17.8733 25.9833 17.22 25.19C16.6133 24.3967 15.6333 24 14.28 24H10.57V36.95H13.58ZM14.98 59C16.3333 59 17.3367 58.65 17.99 57.95C18.6433 57.2033 18.97 55.9433 18.97 54.17V49.9C18.97 47.66 18.5733 46.12 17.78 45.28C17.0333 44.3933 15.7733 43.95 14 43.95H10.57V59H14.98ZM31.1708 17H52.1708V24H38.8708V36.95H49.4408V43.95H38.8708V59H52.1708V66H31.1708V17ZM73.8314 24H65.7814V17H89.5814V24H81.5314V66H73.8314V24ZM93.3095 17H101.009V36.95H109.269V17H116.969V66H109.269V43.95H101.009V66H93.3095V17ZM122.704 17H143.704V24H130.404V36.95H140.974V43.95H130.404V59H143.704V66H122.704V17ZM159.345 17H170.965C174.931 17 177.825 17.9333 179.645 19.8C181.465 21.62 182.375 24.4433 182.375 28.27V30.23C182.375 32.75 181.955 34.8033 181.115 36.39C180.321 37.9767 179.085 39.12 177.405 39.82V39.96C181.231 41.2667 183.145 44.6733 183.145 50.18V54.38C183.145 58.16 182.141 61.0533 180.135 63.06C178.175 65.02 175.281 66 171.455 66H159.345V17ZM170.055 36.95C171.595 36.95 172.738 36.5533 173.485 35.76C174.278 34.9667 174.675 33.6367 174.675 31.77V29.04C174.675 27.2667 174.348 25.9833 173.695 25.19C173.088 24.3967 172.108 24 170.755 24H167.045V36.95H170.055ZM171.455 59C172.808 59 173.811 58.65 174.465 57.95C175.118 57.2033 175.445 55.9433 175.445 54.17V49.9C175.445 47.66 175.048 46.12 174.255 45.28C173.508 44.3933 172.248 43.95 170.475 43.95H167.045V59H171.455ZM187.645 17H199.055C203.022 17 205.915 17.9333 207.735 19.8C209.555 21.62 210.465 24.4433 210.465 28.27V31.28C210.465 36.3667 208.785 39.5867 205.425 40.94V41.08C207.292 41.64 208.599 42.7833 209.345 44.51C210.139 46.2367 210.535 48.5467 210.535 51.44V60.05C210.535 61.45 210.582 62.5933 210.675 63.48C210.769 64.32 211.002 65.16 211.375 66H203.535C203.255 65.2067 203.069 64.46 202.975 63.76C202.882 63.06 202.835 61.8 202.835 59.98V51.02C202.835 48.78 202.462 47.2167 201.715 46.33C201.015 45.4433 199.779 45 198.005 45H195.345V66H187.645V17ZM198.145 38C199.685 38 200.829 37.6033 201.575 36.81C202.369 36.0167 202.765 34.6867 202.765 32.82V29.04C202.765 27.2667 202.439 25.9833 201.785 25.19C201.179 24.3967 200.199 24 198.845 24H195.345V38H198.145ZM221.828 17H232.258L240.238 66H232.538L231.138 56.27V56.41H222.388L220.988 66H213.848L221.828 17ZM230.228 49.76L226.798 25.54H226.658L223.298 49.76H230.228ZM243.974 17H253.634L261.124 46.33H261.264V17H268.124V66H260.214L250.974 30.23H250.834V66H243.974V17ZM273.847 17H285.607C289.433 17 292.303 18.0267 294.217 20.08C296.13 22.1333 297.087 25.1433 297.087 29.11V53.89C297.087 57.8567 296.13 60.8667 294.217 62.92C292.303 64.9733 289.433 66 285.607 66H273.847V17ZM285.467 59C286.727 59 287.683 58.6267 288.337 57.88C289.037 57.1333 289.387 55.92 289.387 54.24V28.76C289.387 27.08 289.037 25.8667 288.337 25.12C287.683 24.3733 286.727 24 285.467 24H281.547V59H285.467ZM319.515 24H311.465V17H335.265V24H327.215V66H319.515V24ZM338.993 17H346.693V36.95H354.953V17H362.653V66H354.953V43.95H346.693V66H338.993V17ZM374.338 17H384.768L392.748 66H385.048L383.648 56.27V56.41H374.898L373.498 66H366.358L374.338 17ZM382.738 49.76L379.308 25.54H379.168L375.808 49.76H382.738ZM399.29 24H391.24V17H415.04V24H406.99V66H399.29V24ZM13.72 144.7C10.0333 144.7 7.21 143.65 5.25 141.55C3.33667 139.45 2.38 136.487 2.38 132.66V106.34C2.38 102.513 3.33667 99.55 5.25 97.45C7.21 95.35 10.0333 94.3 13.72 94.3C17.4067 94.3 20.2067 95.35 22.12 97.45C24.08 99.55 25.06 102.513 25.06 106.34V111.52H17.78V105.85C17.78 102.817 16.4967 101.3 13.93 101.3C11.3633 101.3 10.08 102.817 10.08 105.85V133.22C10.08 136.207 11.3633 137.7 13.93 137.7C16.4967 137.7 17.78 136.207 17.78 133.22V125.73H25.06V132.66C25.06 136.487 24.08 139.45 22.12 141.55C20.2067 143.65 17.4067 144.7 13.72 144.7ZM40.8669 144.7C37.1335 144.7 34.2869 143.65 32.3269 141.55C30.3669 139.403 29.3869 136.347 29.3869 132.38V95H37.0869V132.94C37.0869 134.62 37.4135 135.833 38.0669 136.58C38.7669 137.327 39.7469 137.7 41.0069 137.7C42.2669 137.7 43.2235 137.327 43.8769 136.58C44.5769 135.833 44.9269 134.62 44.9269 132.94V95H52.3469V132.38C52.3469 136.347 51.3669 139.403 49.4069 141.55C47.4469 143.65 44.6002 144.7 40.8669 144.7ZM67.8409 144.7C64.1076 144.7 61.2843 143.65 59.3709 141.55C57.4576 139.403 56.5009 136.347 56.5009 132.38V129.58H63.7809V132.94C63.7809 136.113 65.1109 137.7 67.7709 137.7C69.0776 137.7 70.0576 137.327 70.7109 136.58C71.4109 135.787 71.7609 134.527 71.7609 132.8C71.7609 130.747 71.2943 128.95 70.3609 127.41C69.4276 125.823 67.7009 123.933 65.1809 121.74C62.0076 118.94 59.7909 116.42 58.5309 114.18C57.2709 111.893 56.6409 109.327 56.6409 106.48C56.6409 102.607 57.6209 99.62 59.5809 97.52C61.5409 95.3733 64.3876 94.3 68.1209 94.3C71.8076 94.3 74.5843 95.3733 76.4509 97.52C78.3643 99.62 79.3209 102.653 79.3209 106.62V108.65H72.0409V106.13C72.0409 104.45 71.7143 103.237 71.0609 102.49C70.4076 101.697 69.4509 101.3 68.1909 101.3C65.6243 101.3 64.3409 102.863 64.3409 105.99C64.3409 107.763 64.8076 109.42 65.7409 110.96C66.7209 112.5 68.4709 114.367 70.9909 116.56C74.2109 119.36 76.4276 121.903 77.6409 124.19C78.8543 126.477 79.4609 129.16 79.4609 132.24C79.4609 136.253 78.4576 139.333 76.4509 141.48C74.4909 143.627 71.6209 144.7 67.8409 144.7ZM89.8959 102H81.8459V95H105.646V102H97.5959V144H89.8959V102ZM120.23 144.7C116.45 144.7 113.557 143.627 111.55 141.48C109.544 139.333 108.54 136.3 108.54 132.38V106.62C108.54 102.7 109.544 99.6667 111.55 97.52C113.557 95.3733 116.45 94.3 120.23 94.3C124.01 94.3 126.904 95.3733 128.91 97.52C130.917 99.6667 131.92 102.7 131.92 106.62V132.38C131.92 136.3 130.917 139.333 128.91 141.48C126.904 143.627 124.01 144.7 120.23 144.7ZM120.23 137.7C122.89 137.7 124.22 136.09 124.22 132.87V106.13C124.22 102.91 122.89 101.3 120.23 101.3C117.57 101.3 116.24 102.91 116.24 106.13V132.87C116.24 136.09 117.57 137.7 120.23 137.7ZM137.128 95H148.118L153.018 130.07H153.158L158.058 95H169.048V144H161.768V106.9H161.628L156.028 144H149.588L143.988 106.9H143.848V144H137.128V95ZM174.794 95H195.794V102H182.494V114.95H193.064V121.95H182.494V137H195.794V144H174.794V95ZM200.224 95H211.634C215.6 95 218.494 95.9333 220.314 97.8C222.134 99.62 223.044 102.443 223.044 106.27V109.28C223.044 114.367 221.364 117.587 218.004 118.94V119.08C219.87 119.64 221.177 120.783 221.924 122.51C222.717 124.237 223.114 126.547 223.114 129.44V138.05C223.114 139.45 223.16 140.593 223.254 141.48C223.347 142.32 223.58 143.16 223.954 144H216.114C215.834 143.207 215.647 142.46 215.554 141.76C215.46 141.06 215.414 139.8 215.414 137.98V129.02C215.414 126.78 215.04 125.217 214.294 124.33C213.594 123.443 212.357 123 210.584 123H207.924V144H200.224V95ZM210.724 116C212.264 116 213.407 115.603 214.154 114.81C214.947 114.017 215.344 112.687 215.344 110.82V107.04C215.344 105.267 215.017 103.983 214.364 103.19C213.757 102.397 212.777 102 211.424 102H207.924V116H210.724ZM238.466 144.7C234.733 144.7 231.909 143.65 229.996 141.55C228.083 139.403 227.126 136.347 227.126 132.38V129.58H234.406V132.94C234.406 136.113 235.736 137.7 238.396 137.7C239.703 137.7 240.683 137.327 241.336 136.58C242.036 135.787 242.386 134.527 242.386 132.8C242.386 130.747 241.919 128.95 240.986 127.41C240.053 125.823 238.326 123.933 235.806 121.74C232.633 118.94 230.416 116.42 229.156 114.18C227.896 111.893 227.266 109.327 227.266 106.48C227.266 102.607 228.246 99.62 230.206 97.52C232.166 95.3733 235.013 94.3 238.746 94.3C242.433 94.3 245.209 95.3733 247.076 97.52C248.989 99.62 249.946 102.653 249.946 106.62V108.65H242.666V106.13C242.666 104.45 242.339 103.237 241.686 102.49C241.033 101.697 240.076 101.3 238.816 101.3C236.249 101.3 234.966 102.863 234.966 105.99C234.966 107.763 235.433 109.42 236.366 110.96C237.346 112.5 239.096 114.367 241.616 116.56C244.836 119.36 247.053 121.903 248.266 124.19C249.479 126.477 250.086 129.16 250.086 132.24C250.086 136.253 249.083 139.333 247.076 141.48C245.116 143.627 242.246 144.7 238.466 144.7ZM263.892 95H271.312L274.742 132.66H274.882L278.522 95H286.922L290.562 132.66H290.702L294.132 95H300.782L295.812 144H286.222L282.722 110.96H282.582L279.082 144H268.862L263.892 95ZM309.67 95H320.1L328.08 144H320.38L318.98 134.27V134.41H310.23L308.83 144H301.69L309.67 95ZM318.07 127.76L314.64 103.54H314.5L311.14 127.76H318.07ZM331.815 95H341.475L348.965 124.33H349.105V95H355.965V144H348.055L338.815 108.23H338.675V144H331.815V95ZM367.708 102H359.658V95H383.458V102H375.408V144H367.708V102ZM406.447 144.7C403.647 144.7 401.524 143.743 400.077 141.83C398.631 139.917 397.907 137.14 397.907 133.5V128.39C397.907 125.823 398.351 123.677 399.237 121.95C400.124 120.223 401.571 118.963 403.577 118.17V118.03C401.757 117.283 400.404 116.093 399.517 114.46C398.677 112.78 398.257 110.633 398.257 108.02V107.11C398.257 103.143 399.214 100.133 401.127 98.08C403.041 96.0267 405.911 95 409.737 95H418.557V102H409.877C408.617 102 407.637 102.373 406.937 103.12C406.284 103.867 405.957 105.08 405.957 106.76V109.77C405.957 111.637 406.331 112.967 407.077 113.76C407.871 114.553 409.037 114.95 410.577 114.95H413.587V109.49H421.147V114.95H423.317V121.95H421.147V138.05C421.147 139.45 421.194 140.593 421.287 141.48C421.381 142.32 421.614 143.16 421.987 144H414.287C413.914 142.973 413.681 141.69 413.587 140.15H413.447C412.607 141.69 411.627 142.833 410.507 143.58C409.434 144.327 408.081 144.7 406.447 144.7ZM409.317 137.7C411.744 137.7 413.167 136.23 413.587 133.29V121.95H410.647C408.874 121.95 407.591 122.44 406.797 123.42C406.004 124.353 405.607 125.94 405.607 128.18V133.15C405.607 134.783 405.934 135.95 406.587 136.65C407.241 137.35 408.151 137.7 409.317 137.7ZM13.72 222.7C10.0333 222.7 7.21 221.65 5.25 219.55C3.33667 217.45 2.38 214.487 2.38 210.66V184.34C2.38 180.513 3.33667 177.55 5.25 175.45C7.21 173.35 10.0333 172.3 13.72 172.3C17.4067 172.3 20.2067 173.35 22.12 175.45C24.08 177.55 25.06 180.513 25.06 184.34V189.52H17.78V183.85C17.78 180.817 16.4967 179.3 13.93 179.3C11.3633 179.3 10.08 180.817 10.08 183.85V211.22C10.08 214.207 11.3633 215.7 13.93 215.7C16.4967 215.7 17.78 214.207 17.78 211.22V203.73H25.06V210.66C25.06 214.487 24.08 217.45 22.12 219.55C20.2067 221.65 17.4067 222.7 13.72 222.7ZM40.9336 222.7C37.1536 222.7 34.2603 221.627 32.2536 219.48C30.2469 217.333 29.2436 214.3 29.2436 210.38V184.62C29.2436 180.7 30.2469 177.667 32.2536 175.52C34.2603 173.373 37.1536 172.3 40.9336 172.3C44.7136 172.3 47.6069 173.373 49.6136 175.52C51.6203 177.667 52.6236 180.7 52.6236 184.62V210.38C52.6236 214.3 51.6203 217.333 49.6136 219.48C47.6069 221.627 44.7136 222.7 40.9336 222.7ZM40.9336 215.7C43.5936 215.7 44.9236 214.09 44.9236 210.87V184.13C44.9236 180.91 43.5936 179.3 40.9336 179.3C38.2736 179.3 36.9436 180.91 36.9436 184.13V210.87C36.9436 214.09 38.2736 215.7 40.9336 215.7ZM57.8309 173H68.8209L73.7209 208.07H73.8609L78.7609 173H89.7509V222H82.4709V184.9H82.3309L76.7309 222H70.2909L64.6909 184.9H64.5509V222H57.8309V173ZM95.497 173H106.837C110.664 173 113.534 174.027 115.447 176.08C117.36 178.133 118.317 181.143 118.317 185.11V189.94C118.317 193.907 117.36 196.917 115.447 198.97C113.534 201.023 110.664 202.05 106.837 202.05H103.197V222H95.497V173ZM106.837 195.05C108.097 195.05 109.03 194.7 109.637 194C110.29 193.3 110.617 192.11 110.617 190.43V184.62C110.617 182.94 110.29 181.75 109.637 181.05C109.03 180.35 108.097 180 106.837 180H103.197V195.05H106.837ZM122.499 173H143.499V180H130.199V192.95H140.769V199.95H130.199V215H143.499V222H122.499V173ZM153.949 180H145.899V173H169.699V180H161.649V222H153.949V180ZM173.427 173H181.127V222H173.427V173ZM192.913 180H184.863V173H208.663V180H200.613V222H192.913V180ZM223.248 222.7C219.468 222.7 216.575 221.627 214.568 219.48C212.561 217.333 211.558 214.3 211.558 210.38V184.62C211.558 180.7 212.561 177.667 214.568 175.52C216.575 173.373 219.468 172.3 223.248 172.3C227.028 172.3 229.921 173.373 231.928 175.52C233.935 177.667 234.938 180.7 234.938 184.62V210.38C234.938 214.3 233.935 217.333 231.928 219.48C229.921 221.627 227.028 222.7 223.248 222.7ZM223.248 215.7C225.908 215.7 227.238 214.09 227.238 210.87V184.13C227.238 180.91 225.908 179.3 223.248 179.3C220.588 179.3 219.258 180.91 219.258 184.13V210.87C219.258 214.09 220.588 215.7 223.248 215.7ZM240.145 173H251.555C255.522 173 258.415 173.933 260.235 175.8C262.055 177.62 262.965 180.443 262.965 184.27V187.28C262.965 192.367 261.285 195.587 257.925 196.94V197.08C259.792 197.64 261.099 198.783 261.845 200.51C262.639 202.237 263.035 204.547 263.035 207.44V216.05C263.035 217.45 263.082 218.593 263.175 219.48C263.269 220.32 263.502 221.16 263.875 222H256.035C255.755 221.207 255.569 220.46 255.475 219.76C255.382 219.06 255.335 217.8 255.335 215.98V207.02C255.335 204.78 254.962 203.217 254.215 202.33C253.515 201.443 252.279 201 250.505 201H247.845V222H240.145V173ZM250.645 194C252.185 194 253.329 193.603 254.075 192.81C254.869 192.017 255.265 190.687 255.265 188.82V185.04C255.265 183.267 254.939 181.983 254.285 181.19C253.679 180.397 252.699 180 251.345 180H247.845V194H250.645ZM278.388 222.7C274.654 222.7 271.831 221.65 269.918 219.55C268.004 217.403 267.048 214.347 267.048 210.38V207.58H274.328V210.94C274.328 214.113 275.658 215.7 278.318 215.7C279.624 215.7 280.604 215.327 281.258 214.58C281.958 213.787 282.308 212.527 282.308 210.8C282.308 208.747 281.841 206.95 280.908 205.41C279.974 203.823 278.248 201.933 275.728 199.74C272.554 196.94 270.338 194.42 269.078 192.18C267.818 189.893 267.188 187.327 267.188 184.48C267.188 180.607 268.168 177.62 270.128 175.52C272.088 173.373 274.934 172.3 278.668 172.3C282.354 172.3 285.131 173.373 286.998 175.52C288.911 177.62 289.868 180.653 289.868 184.62V186.65H282.588V184.13C282.588 182.45 282.261 181.237 281.608 180.49C280.954 179.697 279.998 179.3 278.738 179.3C276.171 179.3 274.888 180.863 274.888 183.99C274.888 185.763 275.354 187.42 276.288 188.96C277.268 190.5 279.018 192.367 281.538 194.56C284.758 197.36 286.974 199.903 288.188 202.19C289.401 204.477 290.008 207.16 290.008 210.24C290.008 214.253 289.004 217.333 286.998 219.48C285.038 221.627 282.168 222.7 278.388 222.7ZM305.634 173H326.634V180H313.334V192.95H323.904V199.95H313.334V215H326.634V222H305.634V173ZM331.063 173H340.723L348.213 202.33H348.353V173H355.213V222H347.303L338.063 186.23H337.923V222H331.063V173ZM358.906 173H366.676L371.716 211.01H371.856L376.896 173H383.966L376.546 222H366.326L358.906 173ZM394.735 201.14L385.425 173H393.615L398.865 190.99H399.005L404.255 173H411.745L402.435 201.14V222H394.735V201.14ZM408.72 214.58H416.14V222H408.72V214.58Z" fill="#000212"/>
<path d="M2.87 11H14.49C18.4567 11 21.35 11.9333 23.17 13.8C24.99 15.62 25.9 18.4433 25.9 22.27V24.23C25.9 26.75 25.48 28.8033 24.64 30.39C23.8467 31.9767 22.61 33.12 20.93 33.82V33.96C24.7567 35.2667 26.67 38.6733 26.67 44.18V48.38C26.67 52.16 25.6667 55.0533 23.66 57.06C21.7 59.02 18.8067 60 14.98 60H2.87V11ZM13.58 30.95C15.12 30.95 16.2633 30.5533 17.01 29.76C17.8033 28.9667 18.2 27.6367 18.2 25.77V23.04C18.2 21.2667 17.8733 19.9833 17.22 19.19C16.6133 18.3967 15.6333 18 14.28 18H10.57V30.95H13.58ZM14.98 53C16.3333 53 17.3367 52.65 17.99 51.95C18.6433 51.2033 18.97 49.9433 18.97 48.17V43.9C18.97 41.66 18.5733 40.12 17.78 39.28C17.0333 38.3933 15.7733 37.95 14 37.95H10.57V53H14.98ZM31.1708 11H52.1708V18H38.8708V30.95H49.4408V37.95H38.8708V53H52.1708V60H31.1708V11ZM73.8314 18H65.7814V11H89.5814V18H81.5314V60H73.8314V18ZM93.3095 11H101.009V30.95H109.269V11H116.969V60H109.269V37.95H101.009V60H93.3095V11ZM122.704 11H143.704V18H130.404V30.95H140.974V37.95H130.404V53H143.704V60H122.704V11ZM159.345 11H170.965C174.931 11 177.825 11.9333 179.645 13.8C181.465 15.62 182.375 18.4433 182.375 22.27V24.23C182.375 26.75 181.955 28.8033 181.115 30.39C180.321 31.9767 179.085 33.12 177.405 33.82V33.96C181.231 35.2667 183.145 38.6733 183.145 44.18V48.38C183.145 52.16 182.141 55.0533 180.135 57.06C178.175 59.02 175.281 60 171.455 60H159.345V11ZM170.055 30.95C171.595 30.95 172.738 30.5533 173.485 29.76C174.278 28.9667 174.675 27.6367 174.675 25.77V23.04C174.675 21.2667 174.348 19.9833 173.695 19.19C173.088 18.3967 172.108 18 170.755 18H167.045V30.95H170.055ZM171.455 53C172.808 53 173.811 52.65 174.465 51.95C175.118 51.2033 175.445 49.9433 175.445 48.17V43.9C175.445 41.66 175.048 40.12 174.255 39.28C173.508 38.3933 172.248 37.95 170.475 37.95H167.045V53H171.455ZM187.645 11H199.055C203.022 11 205.915 11.9333 207.735 13.8C209.555 15.62 210.465 18.4433 210.465 22.27V25.28C210.465 30.3667 208.785 33.5867 205.425 34.94V35.08C207.292 35.64 208.599 36.7833 209.345 38.51C210.139 40.2367 210.535 42.5467 210.535 45.44V54.05C210.535 55.45 210.582 56.5933 210.675 57.48C210.769 58.32 211.002 59.16 211.375 60H203.535C203.255 59.2067 203.069 58.46 202.975 57.76C202.882 57.06 202.835 55.8 202.835 53.98V45.02C202.835 42.78 202.462 41.2167 201.715 40.33C201.015 39.4433 199.779 39 198.005 39H195.345V60H187.645V11ZM198.145 32C199.685 32 200.829 31.6033 201.575 30.81C202.369 30.0167 202.765 28.6867 202.765 26.82V23.04C202.765 21.2667 202.439 19.9833 201.785 19.19C201.179 18.3967 200.199 18 198.845 18H195.345V32H198.145ZM221.828 11H232.258L240.238 60H232.538L231.138 50.27V50.41H222.388L220.988 60H213.848L221.828 11ZM230.228 43.76L226.798 19.54H226.658L223.298 43.76H230.228ZM243.974 11H253.634L261.124 40.33H261.264V11H268.124V60H260.214L250.974 24.23H250.834V60H243.974V11ZM273.847 11H285.607C289.433 11 292.303 12.0267 294.217 14.08C296.13 16.1333 297.087 19.1433 297.087 23.11V47.89C297.087 51.8567 296.13 54.8667 294.217 56.92C292.303 58.9733 289.433 60 285.607 60H273.847V11ZM285.467 53C286.727 53 287.683 52.6267 288.337 51.88C289.037 51.1333 289.387 49.92 289.387 48.24V22.76C289.387 21.08 289.037 19.8667 288.337 19.12C287.683 18.3733 286.727 18 285.467 18H281.547V53H285.467ZM319.515 18H311.465V11H335.265V18H327.215V60H319.515V18ZM338.993 11H346.693V30.95H354.953V11H362.653V60H354.953V37.95H346.693V60H338.993V11ZM374.338 11H384.768L392.748 60H385.048L383.648 50.27V50.41H374.898L373.498 60H366.358L374.338 11ZM382.738 43.76L379.308 19.54H379.168L375.808 43.76H382.738ZM399.29 18H391.24V11H415.04V18H406.99V60H399.29V18ZM13.72 138.7C10.0333 138.7 7.21 137.65 5.25 135.55C3.33667 133.45 2.38 130.487 2.38 126.66V100.34C2.38 96.5133 3.33667 93.55 5.25 91.45C7.21 89.35 10.0333 88.3 13.72 88.3C17.4067 88.3 20.2067 89.35 22.12 91.45C24.08 93.55 25.06 96.5133 25.06 100.34V105.52H17.78V99.85C17.78 96.8167 16.4967 95.3 13.93 95.3C11.3633 95.3 10.08 96.8167 10.08 99.85V127.22C10.08 130.207 11.3633 131.7 13.93 131.7C16.4967 131.7 17.78 130.207 17.78 127.22V119.73H25.06V126.66C25.06 130.487 24.08 133.45 22.12 135.55C20.2067 137.65 17.4067 138.7 13.72 138.7ZM40.8669 138.7C37.1335 138.7 34.2869 137.65 32.3269 135.55C30.3669 133.403 29.3869 130.347 29.3869 126.38V89H37.0869V126.94C37.0869 128.62 37.4135 129.833 38.0669 130.58C38.7669 131.327 39.7469 131.7 41.0069 131.7C42.2669 131.7 43.2235 131.327 43.8769 130.58C44.5769 129.833 44.9269 128.62 44.9269 126.94V89H52.3469V126.38C52.3469 130.347 51.3669 133.403 49.4069 135.55C47.4469 137.65 44.6002 138.7 40.8669 138.7ZM67.8409 138.7C64.1076 138.7 61.2843 137.65 59.3709 135.55C57.4576 133.403 56.5009 130.347 56.5009 126.38V123.58H63.7809V126.94C63.7809 130.113 65.1109 131.7 67.7709 131.7C69.0776 131.7 70.0576 131.327 70.7109 130.58C71.4109 129.787 71.7609 128.527 71.7609 126.8C71.7609 124.747 71.2943 122.95 70.3609 121.41C69.4276 119.823 67.7009 117.933 65.1809 115.74C62.0076 112.94 59.7909 110.42 58.5309 108.18C57.2709 105.893 56.6409 103.327 56.6409 100.48C56.6409 96.6067 57.6209 93.62 59.5809 91.52C61.5409 89.3733 64.3876 88.3 68.1209 88.3C71.8076 88.3 74.5843 89.3733 76.4509 91.52C78.3643 93.62 79.3209 96.6533 79.3209 100.62V102.65H72.0409V100.13C72.0409 98.45 71.7143 97.2367 71.0609 96.49C70.4076 95.6967 69.4509 95.3 68.1909 95.3C65.6243 95.3 64.3409 96.8633 64.3409 99.99C64.3409 101.763 64.8076 103.42 65.7409 104.96C66.7209 106.5 68.4709 108.367 70.9909 110.56C74.2109 113.36 76.4276 115.903 77.6409 118.19C78.8543 120.477 79.4609 123.16 79.4609 126.24C79.4609 130.253 78.4576 133.333 76.4509 135.48C74.4909 137.627 71.6209 138.7 67.8409 138.7ZM89.8959 96H81.8459V89H105.646V96H97.5959V138H89.8959V96ZM120.23 138.7C116.45 138.7 113.557 137.627 111.55 135.48C109.544 133.333 108.54 130.3 108.54 126.38V100.62C108.54 96.7 109.544 93.6667 111.55 91.52C113.557 89.3733 116.45 88.3 120.23 88.3C124.01 88.3 126.904 89.3733 128.91 91.52C130.917 93.6667 131.92 96.7 131.92 100.62V126.38C131.92 130.3 130.917 133.333 128.91 135.48C126.904 137.627 124.01 138.7 120.23 138.7ZM120.23 131.7C122.89 131.7 124.22 130.09 124.22 126.87V100.13C124.22 96.91 122.89 95.3 120.23 95.3C117.57 95.3 116.24 96.91 116.24 100.13V126.87C116.24 130.09 117.57 131.7 120.23 131.7ZM137.128 89H148.118L153.018 124.07H153.158L158.058 89H169.048V138H161.768V100.9H161.628L156.028 138H149.588L143.988 100.9H143.848V138H137.128V89ZM174.794 89H195.794V96H182.494V108.95H193.064V115.95H182.494V131H195.794V138H174.794V89ZM200.224 89H211.634C215.6 89 218.494 89.9333 220.314 91.8C222.134 93.62 223.044 96.4433 223.044 100.27V103.28C223.044 108.367 221.364 111.587 218.004 112.94V113.08C219.87 113.64 221.177 114.783 221.924 116.51C222.717 118.237 223.114 120.547 223.114 123.44V132.05C223.114 133.45 223.16 134.593 223.254 135.48C223.347 136.32 223.58 137.16 223.954 138H216.114C215.834 137.207 215.647 136.46 215.554 135.76C215.46 135.06 215.414 133.8 215.414 131.98V123.02C215.414 120.78 215.04 119.217 214.294 118.33C213.594 117.443 212.357 117 210.584 117H207.924V138H200.224V89ZM210.724 110C212.264 110 213.407 109.603 214.154 108.81C214.947 108.017 215.344 106.687 215.344 104.82V101.04C215.344 99.2667 215.017 97.9833 214.364 97.19C213.757 96.3967 212.777 96 211.424 96H207.924V110H210.724ZM238.466 138.7C234.733 138.7 231.909 137.65 229.996 135.55C228.083 133.403 227.126 130.347 227.126 126.38V123.58H234.406V126.94C234.406 130.113 235.736 131.7 238.396 131.7C239.703 131.7 240.683 131.327 241.336 130.58C242.036 129.787 242.386 128.527 242.386 126.8C242.386 124.747 241.919 122.95 240.986 121.41C240.053 119.823 238.326 117.933 235.806 115.74C232.633 112.94 230.416 110.42 229.156 108.18C227.896 105.893 227.266 103.327 227.266 100.48C227.266 96.6067 228.246 93.62 230.206 91.52C232.166 89.3733 235.013 88.3 238.746 88.3C242.433 88.3 245.209 89.3733 247.076 91.52C248.989 93.62 249.946 96.6533 249.946 100.62V102.65H242.666V100.13C242.666 98.45 242.339 97.2367 241.686 96.49C241.033 95.6967 240.076 95.3 238.816 95.3C236.249 95.3 234.966 96.8633 234.966 99.99C234.966 101.763 235.433 103.42 236.366 104.96C237.346 106.5 239.096 108.367 241.616 110.56C244.836 113.36 247.053 115.903 248.266 118.19C249.479 120.477 250.086 123.16 250.086 126.24C250.086 130.253 249.083 133.333 247.076 135.48C245.116 137.627 242.246 138.7 238.466 138.7ZM263.892 89H271.312L274.742 126.66H274.882L278.522 89H286.922L290.562 126.66H290.702L294.132 89H300.782L295.812 138H286.222L282.722 104.96H282.582L279.082 138H268.862L263.892 89ZM309.67 89H320.1L328.08 138H320.38L318.98 128.27V128.41H310.23L308.83 138H301.69L309.67 89ZM318.07 121.76L314.64 97.54H314.5L311.14 121.76H318.07ZM331.815 89H341.475L348.965 118.33H349.105V89H355.965V138H348.055L338.815 102.23H338.675V138H331.815V89ZM367.708 96H359.658V89H383.458V96H375.408V138H367.708V96ZM406.447 138.7C403.647 138.7 401.524 137.743 400.077 135.83C398.631 133.917 397.907 131.14 397.907 127.5V122.39C397.907 119.823 398.351 117.677 399.237 115.95C400.124 114.223 401.571 112.963 403.577 112.17V112.03C401.757 111.283 400.404 110.093 399.517 108.46C398.677 106.78 398.257 104.633 398.257 102.02V101.11C398.257 97.1433 399.214 94.1333 401.127 92.08C403.041 90.0267 405.911 89 409.737 89H418.557V96H409.877C408.617 96 407.637 96.3733 406.937 97.12C406.284 97.8667 405.957 99.08 405.957 100.76V103.77C405.957 105.637 406.331 106.967 407.077 107.76C407.871 108.553 409.037 108.95 410.577 108.95H413.587V103.49H421.147V108.95H423.317V115.95H421.147V132.05C421.147 133.45 421.194 134.593 421.287 135.48C421.381 136.32 421.614 137.16 421.987 138H414.287C413.914 136.973 413.681 135.69 413.587 134.15H413.447C412.607 135.69 411.627 136.833 410.507 137.58C409.434 138.327 408.081 138.7 406.447 138.7ZM409.317 131.7C411.744 131.7 413.167 130.23 413.587 127.29V115.95H410.647C408.874 115.95 407.591 116.44 406.797 117.42C406.004 118.353 405.607 119.94 405.607 122.18V127.15C405.607 128.783 405.934 129.95 406.587 130.65C407.241 131.35 408.151 131.7 409.317 131.7ZM13.72 216.7C10.0333 216.7 7.21 215.65 5.25 213.55C3.33667 211.45 2.38 208.487 2.38 204.66V178.34C2.38 174.513 3.33667 171.55 5.25 169.45C7.21 167.35 10.0333 166.3 13.72 166.3C17.4067 166.3 20.2067 167.35 22.12 169.45C24.08 171.55 25.06 174.513 25.06 178.34V183.52H17.78V177.85C17.78 174.817 16.4967 173.3 13.93 173.3C11.3633 173.3 10.08 174.817 10.08 177.85V205.22C10.08 208.207 11.3633 209.7 13.93 209.7C16.4967 209.7 17.78 208.207 17.78 205.22V197.73H25.06V204.66C25.06 208.487 24.08 211.45 22.12 213.55C20.2067 215.65 17.4067 216.7 13.72 216.7ZM40.9336 216.7C37.1536 216.7 34.2603 215.627 32.2536 213.48C30.2469 211.333 29.2436 208.3 29.2436 204.38V178.62C29.2436 174.7 30.2469 171.667 32.2536 169.52C34.2603 167.373 37.1536 166.3 40.9336 166.3C44.7136 166.3 47.6069 167.373 49.6136 169.52C51.6203 171.667 52.6236 174.7 52.6236 178.62V204.38C52.6236 208.3 51.6203 211.333 49.6136 213.48C47.6069 215.627 44.7136 216.7 40.9336 216.7ZM40.9336 209.7C43.5936 209.7 44.9236 208.09 44.9236 204.87V178.13C44.9236 174.91 43.5936 173.3 40.9336 173.3C38.2736 173.3 36.9436 174.91 36.9436 178.13V204.87C36.9436 208.09 38.2736 209.7 40.9336 209.7ZM57.8309 167H68.8209L73.7209 202.07H73.8609L78.7609 167H89.7509V216H82.4709V178.9H82.3309L76.7309 216H70.2909L64.6909 178.9H64.5509V216H57.8309V167ZM95.497 167H106.837C110.664 167 113.534 168.027 115.447 170.08C117.36 172.133 118.317 175.143 118.317 179.11V183.94C118.317 187.907 117.36 190.917 115.447 192.97C113.534 195.023 110.664 196.05 106.837 196.05H103.197V216H95.497V167ZM106.837 189.05C108.097 189.05 109.03 188.7 109.637 188C110.29 187.3 110.617 186.11 110.617 184.43V178.62C110.617 176.94 110.29 175.75 109.637 175.05C109.03 174.35 108.097 174 106.837 174H103.197V189.05H106.837ZM122.499 167H143.499V174H130.199V186.95H140.769V193.95H130.199V209H143.499V216H122.499V167ZM153.949 174H145.899V167H169.699V174H161.649V216H153.949V174ZM173.427 167H181.127V216H173.427V167ZM192.913 174H184.863V167H208.663V174H200.613V216H192.913V174ZM223.248 216.7C219.468 216.7 216.575 215.627 214.568 213.48C212.561 211.333 211.558 208.3 211.558 204.38V178.62C211.558 174.7 212.561 171.667 214.568 169.52C216.575 167.373 219.468 166.3 223.248 166.3C227.028 166.3 229.921 167.373 231.928 169.52C233.935 171.667 234.938 174.7 234.938 178.62V204.38C234.938 208.3 233.935 211.333 231.928 213.48C229.921 215.627 227.028 216.7 223.248 216.7ZM223.248 209.7C225.908 209.7 227.238 208.09 227.238 204.87V178.13C227.238 174.91 225.908 173.3 223.248 173.3C220.588 173.3 219.258 174.91 219.258 178.13V204.87C219.258 208.09 220.588 209.7 223.248 209.7ZM240.145 167H251.555C255.522 167 258.415 167.933 260.235 169.8C262.055 171.62 262.965 174.443 262.965 178.27V181.28C262.965 186.367 261.285 189.587 257.925 190.94V191.08C259.792 191.64 261.099 192.783 261.845 194.51C262.639 196.237 263.035 198.547 263.035 201.44V210.05C263.035 211.45 263.082 212.593 263.175 213.48C263.269 214.32 263.502 215.16 263.875 216H256.035C255.755 215.207 255.569 214.46 255.475 213.76C255.382 213.06 255.335 211.8 255.335 209.98V201.02C255.335 198.78 254.962 197.217 254.215 196.33C253.515 195.443 252.279 195 250.505 195H247.845V216H240.145V167ZM250.645 188C252.185 188 253.329 187.603 254.075 186.81C254.869 186.017 255.265 184.687 255.265 182.82V179.04C255.265 177.267 254.939 175.983 254.285 175.19C253.679 174.397 252.699 174 251.345 174H247.845V188H250.645ZM278.388 216.7C274.654 216.7 271.831 215.65 269.918 213.55C268.004 211.403 267.048 208.347 267.048 204.38V201.58H274.328V204.94C274.328 208.113 275.658 209.7 278.318 209.7C279.624 209.7 280.604 209.327 281.258 208.58C281.958 207.787 282.308 206.527 282.308 204.8C282.308 202.747 281.841 200.95 280.908 199.41C279.974 197.823 278.248 195.933 275.728 193.74C272.554 190.94 270.338 188.42 269.078 186.18C267.818 183.893 267.188 181.327 267.188 178.48C267.188 174.607 268.168 171.62 270.128 169.52C272.088 167.373 274.934 166.3 278.668 166.3C282.354 166.3 285.131 167.373 286.998 169.52C288.911 171.62 289.868 174.653 289.868 178.62V180.65H282.588V178.13C282.588 176.45 282.261 175.237 281.608 174.49C280.954 173.697 279.998 173.3 278.738 173.3C276.171 173.3 274.888 174.863 274.888 177.99C274.888 179.763 275.354 181.42 276.288 182.96C277.268 184.5 279.018 186.367 281.538 188.56C284.758 191.36 286.974 193.903 288.188 196.19C289.401 198.477 290.008 201.16 290.008 204.24C290.008 208.253 289.004 211.333 286.998 213.48C285.038 215.627 282.168 216.7 278.388 216.7ZM305.634 167H326.634V174H313.334V186.95H323.904V193.95H313.334V209H326.634V216H305.634V167ZM331.063 167H340.723L348.213 196.33H348.353V167H355.213V216H347.303L338.063 180.23H337.923V216H331.063V167ZM358.906 167H366.676L371.716 205.01H371.856L376.896 167H383.966L376.546 216H366.326L358.906 167ZM394.735 195.14L385.425 167H393.615L398.865 184.99H399.005L404.255 167H411.745L402.435 195.14V216H394.735V195.14ZM408.72 208.58H416.14V216H408.72V208.58Z" fill="white"/>
</svg>
