<svg width="50" height="50" viewBox="0 0 50 50" fill="none" xmlns="http://www.w3.org/2000/svg">
<path d="M40.5144 44.7146C39.4821 45.4522 38.2726 45.8334 36.9151 45.8334C35.5304 45.8334 33.9811 45.4355 32.3003 44.6709C23.1436 40.854 9.01767 26.7408 5.33082 17.6945C3.78351 14.3214 3.78351 11.5525 5.30163 9.4753C5.65613 8.91277 7.04078 7.20643 8.75283 5.90845C8.82582 6.42514 18.9271 18.7549 18.9271 18.5487C18.9417 18.7716 18.9855 18.9904 19.0731 19.2279C21.3294 24.7219 25.2811 28.67 30.826 30.9389C31.047 31.0139 31.2389 31.0556 31.4453 31.0556L31.4599 31.0723C31.9312 31.6327 43.9343 41.4436 44.0969 41.2228C42.7394 43.0208 40.971 44.4625 40.5144 44.7146Z" fill="white"/>
<path opacity="0.4" d="M18.9271 18.5372C18.8854 17.7434 19.2879 17.0455 19.7362 16.2642C20.293 15.2995 20.9228 14.2057 20.6371 12.8244C20.3764 11.5806 16.3955 6.57826 15.209 5.41986C14.427 4.65941 13.6262 4.23855 12.8046 4.1698C11.4825 4.11146 10.0249 4.89692 8.74449 5.88864C8.5297 6.05531 18.9375 18.7539 18.9271 18.5372Z" fill="white"/>
<path opacity="0.4" d="M31.4482 31.0481C32.2427 31.0877 32.9413 30.6856 33.7212 30.2377C34.6867 29.6835 35.7836 29.0522 37.1662 29.3397C38.4111 29.6001 43.418 33.5774 44.5774 34.7608C45.3406 35.5421 45.7598 36.3422 45.8307 37.163C45.8849 38.4839 45.1008 39.9423 44.1082 41.2216C43.9414 41.4362 31.2313 31.0356 31.4482 31.0481Z" fill="white"/>
</svg>
