<svg width="132" height="132" viewBox="0 0 132 132" fill="none" xmlns="http://www.w3.org/2000/svg">
<path d="M30.6376 65.652C38.763 65.652 46.5562 62.4242 52.3018 56.6785C58.0475 50.9329 61.2753 43.1397 61.2753 35.0144C61.2753 26.889 58.0475 19.0958 52.3018 13.3502C46.5562 7.60454 38.763 4.37671 30.6376 4.37671C22.5123 4.37671 14.7191 7.60454 8.97345 13.3502C3.22783 19.0958 0 26.889 0 35.0144C0.00879263 43.137 3.23959 50.9252 8.98321 56.6688C14.7268 62.4124 22.515 65.6432 30.6376 65.652ZM30.6376 8.75352C37.6025 8.75352 44.282 11.5202 49.2068 16.4452C54.1316 21.3702 56.8985 28.0495 56.8985 35.0144C56.8985 41.9792 54.1318 48.6587 49.2068 53.5835C44.2818 58.5083 37.6025 61.2752 30.6376 61.2752C23.6728 61.2752 16.9933 58.5086 12.0685 53.5835C7.1437 48.6585 4.37681 41.9792 4.37681 35.0144C4.38462 28.0515 7.15345 21.377 12.0762 16.4529C17.0003 11.5299 23.6748 8.76127 30.6376 8.75352V8.75352Z" fill="white"/>
<path d="M30.6376 52.5216C35.2793 52.5167 39.7293 50.6703 43.011 47.3878C46.2936 44.1062 48.1401 39.6561 48.1448 35.0144H43.768C43.768 39.7058 41.265 44.0406 37.2028 46.3853C33.1406 48.731 28.1346 48.731 24.0724 46.3853C20.0102 44.0406 17.5072 39.7058 17.5072 35.0144H13.1304C13.1353 39.6561 14.9817 44.1062 18.2642 47.3878C21.5458 50.6704 25.9959 52.5169 30.6376 52.5216Z" fill="white"/>
<path d="M37.2031 21.884H45.9567V26.2608H37.2031V21.884Z" fill="white"/>
<path d="M15.3188 21.884H24.0725V26.2608H15.3188V21.884Z" fill="white"/>
<path d="M100.666 70.0288C92.5411 70.0288 84.7479 73.2566 79.0023 79.0023C73.2566 84.7479 70.0288 92.5411 70.0288 100.666C70.0288 108.792 73.2566 116.585 79.0023 122.331C84.7479 128.076 92.5411 131.304 100.666 131.304C108.792 131.304 116.585 128.076 122.331 122.331C128.076 116.585 131.304 108.792 131.304 100.666C131.295 92.5439 128.065 84.7556 122.321 79.012C116.577 73.2684 108.789 70.0376 100.666 70.0288ZM100.666 126.927C93.7016 126.927 87.0221 124.161 82.0973 119.236C77.1725 114.311 74.4056 107.631 74.4056 100.666C74.4056 93.7016 77.1723 87.0221 82.0973 82.0973C87.0223 77.1725 93.7016 74.4056 100.666 74.4056C107.631 74.4056 114.311 77.1723 119.236 82.0973C124.16 87.0223 126.927 93.7016 126.927 100.666C126.919 107.629 124.151 114.304 119.228 119.228C114.304 124.151 107.629 126.92 100.666 126.927Z" fill="white"/>
<path d="M100.666 98.478C96.0247 98.4829 91.5747 100.329 88.2931 103.612C85.0104 106.894 83.1639 111.344 83.1592 115.985H87.536C87.536 111.294 90.039 106.959 94.1012 104.614C98.1634 102.269 103.169 102.269 107.232 104.614C111.294 106.959 113.797 111.294 113.797 115.985H118.174C118.169 111.344 116.322 106.894 113.04 103.612C109.758 100.329 105.308 98.4828 100.666 98.478V98.478Z" fill="white"/>
<path d="M107.232 87.5361H115.986V91.9129H107.232V87.5361Z" fill="white"/>
<path d="M85.3477 87.5361H94.1013V91.9129H85.3477V87.5361Z" fill="white"/>
<path d="M124.739 0H72.2172C70.4763 0 68.8056 0.691685 67.5748 1.92267C66.3441 3.15365 65.6521 4.82437 65.6521 6.56508V30.2173L61.4307 40.7677C61.1053 41.5805 61.2958 42.5096 61.9152 43.128C62.5337 43.7475 63.4627 43.938 64.2756 43.6126L74.8259 39.3911H124.739C126.48 39.3911 128.151 38.6994 129.381 37.4685C130.612 36.2375 131.304 34.5668 131.304 32.826V6.56521C131.304 4.82427 130.612 3.15355 129.381 1.92279C128.15 0.692035 126.48 0.000124983 124.739 0.000124983L124.739 0ZM126.927 32.826C126.927 33.4064 126.697 33.9632 126.286 34.3736C125.876 34.7839 125.319 35.0144 124.739 35.0144H74.4056C74.1272 35.0144 73.8517 35.0672 73.5938 35.1698L67.4027 37.6405L69.8842 31.4387C69.9819 31.1828 70.0308 30.9112 70.0288 30.6376V6.56518C70.0288 5.35668 71.0087 4.37678 72.2172 4.37678H124.739C125.319 4.37678 125.876 4.60734 126.286 5.01767C126.697 5.42799 126.927 5.98487 126.927 6.56518L126.927 32.826Z" fill="white"/>
<path d="M76.5942 10.9421H96.2899V15.3189H76.5942V10.9421Z" fill="white"/>
<path d="M98.478 10.9421H118.174V15.3189H98.478V10.9421Z" fill="white"/>
<path d="M76.5942 17.5071H100.667V21.8839H76.5942V17.5071Z" fill="white"/>
<path d="M102.855 17.5071H122.551V21.8839H102.855V17.5071Z" fill="white"/>
<path d="M76.5942 24.0725H94.1015V28.4493H76.5942V24.0725Z" fill="white"/>
<path d="M96.2896 24.0725H122.55V28.4493H96.2896V24.0725Z" fill="white"/>
<path d="M65.6523 100.246V76.5941C65.6523 74.8532 64.9606 73.1825 63.7297 71.9517C62.4987 70.721 60.828 70.0291 59.0872 70.0291H6.56557C4.82463 70.0291 3.15391 70.7207 1.92316 71.9517C0.692399 73.1827 0.000488281 74.8534 0.000488281 76.5941V102.855C0.000488281 104.596 0.692174 106.267 1.92316 107.497C3.15414 108.728 4.82486 109.42 6.56557 109.42H56.4787L67.029 113.642C67.8419 113.967 68.7709 113.776 69.3894 113.157C70.0088 112.539 70.1993 111.609 69.8739 110.797L65.6523 100.246ZM57.7106 105.199C57.4526 105.096 57.1771 105.043 56.8987 105.043H6.56542C5.35692 105.043 4.37702 104.063 4.37702 102.855V76.5941C4.37702 75.3856 5.35692 74.4057 6.56542 74.4057H59.0871C59.6674 74.4057 60.2243 74.6363 60.6346 75.0466C61.0449 75.4569 61.2755 76.0138 61.2755 76.5941V100.667C61.2755 100.945 61.3283 101.22 61.4308 101.478L63.9123 107.68L57.7106 105.199Z" fill="white"/>
<path d="M35.0146 80.9709H54.7103V85.3478H35.0146V80.9709Z" fill="white"/>
<path d="M13.1304 80.9709H32.826V85.3478H13.1304V80.9709Z" fill="white"/>
<path d="M30.6377 87.5361H54.7101V91.9129H30.6377V87.5361Z" fill="white"/>
<path d="M8.75342 87.5361H28.449V91.9129H8.75342V87.5361Z" fill="white"/>
<path d="M37.2031 94.1013H54.7104V98.4781H37.2031V94.1013Z" fill="white"/>
<path d="M8.75342 94.1013H35.0143V98.4781H8.75342V94.1013Z" fill="white"/>
</svg>
