<svg width="135" height="135" viewBox="0 0 135 135" fill="none" xmlns="http://www.w3.org/2000/svg">
<path d="M100.679 93.0269L80.4018 88.0684L69.3367 70.6851C68.911 70.0941 68.2276 69.7441 67.4995 69.7441C66.7715 69.7441 66.0881 70.0941 65.6623 70.6851L54.5973 88.0684L34.3202 93.0269C33.5863 93.2067 32.9972 93.756 32.7659 94.4753C32.5345 95.1956 32.692 95.9839 33.1838 96.5584L46.6002 112.243L45.1412 132.666C45.0887 133.414 45.4231 134.135 46.0267 134.579C46.6313 135.021 47.4207 135.122 48.1166 134.847L67.4997 127.158L86.8827 134.847C87.1383 134.947 87.4105 134.999 87.6856 134.999C88.2902 134.999 88.8667 134.748 89.2788 134.305C89.691 133.863 89.9009 133.27 89.8572 132.666L88.3981 112.243L101.815 96.5584H101.815C102.306 95.9839 102.465 95.1956 102.233 94.4753C102.002 93.756 101.413 93.2067 100.679 93.0269H100.679ZM84.5087 110.091C84.1364 110.527 83.9508 111.091 83.9906 111.662L85.267 129.52L68.3025 122.79V122.79C67.7863 122.585 67.2128 122.585 66.6966 122.79L49.7322 129.519L51.0085 111.661V111.662C51.0484 111.091 50.8627 110.527 50.4904 110.091L38.7935 96.4165L56.4832 92.0917V92.0908C57.0275 91.9576 57.5009 91.6184 57.8023 91.1449L67.4996 75.9097L77.197 91.1449C77.4983 91.6183 77.9717 91.9576 78.517 92.0908L96.2066 96.4155L84.5087 110.091Z" fill="white"/>
<path d="M117.58 17.4194C112.96 17.4194 108.53 19.2547 105.264 22.5218C101.996 25.7879 100.161 30.2187 100.161 34.8388C100.161 39.4589 101.996 43.8896 105.264 47.1558C108.53 50.4229 112.96 52.2582 117.58 52.2582C122.201 52.2582 126.631 50.4229 129.897 47.1558C133.165 43.8896 135 39.4589 135 34.8388C134.995 30.2204 133.158 25.7927 129.892 22.5275C126.627 19.2614 122.199 17.4242 117.58 17.4194ZM109.96 45.4273V43.5473C109.96 42.3925 110.42 41.2863 111.237 40.4698C112.053 39.6533 113.16 39.1935 114.314 39.1925H120.847C122.001 39.1935 123.108 39.6533 123.924 40.4698C124.741 41.2863 125.2 42.3925 125.201 43.5473V45.4273C122.986 47.036 120.318 47.9021 117.58 47.9021C114.843 47.9021 112.175 47.036 109.959 45.4273H109.96ZM114.314 31.5714C114.314 30.2504 115.11 29.0595 116.33 28.5541C117.551 28.0487 118.956 28.3276 119.89 29.2618C120.824 30.196 121.103 31.6006 120.598 32.8216C120.092 34.0415 118.902 34.8377 117.581 34.8377C115.777 34.8357 114.316 33.3747 114.314 31.5715L114.314 31.5714ZM129.118 40.9527C128.343 38.4681 126.499 36.4598 124.089 35.4781C124.811 34.3019 125.195 32.9508 125.201 31.5714C125.201 28.8488 123.749 26.3329 121.391 24.9712C119.033 23.6103 116.128 23.6103 113.77 24.9712C111.412 26.3331 109.96 28.8488 109.96 31.5714C109.967 32.9508 110.35 34.302 111.072 35.4781C108.662 36.4599 106.818 38.4682 106.043 40.9527C103.892 36.904 104.02 32.0223 106.384 28.0923C108.746 24.1622 112.995 21.7583 117.581 21.7583C122.166 21.7583 126.416 24.1623 128.778 28.0923C131.141 32.0223 131.269 36.904 129.118 40.9527H129.118Z" fill="white"/>
<path d="M34.8387 34.8388C34.8387 30.2187 33.0035 25.7879 29.7363 22.5218C26.4702 19.2547 22.0395 17.4194 17.4194 17.4194C12.7992 17.4194 8.36851 19.2547 5.10238 22.5218C1.83525 25.7879 0 30.2187 0 34.8388C0 39.4589 1.83525 43.8896 5.10238 47.1558C8.36851 50.4229 12.7992 52.2582 17.4194 52.2582C22.0377 52.2533 26.4655 50.4161 29.7306 47.1501C32.9967 43.8849 34.834 39.4572 34.8387 34.8388ZM9.79963 45.4285V43.5485C9.80061 42.3937 10.2604 41.2875 11.0769 40.471C11.8934 39.6545 12.9997 39.1947 14.1544 39.1938H20.6867C21.8415 39.1947 22.9477 39.6545 23.7642 40.471C24.5807 41.2876 25.0405 42.3938 25.0415 43.5485V45.4285C22.8262 47.0373 20.1578 47.9034 17.4205 47.9034C14.6832 47.9034 12.0148 47.0373 9.79953 45.4285H9.79963ZM14.1545 31.5727C14.1545 30.2516 14.9506 29.0608 16.1705 28.5554C17.3914 28.0499 18.7961 28.3289 19.7303 29.2631C20.6645 30.1972 20.9434 31.6018 20.438 32.8228C19.9325 34.0428 18.7417 34.8389 17.4207 34.8389C15.6175 34.8369 14.1566 33.3759 14.1546 31.5728L14.1545 31.5727ZM4.35608 34.8388C4.35122 30.8164 6.2001 27.0155 9.36813 24.537C12.5352 22.0573 16.6683 21.1745 20.572 22.1457C24.4759 23.1158 27.7147 25.8309 29.3526 29.5041C30.9905 33.1786 30.8447 37.4021 28.958 40.9541C28.1832 38.4695 26.3393 36.4612 23.9295 35.4795C24.6508 34.3033 25.0347 32.9522 25.0415 31.5728C25.0415 28.8502 23.5893 26.3343 21.2312 24.9726C18.873 23.6117 15.9686 23.6117 13.6102 24.9726C11.252 26.3345 9.79986 28.8502 9.79986 31.5728C9.80666 32.9522 10.1906 34.3034 10.9119 35.4795C8.50217 36.4613 6.6581 38.4696 5.88344 40.9541C4.88028 39.0722 4.35536 36.9716 4.35633 34.8389L4.35608 34.8388Z" fill="white"/>
<path d="M67.4999 34.8387C72.12 34.8387 76.5508 33.0035 79.8169 29.7363C83.084 26.4702 84.9193 22.0395 84.9193 17.4194C84.9193 12.7992 83.084 8.36851 79.8169 5.10238C76.5508 1.83525 72.12 0 67.4999 0C62.8798 0 58.4491 1.83525 55.1829 5.10238C51.9158 8.36851 50.0806 12.7992 50.0806 17.4194C50.0854 22.0377 51.9226 26.4655 55.1887 29.7306C58.4538 32.9967 62.8816 34.834 67.4999 34.8387ZM59.879 28.0091V26.1291C59.8799 24.9743 60.3397 23.8681 61.1562 23.0516C61.9728 22.2351 63.079 21.7753 64.2337 21.7743H70.766C71.9208 21.7753 73.027 22.2351 73.8435 23.0516C74.66 23.8681 75.1198 24.9744 75.1208 26.1291V28.0091C72.9055 29.6178 70.2372 30.484 67.4998 30.484C64.7625 30.484 62.0941 29.6178 59.8789 28.0091H59.879ZM64.2338 14.1532C64.2338 12.8322 65.0299 11.6414 66.2499 11.1359C67.4708 10.6305 68.8755 10.9095 69.8096 11.8436C70.7438 12.7778 71.0228 14.1824 70.5173 15.4034C70.0118 16.6233 68.8211 17.4195 67.5 17.4195C65.6968 17.4175 64.2359 15.9565 64.2339 14.1533L64.2338 14.1532ZM67.4999 4.35484C72.0842 4.35095 76.334 6.75097 78.6971 10.6791C81.0592 14.6071 81.1886 19.487 79.0373 23.5345C78.2626 21.05 76.4187 19.0416 74.0088 18.0599C74.7301 16.8837 75.1141 15.5326 75.1209 14.1532C75.1209 11.4306 73.6686 8.91473 71.3105 7.55303C68.9523 6.19213 66.0479 6.19213 63.6896 7.55303C61.3313 8.9149 59.8792 11.4306 59.8792 14.1532C59.886 15.5326 60.27 16.8838 60.9913 18.0599C58.5815 19.0417 56.7374 21.0501 55.9628 23.5345C53.8116 19.4868 53.9409 14.6071 56.303 10.6791C58.6661 6.751 62.9159 4.35086 67.5002 4.35484H67.4999Z" fill="white"/>
<path d="M80.7339 66.9402L79.479 71.1124V71.1114C87.2214 73.4443 94.1055 78.0052 99.2721 84.2254L102.616 81.4356H102.615C96.9034 74.5592 89.2931 69.517 80.734 66.9402L80.7339 66.9402Z" fill="white"/>
<path d="M83.3518 56.374L82.1357 60.5549L82.1348 60.5539C92.6526 63.5956 101.937 69.8887 108.659 78.5312L112.092 75.8511C104.809 66.4872 94.7484 59.6683 83.3524 56.3738L83.3518 56.374Z" fill="white"/>
<path d="M85.9696 45.8079L84.7827 49.9965V49.9975C98.0523 53.7981 109.72 61.8245 118.016 72.8574L121.499 70.2415L121.5 70.2425C112.631 58.4483 100.157 49.8701 85.9697 45.8079L85.9696 45.8079Z" fill="white"/>
<path d="M55.0624 71.1107L53.8075 66.9385L53.8085 66.9394C45.2486 69.5163 37.6383 74.5584 31.9263 81.4348L35.2703 84.2247C40.4369 78.0045 47.321 73.4436 55.0624 71.1106L55.0624 71.1107Z" fill="white"/>
<path d="M51.1931 56.374C39.7966 59.6683 29.7357 66.4865 22.4536 75.8514L25.886 78.5305V78.5314C32.6069 69.8889 41.8909 63.5956 52.4082 60.5551L51.1931 56.374Z" fill="white"/>
<path d="M49.7599 49.9987L48.573 45.8101V45.8091C34.3867 49.8713 21.9114 58.4498 13.0425 70.2437L16.5254 72.8596C24.8209 61.8257 36.4887 53.7993 49.759 49.9987L49.7599 49.9987Z" fill="white"/>
<path d="M73.5346 100.408C74.5573 99.0914 75.1152 97.4739 75.1211 95.8069C75.1211 93.0843 73.6688 90.5684 71.3107 89.2067C68.9525 87.8458 66.0481 87.8458 63.6897 89.2067C61.3315 90.5686 59.8794 93.0843 59.8794 95.8069C59.8852 97.474 60.4432 99.0914 61.4658 100.408C60.0786 100.776 58.8509 101.591 57.9732 102.728C57.0954 103.864 56.6181 105.258 56.6133 106.694V117.581C56.6133 118.159 56.8427 118.713 57.251 119.121C57.6592 119.529 58.2133 119.759 58.7907 119.759H76.2101C76.7875 119.759 77.3415 119.529 77.7498 119.121C78.1581 118.713 78.3875 118.159 78.3875 117.581V106.694C78.3826 105.258 77.9053 103.864 77.0276 102.728C76.1498 101.591 74.9221 100.776 73.535 100.408H73.5346ZM67.5001 92.5408C68.8211 92.5408 70.012 93.3369 70.5174 94.5568C71.0228 95.7777 70.7439 97.1824 69.8097 98.1166C68.8755 99.0508 67.4709 99.3297 66.2499 98.8243C65.03 98.3188 64.2339 97.128 64.2339 95.807C64.2358 94.0038 65.6968 92.5429 67.5 92.5409L67.5001 92.5408ZM74.0323 115.404H60.9678V106.694C60.9688 105.492 61.9428 104.518 63.1452 104.517H71.8549C73.0574 104.518 74.0314 105.492 74.0323 106.694V115.404Z" fill="white"/>
</svg>
