<?xml version="1.0" encoding="UTF-8"?>
<svg width="1200pt" height="1200pt" version="1.1" viewBox="0 0 1200 1200" xmlns="http://www.w3.org/2000/svg">
 <path d="m600 0.035156c330.86 0 600 269.14 600 599.96s-269.14 599.96-600 599.96c-330.84 0-600-269.14-600-599.96s269.16-599.96 600-599.96zm164.41 364.57-164.41 164.41-164.41-164.42c-19.594-19.598-51.375-19.617-70.988 0-19.594 19.594-19.594 51.391 0 70.984l164.41 164.43-164.43 164.41c-19.598 19.613-19.598 51.391 0 70.988 19.629 19.629 51.391 19.613 71.004 0.015624l164.41-164.43 164.41 164.41c19.598 19.594 51.391 19.613 70.988 0.015624 19.629-19.629 19.594-51.41 0-71.004l-164.41-164.41 164.41-164.41c19.594-19.578 19.629-51.375 0-70.988-19.598-19.613-51.391-19.598-70.988 0z" fill-rule="evenodd"/>
</svg>
