<svg width="313" height="353" viewBox="0 0 313 353" fill="none" xmlns="http://www.w3.org/2000/svg">
<path d="M113.797 281.819C127.195 287.383 141.565 290.229 156.073 290.189C183.055 290.208 209.105 280.318 229.278 262.399C249.451 244.479 262.342 219.776 265.504 192.979C265.519 192.848 265.482 192.716 265.4 192.613C265.318 192.509 265.199 192.442 265.067 192.427C264.936 192.411 264.804 192.449 264.701 192.53C264.597 192.612 264.53 192.732 264.515 192.863C262.099 213.236 253.992 232.517 241.123 248.495C228.254 264.473 211.144 276.502 191.753 283.204C172.363 289.906 151.477 291.009 131.488 286.388C111.499 281.766 93.2169 271.607 78.7362 257.073C78.6429 256.98 78.5162 256.927 78.3841 256.927C78.252 256.926 78.1252 256.979 78.0315 257.072C77.9379 257.165 77.8852 257.292 77.8849 257.424C77.8847 257.556 77.9369 257.683 78.0302 257.777H78.0302C88.2411 268.082 100.399 276.255 113.797 281.819Z" fill="white" stroke="white" stroke-width="0.3"/>
<path d="M261.125 150.146L261.126 150.148C261.163 150.275 261.25 150.381 261.366 150.445C261.482 150.508 261.619 150.522 261.746 150.485L261.703 150.341L261.746 150.485C261.872 150.447 261.979 150.361 262.042 150.245C262.105 150.129 262.12 149.993 262.083 149.866C260.101 142.895 257.431 136.138 254.114 129.694L254.114 129.694L254.111 129.689C254.048 129.577 253.944 129.494 253.82 129.458C253.697 129.421 253.565 129.433 253.451 129.492C253.337 129.551 253.25 129.652 253.208 129.773C253.166 129.895 253.173 130.027 253.227 130.144L253.227 130.144L253.23 130.149C256.516 136.538 259.161 143.236 261.125 150.146Z" fill="white" stroke="white" stroke-width="0.3"/>
<mask id="path-3-outside-1_1_534" maskUnits="userSpaceOnUse" x="0" y="144.415" width="90" height="114" fill="black">
<rect fill="white" y="144.415" width="90" height="114"/>
<path d="M89.6756 203.951C89.6721 200.658 88.3626 197.501 86.0342 195.173C83.7058 192.844 80.5489 191.535 77.2561 191.531H49.7133V174.927H77.8327C79.2405 174.926 80.5902 174.366 81.5856 173.371C82.581 172.375 83.1409 171.026 83.1424 169.618V150.722C83.1404 149.315 82.5803 147.966 81.5849 146.971C80.5896 145.976 79.2402 145.416 77.8327 145.415H12.8392C11.4333 145.418 10.0863 145.979 9.09289 146.974C8.0995 147.969 7.54067 149.317 7.53872 150.722V169.618C7.54018 171.026 8.10007 172.375 9.09551 173.371C10.091 174.366 11.4407 174.926 12.8484 174.927H40.9568V191.531H13.4195C10.1268 191.535 6.97017 192.845 4.64191 195.173C2.31365 197.501 1.00391 200.658 1 203.951V245.406C1.00391 248.699 2.31365 251.856 4.64191 254.184C6.97017 256.512 10.1268 257.822 13.4195 257.826H77.2561C80.5487 257.822 83.7054 256.512 86.0337 254.184C88.3619 251.856 89.6717 248.699 89.6756 245.406V203.951ZM49.7133 232.591V225.278C50.7959 226.599 52.2403 227.576 53.8697 228.089C53.9575 228.118 54.0529 228.11 54.135 228.068C54.2172 228.026 54.2793 227.953 54.3077 227.866C54.3362 227.778 54.3286 227.682 54.2866 227.6C54.2447 227.518 54.1718 227.456 54.0841 227.428C50.2973 226.204 47.5842 222.454 48.2107 216.398C48.2208 216.306 48.194 216.214 48.1363 216.142C48.0786 216.07 47.9947 216.024 47.903 216.014C47.8113 216.004 47.7195 216.031 47.6475 216.089C47.5756 216.147 47.5296 216.23 47.5195 216.322C46.7803 223.284 43.1468 223.611 43.0396 221.408C42.8807 218.069 42.7125 215.768 42.792 214.263C42.9454 211.408 43.9914 211.338 47.647 211.099C52.5742 210.776 52.868 210.757 54.4038 213.145C54.9583 214.016 54.7735 218.011 57.4477 218.039C67.2096 218.144 85.5394 217.73 88.9807 217.464V237.679C86.4487 237.615 56.8064 237.299 49.7133 237.154V234.447C49.9285 233.847 49.9285 233.191 49.7133 232.591ZM41.6517 257.129V237.262C42.1802 237.202 45.3147 236.816 46.5271 236.687C47.464 236.619 48.3467 236.222 49.0184 235.565V257.129H41.6517ZM46.4568 235.996C42.6718 236.4 40.7276 236.766 38.8443 236.748C36.1017 236.727 35.976 232.231 39.3859 231.97C42.0694 231.767 43.9212 231.601 46.6324 231.51C50.1383 231.394 49.9886 235.617 46.4531 235.996H46.4568ZM42.1156 214.012C42.063 215.643 42.0982 217.276 42.2209 218.904C40.737 219 39.2483 218.995 37.765 218.891C35.0963 218.636 35.1314 213.999 38.5449 213.981L42.1156 214.012ZM38.2178 219.913C39.6002 219.883 40.881 219.776 42.2671 219.728C42.2948 220.264 42.3244 220.837 42.3521 221.441C42.4612 223.687 45.5291 224.469 47.2164 220.604C47.5499 220.936 47.7751 221.362 47.8625 221.824C47.9499 222.286 47.8953 222.764 47.706 223.195C47.5167 223.626 47.2014 223.99 46.8017 224.238C46.4019 224.486 45.9364 224.608 45.4662 224.587C41.6036 224.79 39.4468 225.069 37.4435 224.946C34.553 224.768 34.5678 219.993 38.2178 219.913ZM48.4436 223.205C48.6143 223.581 48.8088 223.947 49.0257 224.299V227.11C48.899 226.578 48.6177 226.095 48.2171 225.722C47.8165 225.349 47.3147 225.104 46.7747 225.016C47.174 224.865 47.5323 224.622 47.8208 224.308C48.1094 223.993 48.3201 223.615 48.4362 223.205H48.4436ZM38.2955 225.87C41.0677 225.738 42.9768 225.622 45.7952 225.611C49.4453 225.596 49.1884 229.985 45.5124 230.272C41.7034 230.569 39.5984 230.895 37.6283 230.826C34.7637 230.725 34.747 226.038 38.2881 225.87H38.2955ZM49.0257 228.335V231.566C48.6649 231.277 48.2504 231.063 47.8062 230.936C47.3621 230.809 46.8971 230.772 46.4384 230.826C47.0591 230.696 47.6304 230.392 48.0867 229.952C48.543 229.511 48.8659 228.951 49.0184 228.335H49.0257ZM77.2635 192.226C80.372 192.229 83.3522 193.466 85.5502 195.664C87.7483 197.862 88.9846 200.842 88.9881 203.951V216.768C85.8 217.032 67.2928 217.449 57.4625 217.344C55.4462 217.324 55.6809 213.833 54.9971 212.768C53.5297 210.491 52.8403 210.142 49.7206 210.281V192.226H77.2635ZM12.8466 174.299V174.231C11.6212 174.231 10.446 173.744 9.57949 172.877C8.71301 172.011 8.22622 170.836 8.22622 169.61V150.722C8.22622 149.497 8.71301 148.322 9.57949 147.455C10.446 146.589 11.6212 146.102 12.8466 146.102H77.8327C79.0581 146.102 80.2333 146.589 81.0998 147.455C81.9663 148.322 82.453 149.497 82.453 150.722V169.618C82.453 170.843 81.9663 172.018 81.0998 172.885C80.2333 173.751 79.0581 174.238 77.8327 174.238H49.3713C49.3257 174.238 49.2805 174.247 49.2384 174.265C49.1962 174.282 49.1579 174.308 49.1257 174.34C49.0934 174.372 49.0678 174.41 49.0503 174.453C49.0329 174.495 49.0239 174.54 49.0239 174.586V210.321C48.5748 210.347 48.0832 210.38 47.5454 210.415C43.8491 210.658 42.5554 211.009 42.1987 213.324L41.6665 213.315V174.58C41.666 174.488 41.629 174.399 41.5635 174.334C41.498 174.269 41.4095 174.233 41.3172 174.233C13.6062 174.233 13.4934 174.209 12.8392 174.301L12.8466 174.299ZM1.6986 245.404V203.951C1.70153 200.842 2.93749 197.862 5.13524 195.664C7.33299 193.466 10.313 192.229 13.4213 192.226H40.9586V213.295C40.5336 213.295 38.556 213.276 38.556 213.276C37.8163 213.248 37.0893 213.474 36.4959 213.917C35.9024 214.359 35.4782 214.991 35.2938 215.708C35.1094 216.425 35.1759 217.183 35.4822 217.857C35.7886 218.531 36.3163 219.08 36.9777 219.412C36.3348 219.609 35.769 220.001 35.3588 220.533C34.9487 221.066 34.7146 221.713 34.689 222.385C34.6634 223.057 34.8476 223.72 35.216 224.283C35.5844 224.845 36.1187 225.279 36.7449 225.524C33.9024 226.855 34.3552 231.394 37.6042 231.51C37.7891 231.51 37.9887 231.521 38.1827 231.521C35.2035 232.663 35.5547 237.123 38.5523 237.419C38.6854 237.461 40.6759 237.561 40.9716 237.576V257.122H13.4343C10.324 257.124 7.34018 255.891 5.1383 253.694C2.93642 251.497 1.69659 248.517 1.6912 245.406L1.6986 245.404ZM77.2635 257.127H49.7133V237.849C56.8083 237.993 86.4635 238.311 88.9807 238.376V245.399C88.9787 248.508 87.743 251.49 85.5448 253.689C83.3466 255.888 80.3655 257.126 77.2561 257.129L77.2635 257.127Z"/>
</mask>
<path d="M89.6756 203.951C89.6721 200.658 88.3626 197.501 86.0342 195.173C83.7058 192.844 80.5489 191.535 77.2561 191.531H49.7133V174.927H77.8327C79.2405 174.926 80.5902 174.366 81.5856 173.371C82.581 172.375 83.1409 171.026 83.1424 169.618V150.722C83.1404 149.315 82.5803 147.966 81.5849 146.971C80.5896 145.976 79.2402 145.416 77.8327 145.415H12.8392C11.4333 145.418 10.0863 145.979 9.09289 146.974C8.0995 147.969 7.54067 149.317 7.53872 150.722V169.618C7.54018 171.026 8.10007 172.375 9.09551 173.371C10.091 174.366 11.4407 174.926 12.8484 174.927H40.9568V191.531H13.4195C10.1268 191.535 6.97017 192.845 4.64191 195.173C2.31365 197.501 1.00391 200.658 1 203.951V245.406C1.00391 248.699 2.31365 251.856 4.64191 254.184C6.97017 256.512 10.1268 257.822 13.4195 257.826H77.2561C80.5487 257.822 83.7054 256.512 86.0337 254.184C88.3619 251.856 89.6717 248.699 89.6756 245.406V203.951ZM49.7133 232.591V225.278C50.7959 226.599 52.2403 227.576 53.8697 228.089C53.9575 228.118 54.0529 228.11 54.135 228.068C54.2172 228.026 54.2793 227.953 54.3077 227.866C54.3362 227.778 54.3286 227.682 54.2866 227.6C54.2447 227.518 54.1718 227.456 54.0841 227.428C50.2973 226.204 47.5842 222.454 48.2107 216.398C48.2208 216.306 48.194 216.214 48.1363 216.142C48.0786 216.07 47.9947 216.024 47.903 216.014C47.8113 216.004 47.7195 216.031 47.6475 216.089C47.5756 216.147 47.5296 216.23 47.5195 216.322C46.7803 223.284 43.1468 223.611 43.0396 221.408C42.8807 218.069 42.7125 215.768 42.792 214.263C42.9454 211.408 43.9914 211.338 47.647 211.099C52.5742 210.776 52.868 210.757 54.4038 213.145C54.9583 214.016 54.7735 218.011 57.4477 218.039C67.2096 218.144 85.5394 217.73 88.9807 217.464V237.679C86.4487 237.615 56.8064 237.299 49.7133 237.154V234.447C49.9285 233.847 49.9285 233.191 49.7133 232.591ZM41.6517 257.129V237.262C42.1802 237.202 45.3147 236.816 46.5271 236.687C47.464 236.619 48.3467 236.222 49.0184 235.565V257.129H41.6517ZM46.4568 235.996C42.6718 236.4 40.7276 236.766 38.8443 236.748C36.1017 236.727 35.976 232.231 39.3859 231.97C42.0694 231.767 43.9212 231.601 46.6324 231.51C50.1383 231.394 49.9886 235.617 46.4531 235.996H46.4568ZM42.1156 214.012C42.063 215.643 42.0982 217.276 42.2209 218.904C40.737 219 39.2483 218.995 37.765 218.891C35.0963 218.636 35.1314 213.999 38.5449 213.981L42.1156 214.012ZM38.2178 219.913C39.6002 219.883 40.881 219.776 42.2671 219.728C42.2948 220.264 42.3244 220.837 42.3521 221.441C42.4612 223.687 45.5291 224.469 47.2164 220.604C47.5499 220.936 47.7751 221.362 47.8625 221.824C47.9499 222.286 47.8953 222.764 47.706 223.195C47.5167 223.626 47.2014 223.99 46.8017 224.238C46.4019 224.486 45.9364 224.608 45.4662 224.587C41.6036 224.79 39.4468 225.069 37.4435 224.946C34.553 224.768 34.5678 219.993 38.2178 219.913ZM48.4436 223.205C48.6143 223.581 48.8088 223.947 49.0257 224.299V227.11C48.899 226.578 48.6177 226.095 48.2171 225.722C47.8165 225.349 47.3147 225.104 46.7747 225.016C47.174 224.865 47.5323 224.622 47.8208 224.308C48.1094 223.993 48.3201 223.615 48.4362 223.205H48.4436ZM38.2955 225.87C41.0677 225.738 42.9768 225.622 45.7952 225.611C49.4453 225.596 49.1884 229.985 45.5124 230.272C41.7034 230.569 39.5984 230.895 37.6283 230.826C34.7637 230.725 34.747 226.038 38.2881 225.87H38.2955ZM49.0257 228.335V231.566C48.6649 231.277 48.2504 231.063 47.8062 230.936C47.3621 230.809 46.8971 230.772 46.4384 230.826C47.0591 230.696 47.6304 230.392 48.0867 229.952C48.543 229.511 48.8659 228.951 49.0184 228.335H49.0257ZM77.2635 192.226C80.372 192.229 83.3522 193.466 85.5502 195.664C87.7483 197.862 88.9846 200.842 88.9881 203.951V216.768C85.8 217.032 67.2928 217.449 57.4625 217.344C55.4462 217.324 55.6809 213.833 54.9971 212.768C53.5297 210.491 52.8403 210.142 49.7206 210.281V192.226H77.2635ZM12.8466 174.299V174.231C11.6212 174.231 10.446 173.744 9.57949 172.877C8.71301 172.011 8.22622 170.836 8.22622 169.61V150.722C8.22622 149.497 8.71301 148.322 9.57949 147.455C10.446 146.589 11.6212 146.102 12.8466 146.102H77.8327C79.0581 146.102 80.2333 146.589 81.0998 147.455C81.9663 148.322 82.453 149.497 82.453 150.722V169.618C82.453 170.843 81.9663 172.018 81.0998 172.885C80.2333 173.751 79.0581 174.238 77.8327 174.238H49.3713C49.3257 174.238 49.2805 174.247 49.2384 174.265C49.1962 174.282 49.1579 174.308 49.1257 174.34C49.0934 174.372 49.0678 174.41 49.0503 174.453C49.0329 174.495 49.0239 174.54 49.0239 174.586V210.321C48.5748 210.347 48.0832 210.38 47.5454 210.415C43.8491 210.658 42.5554 211.009 42.1987 213.324L41.6665 213.315V174.58C41.666 174.488 41.629 174.399 41.5635 174.334C41.498 174.269 41.4095 174.233 41.3172 174.233C13.6062 174.233 13.4934 174.209 12.8392 174.301L12.8466 174.299ZM1.6986 245.404V203.951C1.70153 200.842 2.93749 197.862 5.13524 195.664C7.33299 193.466 10.313 192.229 13.4213 192.226H40.9586V213.295C40.5336 213.295 38.556 213.276 38.556 213.276C37.8163 213.248 37.0893 213.474 36.4959 213.917C35.9024 214.359 35.4782 214.991 35.2938 215.708C35.1094 216.425 35.1759 217.183 35.4822 217.857C35.7886 218.531 36.3163 219.08 36.9777 219.412C36.3348 219.609 35.769 220.001 35.3588 220.533C34.9487 221.066 34.7146 221.713 34.689 222.385C34.6634 223.057 34.8476 223.72 35.216 224.283C35.5844 224.845 36.1187 225.279 36.7449 225.524C33.9024 226.855 34.3552 231.394 37.6042 231.51C37.7891 231.51 37.9887 231.521 38.1827 231.521C35.2035 232.663 35.5547 237.123 38.5523 237.419C38.6854 237.461 40.6759 237.561 40.9716 237.576V257.122H13.4343C10.324 257.124 7.34018 255.891 5.1383 253.694C2.93642 251.497 1.69659 248.517 1.6912 245.406L1.6986 245.404ZM77.2635 257.127H49.7133V237.849C56.8083 237.993 86.4635 238.311 88.9807 238.376V245.399C88.9787 248.508 87.743 251.49 85.5448 253.689C83.3466 255.888 80.3655 257.126 77.2561 257.129L77.2635 257.127Z" fill="white"/>
<path d="M89.6756 203.951C89.6721 200.658 88.3626 197.501 86.0342 195.173C83.7058 192.844 80.5489 191.535 77.2561 191.531H49.7133V174.927H77.8327C79.2405 174.926 80.5902 174.366 81.5856 173.371C82.581 172.375 83.1409 171.026 83.1424 169.618V150.722C83.1404 149.315 82.5803 147.966 81.5849 146.971C80.5896 145.976 79.2402 145.416 77.8327 145.415H12.8392C11.4333 145.418 10.0863 145.979 9.09289 146.974C8.0995 147.969 7.54067 149.317 7.53872 150.722V169.618C7.54018 171.026 8.10007 172.375 9.09551 173.371C10.091 174.366 11.4407 174.926 12.8484 174.927H40.9568V191.531H13.4195C10.1268 191.535 6.97017 192.845 4.64191 195.173C2.31365 197.501 1.00391 200.658 1 203.951V245.406C1.00391 248.699 2.31365 251.856 4.64191 254.184C6.97017 256.512 10.1268 257.822 13.4195 257.826H77.2561C80.5487 257.822 83.7054 256.512 86.0337 254.184C88.3619 251.856 89.6717 248.699 89.6756 245.406V203.951ZM49.7133 232.591V225.278C50.7959 226.599 52.2403 227.576 53.8697 228.089C53.9575 228.118 54.0529 228.11 54.135 228.068C54.2172 228.026 54.2793 227.953 54.3077 227.866C54.3362 227.778 54.3286 227.682 54.2866 227.6C54.2447 227.518 54.1718 227.456 54.0841 227.428C50.2973 226.204 47.5842 222.454 48.2107 216.398C48.2208 216.306 48.194 216.214 48.1363 216.142C48.0786 216.07 47.9947 216.024 47.903 216.014C47.8113 216.004 47.7195 216.031 47.6475 216.089C47.5756 216.147 47.5296 216.23 47.5195 216.322C46.7803 223.284 43.1468 223.611 43.0396 221.408C42.8807 218.069 42.7125 215.768 42.792 214.263C42.9454 211.408 43.9914 211.338 47.647 211.099C52.5742 210.776 52.868 210.757 54.4038 213.145C54.9583 214.016 54.7735 218.011 57.4477 218.039C67.2096 218.144 85.5394 217.73 88.9807 217.464V237.679C86.4487 237.615 56.8064 237.299 49.7133 237.154V234.447C49.9285 233.847 49.9285 233.191 49.7133 232.591ZM41.6517 257.129V237.262C42.1802 237.202 45.3147 236.816 46.5271 236.687C47.464 236.619 48.3467 236.222 49.0184 235.565V257.129H41.6517ZM46.4568 235.996C42.6718 236.4 40.7276 236.766 38.8443 236.748C36.1017 236.727 35.976 232.231 39.3859 231.97C42.0694 231.767 43.9212 231.601 46.6324 231.51C50.1383 231.394 49.9886 235.617 46.4531 235.996H46.4568ZM42.1156 214.012C42.063 215.643 42.0982 217.276 42.2209 218.904C40.737 219 39.2483 218.995 37.765 218.891C35.0963 218.636 35.1314 213.999 38.5449 213.981L42.1156 214.012ZM38.2178 219.913C39.6002 219.883 40.881 219.776 42.2671 219.728C42.2948 220.264 42.3244 220.837 42.3521 221.441C42.4612 223.687 45.5291 224.469 47.2164 220.604C47.5499 220.936 47.7751 221.362 47.8625 221.824C47.9499 222.286 47.8953 222.764 47.706 223.195C47.5167 223.626 47.2014 223.99 46.8017 224.238C46.4019 224.486 45.9364 224.608 45.4662 224.587C41.6036 224.79 39.4468 225.069 37.4435 224.946C34.553 224.768 34.5678 219.993 38.2178 219.913ZM48.4436 223.205C48.6143 223.581 48.8088 223.947 49.0257 224.299V227.11C48.899 226.578 48.6177 226.095 48.2171 225.722C47.8165 225.349 47.3147 225.104 46.7747 225.016C47.174 224.865 47.5323 224.622 47.8208 224.308C48.1094 223.993 48.3201 223.615 48.4362 223.205H48.4436ZM38.2955 225.87C41.0677 225.738 42.9768 225.622 45.7952 225.611C49.4453 225.596 49.1884 229.985 45.5124 230.272C41.7034 230.569 39.5984 230.895 37.6283 230.826C34.7637 230.725 34.747 226.038 38.2881 225.87H38.2955ZM49.0257 228.335V231.566C48.6649 231.277 48.2504 231.063 47.8062 230.936C47.3621 230.809 46.8971 230.772 46.4384 230.826C47.0591 230.696 47.6304 230.392 48.0867 229.952C48.543 229.511 48.8659 228.951 49.0184 228.335H49.0257ZM77.2635 192.226C80.372 192.229 83.3522 193.466 85.5502 195.664C87.7483 197.862 88.9846 200.842 88.9881 203.951V216.768C85.8 217.032 67.2928 217.449 57.4625 217.344C55.4462 217.324 55.6809 213.833 54.9971 212.768C53.5297 210.491 52.8403 210.142 49.7206 210.281V192.226H77.2635ZM12.8466 174.299V174.231C11.6212 174.231 10.446 173.744 9.57949 172.877C8.71301 172.011 8.22622 170.836 8.22622 169.61V150.722C8.22622 149.497 8.71301 148.322 9.57949 147.455C10.446 146.589 11.6212 146.102 12.8466 146.102H77.8327C79.0581 146.102 80.2333 146.589 81.0998 147.455C81.9663 148.322 82.453 149.497 82.453 150.722V169.618C82.453 170.843 81.9663 172.018 81.0998 172.885C80.2333 173.751 79.0581 174.238 77.8327 174.238H49.3713C49.3257 174.238 49.2805 174.247 49.2384 174.265C49.1962 174.282 49.1579 174.308 49.1257 174.34C49.0934 174.372 49.0678 174.41 49.0503 174.453C49.0329 174.495 49.0239 174.54 49.0239 174.586V210.321C48.5748 210.347 48.0832 210.38 47.5454 210.415C43.8491 210.658 42.5554 211.009 42.1987 213.324L41.6665 213.315V174.58C41.666 174.488 41.629 174.399 41.5635 174.334C41.498 174.269 41.4095 174.233 41.3172 174.233C13.6062 174.233 13.4934 174.209 12.8392 174.301L12.8466 174.299ZM1.6986 245.404V203.951C1.70153 200.842 2.93749 197.862 5.13524 195.664C7.33299 193.466 10.313 192.229 13.4213 192.226H40.9586V213.295C40.5336 213.295 38.556 213.276 38.556 213.276C37.8163 213.248 37.0893 213.474 36.4959 213.917C35.9024 214.359 35.4782 214.991 35.2938 215.708C35.1094 216.425 35.1759 217.183 35.4822 217.857C35.7886 218.531 36.3163 219.08 36.9777 219.412C36.3348 219.609 35.769 220.001 35.3588 220.533C34.9487 221.066 34.7146 221.713 34.689 222.385C34.6634 223.057 34.8476 223.72 35.216 224.283C35.5844 224.845 36.1187 225.279 36.7449 225.524C33.9024 226.855 34.3552 231.394 37.6042 231.51C37.7891 231.51 37.9887 231.521 38.1827 231.521C35.2035 232.663 35.5547 237.123 38.5523 237.419C38.6854 237.461 40.6759 237.561 40.9716 237.576V257.122H13.4343C10.324 257.124 7.34018 255.891 5.1383 253.694C2.93642 251.497 1.69659 248.517 1.6912 245.406L1.6986 245.404ZM77.2635 257.127H49.7133V237.849C56.8083 237.993 86.4635 238.311 88.9807 238.376V245.399C88.9787 248.508 87.743 251.49 85.5448 253.689C83.3466 255.888 80.3655 257.126 77.2561 257.129L77.2635 257.127Z" stroke="white" stroke-width="0.6" mask="url(#path-3-outside-1_1_534)"/>
<path d="M23.593 158.71L20.3403 158.239L18.884 155.282C18.8505 155.23 18.8045 155.187 18.7501 155.157C18.6957 155.127 18.6346 155.111 18.5726 155.111C18.5105 155.111 18.4495 155.127 18.395 155.157C18.3406 155.187 18.2946 155.23 18.2611 155.282L16.8067 158.239L13.5521 158.71C13.4884 158.721 13.4289 158.748 13.3803 158.791C13.3316 158.833 13.2956 158.888 13.2765 158.95C13.2573 159.011 13.2556 159.077 13.2717 159.139C13.2877 159.202 13.3208 159.259 13.3673 159.303L15.7144 161.604L15.16 164.844C15.1482 164.908 15.1547 164.975 15.1789 165.035C15.203 165.096 15.2437 165.148 15.2964 165.187C15.349 165.226 15.4115 165.249 15.4766 165.253C15.5417 165.258 15.6068 165.244 15.6645 165.214L18.5753 163.685L21.4843 165.214C21.542 165.244 21.6071 165.258 21.6722 165.253C21.7373 165.249 21.7998 165.226 21.8524 165.187C21.9051 165.148 21.9458 165.096 21.9699 165.035C21.9941 164.975 22.0006 164.908 21.9888 164.844L21.4344 161.604L23.7889 159.309C23.8373 159.264 23.8717 159.206 23.8882 159.142C23.9047 159.077 23.9025 159.01 23.8819 158.947C23.8613 158.884 23.8232 158.828 23.772 158.786C23.7208 158.744 23.6587 158.718 23.593 158.71Z" fill="white"/>
<path d="M36.9744 158.71L33.7198 158.239L32.2653 155.282C32.2319 155.23 32.1859 155.187 32.1314 155.157C32.077 155.127 32.016 155.111 31.9539 155.111C31.8919 155.111 31.8308 155.127 31.7764 155.157C31.722 155.187 31.6759 155.23 31.6425 155.282L30.188 158.239L26.9334 158.71C26.8698 158.721 26.8103 158.748 26.7616 158.791C26.7129 158.833 26.677 158.888 26.6578 158.95C26.6386 159.011 26.637 159.077 26.653 159.139C26.669 159.202 26.7022 159.259 26.7486 159.303L29.0958 161.604L28.5413 164.844C28.5327 164.894 28.5351 164.945 28.5484 164.994C28.5617 165.043 28.5856 165.089 28.6184 165.128C28.6511 165.166 28.692 165.197 28.7381 165.219C28.7841 165.24 28.8343 165.251 28.8851 165.251C29.9531 164.819 30.981 164.294 31.9567 163.682L34.8657 165.21C34.9233 165.241 34.9884 165.254 35.0536 165.25C35.1187 165.245 35.1811 165.222 35.2338 165.183C35.2864 165.145 35.3272 165.092 35.3513 165.031C35.3754 164.971 35.382 164.905 35.3702 164.84L34.8158 161.601L37.1703 159.305C37.2175 159.26 37.2509 159.202 37.2667 159.139C37.2825 159.075 37.2801 159.008 37.2596 158.946C37.2391 158.884 37.2015 158.829 37.151 158.787C37.1005 158.745 37.0393 158.719 36.9744 158.71Z" fill="white"/>
<path d="M50.3552 158.71L47.1007 158.239L45.6462 155.282C45.6128 155.23 45.5667 155.187 45.5123 155.157C45.4579 155.127 45.3968 155.111 45.3348 155.111C45.2727 155.111 45.2117 155.127 45.1573 155.157C45.1028 155.187 45.0568 155.23 45.0234 155.282L43.567 158.239L40.3143 158.71C40.2506 158.721 40.1912 158.748 40.1425 158.791C40.0938 158.833 40.0579 158.888 40.0387 158.95C40.0195 159.011 40.0178 159.077 40.0339 159.139C40.0499 159.202 40.083 159.259 40.1295 159.303L42.4766 161.604L41.9129 164.839C41.904 164.888 41.9061 164.94 41.9192 164.989C41.9323 165.038 41.956 165.083 41.9886 165.122C42.0212 165.161 42.062 165.192 42.108 165.213C42.154 165.235 42.2042 165.245 42.2548 165.245C43.3257 164.82 44.3541 164.294 45.3265 163.676L48.2373 165.204C48.2949 165.235 48.3601 165.249 48.4252 165.244C48.4903 165.239 48.5527 165.216 48.6054 165.178C48.6581 165.139 48.6988 165.087 48.7229 165.026C48.747 164.965 48.7536 164.899 48.7418 164.835L48.1966 161.604L50.5511 159.309C50.5988 159.263 50.6325 159.205 50.6486 159.141C50.6646 159.078 50.6622 159.01 50.6417 158.948C50.6213 158.885 50.5835 158.83 50.5328 158.788C50.4821 158.746 50.4206 158.719 50.3552 158.71Z" fill="white"/>
<path d="M63.7343 158.71L60.4816 158.238L59.0271 155.281C58.9937 155.229 58.9476 155.185 58.893 155.155C58.8384 155.125 58.7771 155.109 58.7147 155.109C58.6524 155.109 58.5911 155.125 58.5365 155.155C58.4819 155.185 58.4357 155.229 58.4024 155.281L56.9479 158.238L53.6933 158.71C53.6301 158.721 53.5711 158.749 53.5228 158.791C53.4746 158.834 53.439 158.889 53.4199 158.95C53.4008 159.011 53.3989 159.077 53.4146 159.139C53.4302 159.201 53.4627 159.258 53.5085 159.303L55.8557 161.604L55.3012 164.844C55.2923 164.894 55.2944 164.945 55.3075 164.994C55.3206 165.043 55.3443 165.088 55.3769 165.127C55.4095 165.166 55.4503 165.197 55.4963 165.218C55.5423 165.24 55.5924 165.25 55.6431 165.25C56.7112 164.819 57.7391 164.294 58.7147 163.681L61.6237 165.21C61.6814 165.24 61.7465 165.254 61.8116 165.249C61.8767 165.244 61.9392 165.221 61.9918 165.183C62.0445 165.144 62.0852 165.092 62.1094 165.031C62.1335 164.97 62.14 164.904 62.1283 164.84L61.5738 161.6L63.9283 159.305C63.9755 159.259 64.009 159.202 64.0249 159.138C64.0408 159.075 64.0384 159.008 64.0182 158.946C63.9979 158.884 63.9605 158.829 63.9103 158.787C63.8601 158.745 63.7991 158.718 63.7343 158.71Z" fill="white"/>
<path d="M77.1175 158.71L73.8648 158.239L72.4084 155.282C72.375 155.23 72.329 155.187 72.2745 155.157C72.2201 155.127 72.1591 155.111 72.097 155.111C72.035 155.111 71.9739 155.127 71.9195 155.157C71.8651 155.187 71.819 155.23 71.7856 155.282L70.3311 158.239L67.0784 158.71C67.014 158.719 66.9534 158.746 66.9035 158.788C66.8536 158.83 66.8165 158.884 66.7963 158.946C66.7761 159.008 66.7736 159.074 66.7892 159.137C66.8047 159.201 66.8377 159.258 66.8843 159.303L69.2389 161.604L68.6844 164.844C68.6727 164.908 68.6792 164.975 68.7033 165.035C68.7275 165.096 68.7682 165.148 68.8208 165.187C68.8735 165.226 68.936 165.249 69.0011 165.253C69.0662 165.258 69.1313 165.244 69.189 165.214L72.0998 163.685L75.0088 165.214C75.0664 165.244 75.1315 165.258 75.1967 165.253C75.2618 165.249 75.3242 165.226 75.3769 165.187C75.4295 165.148 75.4703 165.096 75.4944 165.035C75.5185 164.975 75.5251 164.908 75.5133 164.844L74.9589 161.604L77.3134 159.309C77.3617 159.264 77.3962 159.206 77.4126 159.142C77.4291 159.077 77.4269 159.01 77.4063 158.947C77.3858 158.884 77.3476 158.828 77.2965 158.786C77.2453 158.744 77.1832 158.718 77.1175 158.71Z" fill="white"/>
<path d="M272.192 186.628C255.097 201.585 237.911 216.568 219.936 230.899C216.236 233.863 211.555 235.324 206.825 234.991C202.096 234.658 197.665 232.554 194.417 229.1C184.094 218.093 170.761 202.118 163.104 186.333L163.62 206.446L151.134 226.96C158.829 242.854 169.915 260.28 183.107 278.675C175.542 291.817 162.731 297.994 147.622 300.089C135.244 281.001 124.651 260.813 115.977 239.781C114.773 236.792 114.223 233.58 114.361 230.361C114.5 227.142 115.325 223.989 116.781 221.115L144.401 166.702C157.44 165.099 170.267 162.088 182.658 157.722C183.726 157.348 184.732 156.817 185.644 156.147C190.475 158.283 201.435 166.158 211.045 194.902L247.976 158.864C254.015 161.094 259.396 164.805 263.627 169.656C267.858 174.507 270.803 180.343 272.192 186.628Z" fill="#FF6E1A"/>
<path d="M273.018 106.63C271.611 106.802 268.874 106.803 266.011 106.803C265.065 106.804 264.106 106.804 263.176 106.811C263.176 106.811 263.176 106.811 263.175 106.811L263.175 106.811C261.434 106.811 260.475 105.811 260.335 104.822C260.265 104.325 260.398 103.823 260.747 103.43C261.095 103.036 261.67 102.739 262.502 102.675L262.502 102.675C265.352 102.453 271.92 102.241 272.101 102.241C273.656 102.241 274.507 103.268 274.659 104.333C274.735 104.868 274.634 105.406 274.362 105.826C274.092 106.244 273.648 106.554 273.018 106.63ZM273.018 106.63L273.036 106.779L273.018 106.63C273.018 106.63 273.018 106.63 273.018 106.63ZM273.14 107.618C274.085 107.503 274.77 107.035 275.189 106.396C275.606 105.761 275.754 104.963 275.644 104.191C275.439 102.738 274.32 101.355 272.337 101.251C272.883 100.991 273.285 100.591 273.546 100.115C273.912 99.4484 273.997 98.6422 273.828 97.8808C273.491 96.3532 272.125 94.9847 269.907 95.2361C269.158 95.2807 268.454 95.3238 267.793 95.3643C266.152 95.4648 264.771 95.5493 263.606 95.6016C261.969 95.6751 260.769 95.6843 259.881 95.5865C258.993 95.4886 258.441 95.2855 258.079 94.9545C257.72 94.6256 257.524 94.1492 257.4 93.4464C257.149 91.0328 256.858 88.6412 256.502 86.0982L256.502 86.0981C255.96 82.2557 254.56 80.2275 253.27 79.444C252.627 79.0532 251.998 78.9662 251.523 79.1482C251.038 79.3342 250.75 79.7882 250.785 80.3874C250.806 80.756 250.747 81.6091 250.621 82.7368C250.496 83.8594 250.306 85.2419 250.07 86.6618C249.833 88.0818 249.55 89.5375 249.239 90.8069C248.928 92.0798 248.591 93.1539 248.249 93.8181L248.249 93.8184C247.57 95.1447 246.157 95.8336 244.582 96.1907C243.015 96.546 241.325 96.5643 240.129 96.5773L240.119 96.5774L240.119 96.5774C233.725 96.6483 214.057 95.4419 210.771 95.2373V85.6348C210.774 82.5663 211.994 79.6242 214.164 77.4542C216.333 75.2843 219.275 74.0636 222.344 74.0602H286.186C289.254 74.0636 292.197 75.2842 294.367 77.4541C296.536 79.6241 297.757 82.5662 297.76 85.635V117.851C297.757 120.92 296.536 123.862 294.366 126.032C292.196 128.201 289.254 129.421 286.186 129.424H222.346C219.746 129.421 217.222 128.543 215.181 126.933C213.188 125.362 211.767 123.181 211.133 120.726C213.133 120.676 216.978 120.595 221.786 120.495L222.153 120.487C253.494 119.84 263.776 119.517 267.025 119.355C267.835 119.315 268.214 119.284 268.375 119.26C268.414 119.254 268.45 119.248 268.478 119.238L268.478 119.238C268.488 119.234 268.521 119.223 268.549 119.195C268.753 119.194 269.104 119.194 269.686 119.194L269.687 119.194C271.328 119.181 272.304 118.041 272.522 116.732C272.716 115.564 272.311 114.242 271.237 113.44C271.244 113.439 271.25 113.439 271.257 113.438C271.298 113.435 271.338 113.432 271.378 113.429L271.379 113.429C272.973 113.3 273.884 112.175 274.085 110.898C274.266 109.749 273.875 108.462 272.889 107.646C272.976 107.637 273.06 107.628 273.14 107.618ZM273.14 107.618C273.14 107.618 273.139 107.618 273.139 107.618L273.121 107.469L273.14 107.618C273.14 107.618 273.14 107.618 273.14 107.618ZM286.188 73.0653H286.188L222.346 73.0653L222.345 73.0653C219.013 73.0693 215.818 74.3948 213.462 76.7512C211.106 79.1075 209.78 82.3023 209.776 85.6346V85.6348L209.776 117.852L209.776 117.852C209.78 121.184 211.106 124.378 213.463 126.734C215.819 129.09 219.013 130.415 222.345 130.419H222.346H286.188H286.188C289.52 130.416 292.715 129.091 295.071 126.735C297.428 124.379 298.753 121.184 298.757 117.852V117.852V85.6348V85.6346C298.753 82.3023 297.428 79.1075 295.071 76.7512C292.715 74.3948 289.52 73.0693 286.188 73.0653ZM251.779 80.3275L251.777 80.2855C251.78 80.1994 251.809 80.1448 251.847 80.1106C251.892 80.0688 251.973 80.0366 252.1 80.0421C252.357 80.0531 252.75 80.2192 253.191 80.6282C254.066 81.4403 255.082 83.166 255.515 86.2379C255.972 89.4869 256.123 90.924 256.234 91.9783C256.284 92.4476 256.325 92.8411 256.382 93.2848L256.382 93.285C256.617 95.1077 256.703 96.2158 256.741 96.8918C256.753 97.1051 256.761 97.2686 256.766 97.4024C256.77 97.4858 256.773 97.5576 256.777 97.6228C256.781 97.7029 256.786 97.7696 256.793 97.8237C256.8 97.8755 256.811 97.9274 256.832 97.973C257.972 100.5 257.586 103.586 256.227 105.96C254.868 108.334 252.558 109.961 249.875 109.63L249.873 109.63C249.743 109.616 249.613 109.653 249.511 109.734C249.408 109.815 249.342 109.933 249.326 110.062C249.309 110.192 249.344 110.322 249.424 110.426C249.503 110.53 249.62 110.598 249.749 110.617L249.752 110.617C252.871 110.996 255.509 109.159 257.044 106.539C258.575 103.927 259.031 100.507 257.774 97.6463C257.759 97.4247 257.714 96.801 257.63 95.8391C258.697 96.426 259.896 96.7228 261.107 96.7053C260.815 96.8922 260.557 97.1308 260.346 97.4116C259.955 97.9335 259.749 98.5715 259.762 99.2238C259.775 99.8762 260.006 100.505 260.418 101.011C260.703 101.36 261.062 101.637 261.467 101.822C261.005 101.952 260.579 102.194 260.228 102.53C259.731 103.005 259.416 103.64 259.337 104.323C259.258 105.007 259.421 105.696 259.798 106.272C260.111 106.751 260.555 107.127 261.074 107.357C260.617 107.629 260.236 108.017 259.973 108.485C259.653 109.052 259.522 109.707 259.599 110.354C259.676 111.002 259.958 111.607 260.403 112.084C260.749 112.454 261.179 112.731 261.655 112.893C260.495 113.519 260.025 114.764 260.27 115.938C260.501 117.05 261.367 118.087 262.859 118.501C253.663 118.809 228.298 119.356 216.678 119.607C213.645 119.672 211.549 119.718 210.92 119.733C210.827 119.213 210.782 118.686 210.786 118.158H210.786L210.786 118.153C210.755 116.917 210.758 114.482 210.763 108.889C210.767 105.767 210.771 101.662 210.771 96.2327C214.235 96.4475 233.735 97.6432 240.13 97.5723H240.13L240.143 97.5721C241.41 97.5573 243.235 97.5361 244.947 97.1243C246.664 96.7114 248.299 95.8983 249.133 94.2734C249.512 93.5375 249.871 92.3974 250.195 91.0866C250.52 89.7727 250.812 88.2763 251.054 86.821C251.296 85.3655 251.489 83.9494 251.616 82.7955C251.742 81.6464 251.803 80.7454 251.779 80.3275ZM263.802 117.674L263.791 117.672H263.785C262.071 117.486 261.23 116.387 261.2 115.386C261.185 114.883 261.373 114.397 261.763 114.044C262.153 113.69 262.758 113.457 263.596 113.486C264.545 113.521 265.226 113.539 265.799 113.554C266.92 113.583 267.629 113.601 269.135 113.713C270.755 113.837 271.524 114.959 271.574 116.049C271.6 116.597 271.443 117.132 271.124 117.529C270.808 117.922 270.329 118.186 269.687 118.191C267.716 118.15 265.75 117.977 263.802 117.674ZM263.414 112.229L263.414 112.229H263.41C261.616 112.166 260.668 111.085 260.57 110.043C260.52 109.519 260.683 108.999 261.065 108.601C261.446 108.203 262.059 107.916 262.929 107.885C265.42 107.794 267.277 107.803 269.668 107.813C269.914 107.814 270.167 107.815 270.426 107.816C272.116 107.824 272.991 108.933 273.117 110.063C273.181 110.631 273.054 111.2 272.75 111.637C272.448 112.071 271.966 112.383 271.298 112.437C270.014 112.54 268.541 112.466 266.62 112.37C265.671 112.322 264.613 112.269 263.414 112.229ZM263.818 101.229V101.229L263.805 101.23C262.083 101.376 261.044 100.456 260.822 99.4773C260.711 98.9859 260.802 98.4736 261.117 98.0522C261.433 97.6309 261.982 97.2871 262.812 97.1565C263.938 96.9803 265.711 96.7417 267.27 96.547C268.048 96.4497 268.773 96.3634 269.335 96.3015C269.902 96.2391 270.292 96.2028 270.412 96.2028C271.838 96.2028 272.687 97.1644 272.878 98.1908C272.974 98.7052 272.903 99.2292 272.661 99.6523C272.421 100.072 272.009 100.401 271.403 100.526C270.182 100.767 268.868 100.858 267.026 100.986C266.106 101.05 265.055 101.123 263.818 101.229Z" fill="white" stroke="white" stroke-width="0.3"/>
<path d="M66.6425 281.768H66.6433C66.7755 281.769 66.9019 281.822 66.9949 281.916L66.8883 282.021L66.9949 281.916C67.0879 282.01 67.1397 282.137 67.139 282.269C67.1383 282.401 67.0851 282.528 66.9912 282.621C66.8973 282.713 66.7704 282.765 66.6384 282.765M66.6425 281.768L50.7854 282.613C50.6933 282.613 50.6049 282.576 50.5398 282.511C50.4746 282.446 50.438 282.358 50.438 282.265C50.438 282.173 50.4746 282.085 50.5398 282.02C50.6049 281.955 50.6933 281.918 50.7854 281.918H54.8735M66.6425 281.768H62.5599C62.1193 281.768 61.6831 281.681 61.2762 281.512C60.8694 281.343 60.4999 281.095 60.1891 280.783C59.8783 280.47 59.6323 280.1 59.4651 279.692C59.298 279.284 59.213 278.848 59.2151 278.407V278.407V274.341C59.2151 274.209 59.1627 274.082 59.0694 273.989M66.6425 281.768L59.0694 273.989M66.6384 282.765C66.6382 282.765 66.6381 282.765 66.638 282.765L66.6388 282.615V282.765H66.6384ZM66.6384 282.765H62.5544H62.5543C62.115 282.764 61.68 282.851 61.2741 283.019C60.8681 283.187 60.4993 283.433 60.1887 283.744C59.8781 284.055 59.6317 284.423 59.4637 284.829C59.2957 285.235 59.2093 285.67 59.2096 286.109V286.11V290.192V290.203L59.2092 290.203C59.2 290.329 59.1435 290.446 59.0512 290.532C58.9588 290.618 58.8374 290.666 58.7112 290.666C58.585 290.666 58.4636 290.618 58.3712 290.532C58.2788 290.446 58.2224 290.329 58.2132 290.203L58.2124 290.192H58.2128V286.11V286.109C58.2133 285.67 58.1271 285.235 57.9592 284.829C57.7913 284.422 57.545 284.053 57.2343 283.743C56.9236 283.432 56.5547 283.185 56.1487 283.017C55.7427 282.849 55.3075 282.763 54.8681 282.763H54.868H50.7854C50.6535 282.763 50.527 282.71 50.4337 282.617L50.4337 282.617C50.3404 282.524 50.288 282.397 50.288 282.265C50.288 282.133 50.3404 282.007 50.4337 281.914C50.527 281.82 50.6535 281.768 50.7854 281.768H54.8734M54.8734 281.768L54.8735 281.918M54.8734 281.768H54.8735V281.918M54.8734 281.768C55.3139 281.768 55.7501 281.68 56.1569 281.511C56.5636 281.342 56.933 281.094 57.2439 280.782C57.5548 280.469 57.801 280.099 57.9686 279.692C58.1361 279.284 58.2216 278.848 58.2202 278.407L58.2202 278.407L58.2202 274.341C58.2202 274.209 58.2726 274.082 58.3659 273.989L58.3659 273.989C58.4592 273.896 58.5857 273.843 58.7177 273.843C58.8496 273.843 58.9761 273.896 59.0694 273.989M54.8735 281.918C55.3338 281.917 55.7895 281.826 56.2145 281.649C56.6395 281.473 57.0254 281.214 57.3502 280.888C57.675 280.561 57.9323 280.174 58.1073 279.749C58.2823 279.323 58.3717 278.867 58.3702 278.407L59.0694 273.989M59.0596 286.11V290.192V286.11ZM59.0596 286.11C59.0593 285.651 59.1495 285.196 59.3251 284.772M59.0596 286.11L59.3251 284.772M59.3251 284.772C59.5006 284.348 59.7581 283.962 60.0826 283.638M59.3251 284.772L60.0826 283.638M60.0826 283.638C60.4072 283.313 60.7926 283.056 61.2167 282.88M60.0826 283.638L61.2167 282.88M61.2167 282.88C61.6408 282.705 62.0954 282.614 62.5544 282.615L61.2167 282.88ZM56.8908 282.262C57.6683 281.851 58.3043 281.216 58.7155 280.439C59.125 281.217 59.7601 281.853 60.5372 282.264C59.7608 282.674 59.1255 283.308 58.7146 284.085C58.3035 283.308 57.6678 282.673 56.8908 282.262Z" fill="white" stroke="white" stroke-width="0.3"/>
<path d="M243.414 50.5192L243.414 50.5195C243.54 50.5272 243.659 50.5824 243.745 50.6739C243.832 50.7653 243.882 50.8863 243.883 51.0125C243.884 51.1387 243.838 51.2608 243.753 51.3541L243.642 51.2531L243.753 51.3541C243.668 51.4474 243.551 51.505 243.425 51.5154L243.412 51.5165V51.5159H234.641V60.2869V60.2978L234.641 60.2978C234.632 60.4236 234.575 60.5413 234.483 60.6272C234.391 60.7131 234.269 60.7608 234.143 60.7608C234.017 60.7608 233.895 60.7131 233.803 60.6272C233.711 60.5413 233.654 60.4236 233.645 60.2978L233.644 60.2869H233.645V51.5178H224.874H224.863L224.863 51.5174C224.737 51.5082 224.619 51.4518 224.533 51.3594M243.414 50.5192L224.643 51.2575L224.533 51.3594C224.533 51.3594 224.533 51.3594 224.533 51.3594M243.414 50.5192H243.405M243.414 50.5192H243.405M224.533 51.3594C224.448 51.267 224.4 51.1456 224.4 51.0194C224.4 50.8932 224.448 50.7718 224.533 50.6794L224.533 50.6794C224.619 50.5871 224.737 50.5306 224.863 50.5214L224.874 50.5206V50.521H233.643V41.7482V41.7373L233.643 41.7373C233.652 41.6115 233.709 41.4938 233.801 41.408L233.801 41.408C233.894 41.3221 234.015 41.2743 234.141 41.2743C234.267 41.2743 234.389 41.3221 234.481 41.408L234.481 41.408C234.574 41.4939 234.63 41.6115 234.639 41.7373L234.64 41.7482H234.64V50.5192M224.533 51.3594L234.64 50.5192M243.405 50.5192H234.64M243.405 50.5192H234.64" fill="white" stroke="white" stroke-width="0.3"/>
<path d="M70.8419 28.7916C70.8363 27.9375 70.5785 27.1042 70.1009 26.3961C69.6233 25.6881 68.9471 25.137 68.1573 24.812C67.3675 24.487 66.4993 24.4026 65.6617 24.5694C64.824 24.7362 64.0544 25.1468 63.4493 25.7495L62.6713 26.5295L61.8913 25.7532C61.4946 25.3264 61.0157 24.984 60.4835 24.7467C59.9512 24.5094 59.3765 24.382 58.7938 24.3722C58.2111 24.3624 57.6325 24.4703 57.0925 24.6896C56.5526 24.9088 56.0624 25.2349 55.6515 25.6481C55.2406 26.0614 54.9174 26.5534 54.7013 27.0946C54.4851 27.6358 54.3805 28.2151 54.3937 28.7977C54.4068 29.3803 54.5375 29.9543 54.7779 30.4852C55.0183 31.016 55.3634 31.4929 55.7925 31.8872L62.4513 38.5183C62.4835 38.5509 62.5218 38.5767 62.5639 38.5943C62.6061 38.6119 62.6514 38.621 62.6971 38.621C62.7429 38.621 62.7881 38.6119 62.8303 38.5943C62.8725 38.5767 62.9108 38.5509 62.9429 38.5183L69.5833 31.8484C69.9846 31.4473 70.3024 30.9706 70.5185 30.4459C70.7345 29.9213 70.8444 29.359 70.8419 28.7916Z" fill="white"/>
<path d="M28.9288 31.892L29.0788 31.8905L28.9288 31.8921C29.0561 44.4355 36.9133 54.1699 47.4526 58.9635C57.9701 63.7471 71.1731 63.6183 82.0676 56.4505L95.7427 61.8698C95.7429 61.8699 95.7431 61.87 95.7432 61.87C95.8332 61.906 95.9317 61.9148 96.0266 61.8956C96.1217 61.8763 96.2091 61.8296 96.278 61.7612C96.3469 61.6929 96.3943 61.6059 96.4144 61.5109C96.4345 61.416 96.4264 61.3172 96.391 61.2268L91.086 47.6242C98.0221 37.3795 97.4008 25.6195 91.7557 16.4561C86.0993 7.27458 75.4008 0.700457 62.2125 0.852587C43.2169 1.0456 28.7616 15.3509 28.9288 31.892ZM62.5897 1.84748H62.5911L90.2874 47.8714L90.1452 47.9193C90.1453 47.9195 90.1453 47.9196 90.1453 47.9197C90.3397 48.4957 90.8653 49.8375 92.1398 53.091C92.8517 54.9084 93.7973 57.3224 95.0494 60.5328C85.7997 56.8668 83.1096 55.804 82.2744 55.5299L82.2743 55.5299C82.1055 55.4745 81.9983 55.447 81.924 55.4405C81.8843 55.437 81.8454 55.4386 81.8074 55.4501C81.7702 55.4614 81.744 55.4798 81.7338 55.4868C75.6337 59.4998 68.4322 61.5065 61.1358 61.2264C53.8391 60.9463 46.8122 58.3931 41.0375 53.9237L41.0359 53.9225C37.7374 51.4399 35.0307 48.2565 33.111 44.6015C31.1914 40.9466 30.1066 36.9113 29.9348 32.7865C29.763 28.6617 30.5085 24.5501 32.1176 20.7483C33.7267 16.9464 36.1592 13.5488 39.2399 10.8006L39.24 10.8006L39.2414 10.7993C45.6091 4.96519 53.9539 1.76575 62.5897 1.84748Z" fill="white" stroke="white" stroke-width="0.3"/>
<path d="M265.447 272.23L265.451 272.237L271.093 283.671L283.707 285.508C283.708 285.508 283.708 285.508 283.709 285.508C283.801 285.52 283.888 285.557 283.96 285.616C284.033 285.676 284.087 285.754 284.117 285.843C284.147 285.931 284.151 286.027 284.129 286.118C284.107 286.209 284.06 286.292 283.993 286.357L283.993 286.357L274.864 295.256L277.018 307.822C277.018 307.822 277.018 307.823 277.018 307.823C277.035 307.915 277.026 308.009 276.991 308.096C276.957 308.182 276.898 308.258 276.823 308.313C276.748 308.368 276.658 308.401 276.565 308.408C276.472 308.415 276.379 308.395 276.296 308.351L265.447 272.23ZM265.447 272.23L265.443 272.224C265.396 272.15 265.331 272.089 265.254 272.046C265.178 272.004 265.091 271.982 265.004 271.982C264.916 271.982 264.83 272.004 264.753 272.046C264.676 272.089 264.612 272.15 264.565 272.224L264.561 272.23L264.557 272.237L258.914 283.671L246.298 285.508L246.298 285.508L246.295 285.509C246.204 285.523 246.119 285.563 246.049 285.624C245.979 285.685 245.928 285.763 245.9 285.852C245.873 285.94 245.871 286.034 245.893 286.123C245.916 286.212 245.964 286.294 246.03 286.357C246.03 286.358 246.03 286.358 246.03 286.358L255.158 295.256L253.004 307.822C253.004 307.822 253.004 307.823 253.004 307.823C252.987 307.915 252.997 308.009 253.031 308.096C253.066 308.182 253.124 308.258 253.2 308.313C253.275 308.368 253.364 308.401 253.458 308.408C253.551 308.415 253.644 308.395 253.726 308.351C253.726 308.351 253.726 308.351 253.727 308.351L265.011 302.419L276.296 308.351L265.447 272.23ZM273.973 294.728L273.973 294.727L282.561 286.349C279.605 285.92 277.372 285.599 275.684 285.356C273.704 285.071 272.474 284.894 271.71 284.777C270.996 284.668 270.673 284.609 270.523 284.56C270.45 284.537 270.375 284.503 270.334 284.428C270.318 284.399 270.311 284.369 270.309 284.359C270.309 284.358 270.308 284.358 270.308 284.357C270.307 284.352 270.307 284.35 270.306 284.349C270.306 284.348 270.306 284.349 270.307 284.35C270.307 284.35 270.307 284.35 270.307 284.35L273.973 294.728ZM273.973 294.728C273.972 294.728 273.97 294.73 273.966 294.732C273.965 294.733 273.965 294.733 273.964 294.733C273.955 294.739 273.929 294.755 273.906 294.78C273.85 294.842 273.841 294.923 273.841 295C273.842 295.159 273.886 295.485 274.003 296.197C274.128 296.966 274.342 298.199 274.686 300.189C274.976 301.865 275.359 304.076 275.86 306.998C273.086 305.539 271.027 304.452 269.497 303.643C267.883 302.79 266.856 302.248 266.197 301.907C265.55 301.573 265.247 301.426 265.089 301.373C265.013 301.348 264.935 301.331 264.859 301.359C264.824 301.372 264.799 301.392 264.789 301.399C264.783 301.404 264.78 301.406 264.778 301.407C264.776 301.409 264.775 301.409 264.774 301.41L264.773 301.41L254.138 306.998L256.168 295.169C256.168 295.168 256.169 295.165 256.171 295.161C256.171 295.16 256.171 295.16 256.172 295.159C256.176 295.149 256.188 295.121 256.193 295.087C256.203 295.002 256.162 294.931 256.117 294.869C256.024 294.741 255.796 294.502 255.283 293.995C254.737 293.455 253.858 292.601 252.447 291.23C251.22 290.038 249.591 288.455 247.431 286.349C250.436 285.912 252.695 285.587 254.393 285.343C256.331 285.064 257.538 284.89 258.291 284.775C259.002 284.667 259.323 284.608 259.471 284.56C259.543 284.536 259.619 284.502 259.658 284.425C259.674 284.396 259.68 284.366 259.682 284.356C259.682 284.356 259.682 284.355 259.682 284.355C259.683 284.351 259.683 284.35 259.683 284.349L273.973 294.728Z" fill="white" stroke="white" stroke-width="0.3"/>
<path d="M51.3811 145.606L51.3778 145.617L51.3759 145.627C51.3555 145.745 51.3779 145.866 51.4392 145.968C51.5004 146.07 51.5963 146.147 51.7095 146.185C51.8227 146.222 51.9455 146.218 52.0557 146.172L51.9985 146.034L52.0557 146.172C52.1659 146.127 52.2561 146.043 52.3099 145.937L52.3151 145.927L52.3186 145.916C58.422 127.283 69.4373 110.642 84.2042 97.7439C98.9711 84.846 116.943 76.169 136.227 72.6271L136.2 72.4796L136.227 72.6271C136.357 72.6033 136.472 72.5288 136.547 72.4202L136.423 72.335L136.547 72.4201C136.622 72.3115 136.65 72.1775 136.626 72.0477C136.603 71.9179 136.528 71.8029 136.42 71.728L136.42 71.728C136.311 71.6531 136.177 71.6244 136.047 71.6482C116.589 75.2244 98.4548 83.9814 83.5548 96.997C68.6547 110.013 57.54 126.805 51.3811 145.606Z" fill="white" stroke="white" stroke-width="0.3"/>
<mask id="path-17-outside-2_1_534" maskUnits="userSpaceOnUse" x="86.3606" y="35.0879" width="226" height="318" fill="black">
<rect fill="white" x="86.3606" y="35.0879" width="226" height="318"/>
<path d="M311.81 151.329C301.918 146.418 273.993 147.514 258.474 150.148C258.415 150.164 258.406 150.148 258.289 150.266C257.92 150.624 256.587 152.201 250.237 159.438C249.542 159.124 248.834 158.822 248.112 158.533C248.038 158.503 247.906 158.533 247.541 158.839C246.389 159.815 240.922 165.262 211.206 194.266C202.102 167.321 191.917 158.782 186.317 156.073C187.92 154.775 189.156 153.082 189.903 151.16C190.65 149.238 190.883 147.154 190.577 145.115C188.897 133.714 184.682 110.254 180.751 103.068C176.544 95.3891 166.136 95.5388 163.301 93.8367C158.423 90.9037 156.093 84.4611 155.795 78.8483C155.786 78.7596 155.743 78.6779 155.675 78.6199C155.608 78.562 155.52 78.5324 155.431 78.5371C155.342 78.5419 155.258 78.5806 155.197 78.6454C155.136 78.7102 155.102 78.7961 155.102 78.8853C155.403 84.7346 157.86 91.3768 162.942 94.4318C164.812 95.2172 166.763 95.7937 168.76 96.1506C168.25 97.4406 167.404 98.5711 166.311 99.4255C165.15 100.166 163.904 100.767 162.602 101.216C150.953 105.236 139.626 97.4849 142.154 99.1205C141.064 98.5531 140.138 97.7158 139.463 96.6884C141.132 96.1014 142.83 95.603 144.551 95.1951C146.089 94.7004 147.416 93.7043 148.321 92.366C149.225 91.0278 149.655 89.4249 149.541 87.8136L151.419 84.1802C151.449 84.1152 151.459 84.0424 151.446 83.9718C151.434 83.9011 151.399 83.8362 151.348 83.7857C151.297 83.7353 151.232 83.7019 151.161 83.6902C151.09 83.6784 151.018 83.6888 150.953 83.72C150.274 84.197 149.555 84.6144 148.804 84.9675C144.862 86.7934 142.056 85.8361 140.912 81.6408C140.175 77.7851 140.15 73.8269 140.84 69.9624C141.274 67.3935 142.341 63.6972 144.947 63.7139C147.185 63.7139 149.817 66.4861 151.081 69.2749C151.112 69.3402 151.164 69.394 151.228 69.4289C151.291 69.4639 151.364 69.4781 151.436 69.4698C151.509 69.4615 151.576 69.431 151.631 69.3825C151.685 69.3341 151.722 69.27 151.739 69.1992C152.267 66.5766 153.541 64.7211 154.962 64.7211C155.147 64.7211 160.715 64.6878 161.327 64.7211C167.86 64.6269 175.332 61.607 175.332 53.3292C175.332 45.3563 169.656 36.0879 162.336 36.0879C154.389 36.0879 148.105 43.7299 147.207 50.873C146.984 52.6734 147.214 54.5011 147.876 56.1901C145.675 56.5073 143.628 57.5072 142.025 59.0489C140.422 60.5907 139.343 62.5966 138.94 64.784C138.918 64.8734 138.933 64.9678 138.98 65.0467C139.028 65.1256 139.104 65.1826 139.193 65.2053C139.193 65.2053 139.563 65.1887 139.82 65.1702C139.482 69.1073 139.411 73.0627 139.607 77.0094C139.792 83.9547 142.38 88.4457 148.685 85.777C149.353 89.6821 148.199 93.2268 144.329 94.5371C141.5 95.5019 131.762 96.4795 126.848 108.502C125.351 112.161 124.399 116.565 122.808 120.145C122.056 117.783 121.74 116.733 121.571 116.264C121.431 115.874 121.442 115.852 120.926 115.754L116.849 114.698C115.584 112.875 113.842 111.433 111.813 110.531L121.013 97.8915C121.126 97.7465 121.207 97.5798 121.253 97.4019C121.298 97.224 121.306 97.0386 121.277 96.8574C121.247 96.6762 121.181 96.503 121.081 96.3486C120.982 96.1942 120.852 96.062 120.699 95.9601C120.546 95.8583 120.374 95.789 120.194 95.7567C120.013 95.7243 119.827 95.7295 119.649 95.772C119.47 95.8145 119.302 95.8933 119.155 96.0036C119.009 96.1139 118.886 96.2533 118.795 96.413L110.444 110.071C109.233 109.75 107.969 109.684 106.731 109.877L106.017 106.009C106.005 105.943 105.974 105.881 105.928 105.833C105.881 105.784 105.822 105.749 105.757 105.733L100.684 104.497C100.468 104.443 100.201 104.563 100.297 105.02C100.414 105.574 100.828 106.96 101.898 110.832C91.4615 108.13 88.632 107.352 87.8114 107.204C87.2274 107.097 87.342 107.402 87.4418 107.694C87.9611 109.344 90.9422 117.62 105.095 158.978C105.189 159.25 103.144 158.608 137.536 167.995C137.926 168.043 138.005 167.845 137.802 167.071C137.565 166.158 136.937 164.449 135.965 161.395C136.704 161.765 137.443 162.109 138.182 162.443C138.903 164.245 140.585 167.723 142.47 167.304C142.916 167.252 143.357 167.197 143.797 167.141C140.822 173.005 116.474 220.963 116.474 220.963C114.996 223.883 114.158 227.085 114.017 230.355C113.876 233.624 114.436 236.887 115.657 239.923C124.331 260.977 134.937 281.181 147.34 300.278C147.486 300.503 147.691 300.435 148.109 300.374C149.481 300.177 150.82 299.947 152.125 299.686C154.544 303.503 155.451 304.597 156.135 312.974C157.435 324.263 160.044 335.363 163.909 346.049L166.191 351.918C166.212 351.974 166.248 352.023 166.294 352.062C166.34 352.1 166.395 352.125 166.454 352.136C166.513 352.146 166.573 352.141 166.629 352.121C166.686 352.101 166.736 352.067 166.775 352.022C174.06 343.722 180.174 316.458 181.614 300.788C181.614 300.551 182.037 301.279 174.306 289.752C177.972 286.685 181.059 282.987 183.421 278.832C183.453 278.775 183.468 278.71 183.465 278.644C183.462 278.579 183.44 278.516 183.403 278.462C169.118 258.554 158.691 241.706 151.537 226.969L169.233 197.913C176.579 209.118 184.925 219.633 194.17 229.331C197.491 232.827 202 234.953 206.809 235.292C211.619 235.631 216.381 234.159 220.16 231.165C237.509 217.326 254.098 202.923 272.429 186.885C272.478 186.843 272.514 186.788 272.533 186.727C272.552 186.665 272.554 186.6 272.538 186.538C271.599 182.746 270.162 179.096 268.266 175.682C270.877 173.897 273.754 172.536 276.789 171.647C287.407 167.567 297.479 162.187 306.773 155.629C310.178 153.208 311.381 152.349 311.799 151.981C312.111 151.707 312.017 151.44 311.81 151.329ZM169.318 96.6237C169.68 96.8088 169.969 97.1098 170.14 97.4787C170.311 97.8475 170.353 98.263 170.26 98.6587C170.167 99.0544 169.944 99.4076 169.627 99.6618C169.31 99.916 168.917 100.057 168.51 100.061C167.997 100.078 167.489 99.9646 167.032 99.7304C168.017 98.8787 168.796 97.8146 169.311 96.6181L169.318 96.6237ZM166.381 100.211C166.467 100.48 166.488 100.765 166.443 101.044C166.398 101.323 166.287 101.587 166.121 101.815C165.955 102.043 165.737 102.229 165.486 102.358C165.234 102.486 164.956 102.553 164.674 102.554C164.378 102.555 164.087 102.481 163.827 102.341C163.567 102.2 163.346 101.998 163.184 101.75C164.292 101.334 165.36 100.817 166.374 100.205L166.381 100.211ZM162.437 102.007C162.471 102.435 162.35 102.861 162.096 103.207C161.842 103.553 161.471 103.796 161.053 103.891C160.634 103.987 160.195 103.928 159.816 103.726C159.437 103.525 159.144 103.193 158.989 102.793C160.155 102.619 161.305 102.354 162.43 102.002L162.437 102.007ZM158.081 102.9C158.031 103.318 157.829 103.704 157.513 103.983C157.197 104.262 156.79 104.414 156.368 104.412C155.97 104.411 155.583 104.273 155.274 104.021C154.965 103.77 154.752 103.42 154.67 103.029C155.806 103.057 156.943 103.012 158.074 102.894L158.081 102.9ZM150.388 102.569C151.541 102.775 152.704 102.916 153.873 102.992C153.77 103.365 153.547 103.693 153.239 103.926C152.932 104.16 152.556 104.286 152.169 104.286C151.706 104.285 151.262 104.105 150.929 103.784C150.595 103.463 150.399 103.026 150.38 102.564L150.388 102.569ZM146.27 101.532C147.394 101.89 148.536 102.191 149.691 102.434C149.519 102.826 149.213 103.144 148.827 103.33C148.441 103.516 148.002 103.558 147.588 103.448C147.174 103.339 146.813 103.085 146.57 102.733C146.327 102.38 146.218 101.953 146.263 101.527L146.27 101.532ZM142.267 99.943C143.336 100.444 144.431 100.891 145.545 101.281C145.321 101.641 144.977 101.91 144.574 102.04C144.171 102.171 143.734 102.154 143.342 101.994C142.95 101.834 142.627 101.54 142.43 101.165C142.233 100.79 142.175 100.357 142.267 99.943ZM138.87 97.0377C139.531 98.0821 140.439 98.9474 141.515 99.5567C141.35 99.7716 141.138 99.9457 140.895 100.066C140.652 100.185 140.385 100.248 140.114 100.248C139.748 100.234 139.394 100.114 139.096 99.9015C138.797 99.6893 138.568 99.3945 138.435 99.0534C138.302 98.7123 138.271 98.3397 138.347 97.9816C138.423 97.6235 138.603 97.2954 138.863 97.0377H138.87ZM111.392 111.1C113.097 111.819 114.594 112.956 115.744 114.406L110.056 112.928L111.392 111.1ZM110.063 110.679C109.387 111.788 108.954 112.446 108.882 112.632L107.156 112.183L106.855 110.551C107.922 110.381 109.013 110.424 110.063 110.679ZM101.092 105.303L105.369 106.345L106.413 111.989L102.674 111.021L101.092 105.303ZM137.059 167.149L105.683 158.568L88.2088 108.008L120.902 116.471L126.537 134.148C126.504 137.567 126.271 139.722 125.419 140.214C125.241 140.289 125.046 140.316 124.853 140.293C124.661 140.269 124.478 140.195 124.323 140.079C119.852 136.019 115.008 132.39 109.856 129.238C108.609 128.589 104.922 126.674 104.127 127.82C103.572 128.613 104.709 130.31 107.502 132.864C108.621 133.895 109.669 134.926 110.632 135.948C109.272 135.307 107.644 134.583 106.596 134.121C104.064 133.012 102.482 132.814 102.022 133.55C101.925 133.73 101.896 133.939 101.94 134.139C101.984 134.339 102.099 134.516 102.264 134.638C104.073 136.191 107.078 138.357 109.167 140.053C107.916 139.726 104.768 138.959 104.264 140.158C104.197 140.353 104.202 140.564 104.278 140.755C104.354 140.946 104.496 141.103 104.678 141.199C107.126 142.69 111.667 144.879 113.918 146.335C117.333 148.265 120.56 150.508 123.558 153.036C124.712 154.296 125.996 155.43 127.388 156.42C129.856 158.099 132.431 159.615 135.096 160.959L137.059 167.149ZM114.881 143.759C110.143 140.236 112.172 141.424 106.489 137.089C105.138 136.056 103.741 134.989 102.715 134.11C102.624 134.032 102.597 133.939 102.611 133.925C102.626 133.91 103.138 133.37 106.308 134.762C107.819 135.429 110.544 136.647 111.9 137.349C114.466 140.241 116.743 143.377 118.698 146.712C117.48 145.681 116.143 144.688 114.879 143.749L114.881 143.759ZM120.527 149.334C120.743 149.629 120.963 149.924 121.189 150.22C119.476 148.989 117.557 147.797 115.992 146.823C113.843 145.412 111.615 144.124 109.32 142.966C107.788 142.154 106.206 141.315 105.04 140.604C104.938 140.543 104.894 140.454 104.905 140.428C104.916 140.402 105.337 139.794 108.697 140.65C109.035 140.737 109.656 140.898 110.39 141.092C113.547 143.875 117.825 146.462 120.525 149.325L120.527 149.334ZM138.589 161.863C134.359 159.976 130.333 157.66 126.576 154.951C125.109 153.718 123.767 152.344 122.569 150.848C120.666 148.404 118.906 145.851 117.299 143.202C114.637 139.223 111.504 135.579 107.967 132.352C104.897 129.545 104.567 128.399 104.692 128.219C104.702 128.21 104.713 128.201 104.726 128.195C104.897 128.112 105.801 127.911 109.531 129.859C114.638 132.984 119.439 136.585 123.869 140.613C123.89 140.635 123.914 140.653 123.941 140.669C124.203 140.856 124.51 140.969 124.831 140.995C125.152 141.022 125.474 140.961 125.763 140.82C127.611 139.756 127.084 134.427 127.286 132.587C127.313 131.599 127.51 130.623 127.868 129.702C127.972 129.72 128.568 130.023 130.086 134.148C131.283 137.408 133.387 143.123 136.142 144.999C137.617 145.854 139.357 146.129 141.023 145.771C143.321 151.493 144.234 157.678 143.686 163.82C141.951 163.261 140.249 162.605 138.587 161.854L138.589 161.863ZM143.522 166.472C143.908 165.813 144.171 165.088 144.298 164.334C145.374 159.085 143.714 150.061 141.553 145.246C141.043 143.908 140.234 142.704 139.188 141.726L165.328 137.456C165.374 137.449 165.418 137.433 165.458 137.408C165.497 137.383 165.531 137.35 165.558 137.312C165.584 137.274 165.603 137.23 165.612 137.185C165.622 137.139 165.622 137.092 165.613 137.046L162.72 122.581C162.702 122.49 162.649 122.411 162.572 122.36C162.495 122.309 162.401 122.29 162.311 122.308C162.22 122.326 162.141 122.38 162.09 122.456C162.039 122.533 162.02 122.627 162.038 122.718L164.86 136.828L140.812 140.746C140.219 139.682 137.587 134.952 137.155 134.167C133.353 127.282 133.961 117.685 133.969 117.589C133.973 117.498 133.941 117.41 133.881 117.342C133.821 117.274 133.736 117.233 133.646 117.226C133.555 117.22 133.466 117.249 133.397 117.308C133.327 117.367 133.284 117.451 133.276 117.541C133.276 117.639 132.644 127.436 136.545 134.503C136.953 135.242 139.317 139.493 140.084 140.864L137.796 141.234C136.917 141.341 136.275 142.228 135.885 143.871C131.775 139.968 129.956 128.717 127.798 128.996C127.059 129.084 126.85 130.243 126.635 132.156L123.118 121.13C126.761 113.619 126.615 102.8 137.8 97.4128C137.639 97.7971 137.574 98.215 137.612 98.63C137.649 99.0451 137.788 99.4446 138.015 99.7937C138.243 100.143 138.552 100.431 138.917 100.633C139.281 100.835 139.69 100.944 140.106 100.952C140.615 100.952 141.111 100.794 141.526 100.499C141.556 100.959 141.712 101.402 141.978 101.779C142.244 102.155 142.608 102.451 143.031 102.634C143.454 102.817 143.919 102.88 144.376 102.815C144.832 102.75 145.262 102.561 145.618 102.268C145.725 102.704 145.947 103.104 146.26 103.426C146.574 103.748 146.968 103.98 147.402 104.098C147.835 104.217 148.292 104.217 148.726 104.099C149.16 103.981 149.554 103.75 149.868 103.429C150.036 103.849 150.317 104.216 150.679 104.487C151.042 104.759 151.472 104.926 151.923 104.97C152.374 105.014 152.828 104.933 153.236 104.735C153.644 104.538 153.99 104.232 154.235 103.852C154.458 104.254 154.79 104.586 155.194 104.807C155.597 105.028 156.055 105.13 156.514 105.102C156.973 105.073 157.415 104.915 157.787 104.645C158.16 104.375 158.448 104.005 158.619 103.578C158.897 103.973 159.284 104.278 159.732 104.457C160.181 104.635 160.672 104.679 161.145 104.583C161.618 104.487 162.053 104.255 162.396 103.916C162.74 103.577 162.977 103.145 163.079 102.673C163.457 102.985 163.918 103.178 164.405 103.229C164.892 103.28 165.384 103.186 165.818 102.959C166.252 102.732 166.609 102.382 166.845 101.952C167.081 101.523 167.186 101.034 167.145 100.545C167.587 100.689 168.049 100.761 168.514 100.756C168.991 100.75 169.457 100.609 169.857 100.349C170.258 100.089 170.576 99.7204 170.775 99.2865C170.974 98.8527 171.046 98.3712 170.982 97.8982C170.918 97.4252 170.721 96.98 170.414 96.6145C172.405 97.0405 174.291 97.8612 175.96 99.0281C177.629 100.195 179.048 101.684 180.132 103.408C184.013 110.509 188.208 133.866 189.88 145.224C190.264 147.79 189.741 150.41 188.401 152.632C187.062 154.854 184.99 156.54 182.542 157.4C169.902 161.828 156.817 164.867 143.52 166.463L143.522 166.472ZM177.847 296.295L180.911 300.862C179.455 316.51 173.38 342.751 166.627 351.131L164.624 345.977C169.669 338.081 174.567 314.815 177.845 296.286L177.847 296.295ZM271.812 186.515C253.551 202.493 237.015 216.845 219.73 230.634C216.088 233.52 211.498 234.939 206.862 234.613C202.227 234.286 197.882 232.237 194.68 228.869C185.32 219.066 176.893 208.414 169.507 197.05C167.274 193.583 165.26 189.98 163.476 186.262C163.16 185.759 162.766 186.059 162.766 186.34C162.766 186.34 162.766 186.34 163.278 206.359C153.723 222.051 151.408 225.764 150.909 226.714C150.724 227.084 150.794 227.036 150.831 227.11C157.983 241.878 168.412 258.754 182.708 278.693C179.988 283.425 176.307 287.534 171.902 290.756L157.093 267.854C157.039 267.786 156.963 267.741 156.878 267.727C156.794 267.712 156.707 267.73 156.634 267.775C156.561 267.821 156.508 267.893 156.485 267.975C156.462 268.058 156.47 268.146 156.509 268.223L171.334 291.159C164.278 295.824 156.217 298.752 147.811 299.705C135.481 280.701 124.935 260.598 116.306 239.653C115.121 236.709 114.578 233.546 114.715 230.375C114.851 227.204 115.663 224.099 117.097 221.268C117.097 221.268 144.217 167.829 144.555 167.032C157.58 165.423 170.394 162.412 182.773 158.05C183.808 157.687 184.787 157.181 185.683 156.548C190.152 158.597 201.141 166.382 210.713 195.013C210.732 195.069 210.764 195.119 210.808 195.159C210.851 195.198 210.904 195.226 210.961 195.24C211.019 195.254 211.078 195.253 211.135 195.237C211.192 195.221 211.244 195.191 211.286 195.15L248.054 159.263C252.13 160.86 255.925 163.097 259.297 165.888L239.599 184.298C239.548 184.345 239.512 184.407 239.496 184.475C239.481 184.543 239.486 184.615 239.512 184.68C239.537 184.745 239.582 184.801 239.64 184.84C239.697 184.879 239.766 184.9 239.836 184.9C240.048 184.9 238.649 186.136 259.829 166.343C265.821 171.656 270.009 178.704 271.81 186.508L271.812 186.515ZM306.515 154.971C297.612 152.121 273.864 153.358 255.098 154.949L258.72 150.819C274.217 148.207 301.14 147.338 310.978 151.713L306.515 154.971Z"/>
</mask>
<path d="M311.81 151.329C301.918 146.418 273.993 147.514 258.474 150.148C258.415 150.164 258.406 150.148 258.289 150.266C257.92 150.624 256.587 152.201 250.237 159.438C249.542 159.124 248.834 158.822 248.112 158.533C248.038 158.503 247.906 158.533 247.541 158.839C246.389 159.815 240.922 165.262 211.206 194.266C202.102 167.321 191.917 158.782 186.317 156.073C187.92 154.775 189.156 153.082 189.903 151.16C190.65 149.238 190.883 147.154 190.577 145.115C188.897 133.714 184.682 110.254 180.751 103.068C176.544 95.3891 166.136 95.5388 163.301 93.8367C158.423 90.9037 156.093 84.4611 155.795 78.8483C155.786 78.7596 155.743 78.6779 155.675 78.6199C155.608 78.562 155.52 78.5324 155.431 78.5371C155.342 78.5419 155.258 78.5806 155.197 78.6454C155.136 78.7102 155.102 78.7961 155.102 78.8853C155.403 84.7346 157.86 91.3768 162.942 94.4318C164.812 95.2172 166.763 95.7937 168.76 96.1506C168.25 97.4406 167.404 98.5711 166.311 99.4255C165.15 100.166 163.904 100.767 162.602 101.216C150.953 105.236 139.626 97.4849 142.154 99.1205C141.064 98.5531 140.138 97.7158 139.463 96.6884C141.132 96.1014 142.83 95.603 144.551 95.1951C146.089 94.7004 147.416 93.7043 148.321 92.366C149.225 91.0278 149.655 89.4249 149.541 87.8136L151.419 84.1802C151.449 84.1152 151.459 84.0424 151.446 83.9718C151.434 83.9011 151.399 83.8362 151.348 83.7857C151.297 83.7353 151.232 83.7019 151.161 83.6902C151.09 83.6784 151.018 83.6888 150.953 83.72C150.274 84.197 149.555 84.6144 148.804 84.9675C144.862 86.7934 142.056 85.8361 140.912 81.6408C140.175 77.7851 140.15 73.8269 140.84 69.9624C141.274 67.3935 142.341 63.6972 144.947 63.7139C147.185 63.7139 149.817 66.4861 151.081 69.2749C151.112 69.3402 151.164 69.394 151.228 69.4289C151.291 69.4639 151.364 69.4781 151.436 69.4698C151.509 69.4615 151.576 69.431 151.631 69.3825C151.685 69.3341 151.722 69.27 151.739 69.1992C152.267 66.5766 153.541 64.7211 154.962 64.7211C155.147 64.7211 160.715 64.6878 161.327 64.7211C167.86 64.6269 175.332 61.607 175.332 53.3292C175.332 45.3563 169.656 36.0879 162.336 36.0879C154.389 36.0879 148.105 43.7299 147.207 50.873C146.984 52.6734 147.214 54.5011 147.876 56.1901C145.675 56.5073 143.628 57.5072 142.025 59.0489C140.422 60.5907 139.343 62.5966 138.94 64.784C138.918 64.8734 138.933 64.9678 138.98 65.0467C139.028 65.1256 139.104 65.1826 139.193 65.2053C139.193 65.2053 139.563 65.1887 139.82 65.1702C139.482 69.1073 139.411 73.0627 139.607 77.0094C139.792 83.9547 142.38 88.4457 148.685 85.777C149.353 89.6821 148.199 93.2268 144.329 94.5371C141.5 95.5019 131.762 96.4795 126.848 108.502C125.351 112.161 124.399 116.565 122.808 120.145C122.056 117.783 121.74 116.733 121.571 116.264C121.431 115.874 121.442 115.852 120.926 115.754L116.849 114.698C115.584 112.875 113.842 111.433 111.813 110.531L121.013 97.8915C121.126 97.7465 121.207 97.5798 121.253 97.4019C121.298 97.224 121.306 97.0386 121.277 96.8574C121.247 96.6762 121.181 96.503 121.081 96.3486C120.982 96.1942 120.852 96.062 120.699 95.9601C120.546 95.8583 120.374 95.789 120.194 95.7567C120.013 95.7243 119.827 95.7295 119.649 95.772C119.47 95.8145 119.302 95.8933 119.155 96.0036C119.009 96.1139 118.886 96.2533 118.795 96.413L110.444 110.071C109.233 109.75 107.969 109.684 106.731 109.877L106.017 106.009C106.005 105.943 105.974 105.881 105.928 105.833C105.881 105.784 105.822 105.749 105.757 105.733L100.684 104.497C100.468 104.443 100.201 104.563 100.297 105.02C100.414 105.574 100.828 106.96 101.898 110.832C91.4615 108.13 88.632 107.352 87.8114 107.204C87.2274 107.097 87.342 107.402 87.4418 107.694C87.9611 109.344 90.9422 117.62 105.095 158.978C105.189 159.25 103.144 158.608 137.536 167.995C137.926 168.043 138.005 167.845 137.802 167.071C137.565 166.158 136.937 164.449 135.965 161.395C136.704 161.765 137.443 162.109 138.182 162.443C138.903 164.245 140.585 167.723 142.47 167.304C142.916 167.252 143.357 167.197 143.797 167.141C140.822 173.005 116.474 220.963 116.474 220.963C114.996 223.883 114.158 227.085 114.017 230.355C113.876 233.624 114.436 236.887 115.657 239.923C124.331 260.977 134.937 281.181 147.34 300.278C147.486 300.503 147.691 300.435 148.109 300.374C149.481 300.177 150.82 299.947 152.125 299.686C154.544 303.503 155.451 304.597 156.135 312.974C157.435 324.263 160.044 335.363 163.909 346.049L166.191 351.918C166.212 351.974 166.248 352.023 166.294 352.062C166.34 352.1 166.395 352.125 166.454 352.136C166.513 352.146 166.573 352.141 166.629 352.121C166.686 352.101 166.736 352.067 166.775 352.022C174.06 343.722 180.174 316.458 181.614 300.788C181.614 300.551 182.037 301.279 174.306 289.752C177.972 286.685 181.059 282.987 183.421 278.832C183.453 278.775 183.468 278.71 183.465 278.644C183.462 278.579 183.44 278.516 183.403 278.462C169.118 258.554 158.691 241.706 151.537 226.969L169.233 197.913C176.579 209.118 184.925 219.633 194.17 229.331C197.491 232.827 202 234.953 206.809 235.292C211.619 235.631 216.381 234.159 220.16 231.165C237.509 217.326 254.098 202.923 272.429 186.885C272.478 186.843 272.514 186.788 272.533 186.727C272.552 186.665 272.554 186.6 272.538 186.538C271.599 182.746 270.162 179.096 268.266 175.682C270.877 173.897 273.754 172.536 276.789 171.647C287.407 167.567 297.479 162.187 306.773 155.629C310.178 153.208 311.381 152.349 311.799 151.981C312.111 151.707 312.017 151.44 311.81 151.329ZM169.318 96.6237C169.68 96.8088 169.969 97.1098 170.14 97.4787C170.311 97.8475 170.353 98.263 170.26 98.6587C170.167 99.0544 169.944 99.4076 169.627 99.6618C169.31 99.916 168.917 100.057 168.51 100.061C167.997 100.078 167.489 99.9646 167.032 99.7304C168.017 98.8787 168.796 97.8146 169.311 96.6181L169.318 96.6237ZM166.381 100.211C166.467 100.48 166.488 100.765 166.443 101.044C166.398 101.323 166.287 101.587 166.121 101.815C165.955 102.043 165.737 102.229 165.486 102.358C165.234 102.486 164.956 102.553 164.674 102.554C164.378 102.555 164.087 102.481 163.827 102.341C163.567 102.2 163.346 101.998 163.184 101.75C164.292 101.334 165.36 100.817 166.374 100.205L166.381 100.211ZM162.437 102.007C162.471 102.435 162.35 102.861 162.096 103.207C161.842 103.553 161.471 103.796 161.053 103.891C160.634 103.987 160.195 103.928 159.816 103.726C159.437 103.525 159.144 103.193 158.989 102.793C160.155 102.619 161.305 102.354 162.43 102.002L162.437 102.007ZM158.081 102.9C158.031 103.318 157.829 103.704 157.513 103.983C157.197 104.262 156.79 104.414 156.368 104.412C155.97 104.411 155.583 104.273 155.274 104.021C154.965 103.77 154.752 103.42 154.67 103.029C155.806 103.057 156.943 103.012 158.074 102.894L158.081 102.9ZM150.388 102.569C151.541 102.775 152.704 102.916 153.873 102.992C153.77 103.365 153.547 103.693 153.239 103.926C152.932 104.16 152.556 104.286 152.169 104.286C151.706 104.285 151.262 104.105 150.929 103.784C150.595 103.463 150.399 103.026 150.38 102.564L150.388 102.569ZM146.27 101.532C147.394 101.89 148.536 102.191 149.691 102.434C149.519 102.826 149.213 103.144 148.827 103.33C148.441 103.516 148.002 103.558 147.588 103.448C147.174 103.339 146.813 103.085 146.57 102.733C146.327 102.38 146.218 101.953 146.263 101.527L146.27 101.532ZM142.267 99.943C143.336 100.444 144.431 100.891 145.545 101.281C145.321 101.641 144.977 101.91 144.574 102.04C144.171 102.171 143.734 102.154 143.342 101.994C142.95 101.834 142.627 101.54 142.43 101.165C142.233 100.79 142.175 100.357 142.267 99.943ZM138.87 97.0377C139.531 98.0821 140.439 98.9474 141.515 99.5567C141.35 99.7716 141.138 99.9457 140.895 100.066C140.652 100.185 140.385 100.248 140.114 100.248C139.748 100.234 139.394 100.114 139.096 99.9015C138.797 99.6893 138.568 99.3945 138.435 99.0534C138.302 98.7123 138.271 98.3397 138.347 97.9816C138.423 97.6235 138.603 97.2954 138.863 97.0377H138.87ZM111.392 111.1C113.097 111.819 114.594 112.956 115.744 114.406L110.056 112.928L111.392 111.1ZM110.063 110.679C109.387 111.788 108.954 112.446 108.882 112.632L107.156 112.183L106.855 110.551C107.922 110.381 109.013 110.424 110.063 110.679ZM101.092 105.303L105.369 106.345L106.413 111.989L102.674 111.021L101.092 105.303ZM137.059 167.149L105.683 158.568L88.2088 108.008L120.902 116.471L126.537 134.148C126.504 137.567 126.271 139.722 125.419 140.214C125.241 140.289 125.046 140.316 124.853 140.293C124.661 140.269 124.478 140.195 124.323 140.079C119.852 136.019 115.008 132.39 109.856 129.238C108.609 128.589 104.922 126.674 104.127 127.82C103.572 128.613 104.709 130.31 107.502 132.864C108.621 133.895 109.669 134.926 110.632 135.948C109.272 135.307 107.644 134.583 106.596 134.121C104.064 133.012 102.482 132.814 102.022 133.55C101.925 133.73 101.896 133.939 101.94 134.139C101.984 134.339 102.099 134.516 102.264 134.638C104.073 136.191 107.078 138.357 109.167 140.053C107.916 139.726 104.768 138.959 104.264 140.158C104.197 140.353 104.202 140.564 104.278 140.755C104.354 140.946 104.496 141.103 104.678 141.199C107.126 142.69 111.667 144.879 113.918 146.335C117.333 148.265 120.56 150.508 123.558 153.036C124.712 154.296 125.996 155.43 127.388 156.42C129.856 158.099 132.431 159.615 135.096 160.959L137.059 167.149ZM114.881 143.759C110.143 140.236 112.172 141.424 106.489 137.089C105.138 136.056 103.741 134.989 102.715 134.11C102.624 134.032 102.597 133.939 102.611 133.925C102.626 133.91 103.138 133.37 106.308 134.762C107.819 135.429 110.544 136.647 111.9 137.349C114.466 140.241 116.743 143.377 118.698 146.712C117.48 145.681 116.143 144.688 114.879 143.749L114.881 143.759ZM120.527 149.334C120.743 149.629 120.963 149.924 121.189 150.22C119.476 148.989 117.557 147.797 115.992 146.823C113.843 145.412 111.615 144.124 109.32 142.966C107.788 142.154 106.206 141.315 105.04 140.604C104.938 140.543 104.894 140.454 104.905 140.428C104.916 140.402 105.337 139.794 108.697 140.65C109.035 140.737 109.656 140.898 110.39 141.092C113.547 143.875 117.825 146.462 120.525 149.325L120.527 149.334ZM138.589 161.863C134.359 159.976 130.333 157.66 126.576 154.951C125.109 153.718 123.767 152.344 122.569 150.848C120.666 148.404 118.906 145.851 117.299 143.202C114.637 139.223 111.504 135.579 107.967 132.352C104.897 129.545 104.567 128.399 104.692 128.219C104.702 128.21 104.713 128.201 104.726 128.195C104.897 128.112 105.801 127.911 109.531 129.859C114.638 132.984 119.439 136.585 123.869 140.613C123.89 140.635 123.914 140.653 123.941 140.669C124.203 140.856 124.51 140.969 124.831 140.995C125.152 141.022 125.474 140.961 125.763 140.82C127.611 139.756 127.084 134.427 127.286 132.587C127.313 131.599 127.51 130.623 127.868 129.702C127.972 129.72 128.568 130.023 130.086 134.148C131.283 137.408 133.387 143.123 136.142 144.999C137.617 145.854 139.357 146.129 141.023 145.771C143.321 151.493 144.234 157.678 143.686 163.82C141.951 163.261 140.249 162.605 138.587 161.854L138.589 161.863ZM143.522 166.472C143.908 165.813 144.171 165.088 144.298 164.334C145.374 159.085 143.714 150.061 141.553 145.246C141.043 143.908 140.234 142.704 139.188 141.726L165.328 137.456C165.374 137.449 165.418 137.433 165.458 137.408C165.497 137.383 165.531 137.35 165.558 137.312C165.584 137.274 165.603 137.23 165.612 137.185C165.622 137.139 165.622 137.092 165.613 137.046L162.72 122.581C162.702 122.49 162.649 122.411 162.572 122.36C162.495 122.309 162.401 122.29 162.311 122.308C162.22 122.326 162.141 122.38 162.09 122.456C162.039 122.533 162.02 122.627 162.038 122.718L164.86 136.828L140.812 140.746C140.219 139.682 137.587 134.952 137.155 134.167C133.353 127.282 133.961 117.685 133.969 117.589C133.973 117.498 133.941 117.41 133.881 117.342C133.821 117.274 133.736 117.233 133.646 117.226C133.555 117.22 133.466 117.249 133.397 117.308C133.327 117.367 133.284 117.451 133.276 117.541C133.276 117.639 132.644 127.436 136.545 134.503C136.953 135.242 139.317 139.493 140.084 140.864L137.796 141.234C136.917 141.341 136.275 142.228 135.885 143.871C131.775 139.968 129.956 128.717 127.798 128.996C127.059 129.084 126.85 130.243 126.635 132.156L123.118 121.13C126.761 113.619 126.615 102.8 137.8 97.4128C137.639 97.7971 137.574 98.215 137.612 98.63C137.649 99.0451 137.788 99.4446 138.015 99.7937C138.243 100.143 138.552 100.431 138.917 100.633C139.281 100.835 139.69 100.944 140.106 100.952C140.615 100.952 141.111 100.794 141.526 100.499C141.556 100.959 141.712 101.402 141.978 101.779C142.244 102.155 142.608 102.451 143.031 102.634C143.454 102.817 143.919 102.88 144.376 102.815C144.832 102.75 145.262 102.561 145.618 102.268C145.725 102.704 145.947 103.104 146.26 103.426C146.574 103.748 146.968 103.98 147.402 104.098C147.835 104.217 148.292 104.217 148.726 104.099C149.16 103.981 149.554 103.75 149.868 103.429C150.036 103.849 150.317 104.216 150.679 104.487C151.042 104.759 151.472 104.926 151.923 104.97C152.374 105.014 152.828 104.933 153.236 104.735C153.644 104.538 153.99 104.232 154.235 103.852C154.458 104.254 154.79 104.586 155.194 104.807C155.597 105.028 156.055 105.13 156.514 105.102C156.973 105.073 157.415 104.915 157.787 104.645C158.16 104.375 158.448 104.005 158.619 103.578C158.897 103.973 159.284 104.278 159.732 104.457C160.181 104.635 160.672 104.679 161.145 104.583C161.618 104.487 162.053 104.255 162.396 103.916C162.74 103.577 162.977 103.145 163.079 102.673C163.457 102.985 163.918 103.178 164.405 103.229C164.892 103.28 165.384 103.186 165.818 102.959C166.252 102.732 166.609 102.382 166.845 101.952C167.081 101.523 167.186 101.034 167.145 100.545C167.587 100.689 168.049 100.761 168.514 100.756C168.991 100.75 169.457 100.609 169.857 100.349C170.258 100.089 170.576 99.7204 170.775 99.2865C170.974 98.8527 171.046 98.3712 170.982 97.8982C170.918 97.4252 170.721 96.98 170.414 96.6145C172.405 97.0405 174.291 97.8612 175.96 99.0281C177.629 100.195 179.048 101.684 180.132 103.408C184.013 110.509 188.208 133.866 189.88 145.224C190.264 147.79 189.741 150.41 188.401 152.632C187.062 154.854 184.99 156.54 182.542 157.4C169.902 161.828 156.817 164.867 143.52 166.463L143.522 166.472ZM177.847 296.295L180.911 300.862C179.455 316.51 173.38 342.751 166.627 351.131L164.624 345.977C169.669 338.081 174.567 314.815 177.845 296.286L177.847 296.295ZM271.812 186.515C253.551 202.493 237.015 216.845 219.73 230.634C216.088 233.52 211.498 234.939 206.862 234.613C202.227 234.286 197.882 232.237 194.68 228.869C185.32 219.066 176.893 208.414 169.507 197.05C167.274 193.583 165.26 189.98 163.476 186.262C163.16 185.759 162.766 186.059 162.766 186.34C162.766 186.34 162.766 186.34 163.278 206.359C153.723 222.051 151.408 225.764 150.909 226.714C150.724 227.084 150.794 227.036 150.831 227.11C157.983 241.878 168.412 258.754 182.708 278.693C179.988 283.425 176.307 287.534 171.902 290.756L157.093 267.854C157.039 267.786 156.963 267.741 156.878 267.727C156.794 267.712 156.707 267.73 156.634 267.775C156.561 267.821 156.508 267.893 156.485 267.975C156.462 268.058 156.47 268.146 156.509 268.223L171.334 291.159C164.278 295.824 156.217 298.752 147.811 299.705C135.481 280.701 124.935 260.598 116.306 239.653C115.121 236.709 114.578 233.546 114.715 230.375C114.851 227.204 115.663 224.099 117.097 221.268C117.097 221.268 144.217 167.829 144.555 167.032C157.58 165.423 170.394 162.412 182.773 158.05C183.808 157.687 184.787 157.181 185.683 156.548C190.152 158.597 201.141 166.382 210.713 195.013C210.732 195.069 210.764 195.119 210.808 195.159C210.851 195.198 210.904 195.226 210.961 195.24C211.019 195.254 211.078 195.253 211.135 195.237C211.192 195.221 211.244 195.191 211.286 195.15L248.054 159.263C252.13 160.86 255.925 163.097 259.297 165.888L239.599 184.298C239.548 184.345 239.512 184.407 239.496 184.475C239.481 184.543 239.486 184.615 239.512 184.68C239.537 184.745 239.582 184.801 239.64 184.84C239.697 184.879 239.766 184.9 239.836 184.9C240.048 184.9 238.649 186.136 259.829 166.343C265.821 171.656 270.009 178.704 271.81 186.508L271.812 186.515ZM306.515 154.971C297.612 152.121 273.864 153.358 255.098 154.949L258.72 150.819C274.217 148.207 301.14 147.338 310.978 151.713L306.515 154.971Z" fill="white"/>
<path d="M311.81 151.329C301.918 146.418 273.993 147.514 258.474 150.148C258.415 150.164 258.406 150.148 258.289 150.266C257.92 150.624 256.587 152.201 250.237 159.438C249.542 159.124 248.834 158.822 248.112 158.533C248.038 158.503 247.906 158.533 247.541 158.839C246.389 159.815 240.922 165.262 211.206 194.266C202.102 167.321 191.917 158.782 186.317 156.073C187.92 154.775 189.156 153.082 189.903 151.16C190.65 149.238 190.883 147.154 190.577 145.115C188.897 133.714 184.682 110.254 180.751 103.068C176.544 95.3891 166.136 95.5388 163.301 93.8367C158.423 90.9037 156.093 84.4611 155.795 78.8483C155.786 78.7596 155.743 78.6779 155.675 78.6199C155.608 78.562 155.52 78.5324 155.431 78.5371C155.342 78.5419 155.258 78.5806 155.197 78.6454C155.136 78.7102 155.102 78.7961 155.102 78.8853C155.403 84.7346 157.86 91.3768 162.942 94.4318C164.812 95.2172 166.763 95.7937 168.76 96.1506C168.25 97.4406 167.404 98.5711 166.311 99.4255C165.15 100.166 163.904 100.767 162.602 101.216C150.953 105.236 139.626 97.4849 142.154 99.1205C141.064 98.5531 140.138 97.7158 139.463 96.6884C141.132 96.1014 142.83 95.603 144.551 95.1951C146.089 94.7004 147.416 93.7043 148.321 92.366C149.225 91.0278 149.655 89.4249 149.541 87.8136L151.419 84.1802C151.449 84.1152 151.459 84.0424 151.446 83.9718C151.434 83.9011 151.399 83.8362 151.348 83.7857C151.297 83.7353 151.232 83.7019 151.161 83.6902C151.09 83.6784 151.018 83.6888 150.953 83.72C150.274 84.197 149.555 84.6144 148.804 84.9675C144.862 86.7934 142.056 85.8361 140.912 81.6408C140.175 77.7851 140.15 73.8269 140.84 69.9624C141.274 67.3935 142.341 63.6972 144.947 63.7139C147.185 63.7139 149.817 66.4861 151.081 69.2749C151.112 69.3402 151.164 69.394 151.228 69.4289C151.291 69.4639 151.364 69.4781 151.436 69.4698C151.509 69.4615 151.576 69.431 151.631 69.3825C151.685 69.3341 151.722 69.27 151.739 69.1992C152.267 66.5766 153.541 64.7211 154.962 64.7211C155.147 64.7211 160.715 64.6878 161.327 64.7211C167.86 64.6269 175.332 61.607 175.332 53.3292C175.332 45.3563 169.656 36.0879 162.336 36.0879C154.389 36.0879 148.105 43.7299 147.207 50.873C146.984 52.6734 147.214 54.5011 147.876 56.1901C145.675 56.5073 143.628 57.5072 142.025 59.0489C140.422 60.5907 139.343 62.5966 138.94 64.784C138.918 64.8734 138.933 64.9678 138.98 65.0467C139.028 65.1256 139.104 65.1826 139.193 65.2053C139.193 65.2053 139.563 65.1887 139.82 65.1702C139.482 69.1073 139.411 73.0627 139.607 77.0094C139.792 83.9547 142.38 88.4457 148.685 85.777C149.353 89.6821 148.199 93.2268 144.329 94.5371C141.5 95.5019 131.762 96.4795 126.848 108.502C125.351 112.161 124.399 116.565 122.808 120.145C122.056 117.783 121.74 116.733 121.571 116.264C121.431 115.874 121.442 115.852 120.926 115.754L116.849 114.698C115.584 112.875 113.842 111.433 111.813 110.531L121.013 97.8915C121.126 97.7465 121.207 97.5798 121.253 97.4019C121.298 97.224 121.306 97.0386 121.277 96.8574C121.247 96.6762 121.181 96.503 121.081 96.3486C120.982 96.1942 120.852 96.062 120.699 95.9601C120.546 95.8583 120.374 95.789 120.194 95.7567C120.013 95.7243 119.827 95.7295 119.649 95.772C119.47 95.8145 119.302 95.8933 119.155 96.0036C119.009 96.1139 118.886 96.2533 118.795 96.413L110.444 110.071C109.233 109.75 107.969 109.684 106.731 109.877L106.017 106.009C106.005 105.943 105.974 105.881 105.928 105.833C105.881 105.784 105.822 105.749 105.757 105.733L100.684 104.497C100.468 104.443 100.201 104.563 100.297 105.02C100.414 105.574 100.828 106.96 101.898 110.832C91.4615 108.13 88.632 107.352 87.8114 107.204C87.2274 107.097 87.342 107.402 87.4418 107.694C87.9611 109.344 90.9422 117.62 105.095 158.978C105.189 159.25 103.144 158.608 137.536 167.995C137.926 168.043 138.005 167.845 137.802 167.071C137.565 166.158 136.937 164.449 135.965 161.395C136.704 161.765 137.443 162.109 138.182 162.443C138.903 164.245 140.585 167.723 142.47 167.304C142.916 167.252 143.357 167.197 143.797 167.141C140.822 173.005 116.474 220.963 116.474 220.963C114.996 223.883 114.158 227.085 114.017 230.355C113.876 233.624 114.436 236.887 115.657 239.923C124.331 260.977 134.937 281.181 147.34 300.278C147.486 300.503 147.691 300.435 148.109 300.374C149.481 300.177 150.82 299.947 152.125 299.686C154.544 303.503 155.451 304.597 156.135 312.974C157.435 324.263 160.044 335.363 163.909 346.049L166.191 351.918C166.212 351.974 166.248 352.023 166.294 352.062C166.34 352.1 166.395 352.125 166.454 352.136C166.513 352.146 166.573 352.141 166.629 352.121C166.686 352.101 166.736 352.067 166.775 352.022C174.06 343.722 180.174 316.458 181.614 300.788C181.614 300.551 182.037 301.279 174.306 289.752C177.972 286.685 181.059 282.987 183.421 278.832C183.453 278.775 183.468 278.71 183.465 278.644C183.462 278.579 183.44 278.516 183.403 278.462C169.118 258.554 158.691 241.706 151.537 226.969L169.233 197.913C176.579 209.118 184.925 219.633 194.17 229.331C197.491 232.827 202 234.953 206.809 235.292C211.619 235.631 216.381 234.159 220.16 231.165C237.509 217.326 254.098 202.923 272.429 186.885C272.478 186.843 272.514 186.788 272.533 186.727C272.552 186.665 272.554 186.6 272.538 186.538C271.599 182.746 270.162 179.096 268.266 175.682C270.877 173.897 273.754 172.536 276.789 171.647C287.407 167.567 297.479 162.187 306.773 155.629C310.178 153.208 311.381 152.349 311.799 151.981C312.111 151.707 312.017 151.44 311.81 151.329ZM169.318 96.6237C169.68 96.8088 169.969 97.1098 170.14 97.4787C170.311 97.8475 170.353 98.263 170.26 98.6587C170.167 99.0544 169.944 99.4076 169.627 99.6618C169.31 99.916 168.917 100.057 168.51 100.061C167.997 100.078 167.489 99.9646 167.032 99.7304C168.017 98.8787 168.796 97.8146 169.311 96.6181L169.318 96.6237ZM166.381 100.211C166.467 100.48 166.488 100.765 166.443 101.044C166.398 101.323 166.287 101.587 166.121 101.815C165.955 102.043 165.737 102.229 165.486 102.358C165.234 102.486 164.956 102.553 164.674 102.554C164.378 102.555 164.087 102.481 163.827 102.341C163.567 102.2 163.346 101.998 163.184 101.75C164.292 101.334 165.36 100.817 166.374 100.205L166.381 100.211ZM162.437 102.007C162.471 102.435 162.35 102.861 162.096 103.207C161.842 103.553 161.471 103.796 161.053 103.891C160.634 103.987 160.195 103.928 159.816 103.726C159.437 103.525 159.144 103.193 158.989 102.793C160.155 102.619 161.305 102.354 162.43 102.002L162.437 102.007ZM158.081 102.9C158.031 103.318 157.829 103.704 157.513 103.983C157.197 104.262 156.79 104.414 156.368 104.412C155.97 104.411 155.583 104.273 155.274 104.021C154.965 103.77 154.752 103.42 154.67 103.029C155.806 103.057 156.943 103.012 158.074 102.894L158.081 102.9ZM150.388 102.569C151.541 102.775 152.704 102.916 153.873 102.992C153.77 103.365 153.547 103.693 153.239 103.926C152.932 104.16 152.556 104.286 152.169 104.286C151.706 104.285 151.262 104.105 150.929 103.784C150.595 103.463 150.399 103.026 150.38 102.564L150.388 102.569ZM146.27 101.532C147.394 101.89 148.536 102.191 149.691 102.434C149.519 102.826 149.213 103.144 148.827 103.33C148.441 103.516 148.002 103.558 147.588 103.448C147.174 103.339 146.813 103.085 146.57 102.733C146.327 102.38 146.218 101.953 146.263 101.527L146.27 101.532ZM142.267 99.943C143.336 100.444 144.431 100.891 145.545 101.281C145.321 101.641 144.977 101.91 144.574 102.04C144.171 102.171 143.734 102.154 143.342 101.994C142.95 101.834 142.627 101.54 142.43 101.165C142.233 100.79 142.175 100.357 142.267 99.943ZM138.87 97.0377C139.531 98.0821 140.439 98.9474 141.515 99.5567C141.35 99.7716 141.138 99.9457 140.895 100.066C140.652 100.185 140.385 100.248 140.114 100.248C139.748 100.234 139.394 100.114 139.096 99.9015C138.797 99.6893 138.568 99.3945 138.435 99.0534C138.302 98.7123 138.271 98.3397 138.347 97.9816C138.423 97.6235 138.603 97.2954 138.863 97.0377H138.87ZM111.392 111.1C113.097 111.819 114.594 112.956 115.744 114.406L110.056 112.928L111.392 111.1ZM110.063 110.679C109.387 111.788 108.954 112.446 108.882 112.632L107.156 112.183L106.855 110.551C107.922 110.381 109.013 110.424 110.063 110.679ZM101.092 105.303L105.369 106.345L106.413 111.989L102.674 111.021L101.092 105.303ZM137.059 167.149L105.683 158.568L88.2088 108.008L120.902 116.471L126.537 134.148C126.504 137.567 126.271 139.722 125.419 140.214C125.241 140.289 125.046 140.316 124.853 140.293C124.661 140.269 124.478 140.195 124.323 140.079C119.852 136.019 115.008 132.39 109.856 129.238C108.609 128.589 104.922 126.674 104.127 127.82C103.572 128.613 104.709 130.31 107.502 132.864C108.621 133.895 109.669 134.926 110.632 135.948C109.272 135.307 107.644 134.583 106.596 134.121C104.064 133.012 102.482 132.814 102.022 133.55C101.925 133.73 101.896 133.939 101.94 134.139C101.984 134.339 102.099 134.516 102.264 134.638C104.073 136.191 107.078 138.357 109.167 140.053C107.916 139.726 104.768 138.959 104.264 140.158C104.197 140.353 104.202 140.564 104.278 140.755C104.354 140.946 104.496 141.103 104.678 141.199C107.126 142.69 111.667 144.879 113.918 146.335C117.333 148.265 120.56 150.508 123.558 153.036C124.712 154.296 125.996 155.43 127.388 156.42C129.856 158.099 132.431 159.615 135.096 160.959L137.059 167.149ZM114.881 143.759C110.143 140.236 112.172 141.424 106.489 137.089C105.138 136.056 103.741 134.989 102.715 134.11C102.624 134.032 102.597 133.939 102.611 133.925C102.626 133.91 103.138 133.37 106.308 134.762C107.819 135.429 110.544 136.647 111.9 137.349C114.466 140.241 116.743 143.377 118.698 146.712C117.48 145.681 116.143 144.688 114.879 143.749L114.881 143.759ZM120.527 149.334C120.743 149.629 120.963 149.924 121.189 150.22C119.476 148.989 117.557 147.797 115.992 146.823C113.843 145.412 111.615 144.124 109.32 142.966C107.788 142.154 106.206 141.315 105.04 140.604C104.938 140.543 104.894 140.454 104.905 140.428C104.916 140.402 105.337 139.794 108.697 140.65C109.035 140.737 109.656 140.898 110.39 141.092C113.547 143.875 117.825 146.462 120.525 149.325L120.527 149.334ZM138.589 161.863C134.359 159.976 130.333 157.66 126.576 154.951C125.109 153.718 123.767 152.344 122.569 150.848C120.666 148.404 118.906 145.851 117.299 143.202C114.637 139.223 111.504 135.579 107.967 132.352C104.897 129.545 104.567 128.399 104.692 128.219C104.702 128.21 104.713 128.201 104.726 128.195C104.897 128.112 105.801 127.911 109.531 129.859C114.638 132.984 119.439 136.585 123.869 140.613C123.89 140.635 123.914 140.653 123.941 140.669C124.203 140.856 124.51 140.969 124.831 140.995C125.152 141.022 125.474 140.961 125.763 140.82C127.611 139.756 127.084 134.427 127.286 132.587C127.313 131.599 127.51 130.623 127.868 129.702C127.972 129.72 128.568 130.023 130.086 134.148C131.283 137.408 133.387 143.123 136.142 144.999C137.617 145.854 139.357 146.129 141.023 145.771C143.321 151.493 144.234 157.678 143.686 163.82C141.951 163.261 140.249 162.605 138.587 161.854L138.589 161.863ZM143.522 166.472C143.908 165.813 144.171 165.088 144.298 164.334C145.374 159.085 143.714 150.061 141.553 145.246C141.043 143.908 140.234 142.704 139.188 141.726L165.328 137.456C165.374 137.449 165.418 137.433 165.458 137.408C165.497 137.383 165.531 137.35 165.558 137.312C165.584 137.274 165.603 137.23 165.612 137.185C165.622 137.139 165.622 137.092 165.613 137.046L162.72 122.581C162.702 122.49 162.649 122.411 162.572 122.36C162.495 122.309 162.401 122.29 162.311 122.308C162.22 122.326 162.141 122.38 162.09 122.456C162.039 122.533 162.02 122.627 162.038 122.718L164.86 136.828L140.812 140.746C140.219 139.682 137.587 134.952 137.155 134.167C133.353 127.282 133.961 117.685 133.969 117.589C133.973 117.498 133.941 117.41 133.881 117.342C133.821 117.274 133.736 117.233 133.646 117.226C133.555 117.22 133.466 117.249 133.397 117.308C133.327 117.367 133.284 117.451 133.276 117.541C133.276 117.639 132.644 127.436 136.545 134.503C136.953 135.242 139.317 139.493 140.084 140.864L137.796 141.234C136.917 141.341 136.275 142.228 135.885 143.871C131.775 139.968 129.956 128.717 127.798 128.996C127.059 129.084 126.85 130.243 126.635 132.156L123.118 121.13C126.761 113.619 126.615 102.8 137.8 97.4128C137.639 97.7971 137.574 98.215 137.612 98.63C137.649 99.0451 137.788 99.4446 138.015 99.7937C138.243 100.143 138.552 100.431 138.917 100.633C139.281 100.835 139.69 100.944 140.106 100.952C140.615 100.952 141.111 100.794 141.526 100.499C141.556 100.959 141.712 101.402 141.978 101.779C142.244 102.155 142.608 102.451 143.031 102.634C143.454 102.817 143.919 102.88 144.376 102.815C144.832 102.75 145.262 102.561 145.618 102.268C145.725 102.704 145.947 103.104 146.26 103.426C146.574 103.748 146.968 103.98 147.402 104.098C147.835 104.217 148.292 104.217 148.726 104.099C149.16 103.981 149.554 103.75 149.868 103.429C150.036 103.849 150.317 104.216 150.679 104.487C151.042 104.759 151.472 104.926 151.923 104.97C152.374 105.014 152.828 104.933 153.236 104.735C153.644 104.538 153.99 104.232 154.235 103.852C154.458 104.254 154.79 104.586 155.194 104.807C155.597 105.028 156.055 105.13 156.514 105.102C156.973 105.073 157.415 104.915 157.787 104.645C158.16 104.375 158.448 104.005 158.619 103.578C158.897 103.973 159.284 104.278 159.732 104.457C160.181 104.635 160.672 104.679 161.145 104.583C161.618 104.487 162.053 104.255 162.396 103.916C162.74 103.577 162.977 103.145 163.079 102.673C163.457 102.985 163.918 103.178 164.405 103.229C164.892 103.28 165.384 103.186 165.818 102.959C166.252 102.732 166.609 102.382 166.845 101.952C167.081 101.523 167.186 101.034 167.145 100.545C167.587 100.689 168.049 100.761 168.514 100.756C168.991 100.75 169.457 100.609 169.857 100.349C170.258 100.089 170.576 99.7204 170.775 99.2865C170.974 98.8527 171.046 98.3712 170.982 97.8982C170.918 97.4252 170.721 96.98 170.414 96.6145C172.405 97.0405 174.291 97.8612 175.96 99.0281C177.629 100.195 179.048 101.684 180.132 103.408C184.013 110.509 188.208 133.866 189.88 145.224C190.264 147.79 189.741 150.41 188.401 152.632C187.062 154.854 184.99 156.54 182.542 157.4C169.902 161.828 156.817 164.867 143.52 166.463L143.522 166.472ZM177.847 296.295L180.911 300.862C179.455 316.51 173.38 342.751 166.627 351.131L164.624 345.977C169.669 338.081 174.567 314.815 177.845 296.286L177.847 296.295ZM271.812 186.515C253.551 202.493 237.015 216.845 219.73 230.634C216.088 233.52 211.498 234.939 206.862 234.613C202.227 234.286 197.882 232.237 194.68 228.869C185.32 219.066 176.893 208.414 169.507 197.05C167.274 193.583 165.26 189.98 163.476 186.262C163.16 185.759 162.766 186.059 162.766 186.34C162.766 186.34 162.766 186.34 163.278 206.359C153.723 222.051 151.408 225.764 150.909 226.714C150.724 227.084 150.794 227.036 150.831 227.11C157.983 241.878 168.412 258.754 182.708 278.693C179.988 283.425 176.307 287.534 171.902 290.756L157.093 267.854C157.039 267.786 156.963 267.741 156.878 267.727C156.794 267.712 156.707 267.73 156.634 267.775C156.561 267.821 156.508 267.893 156.485 267.975C156.462 268.058 156.47 268.146 156.509 268.223L171.334 291.159C164.278 295.824 156.217 298.752 147.811 299.705C135.481 280.701 124.935 260.598 116.306 239.653C115.121 236.709 114.578 233.546 114.715 230.375C114.851 227.204 115.663 224.099 117.097 221.268C117.097 221.268 144.217 167.829 144.555 167.032C157.58 165.423 170.394 162.412 182.773 158.05C183.808 157.687 184.787 157.181 185.683 156.548C190.152 158.597 201.141 166.382 210.713 195.013C210.732 195.069 210.764 195.119 210.808 195.159C210.851 195.198 210.904 195.226 210.961 195.24C211.019 195.254 211.078 195.253 211.135 195.237C211.192 195.221 211.244 195.191 211.286 195.15L248.054 159.263C252.13 160.86 255.925 163.097 259.297 165.888L239.599 184.298C239.548 184.345 239.512 184.407 239.496 184.475C239.481 184.543 239.486 184.615 239.512 184.68C239.537 184.745 239.582 184.801 239.64 184.84C239.697 184.879 239.766 184.9 239.836 184.9C240.048 184.9 238.649 186.136 259.829 166.343C265.821 171.656 270.009 178.704 271.81 186.508L271.812 186.515ZM306.515 154.971C297.612 152.121 273.864 153.358 255.098 154.949L258.72 150.819C274.217 148.207 301.14 147.338 310.978 151.713L306.515 154.971Z" stroke="white" stroke-width="0.6" mask="url(#path-17-outside-2_1_534)"/>
<path d="M173.203 166.988C173.165 166.962 173.133 166.929 173.108 166.891C173.083 166.853 173.065 166.81 173.057 166.765C173.048 166.72 173.049 166.674 173.058 166.629C173.067 166.585 173.085 166.542 173.111 166.504C173.137 166.467 173.17 166.434 173.208 166.409C173.246 166.384 173.289 166.367 173.334 166.359C173.379 166.35 173.425 166.351 173.47 166.36C173.514 166.369 173.557 166.387 173.594 166.413C176.247 168.355 179.272 169.731 182.479 170.455C185.687 171.179 189.009 171.234 192.239 170.619C192.329 170.601 192.423 170.62 192.5 170.671C192.576 170.722 192.63 170.801 192.648 170.892C192.666 170.982 192.647 171.076 192.596 171.153C192.545 171.23 192.466 171.283 192.375 171.301C189.054 171.934 185.639 171.877 182.341 171.135C179.043 170.393 175.933 168.982 173.203 166.988Z" fill="white"/>
<path d="M160.593 64.2218C159.619 64.0556 158.628 64.022 157.645 64.122C157.044 62.1548 155.811 60.4405 154.138 59.2439C152.465 58.0474 150.444 57.4352 148.388 57.5019C146.305 57.3819 144.251 58.0288 142.613 59.3204C140.975 60.612 139.867 62.4589 139.498 64.5119L139.192 64.523C138.225 64.5729 137.299 65.4619 136.65 66.9607C134.593 71.716 136.417 79.2675 140.09 79.5687H140.117C140.165 79.5687 140.212 79.5588 140.256 79.5397C140.299 79.5206 140.338 79.4928 140.371 79.4578C140.827 78.9681 139.338 76.7559 140.528 65.0276C140.551 64.9727 140.562 64.9131 140.559 64.8535C140.556 64.7938 140.539 64.7357 140.509 64.6836C140.48 64.6316 140.439 64.587 140.39 64.5534C140.34 64.5198 140.284 64.498 140.225 64.4898C140.596 62.632 141.628 60.9714 143.128 59.8145C144.628 58.6575 146.497 58.0823 148.388 58.195C150.261 58.1101 152.109 58.6444 153.648 59.7154C155.187 60.7864 156.33 62.3344 156.9 64.1201H154.989C150.827 64.1201 149.369 73.4791 152.419 77.6707C151.018 79.025 149.354 80.0757 147.529 80.7571C147.313 80.4445 147.005 80.2081 146.647 80.0821C146.289 79.9561 145.9 79.9469 145.537 80.0557C145.174 80.1646 144.854 80.386 144.624 80.6881C144.395 80.9901 144.267 81.3573 144.259 81.7366C144.265 81.9796 144.321 82.2187 144.424 82.4391C144.526 82.6594 144.673 82.8563 144.855 83.0174C145.037 83.1785 145.25 83.3003 145.481 83.3753C145.713 83.4503 145.957 83.4769 146.199 83.4533C146.441 83.4298 146.675 83.3566 146.887 83.2384C147.1 83.1202 147.285 82.9595 147.433 82.7664C147.58 82.5732 147.687 82.3517 147.745 82.1157C147.803 81.8797 147.812 81.6343 147.771 81.3947C147.79 81.3917 147.809 81.3868 147.828 81.3799C149.688 80.6404 151.397 79.5647 152.868 78.2067C153.134 78.5107 153.461 78.7567 153.826 78.9297C154.192 79.1026 154.589 79.1987 154.993 79.212C160.429 79.212 160.133 79.249 160.597 79.1141C165.289 77.7391 165.291 65.595 160.593 64.2218ZM139.709 78.7851C137.136 77.9257 135.359 71.7123 137.294 67.2361C137.826 66.0071 138.55 65.253 139.227 65.2179L139.818 65.1958C139.273 69.7071 139.234 74.2653 139.703 78.7851H139.709ZM154.995 78.5504V78.519C153.097 78.519 151.493 75.3772 151.493 71.6679C151.493 67.9587 153.097 64.8169 154.995 64.8169H158.137C154.949 67.4856 154.884 75.769 158.126 78.519C156.082 78.519 155.305 78.5245 154.989 78.5504H154.995ZM160.406 78.4469C157.08 79.4264 154.877 70.8049 157.756 66.3287C158.375 65.3621 159.303 64.5637 160.404 64.889C161.907 65.3288 163.43 67.7979 163.43 71.6679C163.43 75.5379 161.903 78.0071 160.401 78.4469H160.406Z" fill="white"/>
<path d="M163.745 71.0874L163.745 71.0875L163.748 71.0877C177.922 72.0733 189.262 75.5799 197.195 78.8399C201.162 80.4699 204.277 82.0383 206.47 83.1994C207.137 83.5528 207.715 83.8663 208.208 84.1335C208.528 84.307 208.812 84.461 209.061 84.5937C209.374 84.7608 209.631 84.8932 209.827 84.984C209.925 85.0294 210.011 85.0656 210.083 85.0908C210.149 85.1142 210.219 85.1334 210.279 85.1339C210.391 85.1369 210.5 85.1024 210.59 85.0357C210.68 84.9686 210.745 84.8729 210.774 84.7643C210.802 84.6557 210.794 84.5405 210.749 84.4375C210.704 84.3353 210.626 84.2511 210.528 84.1984C196.225 76.0232 180.254 71.201 163.817 70.0953L163.817 70.0953L163.814 70.0952C163.684 70.0892 163.557 70.1342 163.46 70.2206C163.363 70.3071 163.303 70.428 163.294 70.5577C163.285 70.6873 163.327 70.8153 163.412 70.9143C163.496 71.0133 163.615 71.0754 163.745 71.0874Z" fill="white" stroke="white" stroke-width="0.3"/>
</svg>
