<svg width="452" height="510" viewBox="0 0 452 510" fill="none" xmlns="http://www.w3.org/2000/svg">
<rect width="452" height="510" fill="#1E1E1E"/>
<rect width="1438" height="3603" transform="translate(-102 -412)" fill="#000212"/>
<path d="M383.662 278.757L383.662 278.757L382.513 278.622L382.364 278.604C382.364 278.604 382.364 278.604 382.364 278.604C378.867 308.094 367.132 336.002 348.505 359.129C329.878 382.257 305.112 399.669 277.045 409.37C248.978 419.071 218.745 420.668 189.813 413.978C160.88 407.289 134.417 392.583 113.456 371.546C113.334 371.424 113.168 371.354 112.994 371.354C112.821 371.354 112.655 371.422 112.532 371.545C112.409 371.667 112.34 371.833 112.339 372.007C112.339 372.18 112.408 372.347 112.53 372.469C127.297 387.374 144.881 399.193 164.257 407.24C183.634 415.288 204.417 419.403 225.398 419.346C264.421 419.372 302.096 405.07 331.271 379.154C360.445 353.238 379.089 317.511 383.662 278.757Z" fill="white" stroke="white" stroke-width="0.3"/>
<path d="M377.458 216.773L377.458 216.775C377.508 216.941 377.621 217.082 377.773 217.164C377.926 217.247 378.105 217.266 378.272 217.217C378.438 217.168 378.578 217.055 378.661 216.902C378.744 216.75 378.763 216.571 378.714 216.405C375.847 206.323 371.987 196.55 367.189 187.231L367.19 187.231L367.187 187.226C367.103 187.079 366.967 186.971 366.805 186.923C366.644 186.874 366.47 186.891 366.32 186.968C366.17 187.045 366.056 187.177 366.001 187.336C365.947 187.496 365.956 187.67 366.027 187.823L366.027 187.823L366.03 187.828C370.786 197.075 374.615 206.771 377.458 216.773Z" fill="white" stroke="white" stroke-width="0.3"/>
<mask id="path-3-outside-1_0_1" maskUnits="userSpaceOnUse" x="0.03125" y="208.946" width="130" height="164" fill="black">
<rect fill="white" x="0.03125" y="208.946" width="130" height="164"/>
<path d="M129.331 294.639C129.326 289.875 127.432 285.307 124.063 281.939C120.694 278.57 116.127 276.675 111.362 276.67H71.512V252.647H112.197C114.233 252.645 116.186 251.835 117.626 250.395C119.067 248.954 119.877 247.002 119.879 244.965V217.626C119.876 215.59 119.066 213.637 117.626 212.198C116.185 210.758 114.233 209.948 112.197 209.946H18.1608C16.1267 209.952 14.1777 210.763 12.7404 212.202C11.3032 213.642 10.4946 215.592 10.4918 217.626V244.965C10.4939 247.002 11.304 248.954 12.7442 250.395C14.1845 251.835 16.1373 252.645 18.1741 252.647H58.8427V276.67H19.0004C14.2364 276.676 9.66918 278.571 6.30054 281.939C2.9319 285.308 1.03691 289.875 1.03125 294.639V354.619C1.03691 359.383 2.9319 363.95 6.30054 367.319C9.66918 370.688 14.2364 372.583 19.0004 372.588H111.362C116.126 372.583 120.694 370.688 124.062 367.319C127.431 363.95 129.326 359.383 129.331 354.619V294.639ZM71.512 336.078V325.497C73.0784 327.409 75.1683 328.822 77.5258 329.564C77.6527 329.605 77.7908 329.594 77.9097 329.534C78.0285 329.473 78.1184 329.367 78.1595 329.241C78.2006 329.114 78.1897 328.976 78.129 328.857C78.0683 328.738 77.9629 328.648 77.836 328.607C72.357 326.837 68.4316 321.411 69.3381 312.648C69.3526 312.516 69.3139 312.383 69.2304 312.279C69.1469 312.175 69.0255 312.108 68.8928 312.094C68.7602 312.079 68.6273 312.118 68.5232 312.201C68.4192 312.285 68.3525 312.406 68.338 312.539C67.2684 322.612 62.0114 323.085 61.8563 319.898C61.6263 315.066 61.383 311.737 61.4979 309.56C61.7199 305.429 63.2334 305.327 68.5225 304.982C75.6513 304.514 76.0765 304.488 78.2986 307.942C79.1007 309.202 78.8334 314.983 82.7026 315.023C96.8266 315.175 123.347 314.576 128.326 314.191V343.439C124.663 343.346 81.7747 342.889 71.512 342.68V338.763C71.8235 337.895 71.8235 336.946 71.512 336.078ZM59.8481 371.58V342.835C60.6129 342.749 65.1479 342.191 66.9021 342.003C68.2577 341.906 69.5348 341.331 70.5066 340.38V371.58H59.8481ZM66.8004 341.003C61.3241 341.589 58.5111 342.118 55.7863 342.092C51.8181 342.062 51.6363 335.556 56.5698 335.179C60.4524 334.885 63.1317 334.645 67.0545 334.514C72.127 334.345 71.9104 340.455 66.7951 341.003H66.8004ZM60.5193 309.196C60.4433 311.557 60.4941 313.919 60.6717 316.274C58.5247 316.413 56.3708 316.407 54.2247 316.256C50.3635 315.887 50.4143 309.178 55.3531 309.151L60.5193 309.196ZM54.8798 317.734C56.88 317.692 58.7331 317.537 60.7385 317.467C60.7786 318.242 60.8214 319.071 60.8615 319.946C61.0193 323.195 65.4581 324.326 67.8995 318.734C68.382 319.215 68.7078 319.83 68.8343 320.499C68.9607 321.168 68.8817 321.86 68.6078 322.483C68.3338 323.107 67.8777 323.633 67.2993 323.992C66.721 324.351 66.0474 324.527 65.3672 324.497C59.7786 324.791 56.658 325.195 53.7595 325.016C49.5773 324.759 49.5987 317.849 54.8798 317.734ZM69.675 322.497C69.922 323.042 70.2033 323.57 70.5173 324.08V328.147C70.3339 327.377 69.9268 326.678 69.3473 326.139C68.7677 325.6 68.0416 325.245 67.2604 325.117C67.8381 324.899 68.3565 324.548 68.7739 324.093C69.1914 323.638 69.4964 323.091 69.6643 322.497H69.675ZM54.9922 326.353C59.0031 326.163 61.7653 325.994 65.8432 325.978C71.1243 325.957 70.7526 332.308 65.434 332.722C59.923 333.153 56.8773 333.623 54.0268 333.524C49.8822 333.377 49.8581 326.596 54.9815 326.353H54.9922ZM70.5173 329.92V334.594C69.9952 334.177 69.3955 333.867 68.7528 333.683C68.1102 333.5 67.4374 333.446 66.7737 333.524C67.6718 333.335 68.4984 332.896 69.1586 332.259C69.8189 331.621 70.286 330.811 70.5066 329.92H70.5173ZM111.373 277.676C115.871 277.68 120.182 279.469 123.363 282.65C126.543 285.83 128.332 290.142 128.337 294.639V313.183C123.724 313.566 96.9469 314.17 82.724 314.018C79.8067 313.988 80.1463 308.937 79.1569 307.397C77.0338 304.102 76.0364 303.597 71.5227 303.798V277.676H111.373ZM18.1715 251.738V251.639C16.3985 251.639 14.6982 250.935 13.4445 249.681C12.1908 248.427 11.4865 246.727 11.4865 244.954V217.626C11.4865 215.853 12.1908 214.153 13.4445 212.899C14.6982 211.645 16.3985 210.941 18.1715 210.941H112.197C113.97 210.941 115.67 211.645 116.924 212.899C118.177 214.153 118.882 215.853 118.882 217.626V244.965C118.882 246.738 118.177 248.438 116.924 249.692C115.67 250.945 113.97 251.65 112.197 251.65H71.0173C70.9513 251.65 70.8859 251.663 70.8249 251.688C70.7639 251.713 70.7085 251.75 70.6618 251.797C70.6152 251.844 70.5781 251.899 70.5529 251.96C70.5276 252.021 70.5146 252.086 70.5146 252.152V303.856C69.8648 303.894 69.1535 303.942 68.3754 303.993C63.0275 304.343 61.1557 304.851 60.6396 308.202L59.8695 308.188V252.144C59.8688 252.011 59.8152 251.883 59.7205 251.789C59.6258 251.695 59.4977 251.642 59.3641 251.642C19.2705 251.642 19.1073 251.607 18.1608 251.741L18.1715 251.738ZM2.04201 354.617V294.639C2.04626 290.142 3.8345 285.83 7.01432 282.65C10.1941 279.469 14.5058 277.68 19.0031 277.676H58.8454V308.159C58.2303 308.159 55.3692 308.132 55.3692 308.132C54.299 308.092 53.2471 308.418 52.3884 309.059C51.5297 309.699 50.916 310.613 50.6492 311.651C50.3824 312.688 50.4786 313.785 50.9218 314.76C51.3651 315.735 52.1286 316.529 53.0856 317.01C52.1553 317.294 51.3367 317.861 50.7433 318.632C50.1499 319.403 49.8112 320.339 49.7741 321.311C49.7371 322.283 50.0036 323.243 50.5366 324.057C51.0696 324.871 51.8428 325.498 52.7487 325.853C48.6361 327.778 49.2912 334.345 53.9921 334.514C54.2595 334.514 54.5483 334.53 54.829 334.53C50.5186 336.182 51.0266 342.634 55.3638 343.062C55.5564 343.124 58.4362 343.268 58.8641 343.29V371.57H19.0218C14.5217 371.572 10.2045 369.789 7.01875 366.611C3.83295 363.432 2.03911 359.119 2.03132 354.619L2.04201 354.617ZM111.373 371.578H71.512V343.685C81.7774 343.894 124.684 344.354 128.326 344.447V354.609C128.323 359.108 126.535 363.421 123.355 366.603C120.174 369.785 115.861 371.575 111.362 371.58L111.373 371.578Z"/>
</mask>
<path d="M129.331 294.639C129.326 289.875 127.432 285.307 124.063 281.939C120.694 278.57 116.127 276.675 111.362 276.67H71.512V252.647H112.197C114.233 252.645 116.186 251.835 117.626 250.395C119.067 248.954 119.877 247.002 119.879 244.965V217.626C119.876 215.59 119.066 213.637 117.626 212.198C116.185 210.758 114.233 209.948 112.197 209.946H18.1608C16.1267 209.952 14.1777 210.763 12.7404 212.202C11.3032 213.642 10.4946 215.592 10.4918 217.626V244.965C10.4939 247.002 11.304 248.954 12.7442 250.395C14.1845 251.835 16.1373 252.645 18.1741 252.647H58.8427V276.67H19.0004C14.2364 276.676 9.66918 278.571 6.30054 281.939C2.9319 285.308 1.03691 289.875 1.03125 294.639V354.619C1.03691 359.383 2.9319 363.95 6.30054 367.319C9.66918 370.688 14.2364 372.583 19.0004 372.588H111.362C116.126 372.583 120.694 370.688 124.062 367.319C127.431 363.95 129.326 359.383 129.331 354.619V294.639ZM71.512 336.078V325.497C73.0784 327.409 75.1683 328.822 77.5258 329.564C77.6527 329.605 77.7908 329.594 77.9097 329.534C78.0285 329.473 78.1184 329.367 78.1595 329.241C78.2006 329.114 78.1897 328.976 78.129 328.857C78.0683 328.738 77.9629 328.648 77.836 328.607C72.357 326.837 68.4316 321.411 69.3381 312.648C69.3526 312.516 69.3139 312.383 69.2304 312.279C69.1469 312.175 69.0255 312.108 68.8928 312.094C68.7602 312.079 68.6273 312.118 68.5232 312.201C68.4192 312.285 68.3525 312.406 68.338 312.539C67.2684 322.612 62.0114 323.085 61.8563 319.898C61.6263 315.066 61.383 311.737 61.4979 309.56C61.7199 305.429 63.2334 305.327 68.5225 304.982C75.6513 304.514 76.0765 304.488 78.2986 307.942C79.1007 309.202 78.8334 314.983 82.7026 315.023C96.8266 315.175 123.347 314.576 128.326 314.191V343.439C124.663 343.346 81.7747 342.889 71.512 342.68V338.763C71.8235 337.895 71.8235 336.946 71.512 336.078ZM59.8481 371.58V342.835C60.6129 342.749 65.1479 342.191 66.9021 342.003C68.2577 341.906 69.5348 341.331 70.5066 340.38V371.58H59.8481ZM66.8004 341.003C61.3241 341.589 58.5111 342.118 55.7863 342.092C51.8181 342.062 51.6363 335.556 56.5698 335.179C60.4524 334.885 63.1317 334.645 67.0545 334.514C72.127 334.345 71.9104 340.455 66.7951 341.003H66.8004ZM60.5193 309.196C60.4433 311.557 60.4941 313.919 60.6717 316.274C58.5247 316.413 56.3708 316.407 54.2247 316.256C50.3635 315.887 50.4143 309.178 55.3531 309.151L60.5193 309.196ZM54.8798 317.734C56.88 317.692 58.7331 317.537 60.7385 317.467C60.7786 318.242 60.8214 319.071 60.8615 319.946C61.0193 323.195 65.4581 324.326 67.8995 318.734C68.382 319.215 68.7078 319.83 68.8343 320.499C68.9607 321.168 68.8817 321.86 68.6078 322.483C68.3338 323.107 67.8777 323.633 67.2993 323.992C66.721 324.351 66.0474 324.527 65.3672 324.497C59.7786 324.791 56.658 325.195 53.7595 325.016C49.5773 324.759 49.5987 317.849 54.8798 317.734ZM69.675 322.497C69.922 323.042 70.2033 323.57 70.5173 324.08V328.147C70.3339 327.377 69.9268 326.678 69.3473 326.139C68.7677 325.6 68.0416 325.245 67.2604 325.117C67.8381 324.899 68.3565 324.548 68.7739 324.093C69.1914 323.638 69.4964 323.091 69.6643 322.497H69.675ZM54.9922 326.353C59.0031 326.163 61.7653 325.994 65.8432 325.978C71.1243 325.957 70.7526 332.308 65.434 332.722C59.923 333.153 56.8773 333.623 54.0268 333.524C49.8822 333.377 49.8581 326.596 54.9815 326.353H54.9922ZM70.5173 329.92V334.594C69.9952 334.177 69.3955 333.867 68.7528 333.683C68.1102 333.5 67.4374 333.446 66.7737 333.524C67.6718 333.335 68.4984 332.896 69.1586 332.259C69.8189 331.621 70.286 330.811 70.5066 329.92H70.5173ZM111.373 277.676C115.871 277.68 120.182 279.469 123.363 282.65C126.543 285.83 128.332 290.142 128.337 294.639V313.183C123.724 313.566 96.9469 314.17 82.724 314.018C79.8067 313.988 80.1463 308.937 79.1569 307.397C77.0338 304.102 76.0364 303.597 71.5227 303.798V277.676H111.373ZM18.1715 251.738V251.639C16.3985 251.639 14.6982 250.935 13.4445 249.681C12.1908 248.427 11.4865 246.727 11.4865 244.954V217.626C11.4865 215.853 12.1908 214.153 13.4445 212.899C14.6982 211.645 16.3985 210.941 18.1715 210.941H112.197C113.97 210.941 115.67 211.645 116.924 212.899C118.177 214.153 118.882 215.853 118.882 217.626V244.965C118.882 246.738 118.177 248.438 116.924 249.692C115.67 250.945 113.97 251.65 112.197 251.65H71.0173C70.9513 251.65 70.8859 251.663 70.8249 251.688C70.7639 251.713 70.7085 251.75 70.6618 251.797C70.6152 251.844 70.5781 251.899 70.5529 251.96C70.5276 252.021 70.5146 252.086 70.5146 252.152V303.856C69.8648 303.894 69.1535 303.942 68.3754 303.993C63.0275 304.343 61.1557 304.851 60.6396 308.202L59.8695 308.188V252.144C59.8688 252.011 59.8152 251.883 59.7205 251.789C59.6258 251.695 59.4977 251.642 59.3641 251.642C19.2705 251.642 19.1073 251.607 18.1608 251.741L18.1715 251.738ZM2.04201 354.617V294.639C2.04626 290.142 3.8345 285.83 7.01432 282.65C10.1941 279.469 14.5058 277.68 19.0031 277.676H58.8454V308.159C58.2303 308.159 55.3692 308.132 55.3692 308.132C54.299 308.092 53.2471 308.418 52.3884 309.059C51.5297 309.699 50.916 310.613 50.6492 311.651C50.3824 312.688 50.4786 313.785 50.9218 314.76C51.3651 315.735 52.1286 316.529 53.0856 317.01C52.1553 317.294 51.3367 317.861 50.7433 318.632C50.1499 319.403 49.8112 320.339 49.7741 321.311C49.7371 322.283 50.0036 323.243 50.5366 324.057C51.0696 324.871 51.8428 325.498 52.7487 325.853C48.6361 327.778 49.2912 334.345 53.9921 334.514C54.2595 334.514 54.5483 334.53 54.829 334.53C50.5186 336.182 51.0266 342.634 55.3638 343.062C55.5564 343.124 58.4362 343.268 58.8641 343.29V371.57H19.0218C14.5217 371.572 10.2045 369.789 7.01875 366.611C3.83295 363.432 2.03911 359.119 2.03132 354.619L2.04201 354.617ZM111.373 371.578H71.512V343.685C81.7774 343.894 124.684 344.354 128.326 344.447V354.609C128.323 359.108 126.535 363.421 123.355 366.603C120.174 369.785 115.861 371.575 111.362 371.58L111.373 371.578Z" fill="white"/>
<path d="M129.331 294.639C129.326 289.875 127.432 285.307 124.063 281.939C120.694 278.57 116.127 276.675 111.362 276.67H71.512V252.647H112.197C114.233 252.645 116.186 251.835 117.626 250.395C119.067 248.954 119.877 247.002 119.879 244.965V217.626C119.876 215.59 119.066 213.637 117.626 212.198C116.185 210.758 114.233 209.948 112.197 209.946H18.1608C16.1267 209.952 14.1777 210.763 12.7404 212.202C11.3032 213.642 10.4946 215.592 10.4918 217.626V244.965C10.4939 247.002 11.304 248.954 12.7442 250.395C14.1845 251.835 16.1373 252.645 18.1741 252.647H58.8427V276.67H19.0004C14.2364 276.676 9.66918 278.571 6.30054 281.939C2.9319 285.308 1.03691 289.875 1.03125 294.639V354.619C1.03691 359.383 2.9319 363.95 6.30054 367.319C9.66918 370.688 14.2364 372.583 19.0004 372.588H111.362C116.126 372.583 120.694 370.688 124.062 367.319C127.431 363.95 129.326 359.383 129.331 354.619V294.639ZM71.512 336.078V325.497C73.0784 327.409 75.1683 328.822 77.5258 329.564C77.6527 329.605 77.7908 329.594 77.9097 329.534C78.0285 329.473 78.1184 329.367 78.1595 329.241C78.2006 329.114 78.1897 328.976 78.129 328.857C78.0683 328.738 77.9629 328.648 77.836 328.607C72.357 326.837 68.4316 321.411 69.3381 312.648C69.3526 312.516 69.3139 312.383 69.2304 312.279C69.1469 312.175 69.0255 312.108 68.8928 312.094C68.7602 312.079 68.6273 312.118 68.5232 312.201C68.4192 312.285 68.3525 312.406 68.338 312.539C67.2684 322.612 62.0114 323.085 61.8563 319.898C61.6263 315.066 61.383 311.737 61.4979 309.56C61.7199 305.429 63.2334 305.327 68.5225 304.982C75.6513 304.514 76.0765 304.488 78.2986 307.942C79.1007 309.202 78.8334 314.983 82.7026 315.023C96.8266 315.175 123.347 314.576 128.326 314.191V343.439C124.663 343.346 81.7747 342.889 71.512 342.68V338.763C71.8235 337.895 71.8235 336.946 71.512 336.078ZM59.8481 371.58V342.835C60.6129 342.749 65.1479 342.191 66.9021 342.003C68.2577 341.906 69.5348 341.331 70.5066 340.38V371.58H59.8481ZM66.8004 341.003C61.3241 341.589 58.5111 342.118 55.7863 342.092C51.8181 342.062 51.6363 335.556 56.5698 335.179C60.4524 334.885 63.1317 334.645 67.0545 334.514C72.127 334.345 71.9104 340.455 66.7951 341.003H66.8004ZM60.5193 309.196C60.4433 311.557 60.4941 313.919 60.6717 316.274C58.5247 316.413 56.3708 316.407 54.2247 316.256C50.3635 315.887 50.4143 309.178 55.3531 309.151L60.5193 309.196ZM54.8798 317.734C56.88 317.692 58.7331 317.537 60.7385 317.467C60.7786 318.242 60.8214 319.071 60.8615 319.946C61.0193 323.195 65.4581 324.326 67.8995 318.734C68.382 319.215 68.7078 319.83 68.8343 320.499C68.9607 321.168 68.8817 321.86 68.6078 322.483C68.3338 323.107 67.8777 323.633 67.2993 323.992C66.721 324.351 66.0474 324.527 65.3672 324.497C59.7786 324.791 56.658 325.195 53.7595 325.016C49.5773 324.759 49.5987 317.849 54.8798 317.734ZM69.675 322.497C69.922 323.042 70.2033 323.57 70.5173 324.08V328.147C70.3339 327.377 69.9268 326.678 69.3473 326.139C68.7677 325.6 68.0416 325.245 67.2604 325.117C67.8381 324.899 68.3565 324.548 68.7739 324.093C69.1914 323.638 69.4964 323.091 69.6643 322.497H69.675ZM54.9922 326.353C59.0031 326.163 61.7653 325.994 65.8432 325.978C71.1243 325.957 70.7526 332.308 65.434 332.722C59.923 333.153 56.8773 333.623 54.0268 333.524C49.8822 333.377 49.8581 326.596 54.9815 326.353H54.9922ZM70.5173 329.92V334.594C69.9952 334.177 69.3955 333.867 68.7528 333.683C68.1102 333.5 67.4374 333.446 66.7737 333.524C67.6718 333.335 68.4984 332.896 69.1586 332.259C69.8189 331.621 70.286 330.811 70.5066 329.92H70.5173ZM111.373 277.676C115.871 277.68 120.182 279.469 123.363 282.65C126.543 285.83 128.332 290.142 128.337 294.639V313.183C123.724 313.566 96.9469 314.17 82.724 314.018C79.8067 313.988 80.1463 308.937 79.1569 307.397C77.0338 304.102 76.0364 303.597 71.5227 303.798V277.676H111.373ZM18.1715 251.738V251.639C16.3985 251.639 14.6982 250.935 13.4445 249.681C12.1908 248.427 11.4865 246.727 11.4865 244.954V217.626C11.4865 215.853 12.1908 214.153 13.4445 212.899C14.6982 211.645 16.3985 210.941 18.1715 210.941H112.197C113.97 210.941 115.67 211.645 116.924 212.899C118.177 214.153 118.882 215.853 118.882 217.626V244.965C118.882 246.738 118.177 248.438 116.924 249.692C115.67 250.945 113.97 251.65 112.197 251.65H71.0173C70.9513 251.65 70.8859 251.663 70.8249 251.688C70.7639 251.713 70.7085 251.75 70.6618 251.797C70.6152 251.844 70.5781 251.899 70.5529 251.96C70.5276 252.021 70.5146 252.086 70.5146 252.152V303.856C69.8648 303.894 69.1535 303.942 68.3754 303.993C63.0275 304.343 61.1557 304.851 60.6396 308.202L59.8695 308.188V252.144C59.8688 252.011 59.8152 251.883 59.7205 251.789C59.6258 251.695 59.4977 251.642 59.3641 251.642C19.2705 251.642 19.1073 251.607 18.1608 251.741L18.1715 251.738ZM2.04201 354.617V294.639C2.04626 290.142 3.8345 285.83 7.01432 282.65C10.1941 279.469 14.5058 277.68 19.0031 277.676H58.8454V308.159C58.2303 308.159 55.3692 308.132 55.3692 308.132C54.299 308.092 53.2471 308.418 52.3884 309.059C51.5297 309.699 50.916 310.613 50.6492 311.651C50.3824 312.688 50.4786 313.785 50.9218 314.76C51.3651 315.735 52.1286 316.529 53.0856 317.01C52.1553 317.294 51.3367 317.861 50.7433 318.632C50.1499 319.403 49.8112 320.339 49.7741 321.311C49.7371 322.283 50.0036 323.243 50.5366 324.057C51.0696 324.871 51.8428 325.498 52.7487 325.853C48.6361 327.778 49.2912 334.345 53.9921 334.514C54.2595 334.514 54.5483 334.53 54.829 334.53C50.5186 336.182 51.0266 342.634 55.3638 343.062C55.5564 343.124 58.4362 343.268 58.8641 343.29V371.57H19.0218C14.5217 371.572 10.2045 369.789 7.01875 366.611C3.83295 363.432 2.03911 359.119 2.03132 354.619L2.04201 354.617ZM111.373 371.578H71.512V343.685C81.7774 343.894 124.684 344.354 128.326 344.447V354.609C128.323 359.108 126.535 363.421 123.355 366.603C120.174 369.785 115.861 371.575 111.362 371.58L111.373 371.578Z" stroke="white" stroke-width="0.6" mask="url(#path-3-outside-1_0_1)"/>
<path d="M33.7203 229.183L29.0141 228.501L26.907 224.223C26.8586 224.147 26.792 224.085 26.7132 224.042C26.6345 223.999 26.5462 223.976 26.4564 223.976C26.3666 223.976 26.2783 223.999 26.1996 224.042C26.1208 224.085 26.0542 224.147 26.0058 224.223L23.9014 228.501L19.1925 229.183C19.1004 229.198 19.0144 229.238 18.9439 229.3C18.8735 229.361 18.8215 229.441 18.7937 229.53C18.766 229.619 18.7636 229.714 18.7868 229.804C18.81 229.895 18.8579 229.977 18.9251 230.041L22.3211 233.37L21.5189 238.058C21.5019 238.151 21.5113 238.247 21.5462 238.334C21.5812 238.422 21.6401 238.498 21.7163 238.554C21.7925 238.61 21.8828 238.643 21.977 238.65C22.0712 238.657 22.1655 238.637 22.2489 238.593L26.4604 236.381L30.6693 238.593C30.7527 238.637 30.8469 238.657 30.9411 238.65C31.0353 238.643 31.1257 238.61 31.2019 238.554C31.2781 238.498 31.337 238.422 31.3719 238.334C31.4068 238.247 31.4163 238.151 31.3992 238.058L30.5971 233.37L34.0037 230.049C34.0737 229.984 34.1235 229.9 34.1473 229.807C34.1711 229.714 34.168 229.617 34.1382 229.526C34.1084 229.435 34.0533 229.354 33.9792 229.293C33.9052 229.233 33.8153 229.194 33.7203 229.183Z" fill="white"/>
<path d="M53.0806 229.183L48.3717 228.501L46.2673 224.223C46.219 224.147 46.1523 224.085 46.0736 224.042C45.9949 223.999 45.9065 223.976 45.8167 223.976C45.727 223.976 45.6386 223.999 45.5599 224.042C45.4812 224.085 45.4145 224.147 45.3662 224.223L43.2618 228.501L38.5529 229.183C38.4608 229.198 38.3747 229.238 38.3043 229.3C38.2339 229.361 38.1819 229.441 38.1541 229.53C38.1263 229.619 38.1239 229.714 38.1471 229.804C38.1703 229.895 38.2182 229.977 38.2855 230.041L41.6814 233.37L40.8792 238.058C40.8667 238.13 40.8703 238.205 40.8895 238.275C40.9088 238.346 40.9433 238.412 40.9907 238.468C41.0381 238.524 41.0972 238.569 41.1639 238.6C41.2306 238.631 41.3032 238.647 41.3766 238.646C42.9219 238.022 44.4091 237.262 45.8208 236.376L50.0296 238.587C50.113 238.632 50.2073 238.651 50.3015 238.645C50.3957 238.638 50.486 238.605 50.5622 238.549C50.6384 238.493 50.6973 238.417 50.7323 238.329C50.7672 238.241 50.7766 238.145 50.7596 238.053L49.9574 233.365L53.3641 230.044C53.4324 229.978 53.4808 229.895 53.5036 229.803C53.5265 229.711 53.5229 229.614 53.4933 229.524C53.4636 229.434 53.4092 229.355 53.3362 229.294C53.2632 229.234 53.1746 229.195 53.0806 229.183Z" fill="white"/>
<path d="M72.441 229.183L67.7321 228.501L65.6277 224.223C65.5793 224.147 65.5127 224.085 65.4339 224.042C65.3552 223.999 65.2669 223.976 65.1771 223.976C65.0873 223.976 64.999 223.999 64.9203 224.042C64.8415 224.085 64.7749 224.147 64.7265 224.223L62.6194 228.501L57.9132 229.183C57.8211 229.198 57.7351 229.238 57.6646 229.3C57.5942 229.361 57.5422 229.441 57.5144 229.53C57.4867 229.619 57.4843 229.714 57.5075 229.804C57.5307 229.895 57.5786 229.977 57.6458 230.041L61.0418 233.37L60.2262 238.05C60.2133 238.122 60.2164 238.196 60.2353 238.267C60.2542 238.338 60.2885 238.404 60.3357 238.46C60.3829 238.516 60.4419 238.561 60.5085 238.592C60.575 238.623 60.6476 238.639 60.7209 238.638C62.2702 238.023 63.7582 237.262 65.1651 236.368L69.3766 238.579C69.46 238.624 69.5543 238.643 69.6485 238.637C69.7427 238.63 69.833 238.597 69.9092 238.541C69.9854 238.485 70.0443 238.409 70.0792 238.321C70.1141 238.233 70.1236 238.137 70.1066 238.045L69.3178 233.37L72.7244 230.049C72.7933 229.984 72.8422 229.9 72.8653 229.807C72.8885 229.715 72.8851 229.618 72.8555 229.527C72.8259 229.436 72.7712 229.356 72.6979 229.295C72.6245 229.234 72.5355 229.195 72.441 229.183Z" fill="white"/>
<path d="M91.7981 229.182L87.0919 228.5L84.9875 224.221C84.9392 224.145 84.8725 224.082 84.7935 224.039C84.7145 223.995 84.6258 223.973 84.5356 223.973C84.4454 223.973 84.3567 223.995 84.2776 224.039C84.1986 224.082 84.1319 224.145 84.0837 224.221L81.9792 228.5L77.2704 229.182C77.1788 229.198 77.0935 229.239 77.0237 229.3C76.9539 229.361 76.9023 229.441 76.8747 229.529C76.847 229.618 76.8444 229.713 76.867 229.803C76.8897 229.893 76.9367 229.975 77.003 230.04L80.3989 233.369L79.5967 238.057C79.5838 238.129 79.5869 238.203 79.6058 238.274C79.6247 238.345 79.659 238.411 79.7062 238.467C79.7534 238.523 79.8124 238.568 79.879 238.599C79.9455 238.629 80.0181 238.645 80.0914 238.645C81.6368 238.02 83.1239 237.261 84.5356 236.375L88.7444 238.586C88.8279 238.63 88.9221 238.65 89.0163 238.643C89.1105 238.637 89.2009 238.603 89.277 238.547C89.3532 238.492 89.4122 238.416 89.4471 238.328C89.482 238.24 89.4915 238.144 89.4744 238.051L88.6722 233.364L92.0789 230.043C92.1471 229.977 92.1955 229.894 92.2185 229.802C92.2415 229.71 92.2382 229.614 92.2089 229.524C92.1795 229.434 92.1254 229.354 92.0528 229.294C91.9801 229.233 91.8918 229.194 91.7981 229.182Z" fill="white"/>
<path d="M111.162 229.183L106.456 228.501L104.349 224.223C104.301 224.147 104.234 224.085 104.155 224.042C104.076 223.999 103.988 223.976 103.898 223.976C103.809 223.976 103.72 223.999 103.642 224.042C103.563 224.085 103.496 224.147 103.448 224.223L101.343 228.501L96.6372 229.183C96.544 229.196 96.4564 229.235 96.3842 229.295C96.312 229.356 96.2583 229.435 96.229 229.525C96.1998 229.614 96.1962 229.71 96.2187 229.801C96.2412 229.893 96.289 229.976 96.3564 230.041L99.7631 233.37L98.9609 238.058C98.9439 238.151 98.9533 238.247 98.9882 238.334C99.0231 238.422 99.0821 238.498 99.1583 238.554C99.2344 238.61 99.3248 238.643 99.419 238.65C99.5132 238.657 99.6074 238.637 99.6909 238.593L103.902 236.381L108.111 238.593C108.195 238.637 108.289 238.657 108.383 238.65C108.477 238.643 108.568 238.61 108.644 238.554C108.72 238.498 108.779 238.422 108.814 238.334C108.849 238.247 108.858 238.151 108.841 238.058L108.039 233.37L111.446 230.049C111.516 229.984 111.565 229.9 111.589 229.807C111.613 229.714 111.61 229.617 111.58 229.526C111.55 229.435 111.495 229.354 111.421 229.293C111.347 229.233 111.257 229.194 111.162 229.183Z" fill="white"/>
<path d="M393.406 269.576C368.672 291.217 343.806 312.895 317.799 333.629C312.445 337.918 305.672 340.032 298.829 339.549C291.986 339.067 285.576 336.024 280.877 331.027C265.94 315.101 246.65 291.987 235.572 269.148L236.318 298.249L218.252 327.93C229.387 350.927 245.425 376.139 264.512 402.754C253.567 421.768 235.031 430.705 213.172 433.737C195.262 406.119 179.936 376.91 167.385 346.48C165.644 342.155 164.847 337.508 165.048 332.85C165.248 328.193 166.442 323.632 168.548 319.473L208.511 240.745C227.376 238.426 245.935 234.069 263.862 227.752C265.408 227.212 266.864 226.444 268.183 225.474C275.173 228.565 291.03 239.959 304.935 281.547L358.369 229.405C367.105 232.632 374.891 238.001 381.013 245.02C387.135 252.038 391.396 260.482 393.406 269.576Z" fill="#FF6E1A"/>
<path d="M381.107 171.165L381.222 171.178C381.589 171.164 381.93 171.152 382.246 171.139L381.227 171.027C381.192 171.029 381.157 171.03 381.121 171.031M381.107 171.165L381.121 171.031M381.107 171.165C381.107 171.165 381.107 171.165 381.107 171.165M381.107 171.165L381.107 171.165M381.121 171.031L381.107 171.165M381.121 171.031C380.89 171.04 380.65 171.048 380.4 171.057C380.626 171.103 380.862 171.139 381.107 171.165M304.977 174.161C305.886 177.76 307.96 180.959 310.877 183.259C313.842 185.598 317.508 186.873 321.285 186.878H413.652C418.11 186.874 422.383 185.101 425.536 181.949C428.688 178.798 430.461 174.524 430.466 170.067V123.454C430.461 118.996 428.688 114.723 425.536 111.57C422.384 108.418 418.11 106.645 413.652 106.64H321.282C316.825 106.645 312.551 108.418 309.399 111.571C306.248 114.723 304.475 118.997 304.471 123.454V137.41C309.03 137.694 337.706 139.456 347.002 139.353L347.018 139.353C348.748 139.334 351.199 139.308 353.473 138.792C355.757 138.274 357.826 137.271 358.822 135.325L358.822 135.325C359.321 134.356 359.81 132.795 360.261 130.953C360.712 129.114 361.121 127.006 361.463 124.951C361.806 122.895 362.081 120.894 362.262 119.268C362.444 117.638 362.53 116.398 362.499 115.858C362.45 115.017 362.852 114.389 363.524 114.131C364.185 113.878 365.074 113.996 365.994 114.554C367.836 115.673 369.855 118.584 370.637 124.134L370.637 124.134C371.153 127.813 371.573 131.273 371.937 134.765C372.118 135.789 372.404 136.497 372.941 136.988C373.48 137.481 374.295 137.777 375.586 137.919C376.876 138.061 378.616 138.048 380.985 137.941C382.671 137.866 384.67 137.743 387.045 137.598C388.002 137.539 389.021 137.477 390.105 137.412C393.278 137.052 395.225 139.006 395.707 141.187C395.948 142.274 395.826 143.424 395.306 144.372C394.892 145.126 394.23 145.747 393.312 146.106C396.334 146.126 398.031 148.166 398.334 150.312C398.49 151.415 398.278 152.551 397.685 153.456C397.09 154.364 396.116 155.03 394.768 155.193M304.977 174.161L394.75 155.044M304.977 174.161C307.847 174.088 313.455 173.971 320.483 173.824L321.005 173.813C366.352 172.877 381.227 172.409 385.926 172.175C387.098 172.117 387.644 172.073 387.872 172.039C387.928 172.03 387.975 172.021 388.009 172.009C388.021 172.005 388.057 171.993 388.086 171.963C388.091 171.958 388.097 171.951 388.102 171.943C388.394 171.942 388.908 171.942 389.779 171.942L389.78 171.942C392.117 171.923 393.505 170.303 393.816 168.436C394.102 166.714 393.478 164.762 391.836 163.631C391.906 163.626 391.976 163.62 392.045 163.615C392.105 163.61 392.164 163.605 392.223 163.601L392.224 163.601C394.494 163.418 395.791 161.818 396.077 159.996C396.344 158.305 395.744 156.407 394.243 155.249M304.977 174.161L394.017 155.268M394.768 155.193C394.768 155.193 394.768 155.193 394.768 155.193L394.75 155.044M394.768 155.193C394.768 155.193 394.768 155.193 394.768 155.193L394.75 155.044M394.768 155.193C394.604 155.214 394.429 155.232 394.243 155.249M394.75 155.044C394.539 155.071 394.308 155.094 394.059 155.114C394.122 155.158 394.183 155.203 394.243 155.249M394.243 155.249C394.169 155.256 394.094 155.262 394.017 155.268M394.017 155.268C393.952 155.222 393.885 155.176 393.817 155.133L394.017 155.268ZM392.506 146.185L392.525 146.279L392.812 146.268L392.79 146.119C392.698 146.144 392.603 146.166 392.506 146.185ZM392.506 146.185C392.298 146.228 392.089 146.266 391.881 146.303L392.525 146.279L392.506 146.185ZM413.655 105.335H413.655L321.285 105.335L321.285 105.335C316.481 105.341 311.876 107.251 308.479 110.648C305.082 114.045 303.171 118.65 303.166 123.454V123.454L303.166 170.067L303.166 170.067C303.172 174.87 305.083 179.475 308.48 182.871C311.876 186.267 316.481 188.178 321.285 188.183H321.285H413.655H413.655C418.458 188.178 423.064 186.268 426.46 182.872C429.857 179.475 431.768 174.87 431.774 170.067V123.454C431.768 118.65 429.857 114.045 426.461 110.648C423.064 107.251 418.459 105.341 413.655 105.335ZM304.321 138.707C304.321 138.657 304.321 138.607 304.321 138.557C304.368 138.56 304.418 138.563 304.471 138.566C304.471 138.616 304.471 138.666 304.471 138.716C304.418 138.713 304.368 138.71 304.321 138.707ZM304.699 172.858C304.648 172.859 304.605 172.86 304.571 172.861L304.575 173.011L304.722 172.982C304.714 172.941 304.706 172.899 304.699 172.858ZM378.334 162.878C378.408 162.901 378.483 162.921 378.558 162.939C378.638 162.904 378.721 162.87 378.805 162.839C378.717 162.823 378.631 162.803 378.545 162.781C378.473 162.812 378.403 162.845 378.334 162.878ZM377.469 154.873C377.531 154.898 377.593 154.921 377.656 154.943C377.72 154.91 377.785 154.879 377.85 154.849C377.781 154.828 377.713 154.805 377.646 154.78C377.586 154.81 377.527 154.841 377.469 154.873ZM378.094 146.891C378.183 146.927 378.274 146.96 378.366 146.989C378.496 146.967 378.627 146.952 378.759 146.942C378.63 146.913 378.503 146.877 378.378 146.835C378.282 146.851 378.188 146.869 378.094 146.891ZM377.621 139.397C377.747 139.392 377.872 139.385 377.998 139.375C378.193 139.287 378.396 139.215 378.604 139.158C378.39 139.188 378.175 139.212 377.961 139.228C377.845 139.279 377.731 139.336 377.621 139.397ZM372.258 138.098C372.252 138.038 372.247 137.977 372.241 137.916C372.188 137.885 372.135 137.853 372.082 137.821C372.088 137.884 372.094 137.945 372.099 138.006C372.152 138.037 372.205 138.068 372.258 138.098ZM372.481 140.875C372.48 140.867 372.48 140.858 372.479 140.849C372.475 140.841 372.472 140.833 372.468 140.825L372.331 140.886L372.481 140.875ZM371.242 141.276C371.243 141.277 371.243 141.277 371.243 141.277C371.243 141.278 371.243 141.279 371.244 141.279L371.379 141.215L371.242 141.276ZM363.801 115.779C363.8 115.757 363.799 115.736 363.8 115.715L363.796 115.638H363.656C363.655 115.643 363.655 115.648 363.654 115.653C363.653 115.664 363.652 115.674 363.651 115.685V115.788L363.654 115.788L363.801 115.779ZM359.849 135.853L359.982 135.922C359.982 135.922 359.982 135.922 359.982 135.922L359.849 135.853ZM381.256 169.876L381.244 169.874H381.238C378.728 169.603 377.479 167.989 377.435 166.502C377.412 165.755 377.691 165.033 378.271 164.508C378.851 163.982 379.745 163.641 380.971 163.684C382.342 163.734 383.326 163.76 384.155 163.781C385.778 163.823 386.807 163.85 388.987 164.013C391.368 164.194 392.505 165.848 392.579 167.456C392.616 168.263 392.385 169.054 391.912 169.642C391.443 170.226 390.729 170.618 389.78 170.625C386.925 170.565 384.077 170.315 381.256 169.876ZM380.703 161.999V161.999H380.698C380.698 161.999 380.698 161.999 380.698 161.999C378.073 161.907 376.668 160.321 376.522 158.775C376.449 157.999 376.69 157.227 377.257 156.636C377.824 156.045 378.728 155.625 380 155.579C383.606 155.449 386.294 155.46 389.753 155.476C390.11 155.477 390.475 155.479 390.85 155.481C393.332 155.491 394.624 157.124 394.811 158.79C394.904 159.626 394.718 160.466 394.267 161.114C393.819 161.758 393.103 162.22 392.117 162.299C390.255 162.449 388.117 162.342 385.334 162.202C383.962 162.133 382.433 162.057 380.703 161.999ZM379.381 148.041L379.381 148.041C383.506 147.72 393.01 147.413 393.274 147.413C395.56 147.413 396.816 148.928 397.041 150.498C397.153 151.285 397.005 152.081 396.601 152.705C396.2 153.325 395.54 153.784 394.609 153.898C392.568 154.146 388.602 154.148 384.457 154.149C383.09 154.149 381.704 154.15 380.361 154.159C380.36 154.159 380.36 154.159 380.36 154.159L380.358 154.159C377.813 154.159 376.391 152.693 376.184 151.224C376.08 150.486 376.277 149.741 376.795 149.156C377.313 148.571 378.162 148.135 379.381 148.041ZM381.289 146.083V146.083L381.276 146.084C378.757 146.298 377.219 144.95 376.889 143.497C376.724 142.768 376.859 142.006 377.328 141.38C377.797 140.754 378.61 140.249 379.823 140.058C381.453 139.803 384.02 139.457 386.275 139.176C387.402 139.035 388.45 138.91 389.264 138.821C390.082 138.73 390.652 138.677 390.83 138.677C392.929 138.677 394.182 140.095 394.464 141.608C394.605 142.366 394.5 143.141 394.142 143.768C393.785 144.393 393.173 144.881 392.276 145.065C390.506 145.415 388.598 145.547 385.929 145.733C384.598 145.825 383.077 145.931 381.289 146.083Z" fill="white" stroke="white" stroke-width="0.3"/>
<path d="M96.0058 407.296H96.0066C96.18 407.297 96.346 407.367 96.468 407.49C96.59 407.613 96.658 407.78 96.6571 407.953C96.6562 408.127 96.5864 408.293 96.4631 408.415C96.3399 408.537 96.1733 408.605 96 408.604M96.0058 407.296L96.0004 408.454M96.0058 407.296H90.0989C89.4526 407.296 88.8127 407.168 88.2159 406.92C87.6191 406.672 87.0772 406.309 86.6212 405.851C86.1653 405.393 85.8044 404.849 85.5592 404.251C85.314 403.653 85.1894 403.012 85.1924 402.366V402.365M96.0058 407.296L85.1924 402.365M96 408.604C95.9999 408.604 95.9997 408.604 95.9996 408.604L96.0004 408.454M96 408.604H96.0004V408.454M96 408.604H90.0909H90.0908C89.4464 408.604 88.8083 408.73 88.2128 408.977C87.6174 409.223 87.0764 409.585 86.6207 410.04C86.165 410.496 85.8037 411.037 85.5572 411.632C85.3108 412.228 85.1841 412.866 85.1844 413.511V413.511V419.417V419.428L85.184 419.428C85.172 419.593 85.0979 419.748 84.9766 419.861C84.8554 419.973 84.696 420.036 84.5304 420.036C84.3648 420.036 84.2053 419.973 84.0841 419.861C83.9629 419.748 83.8888 419.593 83.8767 419.428L83.8759 419.417H83.8763V413.511V413.51C83.877 412.866 83.7506 412.227 83.5043 411.632C83.258 411.036 82.8967 410.495 82.441 410.039C81.9853 409.583 81.4441 409.221 80.8485 408.974C80.2529 408.728 79.6145 408.601 78.9699 408.601H78.9698H73.063C72.8899 408.601 72.7239 408.533 72.6015 408.41L72.7071 408.305L72.6015 408.41C72.4791 408.288 72.4103 408.122 72.4103 407.949C72.4103 407.776 72.4791 407.61 72.6015 407.487L72.7075 407.593M96.0004 408.454H90.0909C89.4268 408.454 88.7691 408.584 88.1555 408.838C87.5418 409.092 86.9843 409.465 86.5146 409.934C86.045 410.404 85.6726 410.961 85.4186 411.575C85.1646 412.189 85.0341 412.846 85.0344 413.511V419.417C85.0251 419.545 84.968 419.664 84.8745 419.751C84.781 419.838 84.6581 419.886 84.5304 419.886C84.4027 419.886 84.2797 419.838 84.1862 419.751C84.0927 419.664 84.0356 419.545 84.0263 419.417V413.511C84.027 412.846 83.8967 412.188 83.6429 411.574C83.3891 410.96 83.0167 410.402 82.547 409.933C82.0774 409.463 81.5197 409.09 80.9059 408.836C80.2921 408.582 79.6342 408.451 78.9698 408.451H73.063C72.9297 408.451 72.8018 408.398 72.7075 408.304C72.6133 408.21 72.5603 408.082 72.5603 407.949C72.5603 407.815 72.6133 407.688 72.7075 407.593M72.7075 407.593L72.6015 407.487C72.7239 407.365 72.8899 407.296 73.063 407.296H78.9777M72.7075 407.593C72.8018 407.499 72.9297 407.446 73.063 407.446H78.9779M85.0424 402.365C85.0393 403.031 85.1677 403.692 85.4204 404.308C85.6731 404.924 86.0451 405.484 86.5149 405.956C86.9848 406.429 87.5433 406.803 88.1583 407.059C88.7734 407.314 89.4329 407.446 90.0989 407.446H96.0058L85.0424 402.365ZM85.0424 402.365V396.483C85.0424 396.349 84.9895 396.221 84.8952 396.127M85.0424 402.365L84.8952 396.127M78.9777 407.296L84.037 402.365C84.0391 403.031 83.9099 403.691 83.6566 404.307C83.4034 404.923 83.0312 405.483 82.5612 405.955C82.0913 406.427 81.5329 406.802 80.918 407.057C80.3031 407.313 79.6438 407.445 78.9779 407.446M78.9777 407.296H78.9779V407.446M78.9777 407.296L78.9779 407.446M85.1924 402.365V396.483C85.1924 396.31 85.1237 396.144 85.0013 396.021L84.8952 396.127M85.1924 402.365L84.8952 396.127M81.7502 407.943C82.9542 407.339 83.9316 406.363 84.5367 405.159C85.1393 406.364 86.1153 407.341 87.3187 407.946C86.1164 408.55 85.1402 409.525 84.5353 410.727C83.9301 409.524 82.9534 408.548 81.7502 407.943Z" fill="white" stroke="white" stroke-width="0.3"/>
<path d="M351.764 72.714L351.764 72.7137H351.755H339.005V59.9564H339.006L339.005 59.9455C338.993 59.7804 338.919 59.626 338.798 59.5132C338.676 59.4005 338.517 59.3378 338.351 59.3378C338.186 59.3378 338.026 59.4005 337.905 59.5132C337.784 59.6259 337.71 59.7804 337.698 59.9455L337.697 59.9455V59.9564V72.7164H324.943V72.716L324.932 72.7168C324.767 72.7288 324.612 72.8029 324.5 72.9242C324.387 73.0454 324.324 73.2049 324.324 73.3705C324.324 73.5361 324.387 73.6955 324.5 73.8167C324.612 73.938 324.767 74.0121 324.932 74.0241L324.932 74.0245H324.943H337.7V86.7791H337.7L337.7 86.79C337.713 86.9551 337.787 87.1096 337.908 87.2224C338.029 87.3351 338.189 87.3978 338.354 87.3978C338.52 87.3978 338.679 87.3351 338.8 87.2224L338.698 87.1125L338.8 87.2224C338.922 87.1096 338.996 86.9552 339.008 86.79L339.008 86.7901V86.7791V74.0218H351.765V74.0223L351.778 74.0213C351.943 74.0076 352.097 73.932 352.208 73.8095C352.32 73.687 352.381 73.5269 352.379 73.3612C352.377 73.1956 352.313 73.0367 352.199 72.9167C352.085 72.7966 351.929 72.7242 351.764 72.714Z" fill="white" stroke="white" stroke-width="0.3"/>
<path d="M102.082 41.21C102.074 39.9743 101.701 38.7686 101.01 37.7442C100.319 36.7198 99.3407 35.9224 98.198 35.4521C97.0552 34.9819 95.799 34.8598 94.5871 35.1011C93.3752 35.3425 92.2616 35.9365 91.3862 36.8087L90.2605 37.9371L89.1321 36.814C88.558 36.1964 87.8652 35.701 87.0951 35.3577C86.325 35.0143 85.4935 34.83 84.6504 34.8158C83.8074 34.8016 82.9701 34.9578 82.1889 35.275C81.4076 35.5923 80.6985 36.064 80.104 36.6619C79.5095 37.2598 79.0419 37.9717 78.7291 38.7547C78.4164 39.5377 78.265 40.3759 78.2841 41.2188C78.3031 42.0618 78.4922 42.8922 78.84 43.6604C79.1877 44.4285 79.687 45.1185 80.3079 45.6889L89.9423 55.2832C89.9888 55.3302 90.0442 55.3676 90.1052 55.3931C90.1663 55.4186 90.2318 55.4317 90.2979 55.4317C90.3641 55.4317 90.4296 55.4186 90.4906 55.3931C90.5517 55.3676 90.6071 55.3302 90.6536 55.2832L100.261 45.6328C100.842 45.0524 101.302 44.3627 101.614 43.6036C101.927 42.8445 102.086 42.031 102.082 41.21Z" fill="white"/>
<path d="M89.5972 0.853738C62.1459 1.13262 41.2655 21.8043 41.5071 45.6955C41.691 63.8133 53.0394 77.8766 68.2689 84.8034C83.4767 91.7203 102.569 91.5291 118.316 81.1534L138.135 89.0072L89.5972 0.853738ZM89.5972 0.853738C108.655 0.6339 124.112 10.1336 132.284 23.3978C140.444 36.644 141.337 53.6439 131.297 68.4498L138.985 88.1636C139.032 88.2822 139.042 88.4118 139.016 88.5364C138.99 88.6609 138.927 88.7751 138.837 88.8648C138.747 88.9545 138.632 89.0157 138.507 89.041C138.383 89.0663 138.253 89.0547 138.135 89.0075L89.5972 0.853738ZM90.1429 2.15915H90.1444L130.217 68.8158L130.075 68.8638C130.075 68.8639 130.075 68.864 130.075 68.8641C130.355 69.696 131.115 71.6344 132.957 76.3377C133.998 78.9945 135.384 82.5337 137.225 87.254C123.725 81.9033 119.812 80.3574 118.602 79.9602L118.555 80.1027L118.602 79.9602C118.358 79.88 118.209 79.8427 118.11 79.834C118.058 79.8294 118.011 79.8318 117.967 79.8453C117.925 79.8581 117.895 79.8787 117.88 79.8889L117.879 79.8892C117.879 79.8894 117.879 79.8896 117.878 79.8899C109.041 85.704 98.6071 88.6113 88.0362 88.2055C77.4649 87.7996 67.2846 84.1007 58.9185 77.6256L58.9169 77.6244C54.1365 74.0266 50.2138 69.4129 47.4318 64.116C44.6497 58.8191 43.0775 52.9709 42.8285 46.9931C42.5796 41.0152 43.66 35.0565 45.992 29.5466C48.324 24.0367 51.8494 19.1129 56.3141 15.13L56.3141 15.13L56.3156 15.1287C65.5411 6.67614 77.6313 2.04074 90.1429 2.15915Z" fill="white" stroke="white" stroke-width="0.3"/>
<path d="M383.587 393.462L383.583 393.455C383.521 393.358 383.436 393.277 383.335 393.222C383.234 393.166 383.12 393.137 383.005 393.137C382.889 393.137 382.775 393.166 382.674 393.222C382.573 393.277 382.488 393.358 382.426 393.455L382.422 393.462L382.418 393.469L374.239 410.044L355.949 412.706L355.949 412.706L355.946 412.707C355.827 412.726 355.715 412.779 355.624 412.858C355.532 412.938 355.465 413.041 355.429 413.157L355.572 413.202L355.429 413.157C355.393 413.273 355.389 413.396 355.42 413.513L355.565 413.476L355.42 413.513C355.45 413.631 355.512 413.737 355.599 413.821C355.599 413.821 355.599 413.821 355.599 413.821L368.832 426.721L365.709 444.937C365.709 444.937 365.709 444.938 365.709 444.938C365.687 445.058 365.699 445.182 365.744 445.296C365.79 445.41 365.866 445.509 365.965 445.581C366.064 445.654 366.181 445.697 366.304 445.706C366.426 445.715 366.548 445.689 366.657 445.631L383.015 437.031L399.374 445.631C399.374 445.631 399.374 445.631 399.374 445.632C399.482 445.689 399.605 445.715 399.727 445.706C399.849 445.697 399.967 445.654 400.065 445.581C400.164 445.509 400.241 445.41 400.286 445.296C400.331 445.182 400.344 445.058 400.322 444.938C400.322 444.937 400.322 444.937 400.322 444.937L397.199 426.721L410.432 413.821L410.432 413.821C410.52 413.735 410.582 413.626 410.611 413.506C410.639 413.387 410.634 413.262 410.595 413.146C410.555 413.029 410.484 412.926 410.389 412.848C410.295 412.771 410.18 412.722 410.059 412.706C410.058 412.706 410.058 412.706 410.057 412.706L391.771 410.044L383.591 393.469L383.587 393.462ZM396.029 426.027L396.028 426.028C396.024 426.032 396.02 426.034 396.006 426.043C395.995 426.05 395.963 426.069 395.935 426.1C395.871 426.17 395.858 426.264 395.858 426.373C395.859 426.596 395.921 427.061 396.09 428.095C396.272 429.206 396.581 430.991 397.079 433.869C397.503 436.319 398.064 439.561 398.801 443.855C394.727 441.712 391.71 440.119 389.473 438.938C387.138 437.704 385.653 436.92 384.7 436.427C383.762 435.941 383.328 435.732 383.107 435.658C382.998 435.622 382.905 435.605 382.819 435.637C382.779 435.652 382.75 435.674 382.735 435.685L382.734 435.686C382.728 435.69 382.724 435.694 382.72 435.696C382.713 435.701 382.709 435.704 382.703 435.707L382.702 435.708L367.195 443.856L370.154 426.604C370.154 426.604 370.154 426.604 370.154 426.604C370.155 426.599 370.156 426.595 370.163 426.58L370.164 426.577C370.17 426.562 370.185 426.53 370.189 426.491C370.201 426.396 370.156 426.311 370.092 426.223C369.961 426.043 369.637 425.703 368.892 424.966C368.103 424.186 366.831 422.95 364.791 420.967C362.997 419.224 360.609 416.904 357.435 413.81C361.851 413.168 365.161 412.692 367.642 412.335C370.446 411.931 372.192 411.68 373.282 411.513C374.313 411.356 374.771 411.272 374.978 411.204C375.08 411.171 375.166 411.128 375.211 411.042C375.228 411.009 375.235 410.974 375.238 410.96C375.238 410.959 375.239 410.958 375.239 410.957C375.242 410.942 375.243 410.939 375.245 410.935L375.245 410.935L382.991 395.241L390.737 410.935L390.737 410.935C390.739 410.939 390.741 410.944 390.744 410.959C390.747 410.972 390.755 411.009 390.775 411.046C390.821 411.129 390.907 411.172 391.01 411.205C391.221 411.274 391.682 411.358 392.717 411.516C393.823 411.686 395.602 411.941 398.466 412.353C400.933 412.708 404.207 413.179 408.55 413.81L396.029 426.027Z" fill="white" stroke="white" stroke-width="0.3"/>
<path d="M73.9891 210.244L73.9858 210.255L73.9839 210.265C73.9571 210.419 73.9866 210.578 74.0669 210.712L74.0669 210.712C74.1473 210.846 74.2731 210.947 74.4216 210.996C74.5701 211.046 74.7313 211.04 74.8759 210.98C75.0205 210.921 75.1389 210.811 75.2095 210.671L75.2146 210.661L75.2181 210.65C84.0526 183.681 99.9968 159.593 121.371 140.923C142.746 122.254 168.76 109.694 196.672 104.568L196.645 104.42L196.673 104.568C196.843 104.536 196.994 104.439 197.092 104.296C197.19 104.153 197.228 103.978 197.197 103.807C197.165 103.637 197.068 103.486 196.925 103.388V103.388C196.783 103.289 196.607 103.252 196.436 103.283C168.295 108.455 142.069 121.12 120.52 139.943C98.9709 158.767 82.8964 183.053 73.9891 210.244ZM74.1956 210.635L74.1956 210.635L74.1956 210.635Z" fill="white" stroke="white" stroke-width="0.3"/>
<mask id="path-17-outside-2_0_1" maskUnits="userSpaceOnUse" x="124.982" y="50.7666" width="327" height="459" fill="black">
<rect fill="white" x="124.982" y="50.7666" width="327" height="459"/>
<path d="M450.726 218.503C436.415 211.398 396.011 212.983 373.558 216.794C373.472 216.818 373.459 216.794 373.29 216.965C372.755 217.484 370.827 219.765 361.64 230.236C360.634 229.781 359.609 229.345 358.565 228.926C358.458 228.883 358.268 228.926 357.738 229.37C356.072 230.782 348.163 238.662 305.168 280.627C291.996 241.641 277.26 229.287 269.157 225.367C271.476 223.489 273.264 221.039 274.345 218.259C275.426 215.478 275.763 212.463 275.321 209.513C272.89 193.017 266.791 159.073 261.103 148.677C255.017 137.567 239.957 137.783 235.856 135.32C228.799 131.077 225.427 121.755 224.997 113.634C224.983 113.506 224.921 113.388 224.823 113.304C224.725 113.22 224.599 113.177 224.47 113.184C224.341 113.191 224.22 113.247 224.131 113.341C224.043 113.435 223.993 113.559 223.994 113.688C224.43 122.151 227.983 131.761 235.337 136.181C238.043 137.318 240.866 138.152 243.755 138.668C243.016 140.535 241.793 142.17 240.212 143.407C238.531 144.478 236.729 145.348 234.845 145.998C217.991 151.814 201.602 140.599 205.26 142.965C203.683 142.144 202.342 140.933 201.367 139.446C203.781 138.597 206.238 137.876 208.728 137.286C210.953 136.57 212.873 135.129 214.182 133.193C215.491 131.256 216.113 128.937 215.948 126.606L218.665 121.349C218.709 121.255 218.722 121.15 218.704 121.047C218.686 120.945 218.636 120.851 218.563 120.778C218.489 120.705 218.394 120.657 218.292 120.64C218.189 120.623 218.084 120.638 217.991 120.683C217.008 121.373 215.968 121.977 214.881 122.488C209.177 125.13 205.118 123.745 203.463 117.675C202.396 112.096 202.361 106.369 203.359 100.778C203.987 97.0611 205.53 91.7132 209.3 91.7372C212.539 91.7372 216.346 95.7482 218.175 99.7833C218.221 99.8777 218.296 99.9556 218.388 100.006C218.48 100.057 218.586 100.077 218.69 100.065C218.794 100.053 218.893 100.009 218.971 99.9389C219.049 99.8688 219.104 99.7761 219.127 99.6736C219.892 95.8792 221.734 93.1946 223.791 93.1946C224.058 93.1946 232.115 93.1464 233 93.1946C242.452 93.0582 253.263 88.6889 253.263 76.7122C253.263 65.1766 245.051 51.7666 234.46 51.7666C222.962 51.7666 213.87 62.8235 212.571 73.1584C212.247 75.7634 212.58 78.4078 213.539 80.8515C210.353 81.3104 207.393 82.7571 205.073 84.9877C202.754 87.2184 201.193 90.1207 200.61 93.2855C200.578 93.4149 200.599 93.5515 200.668 93.6657C200.736 93.7798 200.847 93.8623 200.976 93.8952C200.976 93.8952 201.511 93.8711 201.883 93.8443C201.394 99.5407 201.291 105.264 201.575 110.974C201.843 121.023 205.586 127.52 214.71 123.659C215.675 129.309 214.007 134.438 208.407 136.334C204.313 137.73 190.224 139.144 183.114 156.538C180.948 161.833 179.571 168.205 177.269 173.385C176.18 169.967 175.723 168.448 175.48 167.769C175.277 167.205 175.293 167.173 174.547 167.031L168.648 165.504C166.816 162.866 164.296 160.78 161.361 159.474L174.672 141.187C174.835 140.977 174.953 140.736 175.019 140.479C175.084 140.221 175.096 139.953 175.054 139.691C175.011 139.429 174.915 139.178 174.771 138.955C174.627 138.731 174.439 138.54 174.218 138.393C173.997 138.245 173.748 138.145 173.486 138.098C173.225 138.051 172.956 138.059 172.698 138.121C172.439 138.182 172.197 138.296 171.984 138.456C171.772 138.615 171.595 138.817 171.464 139.048L159.38 158.809C157.628 158.345 155.799 158.249 154.008 158.528L152.976 152.931C152.957 152.836 152.912 152.747 152.845 152.677C152.779 152.606 152.693 152.556 152.599 152.533L145.259 150.744C144.946 150.666 144.561 150.84 144.7 151.501C144.868 152.303 145.467 154.308 147.015 159.91C131.915 156.001 127.821 154.875 126.634 154.661C125.789 154.506 125.955 154.947 126.099 155.37C126.851 157.758 131.164 169.732 151.641 229.57C151.778 229.963 148.818 229.035 198.578 242.617C199.142 242.686 199.257 242.4 198.963 241.28C198.62 239.959 197.711 237.485 196.305 233.068C197.374 233.603 198.444 234.1 199.514 234.584C200.556 237.191 202.99 242.223 205.717 241.616C206.362 241.542 207.001 241.461 207.637 241.381C203.332 249.866 168.105 319.253 168.105 319.253C165.966 323.477 164.754 328.11 164.55 332.841C164.346 337.572 165.155 342.292 166.923 346.685C179.473 377.147 194.819 406.38 212.763 434.009C212.974 434.336 213.271 434.237 213.875 434.148C215.861 433.863 217.798 433.532 219.686 433.154C223.186 438.675 224.499 440.258 225.489 452.38C227.369 468.713 231.143 484.772 236.735 500.233L240.038 508.726C240.068 508.806 240.12 508.878 240.186 508.933C240.253 508.988 240.333 509.025 240.418 509.04C240.503 509.055 240.59 509.048 240.672 509.019C240.753 508.99 240.826 508.941 240.883 508.875C251.424 496.867 260.269 457.42 262.352 434.747C262.352 434.405 262.964 435.459 251.779 418.781C257.083 414.343 261.549 408.992 264.967 402.98C265.013 402.898 265.035 402.804 265.031 402.709C265.026 402.615 264.995 402.523 264.94 402.446C244.273 373.642 229.187 349.266 218.836 327.943L244.439 285.903C255.068 302.114 267.144 317.329 280.519 331.361C285.324 336.418 291.848 339.494 298.806 339.985C305.765 340.476 312.656 338.346 318.123 334.013C343.224 313.99 367.226 293.152 393.749 269.947C393.819 269.886 393.871 269.807 393.899 269.718C393.927 269.63 393.929 269.535 393.906 269.445C392.547 263.959 390.468 258.678 387.724 253.738C391.503 251.156 395.665 249.186 400.057 247.9C415.42 241.997 429.992 234.213 443.439 224.725C448.365 221.222 450.106 219.979 450.71 219.447C451.162 219.051 451.025 218.663 450.726 218.503ZM244.562 139.353C245.086 139.621 245.504 140.056 245.752 140.59C245.999 141.124 246.06 141.725 245.925 142.297C245.791 142.87 245.468 143.381 245.009 143.749C244.551 144.116 243.982 144.32 243.394 144.326C242.651 144.351 241.915 144.187 241.254 143.848C242.68 142.615 243.807 141.076 244.551 139.345L244.562 139.353ZM240.313 144.543C240.437 144.932 240.467 145.345 240.402 145.749C240.337 146.152 240.177 146.534 239.937 146.864C239.696 147.194 239.381 147.463 239.017 147.649C238.653 147.835 238.251 147.932 237.842 147.934C237.415 147.934 236.994 147.828 236.618 147.625C236.241 147.422 235.922 147.128 235.687 146.77C237.291 146.168 238.836 145.42 240.302 144.535L240.313 144.543ZM234.607 147.142C234.656 147.761 234.481 148.378 234.113 148.878C233.745 149.379 233.209 149.73 232.603 149.868C231.998 150.006 231.363 149.921 230.814 149.629C230.266 149.337 229.841 148.858 229.617 148.279C231.304 148.027 232.969 147.644 234.596 147.134L234.607 147.142ZM228.304 148.434C228.232 149.039 227.939 149.597 227.482 150C227.025 150.404 226.435 150.625 225.826 150.621C225.249 150.62 224.69 150.42 224.242 150.056C223.795 149.692 223.486 149.185 223.368 148.621C225.012 148.661 226.658 148.596 228.294 148.426L228.304 148.434ZM217.173 147.955C218.841 148.253 220.525 148.457 222.216 148.567C222.066 149.106 221.744 149.581 221.298 149.919C220.853 150.257 220.309 150.44 219.75 150.439C219.081 150.438 218.438 150.177 217.955 149.713C217.473 149.249 217.189 148.616 217.162 147.947L217.173 147.955ZM211.215 146.455C212.842 146.973 214.494 147.409 216.164 147.76C215.916 148.327 215.472 148.787 214.915 149.056C214.357 149.325 213.721 149.386 213.122 149.227C212.523 149.069 212.001 148.701 211.649 148.192C211.298 147.682 211.14 147.063 211.204 146.447L211.215 146.455ZM205.423 144.155C206.97 144.88 208.554 145.527 210.167 146.091C209.842 146.612 209.345 147.001 208.761 147.189C208.178 147.378 207.546 147.355 206.979 147.123C206.411 146.891 205.943 146.466 205.659 145.923C205.374 145.38 205.291 144.754 205.423 144.155ZM200.508 139.952C201.465 141.463 202.779 142.715 204.335 143.596C204.096 143.907 203.789 144.159 203.438 144.333C203.086 144.506 202.7 144.596 202.308 144.596C201.779 144.577 201.267 144.402 200.835 144.095C200.403 143.788 200.071 143.362 199.878 142.868C199.686 142.375 199.642 141.836 199.752 141.317C199.862 140.799 200.121 140.325 200.498 139.952H200.508ZM160.752 160.298C163.219 161.338 165.385 162.983 167.049 165.082L158.818 162.943L160.752 160.298ZM158.829 159.688C157.85 161.293 157.225 162.245 157.12 162.515L154.623 161.865L154.187 159.504C155.731 159.257 157.309 159.32 158.829 159.688ZM145.849 151.91L152.037 153.418L153.548 161.584L148.138 160.183L145.849 151.91ZM197.888 241.392L152.492 228.977L127.209 155.825L174.512 168.069L182.665 193.645C182.617 198.592 182.28 201.71 181.047 202.421C180.789 202.53 180.506 202.569 180.228 202.535C179.95 202.501 179.686 202.394 179.461 202.226C172.992 196.352 165.983 191.101 158.529 186.541C156.725 185.602 151.39 182.832 150.24 184.49C149.438 185.637 151.082 188.091 155.123 191.787C156.743 193.279 158.259 194.771 159.653 196.25C157.684 195.322 155.329 194.274 153.813 193.605C150.149 192.001 147.86 191.715 147.194 192.779C147.054 193.04 147.012 193.342 147.076 193.632C147.14 193.921 147.307 194.177 147.545 194.354C150.163 196.6 154.51 199.734 157.532 202.189C155.722 201.715 151.168 200.606 150.438 202.341C150.342 202.622 150.35 202.928 150.459 203.204C150.569 203.48 150.774 203.708 151.037 203.847C154.58 206.004 161.15 209.17 164.407 211.277C169.347 214.069 174.016 217.315 178.354 220.973C180.024 222.795 181.881 224.436 183.895 225.869C187.466 228.298 191.192 230.492 195.048 232.437L197.888 241.392ZM165.8 207.55C158.944 202.453 161.88 204.173 153.657 197.9C151.703 196.405 149.681 194.862 148.197 193.589C148.066 193.477 148.026 193.343 148.047 193.322C148.069 193.3 148.81 192.52 153.395 194.533C155.583 195.498 159.524 197.26 161.487 198.277C165.2 202.46 168.494 206.997 171.322 211.823C169.56 210.331 167.626 208.895 165.797 207.537L165.8 207.55ZM173.969 215.617C174.281 216.043 174.6 216.47 174.926 216.898C172.448 215.117 169.672 213.393 167.407 211.983C164.298 209.942 161.075 208.079 157.754 206.403C155.537 205.229 153.248 204.015 151.561 202.986C151.414 202.897 151.35 202.769 151.366 202.731C151.382 202.694 151.992 201.814 156.853 203.052C157.342 203.178 158.241 203.411 159.302 203.691C163.869 207.718 170.06 211.462 173.966 215.604L173.969 215.617ZM200.102 233.744C193.981 231.014 188.157 227.663 182.721 223.744C180.598 221.96 178.657 219.972 176.924 217.807C174.17 214.271 171.623 210.577 169.298 206.745C165.446 200.987 160.913 195.716 155.797 191.046C151.355 186.984 150.877 185.327 151.058 185.067C151.072 185.053 151.089 185.041 151.107 185.032C151.355 184.912 152.663 184.621 158.059 187.439C165.448 191.961 172.394 197.17 178.804 202.999C178.835 203.03 178.87 203.057 178.908 203.079C179.287 203.35 179.732 203.513 180.196 203.552C180.66 203.59 181.126 203.503 181.544 203.298C184.218 201.758 183.456 194.049 183.748 191.386C183.787 189.956 184.072 188.544 184.59 187.212C184.74 187.238 185.604 187.677 187.799 193.645C189.532 198.362 192.575 206.63 196.561 209.344C198.695 210.582 201.212 210.98 203.623 210.462C206.949 218.741 208.269 227.689 207.477 236.576C204.966 235.767 202.503 234.817 200.099 233.731L200.102 233.744ZM207.239 240.413C207.798 239.459 208.178 238.41 208.362 237.319C209.918 229.725 207.517 216.668 204.391 209.703C203.652 207.767 202.481 206.024 200.968 204.609L238.789 198.432C238.856 198.421 238.92 198.397 238.977 198.361C239.034 198.325 239.083 198.278 239.122 198.223C239.16 198.167 239.187 198.105 239.201 198.039C239.214 197.972 239.214 197.904 239.201 197.838L235.016 176.909C234.99 176.778 234.913 176.663 234.802 176.589C234.69 176.515 234.555 176.488 234.424 176.514C234.293 176.541 234.178 176.618 234.104 176.729C234.03 176.84 234.003 176.976 234.029 177.107L238.112 197.523L203.319 203.191C202.46 201.651 198.653 194.808 198.027 193.672C192.526 183.711 193.406 169.825 193.417 169.686C193.423 169.555 193.377 169.427 193.29 169.329C193.203 169.231 193.08 169.171 192.949 169.162C192.818 169.153 192.689 169.195 192.589 169.28C192.489 169.365 192.426 169.486 192.414 169.617C192.414 169.759 191.5 183.933 197.144 194.159C197.735 195.228 201.155 201.378 202.265 203.363L198.955 203.897C197.682 204.052 196.754 205.336 196.19 207.713C190.243 202.066 187.612 185.786 184.488 186.19C183.419 186.319 183.117 187.995 182.807 190.763L177.718 174.81C182.988 163.943 182.777 148.289 198.96 140.495C198.727 141.051 198.633 141.655 198.688 142.256C198.742 142.856 198.942 143.434 199.272 143.939C199.601 144.444 200.049 144.861 200.576 145.153C201.103 145.446 201.694 145.604 202.297 145.615C203.033 145.615 203.751 145.387 204.351 144.96C204.394 145.626 204.621 146.266 205.005 146.811C205.389 147.356 205.917 147.785 206.529 148.049C207.141 148.314 207.814 148.404 208.474 148.311C209.135 148.217 209.756 147.943 210.271 147.519C210.426 148.151 210.747 148.729 211.201 149.195C211.655 149.66 212.225 149.996 212.852 150.167C213.479 150.339 214.141 150.339 214.769 150.169C215.396 149.998 215.967 149.663 216.421 149.198C216.664 149.807 217.07 150.337 217.595 150.731C218.119 151.124 218.742 151.365 219.394 151.429C220.046 151.492 220.704 151.374 221.294 151.089C221.884 150.804 222.384 150.361 222.74 149.811C223.062 150.393 223.542 150.873 224.126 151.193C224.71 151.513 225.372 151.661 226.036 151.619C226.701 151.578 227.34 151.349 227.879 150.959C228.418 150.568 228.835 150.033 229.082 149.415C229.484 149.986 230.044 150.428 230.693 150.686C231.342 150.945 232.052 151.008 232.737 150.869C233.421 150.73 234.051 150.395 234.548 149.904C235.044 149.413 235.387 148.788 235.535 148.105C236.081 148.556 236.749 148.836 237.454 148.91C238.159 148.983 238.87 148.847 239.498 148.519C240.126 148.19 240.643 147.684 240.985 147.063C241.326 146.441 241.477 145.733 241.417 145.027C242.057 145.235 242.726 145.338 243.399 145.332C244.089 145.323 244.763 145.119 245.342 144.743C245.921 144.366 246.382 143.833 246.67 143.206C246.958 142.578 247.061 141.881 246.969 141.197C246.877 140.512 246.592 139.868 246.148 139.339C249.029 139.956 251.757 141.143 254.172 142.832C256.587 144.52 258.639 146.675 260.208 149.169C265.823 159.442 271.893 193.236 274.313 209.67C274.867 213.383 274.111 217.173 272.173 220.389C270.235 223.604 267.237 226.043 263.694 227.287C245.407 233.693 226.476 238.09 207.236 240.4L207.239 240.413ZM256.903 428.247L261.336 434.854C259.229 457.495 250.439 495.463 240.669 507.587L237.77 500.129C245.07 488.706 252.156 455.043 256.9 428.234L256.903 428.247ZM392.856 269.412C366.434 292.529 342.51 313.295 317.5 333.246C312.231 337.421 305.59 339.474 298.883 339.002C292.176 338.529 285.889 335.565 281.257 330.692C267.715 316.509 255.522 301.096 244.835 284.654C241.604 279.638 238.69 274.425 236.11 269.046C235.652 268.319 235.083 268.752 235.083 269.158C235.083 269.158 235.083 269.158 235.824 298.123C221.999 320.828 218.649 326.2 217.927 327.574C217.659 328.109 217.761 328.039 217.814 328.146C228.163 349.514 243.252 373.93 263.935 402.78C260 409.626 254.674 415.572 248.3 420.233L226.874 387.097C226.797 386.999 226.686 386.934 226.564 386.913C226.441 386.892 226.315 386.917 226.21 386.984C226.105 387.05 226.029 387.153 225.995 387.273C225.962 387.393 225.974 387.52 226.029 387.632L247.479 420.816C237.269 427.566 225.607 431.803 213.445 433.18C195.605 405.685 180.346 376.599 167.862 346.295C166.147 342.035 165.362 337.458 165.559 332.871C165.757 328.283 166.932 323.791 169.006 319.694C169.006 319.694 208.244 242.376 208.733 241.223C227.579 238.895 246.119 234.538 264.029 228.228C265.526 227.702 266.944 226.97 268.24 226.054C274.706 229.019 290.605 240.282 304.454 281.707C304.481 281.788 304.528 281.861 304.591 281.918C304.654 281.976 304.731 282.016 304.814 282.036C304.896 282.056 304.983 282.054 305.065 282.031C305.147 282.008 305.222 281.965 305.283 281.905L358.482 229.982C364.378 232.293 369.869 235.529 374.747 239.568L346.248 266.204C346.174 266.272 346.122 266.362 346.1 266.461C346.077 266.559 346.085 266.662 346.122 266.756C346.159 266.851 346.223 266.931 346.307 266.988C346.39 267.045 346.489 267.076 346.59 267.075C346.898 267.075 344.874 268.864 375.518 240.226C384.188 247.913 390.247 258.111 392.853 269.402L392.856 269.412ZM443.065 223.773C430.184 219.65 395.824 221.439 368.672 223.741L373.913 217.765C396.335 213.986 435.289 212.729 449.523 219.059L443.065 223.773Z"/>
</mask>
<path d="M450.726 218.503C436.415 211.398 396.011 212.983 373.558 216.794C373.472 216.818 373.459 216.794 373.29 216.965C372.755 217.484 370.827 219.765 361.64 230.236C360.634 229.781 359.609 229.345 358.565 228.926C358.458 228.883 358.268 228.926 357.738 229.37C356.072 230.782 348.163 238.662 305.168 280.627C291.996 241.641 277.26 229.287 269.157 225.367C271.476 223.489 273.264 221.039 274.345 218.259C275.426 215.478 275.763 212.463 275.321 209.513C272.89 193.017 266.791 159.073 261.103 148.677C255.017 137.567 239.957 137.783 235.856 135.32C228.799 131.077 225.427 121.755 224.997 113.634C224.983 113.506 224.921 113.388 224.823 113.304C224.725 113.22 224.599 113.177 224.47 113.184C224.341 113.191 224.22 113.247 224.131 113.341C224.043 113.435 223.993 113.559 223.994 113.688C224.43 122.151 227.983 131.761 235.337 136.181C238.043 137.318 240.866 138.152 243.755 138.668C243.016 140.535 241.793 142.17 240.212 143.407C238.531 144.478 236.729 145.348 234.845 145.998C217.991 151.814 201.602 140.599 205.26 142.965C203.683 142.144 202.342 140.933 201.367 139.446C203.781 138.597 206.238 137.876 208.728 137.286C210.953 136.57 212.873 135.129 214.182 133.193C215.491 131.256 216.113 128.937 215.948 126.606L218.665 121.349C218.709 121.255 218.722 121.15 218.704 121.047C218.686 120.945 218.636 120.851 218.563 120.778C218.489 120.705 218.394 120.657 218.292 120.64C218.189 120.623 218.084 120.638 217.991 120.683C217.008 121.373 215.968 121.977 214.881 122.488C209.177 125.13 205.118 123.745 203.463 117.675C202.396 112.096 202.361 106.369 203.359 100.778C203.987 97.0611 205.53 91.7132 209.3 91.7372C212.539 91.7372 216.346 95.7482 218.175 99.7833C218.221 99.8777 218.296 99.9556 218.388 100.006C218.48 100.057 218.586 100.077 218.69 100.065C218.794 100.053 218.893 100.009 218.971 99.9389C219.049 99.8688 219.104 99.7761 219.127 99.6736C219.892 95.8792 221.734 93.1946 223.791 93.1946C224.058 93.1946 232.115 93.1464 233 93.1946C242.452 93.0582 253.263 88.6889 253.263 76.7122C253.263 65.1766 245.051 51.7666 234.46 51.7666C222.962 51.7666 213.87 62.8235 212.571 73.1584C212.247 75.7634 212.58 78.4078 213.539 80.8515C210.353 81.3104 207.393 82.7571 205.073 84.9877C202.754 87.2184 201.193 90.1207 200.61 93.2855C200.578 93.4149 200.599 93.5515 200.668 93.6657C200.736 93.7798 200.847 93.8623 200.976 93.8952C200.976 93.8952 201.511 93.8711 201.883 93.8443C201.394 99.5407 201.291 105.264 201.575 110.974C201.843 121.023 205.586 127.52 214.71 123.659C215.675 129.309 214.007 134.438 208.407 136.334C204.313 137.73 190.224 139.144 183.114 156.538C180.948 161.833 179.571 168.205 177.269 173.385C176.18 169.967 175.723 168.448 175.48 167.769C175.277 167.205 175.293 167.173 174.547 167.031L168.648 165.504C166.816 162.866 164.296 160.78 161.361 159.474L174.672 141.187C174.835 140.977 174.953 140.736 175.019 140.479C175.084 140.221 175.096 139.953 175.054 139.691C175.011 139.429 174.915 139.178 174.771 138.955C174.627 138.731 174.439 138.54 174.218 138.393C173.997 138.245 173.748 138.145 173.486 138.098C173.225 138.051 172.956 138.059 172.698 138.121C172.439 138.182 172.197 138.296 171.984 138.456C171.772 138.615 171.595 138.817 171.464 139.048L159.38 158.809C157.628 158.345 155.799 158.249 154.008 158.528L152.976 152.931C152.957 152.836 152.912 152.747 152.845 152.677C152.779 152.606 152.693 152.556 152.599 152.533L145.259 150.744C144.946 150.666 144.561 150.84 144.7 151.501C144.868 152.303 145.467 154.308 147.015 159.91C131.915 156.001 127.821 154.875 126.634 154.661C125.789 154.506 125.955 154.947 126.099 155.37C126.851 157.758 131.164 169.732 151.641 229.57C151.778 229.963 148.818 229.035 198.578 242.617C199.142 242.686 199.257 242.4 198.963 241.28C198.62 239.959 197.711 237.485 196.305 233.068C197.374 233.603 198.444 234.1 199.514 234.584C200.556 237.191 202.99 242.223 205.717 241.616C206.362 241.542 207.001 241.461 207.637 241.381C203.332 249.866 168.105 319.253 168.105 319.253C165.966 323.477 164.754 328.11 164.55 332.841C164.346 337.572 165.155 342.292 166.923 346.685C179.473 377.147 194.819 406.38 212.763 434.009C212.974 434.336 213.271 434.237 213.875 434.148C215.861 433.863 217.798 433.532 219.686 433.154C223.186 438.675 224.499 440.258 225.489 452.38C227.369 468.713 231.143 484.772 236.735 500.233L240.038 508.726C240.068 508.806 240.12 508.878 240.186 508.933C240.253 508.988 240.333 509.025 240.418 509.04C240.503 509.055 240.59 509.048 240.672 509.019C240.753 508.99 240.826 508.941 240.883 508.875C251.424 496.867 260.269 457.42 262.352 434.747C262.352 434.405 262.964 435.459 251.779 418.781C257.083 414.343 261.549 408.992 264.967 402.98C265.013 402.898 265.035 402.804 265.031 402.709C265.026 402.615 264.995 402.523 264.94 402.446C244.273 373.642 229.187 349.266 218.836 327.943L244.439 285.903C255.068 302.114 267.144 317.329 280.519 331.361C285.324 336.418 291.848 339.494 298.806 339.985C305.765 340.476 312.656 338.346 318.123 334.013C343.224 313.99 367.226 293.152 393.749 269.947C393.819 269.886 393.871 269.807 393.899 269.718C393.927 269.63 393.929 269.535 393.906 269.445C392.547 263.959 390.468 258.678 387.724 253.738C391.503 251.156 395.665 249.186 400.057 247.9C415.42 241.997 429.992 234.213 443.439 224.725C448.365 221.222 450.106 219.979 450.71 219.447C451.162 219.051 451.025 218.663 450.726 218.503ZM244.562 139.353C245.086 139.621 245.504 140.056 245.752 140.59C245.999 141.124 246.06 141.725 245.925 142.297C245.791 142.87 245.468 143.381 245.009 143.749C244.551 144.116 243.982 144.32 243.394 144.326C242.651 144.351 241.915 144.187 241.254 143.848C242.68 142.615 243.807 141.076 244.551 139.345L244.562 139.353ZM240.313 144.543C240.437 144.932 240.467 145.345 240.402 145.749C240.337 146.152 240.177 146.534 239.937 146.864C239.696 147.194 239.381 147.463 239.017 147.649C238.653 147.835 238.251 147.932 237.842 147.934C237.415 147.934 236.994 147.828 236.618 147.625C236.241 147.422 235.922 147.128 235.687 146.77C237.291 146.168 238.836 145.42 240.302 144.535L240.313 144.543ZM234.607 147.142C234.656 147.761 234.481 148.378 234.113 148.878C233.745 149.379 233.209 149.73 232.603 149.868C231.998 150.006 231.363 149.921 230.814 149.629C230.266 149.337 229.841 148.858 229.617 148.279C231.304 148.027 232.969 147.644 234.596 147.134L234.607 147.142ZM228.304 148.434C228.232 149.039 227.939 149.597 227.482 150C227.025 150.404 226.435 150.625 225.826 150.621C225.249 150.62 224.69 150.42 224.242 150.056C223.795 149.692 223.486 149.185 223.368 148.621C225.012 148.661 226.658 148.596 228.294 148.426L228.304 148.434ZM217.173 147.955C218.841 148.253 220.525 148.457 222.216 148.567C222.066 149.106 221.744 149.581 221.298 149.919C220.853 150.257 220.309 150.44 219.75 150.439C219.081 150.438 218.438 150.177 217.955 149.713C217.473 149.249 217.189 148.616 217.162 147.947L217.173 147.955ZM211.215 146.455C212.842 146.973 214.494 147.409 216.164 147.76C215.916 148.327 215.472 148.787 214.915 149.056C214.357 149.325 213.721 149.386 213.122 149.227C212.523 149.069 212.001 148.701 211.649 148.192C211.298 147.682 211.14 147.063 211.204 146.447L211.215 146.455ZM205.423 144.155C206.97 144.88 208.554 145.527 210.167 146.091C209.842 146.612 209.345 147.001 208.761 147.189C208.178 147.378 207.546 147.355 206.979 147.123C206.411 146.891 205.943 146.466 205.659 145.923C205.374 145.38 205.291 144.754 205.423 144.155ZM200.508 139.952C201.465 141.463 202.779 142.715 204.335 143.596C204.096 143.907 203.789 144.159 203.438 144.333C203.086 144.506 202.7 144.596 202.308 144.596C201.779 144.577 201.267 144.402 200.835 144.095C200.403 143.788 200.071 143.362 199.878 142.868C199.686 142.375 199.642 141.836 199.752 141.317C199.862 140.799 200.121 140.325 200.498 139.952H200.508ZM160.752 160.298C163.219 161.338 165.385 162.983 167.049 165.082L158.818 162.943L160.752 160.298ZM158.829 159.688C157.85 161.293 157.225 162.245 157.12 162.515L154.623 161.865L154.187 159.504C155.731 159.257 157.309 159.32 158.829 159.688ZM145.849 151.91L152.037 153.418L153.548 161.584L148.138 160.183L145.849 151.91ZM197.888 241.392L152.492 228.977L127.209 155.825L174.512 168.069L182.665 193.645C182.617 198.592 182.28 201.71 181.047 202.421C180.789 202.53 180.506 202.569 180.228 202.535C179.95 202.501 179.686 202.394 179.461 202.226C172.992 196.352 165.983 191.101 158.529 186.541C156.725 185.602 151.39 182.832 150.24 184.49C149.438 185.637 151.082 188.091 155.123 191.787C156.743 193.279 158.259 194.771 159.653 196.25C157.684 195.322 155.329 194.274 153.813 193.605C150.149 192.001 147.86 191.715 147.194 192.779C147.054 193.04 147.012 193.342 147.076 193.632C147.14 193.921 147.307 194.177 147.545 194.354C150.163 196.6 154.51 199.734 157.532 202.189C155.722 201.715 151.168 200.606 150.438 202.341C150.342 202.622 150.35 202.928 150.459 203.204C150.569 203.48 150.774 203.708 151.037 203.847C154.58 206.004 161.15 209.17 164.407 211.277C169.347 214.069 174.016 217.315 178.354 220.973C180.024 222.795 181.881 224.436 183.895 225.869C187.466 228.298 191.192 230.492 195.048 232.437L197.888 241.392ZM165.8 207.55C158.944 202.453 161.88 204.173 153.657 197.9C151.703 196.405 149.681 194.862 148.197 193.589C148.066 193.477 148.026 193.343 148.047 193.322C148.069 193.3 148.81 192.52 153.395 194.533C155.583 195.498 159.524 197.26 161.487 198.277C165.2 202.46 168.494 206.997 171.322 211.823C169.56 210.331 167.626 208.895 165.797 207.537L165.8 207.55ZM173.969 215.617C174.281 216.043 174.6 216.47 174.926 216.898C172.448 215.117 169.672 213.393 167.407 211.983C164.298 209.942 161.075 208.079 157.754 206.403C155.537 205.229 153.248 204.015 151.561 202.986C151.414 202.897 151.35 202.769 151.366 202.731C151.382 202.694 151.992 201.814 156.853 203.052C157.342 203.178 158.241 203.411 159.302 203.691C163.869 207.718 170.06 211.462 173.966 215.604L173.969 215.617ZM200.102 233.744C193.981 231.014 188.157 227.663 182.721 223.744C180.598 221.96 178.657 219.972 176.924 217.807C174.17 214.271 171.623 210.577 169.298 206.745C165.446 200.987 160.913 195.716 155.797 191.046C151.355 186.984 150.877 185.327 151.058 185.067C151.072 185.053 151.089 185.041 151.107 185.032C151.355 184.912 152.663 184.621 158.059 187.439C165.448 191.961 172.394 197.17 178.804 202.999C178.835 203.03 178.87 203.057 178.908 203.079C179.287 203.35 179.732 203.513 180.196 203.552C180.66 203.59 181.126 203.503 181.544 203.298C184.218 201.758 183.456 194.049 183.748 191.386C183.787 189.956 184.072 188.544 184.59 187.212C184.74 187.238 185.604 187.677 187.799 193.645C189.532 198.362 192.575 206.63 196.561 209.344C198.695 210.582 201.212 210.98 203.623 210.462C206.949 218.741 208.269 227.689 207.477 236.576C204.966 235.767 202.503 234.817 200.099 233.731L200.102 233.744ZM207.239 240.413C207.798 239.459 208.178 238.41 208.362 237.319C209.918 229.725 207.517 216.668 204.391 209.703C203.652 207.767 202.481 206.024 200.968 204.609L238.789 198.432C238.856 198.421 238.92 198.397 238.977 198.361C239.034 198.325 239.083 198.278 239.122 198.223C239.16 198.167 239.187 198.105 239.201 198.039C239.214 197.972 239.214 197.904 239.201 197.838L235.016 176.909C234.99 176.778 234.913 176.663 234.802 176.589C234.69 176.515 234.555 176.488 234.424 176.514C234.293 176.541 234.178 176.618 234.104 176.729C234.03 176.84 234.003 176.976 234.029 177.107L238.112 197.523L203.319 203.191C202.46 201.651 198.653 194.808 198.027 193.672C192.526 183.711 193.406 169.825 193.417 169.686C193.423 169.555 193.377 169.427 193.29 169.329C193.203 169.231 193.08 169.171 192.949 169.162C192.818 169.153 192.689 169.195 192.589 169.28C192.489 169.365 192.426 169.486 192.414 169.617C192.414 169.759 191.5 183.933 197.144 194.159C197.735 195.228 201.155 201.378 202.265 203.363L198.955 203.897C197.682 204.052 196.754 205.336 196.19 207.713C190.243 202.066 187.612 185.786 184.488 186.19C183.419 186.319 183.117 187.995 182.807 190.763L177.718 174.81C182.988 163.943 182.777 148.289 198.96 140.495C198.727 141.051 198.633 141.655 198.688 142.256C198.742 142.856 198.942 143.434 199.272 143.939C199.601 144.444 200.049 144.861 200.576 145.153C201.103 145.446 201.694 145.604 202.297 145.615C203.033 145.615 203.751 145.387 204.351 144.96C204.394 145.626 204.621 146.266 205.005 146.811C205.389 147.356 205.917 147.785 206.529 148.049C207.141 148.314 207.814 148.404 208.474 148.311C209.135 148.217 209.756 147.943 210.271 147.519C210.426 148.151 210.747 148.729 211.201 149.195C211.655 149.66 212.225 149.996 212.852 150.167C213.479 150.339 214.141 150.339 214.769 150.169C215.396 149.998 215.967 149.663 216.421 149.198C216.664 149.807 217.07 150.337 217.595 150.731C218.119 151.124 218.742 151.365 219.394 151.429C220.046 151.492 220.704 151.374 221.294 151.089C221.884 150.804 222.384 150.361 222.74 149.811C223.062 150.393 223.542 150.873 224.126 151.193C224.71 151.513 225.372 151.661 226.036 151.619C226.701 151.578 227.34 151.349 227.879 150.959C228.418 150.568 228.835 150.033 229.082 149.415C229.484 149.986 230.044 150.428 230.693 150.686C231.342 150.945 232.052 151.008 232.737 150.869C233.421 150.73 234.051 150.395 234.548 149.904C235.044 149.413 235.387 148.788 235.535 148.105C236.081 148.556 236.749 148.836 237.454 148.91C238.159 148.983 238.87 148.847 239.498 148.519C240.126 148.19 240.643 147.684 240.985 147.063C241.326 146.441 241.477 145.733 241.417 145.027C242.057 145.235 242.726 145.338 243.399 145.332C244.089 145.323 244.763 145.119 245.342 144.743C245.921 144.366 246.382 143.833 246.67 143.206C246.958 142.578 247.061 141.881 246.969 141.197C246.877 140.512 246.592 139.868 246.148 139.339C249.029 139.956 251.757 141.143 254.172 142.832C256.587 144.52 258.639 146.675 260.208 149.169C265.823 159.442 271.893 193.236 274.313 209.67C274.867 213.383 274.111 217.173 272.173 220.389C270.235 223.604 267.237 226.043 263.694 227.287C245.407 233.693 226.476 238.09 207.236 240.4L207.239 240.413ZM256.903 428.247L261.336 434.854C259.229 457.495 250.439 495.463 240.669 507.587L237.77 500.129C245.07 488.706 252.156 455.043 256.9 428.234L256.903 428.247ZM392.856 269.412C366.434 292.529 342.51 313.295 317.5 333.246C312.231 337.421 305.59 339.474 298.883 339.002C292.176 338.529 285.889 335.565 281.257 330.692C267.715 316.509 255.522 301.096 244.835 284.654C241.604 279.638 238.69 274.425 236.11 269.046C235.652 268.319 235.083 268.752 235.083 269.158C235.083 269.158 235.083 269.158 235.824 298.123C221.999 320.828 218.649 326.2 217.927 327.574C217.659 328.109 217.761 328.039 217.814 328.146C228.163 349.514 243.252 373.93 263.935 402.78C260 409.626 254.674 415.572 248.3 420.233L226.874 387.097C226.797 386.999 226.686 386.934 226.564 386.913C226.441 386.892 226.315 386.917 226.21 386.984C226.105 387.05 226.029 387.153 225.995 387.273C225.962 387.393 225.974 387.52 226.029 387.632L247.479 420.816C237.269 427.566 225.607 431.803 213.445 433.18C195.605 405.685 180.346 376.599 167.862 346.295C166.147 342.035 165.362 337.458 165.559 332.871C165.757 328.283 166.932 323.791 169.006 319.694C169.006 319.694 208.244 242.376 208.733 241.223C227.579 238.895 246.119 234.538 264.029 228.228C265.526 227.702 266.944 226.97 268.24 226.054C274.706 229.019 290.605 240.282 304.454 281.707C304.481 281.788 304.528 281.861 304.591 281.918C304.654 281.976 304.731 282.016 304.814 282.036C304.896 282.056 304.983 282.054 305.065 282.031C305.147 282.008 305.222 281.965 305.283 281.905L358.482 229.982C364.378 232.293 369.869 235.529 374.747 239.568L346.248 266.204C346.174 266.272 346.122 266.362 346.1 266.461C346.077 266.559 346.085 266.662 346.122 266.756C346.159 266.851 346.223 266.931 346.307 266.988C346.39 267.045 346.489 267.076 346.59 267.075C346.898 267.075 344.874 268.864 375.518 240.226C384.188 247.913 390.247 258.111 392.853 269.402L392.856 269.412ZM443.065 223.773C430.184 219.65 395.824 221.439 368.672 223.741L373.913 217.765C396.335 213.986 435.289 212.729 449.523 219.059L443.065 223.773Z" fill="white"/>
<path d="M450.726 218.503C436.415 211.398 396.011 212.983 373.558 216.794C373.472 216.818 373.459 216.794 373.29 216.965C372.755 217.484 370.827 219.765 361.64 230.236C360.634 229.781 359.609 229.345 358.565 228.926C358.458 228.883 358.268 228.926 357.738 229.37C356.072 230.782 348.163 238.662 305.168 280.627C291.996 241.641 277.26 229.287 269.157 225.367C271.476 223.489 273.264 221.039 274.345 218.259C275.426 215.478 275.763 212.463 275.321 209.513C272.89 193.017 266.791 159.073 261.103 148.677C255.017 137.567 239.957 137.783 235.856 135.32C228.799 131.077 225.427 121.755 224.997 113.634C224.983 113.506 224.921 113.388 224.823 113.304C224.725 113.22 224.599 113.177 224.47 113.184C224.341 113.191 224.22 113.247 224.131 113.341C224.043 113.435 223.993 113.559 223.994 113.688C224.43 122.151 227.983 131.761 235.337 136.181C238.043 137.318 240.866 138.152 243.755 138.668C243.016 140.535 241.793 142.17 240.212 143.407C238.531 144.478 236.729 145.348 234.845 145.998C217.991 151.814 201.602 140.599 205.26 142.965C203.683 142.144 202.342 140.933 201.367 139.446C203.781 138.597 206.238 137.876 208.728 137.286C210.953 136.57 212.873 135.129 214.182 133.193C215.491 131.256 216.113 128.937 215.948 126.606L218.665 121.349C218.709 121.255 218.722 121.15 218.704 121.047C218.686 120.945 218.636 120.851 218.563 120.778C218.489 120.705 218.394 120.657 218.292 120.64C218.189 120.623 218.084 120.638 217.991 120.683C217.008 121.373 215.968 121.977 214.881 122.488C209.177 125.13 205.118 123.745 203.463 117.675C202.396 112.096 202.361 106.369 203.359 100.778C203.987 97.0611 205.53 91.7132 209.3 91.7372C212.539 91.7372 216.346 95.7482 218.175 99.7833C218.221 99.8777 218.296 99.9556 218.388 100.006C218.48 100.057 218.586 100.077 218.69 100.065C218.794 100.053 218.893 100.009 218.971 99.9389C219.049 99.8688 219.104 99.7761 219.127 99.6736C219.892 95.8792 221.734 93.1946 223.791 93.1946C224.058 93.1946 232.115 93.1464 233 93.1946C242.452 93.0582 253.263 88.6889 253.263 76.7122C253.263 65.1766 245.051 51.7666 234.46 51.7666C222.962 51.7666 213.87 62.8235 212.571 73.1584C212.247 75.7634 212.58 78.4078 213.539 80.8515C210.353 81.3104 207.393 82.7571 205.073 84.9877C202.754 87.2184 201.193 90.1207 200.61 93.2855C200.578 93.4149 200.599 93.5515 200.668 93.6657C200.736 93.7798 200.847 93.8623 200.976 93.8952C200.976 93.8952 201.511 93.8711 201.883 93.8443C201.394 99.5407 201.291 105.264 201.575 110.974C201.843 121.023 205.586 127.52 214.71 123.659C215.675 129.309 214.007 134.438 208.407 136.334C204.313 137.73 190.224 139.144 183.114 156.538C180.948 161.833 179.571 168.205 177.269 173.385C176.18 169.967 175.723 168.448 175.48 167.769C175.277 167.205 175.293 167.173 174.547 167.031L168.648 165.504C166.816 162.866 164.296 160.78 161.361 159.474L174.672 141.187C174.835 140.977 174.953 140.736 175.019 140.479C175.084 140.221 175.096 139.953 175.054 139.691C175.011 139.429 174.915 139.178 174.771 138.955C174.627 138.731 174.439 138.54 174.218 138.393C173.997 138.245 173.748 138.145 173.486 138.098C173.225 138.051 172.956 138.059 172.698 138.121C172.439 138.182 172.197 138.296 171.984 138.456C171.772 138.615 171.595 138.817 171.464 139.048L159.38 158.809C157.628 158.345 155.799 158.249 154.008 158.528L152.976 152.931C152.957 152.836 152.912 152.747 152.845 152.677C152.779 152.606 152.693 152.556 152.599 152.533L145.259 150.744C144.946 150.666 144.561 150.84 144.7 151.501C144.868 152.303 145.467 154.308 147.015 159.91C131.915 156.001 127.821 154.875 126.634 154.661C125.789 154.506 125.955 154.947 126.099 155.37C126.851 157.758 131.164 169.732 151.641 229.57C151.778 229.963 148.818 229.035 198.578 242.617C199.142 242.686 199.257 242.4 198.963 241.28C198.62 239.959 197.711 237.485 196.305 233.068C197.374 233.603 198.444 234.1 199.514 234.584C200.556 237.191 202.99 242.223 205.717 241.616C206.362 241.542 207.001 241.461 207.637 241.381C203.332 249.866 168.105 319.253 168.105 319.253C165.966 323.477 164.754 328.11 164.55 332.841C164.346 337.572 165.155 342.292 166.923 346.685C179.473 377.147 194.819 406.38 212.763 434.009C212.974 434.336 213.271 434.237 213.875 434.148C215.861 433.863 217.798 433.532 219.686 433.154C223.186 438.675 224.499 440.258 225.489 452.38C227.369 468.713 231.143 484.772 236.735 500.233L240.038 508.726C240.068 508.806 240.12 508.878 240.186 508.933C240.253 508.988 240.333 509.025 240.418 509.04C240.503 509.055 240.59 509.048 240.672 509.019C240.753 508.99 240.826 508.941 240.883 508.875C251.424 496.867 260.269 457.42 262.352 434.747C262.352 434.405 262.964 435.459 251.779 418.781C257.083 414.343 261.549 408.992 264.967 402.98C265.013 402.898 265.035 402.804 265.031 402.709C265.026 402.615 264.995 402.523 264.94 402.446C244.273 373.642 229.187 349.266 218.836 327.943L244.439 285.903C255.068 302.114 267.144 317.329 280.519 331.361C285.324 336.418 291.848 339.494 298.806 339.985C305.765 340.476 312.656 338.346 318.123 334.013C343.224 313.99 367.226 293.152 393.749 269.947C393.819 269.886 393.871 269.807 393.899 269.718C393.927 269.63 393.929 269.535 393.906 269.445C392.547 263.959 390.468 258.678 387.724 253.738C391.503 251.156 395.665 249.186 400.057 247.9C415.42 241.997 429.992 234.213 443.439 224.725C448.365 221.222 450.106 219.979 450.71 219.447C451.162 219.051 451.025 218.663 450.726 218.503ZM244.562 139.353C245.086 139.621 245.504 140.056 245.752 140.59C245.999 141.124 246.06 141.725 245.925 142.297C245.791 142.87 245.468 143.381 245.009 143.749C244.551 144.116 243.982 144.32 243.394 144.326C242.651 144.351 241.915 144.187 241.254 143.848C242.68 142.615 243.807 141.076 244.551 139.345L244.562 139.353ZM240.313 144.543C240.437 144.932 240.467 145.345 240.402 145.749C240.337 146.152 240.177 146.534 239.937 146.864C239.696 147.194 239.381 147.463 239.017 147.649C238.653 147.835 238.251 147.932 237.842 147.934C237.415 147.934 236.994 147.828 236.618 147.625C236.241 147.422 235.922 147.128 235.687 146.77C237.291 146.168 238.836 145.42 240.302 144.535L240.313 144.543ZM234.607 147.142C234.656 147.761 234.481 148.378 234.113 148.878C233.745 149.379 233.209 149.73 232.603 149.868C231.998 150.006 231.363 149.921 230.814 149.629C230.266 149.337 229.841 148.858 229.617 148.279C231.304 148.027 232.969 147.644 234.596 147.134L234.607 147.142ZM228.304 148.434C228.232 149.039 227.939 149.597 227.482 150C227.025 150.404 226.435 150.625 225.826 150.621C225.249 150.62 224.69 150.42 224.242 150.056C223.795 149.692 223.486 149.185 223.368 148.621C225.012 148.661 226.658 148.596 228.294 148.426L228.304 148.434ZM217.173 147.955C218.841 148.253 220.525 148.457 222.216 148.567C222.066 149.106 221.744 149.581 221.298 149.919C220.853 150.257 220.309 150.44 219.75 150.439C219.081 150.438 218.438 150.177 217.955 149.713C217.473 149.249 217.189 148.616 217.162 147.947L217.173 147.955ZM211.215 146.455C212.842 146.973 214.494 147.409 216.164 147.76C215.916 148.327 215.472 148.787 214.915 149.056C214.357 149.325 213.721 149.386 213.122 149.227C212.523 149.069 212.001 148.701 211.649 148.192C211.298 147.682 211.14 147.063 211.204 146.447L211.215 146.455ZM205.423 144.155C206.97 144.88 208.554 145.527 210.167 146.091C209.842 146.612 209.345 147.001 208.761 147.189C208.178 147.378 207.546 147.355 206.979 147.123C206.411 146.891 205.943 146.466 205.659 145.923C205.374 145.38 205.291 144.754 205.423 144.155ZM200.508 139.952C201.465 141.463 202.779 142.715 204.335 143.596C204.096 143.907 203.789 144.159 203.438 144.333C203.086 144.506 202.7 144.596 202.308 144.596C201.779 144.577 201.267 144.402 200.835 144.095C200.403 143.788 200.071 143.362 199.878 142.868C199.686 142.375 199.642 141.836 199.752 141.317C199.862 140.799 200.121 140.325 200.498 139.952H200.508ZM160.752 160.298C163.219 161.338 165.385 162.983 167.049 165.082L158.818 162.943L160.752 160.298ZM158.829 159.688C157.85 161.293 157.225 162.245 157.12 162.515L154.623 161.865L154.187 159.504C155.731 159.257 157.309 159.32 158.829 159.688ZM145.849 151.91L152.037 153.418L153.548 161.584L148.138 160.183L145.849 151.91ZM197.888 241.392L152.492 228.977L127.209 155.825L174.512 168.069L182.665 193.645C182.617 198.592 182.28 201.71 181.047 202.421C180.789 202.53 180.506 202.569 180.228 202.535C179.95 202.501 179.686 202.394 179.461 202.226C172.992 196.352 165.983 191.101 158.529 186.541C156.725 185.602 151.39 182.832 150.24 184.49C149.438 185.637 151.082 188.091 155.123 191.787C156.743 193.279 158.259 194.771 159.653 196.25C157.684 195.322 155.329 194.274 153.813 193.605C150.149 192.001 147.86 191.715 147.194 192.779C147.054 193.04 147.012 193.342 147.076 193.632C147.14 193.921 147.307 194.177 147.545 194.354C150.163 196.6 154.51 199.734 157.532 202.189C155.722 201.715 151.168 200.606 150.438 202.341C150.342 202.622 150.35 202.928 150.459 203.204C150.569 203.48 150.774 203.708 151.037 203.847C154.58 206.004 161.15 209.17 164.407 211.277C169.347 214.069 174.016 217.315 178.354 220.973C180.024 222.795 181.881 224.436 183.895 225.869C187.466 228.298 191.192 230.492 195.048 232.437L197.888 241.392ZM165.8 207.55C158.944 202.453 161.88 204.173 153.657 197.9C151.703 196.405 149.681 194.862 148.197 193.589C148.066 193.477 148.026 193.343 148.047 193.322C148.069 193.3 148.81 192.52 153.395 194.533C155.583 195.498 159.524 197.26 161.487 198.277C165.2 202.46 168.494 206.997 171.322 211.823C169.56 210.331 167.626 208.895 165.797 207.537L165.8 207.55ZM173.969 215.617C174.281 216.043 174.6 216.47 174.926 216.898C172.448 215.117 169.672 213.393 167.407 211.983C164.298 209.942 161.075 208.079 157.754 206.403C155.537 205.229 153.248 204.015 151.561 202.986C151.414 202.897 151.35 202.769 151.366 202.731C151.382 202.694 151.992 201.814 156.853 203.052C157.342 203.178 158.241 203.411 159.302 203.691C163.869 207.718 170.06 211.462 173.966 215.604L173.969 215.617ZM200.102 233.744C193.981 231.014 188.157 227.663 182.721 223.744C180.598 221.96 178.657 219.972 176.924 217.807C174.17 214.271 171.623 210.577 169.298 206.745C165.446 200.987 160.913 195.716 155.797 191.046C151.355 186.984 150.877 185.327 151.058 185.067C151.072 185.053 151.089 185.041 151.107 185.032C151.355 184.912 152.663 184.621 158.059 187.439C165.448 191.961 172.394 197.17 178.804 202.999C178.835 203.03 178.87 203.057 178.908 203.079C179.287 203.35 179.732 203.513 180.196 203.552C180.66 203.59 181.126 203.503 181.544 203.298C184.218 201.758 183.456 194.049 183.748 191.386C183.787 189.956 184.072 188.544 184.59 187.212C184.74 187.238 185.604 187.677 187.799 193.645C189.532 198.362 192.575 206.63 196.561 209.344C198.695 210.582 201.212 210.98 203.623 210.462C206.949 218.741 208.269 227.689 207.477 236.576C204.966 235.767 202.503 234.817 200.099 233.731L200.102 233.744ZM207.239 240.413C207.798 239.459 208.178 238.41 208.362 237.319C209.918 229.725 207.517 216.668 204.391 209.703C203.652 207.767 202.481 206.024 200.968 204.609L238.789 198.432C238.856 198.421 238.92 198.397 238.977 198.361C239.034 198.325 239.083 198.278 239.122 198.223C239.16 198.167 239.187 198.105 239.201 198.039C239.214 197.972 239.214 197.904 239.201 197.838L235.016 176.909C234.99 176.778 234.913 176.663 234.802 176.589C234.69 176.515 234.555 176.488 234.424 176.514C234.293 176.541 234.178 176.618 234.104 176.729C234.03 176.84 234.003 176.976 234.029 177.107L238.112 197.523L203.319 203.191C202.46 201.651 198.653 194.808 198.027 193.672C192.526 183.711 193.406 169.825 193.417 169.686C193.423 169.555 193.377 169.427 193.29 169.329C193.203 169.231 193.08 169.171 192.949 169.162C192.818 169.153 192.689 169.195 192.589 169.28C192.489 169.365 192.426 169.486 192.414 169.617C192.414 169.759 191.5 183.933 197.144 194.159C197.735 195.228 201.155 201.378 202.265 203.363L198.955 203.897C197.682 204.052 196.754 205.336 196.19 207.713C190.243 202.066 187.612 185.786 184.488 186.19C183.419 186.319 183.117 187.995 182.807 190.763L177.718 174.81C182.988 163.943 182.777 148.289 198.96 140.495C198.727 141.051 198.633 141.655 198.688 142.256C198.742 142.856 198.942 143.434 199.272 143.939C199.601 144.444 200.049 144.861 200.576 145.153C201.103 145.446 201.694 145.604 202.297 145.615C203.033 145.615 203.751 145.387 204.351 144.96C204.394 145.626 204.621 146.266 205.005 146.811C205.389 147.356 205.917 147.785 206.529 148.049C207.141 148.314 207.814 148.404 208.474 148.311C209.135 148.217 209.756 147.943 210.271 147.519C210.426 148.151 210.747 148.729 211.201 149.195C211.655 149.66 212.225 149.996 212.852 150.167C213.479 150.339 214.141 150.339 214.769 150.169C215.396 149.998 215.967 149.663 216.421 149.198C216.664 149.807 217.07 150.337 217.595 150.731C218.119 151.124 218.742 151.365 219.394 151.429C220.046 151.492 220.704 151.374 221.294 151.089C221.884 150.804 222.384 150.361 222.74 149.811C223.062 150.393 223.542 150.873 224.126 151.193C224.71 151.513 225.372 151.661 226.036 151.619C226.701 151.578 227.34 151.349 227.879 150.959C228.418 150.568 228.835 150.033 229.082 149.415C229.484 149.986 230.044 150.428 230.693 150.686C231.342 150.945 232.052 151.008 232.737 150.869C233.421 150.73 234.051 150.395 234.548 149.904C235.044 149.413 235.387 148.788 235.535 148.105C236.081 148.556 236.749 148.836 237.454 148.91C238.159 148.983 238.87 148.847 239.498 148.519C240.126 148.19 240.643 147.684 240.985 147.063C241.326 146.441 241.477 145.733 241.417 145.027C242.057 145.235 242.726 145.338 243.399 145.332C244.089 145.323 244.763 145.119 245.342 144.743C245.921 144.366 246.382 143.833 246.67 143.206C246.958 142.578 247.061 141.881 246.969 141.197C246.877 140.512 246.592 139.868 246.148 139.339C249.029 139.956 251.757 141.143 254.172 142.832C256.587 144.52 258.639 146.675 260.208 149.169C265.823 159.442 271.893 193.236 274.313 209.67C274.867 213.383 274.111 217.173 272.173 220.389C270.235 223.604 267.237 226.043 263.694 227.287C245.407 233.693 226.476 238.09 207.236 240.4L207.239 240.413ZM256.903 428.247L261.336 434.854C259.229 457.495 250.439 495.463 240.669 507.587L237.77 500.129C245.07 488.706 252.156 455.043 256.9 428.234L256.903 428.247ZM392.856 269.412C366.434 292.529 342.51 313.295 317.5 333.246C312.231 337.421 305.59 339.474 298.883 339.002C292.176 338.529 285.889 335.565 281.257 330.692C267.715 316.509 255.522 301.096 244.835 284.654C241.604 279.638 238.69 274.425 236.11 269.046C235.652 268.319 235.083 268.752 235.083 269.158C235.083 269.158 235.083 269.158 235.824 298.123C221.999 320.828 218.649 326.2 217.927 327.574C217.659 328.109 217.761 328.039 217.814 328.146C228.163 349.514 243.252 373.93 263.935 402.78C260 409.626 254.674 415.572 248.3 420.233L226.874 387.097C226.797 386.999 226.686 386.934 226.564 386.913C226.441 386.892 226.315 386.917 226.21 386.984C226.105 387.05 226.029 387.153 225.995 387.273C225.962 387.393 225.974 387.52 226.029 387.632L247.479 420.816C237.269 427.566 225.607 431.803 213.445 433.18C195.605 405.685 180.346 376.599 167.862 346.295C166.147 342.035 165.362 337.458 165.559 332.871C165.757 328.283 166.932 323.791 169.006 319.694C169.006 319.694 208.244 242.376 208.733 241.223C227.579 238.895 246.119 234.538 264.029 228.228C265.526 227.702 266.944 226.97 268.24 226.054C274.706 229.019 290.605 240.282 304.454 281.707C304.481 281.788 304.528 281.861 304.591 281.918C304.654 281.976 304.731 282.016 304.814 282.036C304.896 282.056 304.983 282.054 305.065 282.031C305.147 282.008 305.222 281.965 305.283 281.905L358.482 229.982C364.378 232.293 369.869 235.529 374.747 239.568L346.248 266.204C346.174 266.272 346.122 266.362 346.1 266.461C346.077 266.559 346.085 266.662 346.122 266.756C346.159 266.851 346.223 266.931 346.307 266.988C346.39 267.045 346.489 267.076 346.59 267.075C346.898 267.075 344.874 268.864 375.518 240.226C384.188 247.913 390.247 258.111 392.853 269.402L392.856 269.412ZM443.065 223.773C430.184 219.65 395.824 221.439 368.672 223.741L373.913 217.765C396.335 213.986 435.289 212.729 449.523 219.059L443.065 223.773Z" stroke="white" stroke-width="0.6" mask="url(#path-17-outside-2_0_1)"/>
<path d="M250.183 241.159C250.128 241.122 250.081 241.074 250.045 241.019C250.009 240.964 249.984 240.902 249.972 240.837C249.959 240.772 249.96 240.705 249.973 240.641C249.987 240.576 250.013 240.515 250.05 240.46C250.088 240.405 250.135 240.359 250.19 240.322C250.246 240.286 250.308 240.261 250.373 240.249C250.437 240.237 250.504 240.237 250.569 240.251C250.634 240.264 250.695 240.29 250.75 240.328C254.588 243.138 258.964 245.129 263.604 246.176C268.245 247.223 273.051 247.304 277.725 246.414C277.855 246.387 277.991 246.414 278.102 246.488C278.214 246.562 278.291 246.677 278.317 246.808C278.343 246.939 278.316 247.075 278.242 247.186C278.168 247.297 278.053 247.374 277.923 247.4C273.118 248.315 268.176 248.234 263.405 247.16C258.633 246.087 254.132 244.044 250.183 241.159Z" fill="white"/>
<path d="M231.938 92.4726C230.529 92.2321 229.095 92.1836 227.673 92.3282C226.803 89.482 225.019 87.0016 222.598 85.2704C220.177 83.5391 217.254 82.6534 214.279 82.75C211.266 82.5763 208.294 83.5122 205.924 85.381C203.554 87.2498 201.951 89.9219 201.417 92.8924L200.973 92.9084C199.575 92.9806 198.235 94.2668 197.297 96.4354C194.321 103.316 196.96 114.241 202.273 114.677H202.313C202.382 114.677 202.45 114.663 202.513 114.635C202.576 114.608 202.633 114.567 202.679 114.517C203.34 113.808 201.185 110.607 202.907 93.6384C202.941 93.559 202.956 93.4728 202.952 93.3865C202.947 93.3002 202.922 93.2161 202.88 93.1408C202.838 93.0655 202.778 93.001 202.707 92.9523C202.635 92.9037 202.554 92.8722 202.468 92.8603C203.006 90.1724 204.498 87.7698 206.669 86.0958C208.84 84.4219 211.543 83.5897 214.279 83.7527C216.989 83.6298 219.663 84.403 221.89 85.9525C224.116 87.5021 225.77 89.7418 226.595 92.3255H223.831C217.809 92.3255 215.699 105.867 220.111 111.931C218.085 113.891 215.676 115.411 213.036 116.397C212.725 115.944 212.278 115.602 211.76 115.42C211.242 115.238 210.68 115.224 210.154 115.382C209.628 115.539 209.166 115.86 208.834 116.297C208.502 116.734 208.317 117.265 208.305 117.814C208.314 118.165 208.395 118.511 208.543 118.83C208.692 119.149 208.904 119.434 209.168 119.667C209.431 119.9 209.739 120.076 210.074 120.185C210.408 120.293 210.762 120.332 211.112 120.298C211.462 120.264 211.801 120.158 212.108 119.987C212.415 119.816 212.684 119.583 212.897 119.304C213.111 119.024 213.264 118.704 213.348 118.362C213.433 118.021 213.445 117.666 213.386 117.319C213.414 117.315 213.442 117.308 213.469 117.298C216.161 116.228 218.632 114.671 220.761 112.707C221.147 113.146 221.619 113.502 222.148 113.753C222.676 114.003 223.251 114.142 223.836 114.161C231.7 114.161 231.272 114.215 231.943 114.019C238.733 112.03 238.735 94.4593 231.938 92.4726ZM201.722 113.544C198 112.3 195.428 103.31 198.227 96.8338C198.997 95.0556 200.045 93.9646 201.024 93.9138L201.88 93.8818C201.091 100.409 201.035 107.004 201.714 113.544H201.722ZM223.839 113.204V113.158C221.092 113.158 218.771 108.613 218.771 103.246C218.771 97.8793 221.092 93.3336 223.839 93.3336H228.384C223.772 97.1948 223.678 109.18 228.368 113.158C225.411 113.158 224.288 113.166 223.831 113.204H223.839ZM231.668 113.054C226.855 114.471 223.667 101.997 227.833 95.5209C228.729 94.1224 230.072 92.9673 231.665 93.4379C233.839 94.0743 236.043 97.6467 236.043 103.246C236.043 108.845 233.834 112.418 231.66 113.054H231.668Z" fill="white"/>
<path d="M236.504 102.339L236.504 102.339L236.508 102.339C257.023 103.766 273.438 108.842 284.922 113.561C290.664 115.92 295.173 118.19 298.347 119.871C299.312 120.382 300.15 120.836 300.863 121.223C301.326 121.474 301.736 121.697 302.095 121.888C302.549 122.13 302.918 122.321 303.2 122.451C303.341 122.517 303.463 122.568 303.564 122.603C303.66 122.637 303.752 122.662 303.828 122.662C303.974 122.666 304.118 122.621 304.236 122.533C304.354 122.445 304.439 122.32 304.477 122.177C304.515 122.035 304.503 121.883 304.444 121.748C304.386 121.614 304.283 121.503 304.154 121.434C283.469 109.611 260.37 102.636 236.598 101.037L236.598 101.037L236.595 101.037C236.424 101.029 236.258 101.088 236.13 101.202C236.003 101.315 235.925 101.474 235.913 101.644C235.902 101.814 235.957 101.982 236.067 102.112C236.178 102.242 236.335 102.323 236.504 102.339Z" fill="white" stroke="white" stroke-width="0.3"/>
</svg>
