<svg width="473" height="495" viewBox="0 0 473 495" fill="none" xmlns="http://www.w3.org/2000/svg">
<rect width="473" height="495" fill="#1E1E1E"/>
<rect width="1438" height="3603" transform="translate(-84 -3018)" fill="#000212"/>
<circle cx="294.9" cy="47.3401" r="11.4499" transform="rotate(-15 294.9 47.3401)" fill="white" stroke="white" stroke-width="0.3"/>
<circle cx="319.04" cy="27.1812" r="3.47997" transform="rotate(-15 319.04 27.1812)" stroke="white" stroke-width="2.5"/>
<mask id="path-3-outside-1_0_1" maskUnits="userSpaceOnUse" x="247.775" y="6.74408" width="92.475" height="74.0903" fill="black">
<rect fill="white" x="247.775" y="6.74408" width="92.475" height="74.0903"/>
<path fill-rule="evenodd" clip-rule="evenodd" d="M295.351 17.0312L279.355 21.3172L280.177 24.3852L279.66 24.5238L280.38 27.2126L279.932 27.3328L279.673 26.3669L278.389 21.576L278.13 20.6101L279.096 20.3512L295.092 16.0652L296.058 15.8064L296.317 16.7723L297.6 21.5633L297.859 22.5292L297.412 22.6492L296.691 19.9603L296.173 20.0992L295.351 17.0312ZM251.767 34.8798L280.381 27.2127L280.64 28.1787L252.026 35.8457L263.518 78.7324L337.777 58.8346L326.286 15.9479L297.671 23.6152L297.412 22.6493L326.027 14.982L326.993 14.7232L327.252 15.6891L338.743 58.5758L339.002 59.5417L338.036 59.8005L263.776 79.6983L262.811 79.9572L262.552 78.9912L251.06 36.1046L250.801 35.1386L251.767 34.8798Z"/>
</mask>
<path fill-rule="evenodd" clip-rule="evenodd" d="M295.351 17.0312L279.355 21.3172L280.177 24.3852L279.66 24.5238L280.38 27.2126L279.932 27.3328L279.673 26.3669L278.389 21.576L278.13 20.6101L279.096 20.3512L295.092 16.0652L296.058 15.8064L296.317 16.7723L297.6 21.5633L297.859 22.5292L297.412 22.6492L296.691 19.9603L296.173 20.0992L295.351 17.0312ZM251.767 34.8798L280.381 27.2127L280.64 28.1787L252.026 35.8457L263.518 78.7324L337.777 58.8346L326.286 15.9479L297.671 23.6152L297.412 22.6493L326.027 14.982L326.993 14.7232L327.252 15.6891L338.743 58.5758L339.002 59.5417L338.036 59.8005L263.776 79.6983L262.811 79.9572L262.552 78.9912L251.06 36.1046L250.801 35.1386L251.767 34.8798Z" fill="white"/>
<path d="M279.355 21.3172L279.278 21.0274L278.988 21.105L279.065 21.3948L279.355 21.3172ZM295.351 17.0312L295.641 16.9535L295.563 16.6637L295.273 16.7414L295.351 17.0312ZM280.177 24.3852L280.255 24.675L280.545 24.5973L280.467 24.3075L280.177 24.3852ZM279.66 24.5238L279.582 24.234L279.293 24.3116L279.37 24.6014L279.66 24.5238ZM280.38 27.2126L280.458 27.5024L280.748 27.4247L280.67 27.135L280.38 27.2126ZM279.932 27.3328L279.642 27.4105L279.72 27.7003L280.009 27.6226L279.932 27.3328ZM279.673 26.3669L279.963 26.2893L279.673 26.3669ZM278.13 20.6101L278.053 20.3203L277.763 20.3979L277.841 20.6877L278.13 20.6101ZM296.058 15.8064L296.348 15.7288L296.27 15.439L295.98 15.5166L296.058 15.8064ZM296.317 16.7723L296.606 16.6947L296.317 16.7723ZM297.6 21.5633L297.311 21.6409L297.6 21.5633ZM297.859 22.5292L297.937 22.819L298.227 22.7413L298.149 22.4515L297.859 22.5292ZM297.412 22.6492L297.122 22.7268L297.199 23.0166L297.489 22.9389L297.412 22.6492ZM296.691 19.9603L296.981 19.8827L296.903 19.5929L296.613 19.6705L296.691 19.9603ZM296.173 20.0992L295.883 20.1768L295.961 20.4666L296.25 20.389L296.173 20.0992ZM280.381 27.2127L280.671 27.1351L280.593 26.8453L280.304 26.923L280.381 27.2127ZM280.64 28.1787L280.718 28.4684L281.008 28.3908L280.93 28.101L280.64 28.1787ZM252.026 35.8457L251.949 35.556L251.659 35.6336L251.736 35.9234L252.026 35.8457ZM263.518 78.7324L263.228 78.8101L263.306 79.0998L263.595 79.0222L263.518 78.7324ZM337.777 58.8346L337.855 59.1244L338.145 59.0467L338.067 58.757L337.777 58.8346ZM326.286 15.9479L326.576 15.8703L326.498 15.5805L326.208 15.6581L326.286 15.9479ZM297.671 23.6152L297.381 23.6929L297.459 23.9826L297.749 23.905L297.671 23.6152ZM297.412 22.6493L297.335 22.3595L297.045 22.4372L297.123 22.7269L297.412 22.6493ZM326.993 14.7232L327.283 14.6455L327.205 14.3558L326.915 14.4334L326.993 14.7232ZM338.743 58.5758L339.033 58.4981L338.743 58.5758ZM339.002 59.5417L339.08 59.8315L339.369 59.7538L339.292 59.4641L339.002 59.5417ZM262.811 79.9572L262.521 80.0348L262.598 80.3246L262.888 80.2469L262.811 79.9572ZM250.801 35.1386L250.724 34.8489L250.434 34.9265L250.512 35.2163L250.801 35.1386ZM279.433 21.6069L295.428 17.3209L295.273 16.7414L279.278 21.0274L279.433 21.6069ZM280.467 24.3075L279.645 21.2395L279.065 21.3948L279.887 24.4628L280.467 24.3075ZM279.738 24.8135L280.255 24.675L280.1 24.0954L279.582 24.234L279.738 24.8135ZM280.67 27.135L279.95 24.4461L279.37 24.6014L280.091 27.2903L280.67 27.135ZM280.009 27.6226L280.458 27.5024L280.303 26.9228L279.854 27.0431L280.009 27.6226ZM279.383 26.4445L279.642 27.4105L280.222 27.2552L279.963 26.2893L279.383 26.4445ZM278.099 21.6536L279.383 26.4445L279.963 26.2893L278.679 21.4983L278.099 21.6536ZM277.841 20.6877L278.099 21.6536L278.679 21.4983L278.42 20.5324L277.841 20.6877ZM279.019 20.0615L278.053 20.3203L278.208 20.8998L279.174 20.641L279.019 20.0615ZM295.014 15.7755L279.019 20.0615L279.174 20.641L295.17 16.355L295.014 15.7755ZM295.98 15.5166L295.014 15.7755L295.17 16.355L296.135 16.0962L295.98 15.5166ZM296.606 16.6947L296.348 15.7288L295.768 15.8841L296.027 16.85L296.606 16.6947ZM297.89 21.4856L296.606 16.6947L296.027 16.85L297.311 21.6409L297.89 21.4856ZM298.149 22.4515L297.89 21.4856L297.311 21.6409L297.569 22.6068L298.149 22.4515ZM297.489 22.9389L297.937 22.819L297.782 22.2394L297.334 22.3594L297.489 22.9389ZM296.401 20.038L297.122 22.7268L297.701 22.5715L296.981 19.8827L296.401 20.038ZM296.25 20.389L296.769 20.2501L296.613 19.6705L296.095 19.8094L296.25 20.389ZM295.061 17.1088L295.883 20.1768L296.463 20.0215L295.641 16.9535L295.061 17.1088ZM280.304 26.923L251.69 34.59L251.845 35.1696L280.459 27.5025L280.304 26.923ZM280.93 28.101L280.671 27.1351L280.091 27.2904L280.35 28.2563L280.93 28.101ZM252.104 36.1355L280.718 28.4684L280.562 27.8889L251.949 35.556L252.104 36.1355ZM263.807 78.6548L252.316 35.7681L251.736 35.9234L263.228 78.8101L263.807 78.6548ZM337.7 58.5448L263.44 78.4426L263.595 79.0222L337.855 59.1244L337.7 58.5448ZM325.996 16.0256L337.488 58.9122L338.067 58.757L326.576 15.8703L325.996 16.0256ZM297.749 23.905L326.363 16.2377L326.208 15.6581L297.593 23.3254L297.749 23.905ZM297.123 22.7269L297.381 23.6929L297.961 23.5376L297.702 22.5716L297.123 22.7269ZM325.949 14.6922L297.335 22.3595L297.49 22.9391L326.105 15.2718L325.949 14.6922ZM326.915 14.4334L325.949 14.6922L326.105 15.2718L327.071 15.013L326.915 14.4334ZM327.542 15.6115L327.283 14.6455L326.703 14.8008L326.962 15.7667L327.542 15.6115ZM339.033 58.4981L327.542 15.6115L326.962 15.7667L338.453 58.6534L339.033 58.4981ZM339.292 59.4641L339.033 58.4981L338.453 58.6534L338.712 59.6194L339.292 59.4641ZM338.114 60.0903L339.08 59.8315L338.924 59.2519L337.958 59.5107L338.114 60.0903ZM263.854 79.9881L338.114 60.0903L337.958 59.5107L263.699 79.4086L263.854 79.9881ZM262.888 80.2469L263.854 79.9881L263.699 79.4086L262.733 79.6674L262.888 80.2469ZM262.262 79.0689L262.521 80.0348L263.1 79.8795L262.841 78.9136L262.262 79.0689ZM250.77 36.1822L262.262 79.0689L262.841 78.9136L251.35 36.0269L250.77 36.1822ZM250.512 35.2163L250.77 36.1822L251.35 36.0269L251.091 35.061L250.512 35.2163ZM251.69 34.59L250.724 34.8489L250.879 35.4284L251.845 35.1696L251.69 34.59Z" fill="white" mask="url(#path-3-outside-1_0_1)"/>
<circle cx="294.898" cy="47.3401" r="11.4499" transform="rotate(-15 294.898 47.3401)" fill="white" stroke="white" stroke-width="0.3"/>
<circle cx="319.039" cy="27.1812" r="3.47997" transform="rotate(-15 319.039 27.1812)" stroke="white" stroke-width="2.5"/>
<mask id="path-7-outside-2_0_1" maskUnits="userSpaceOnUse" x="247.775" y="6.74408" width="92.475" height="74.0903" fill="black">
<rect fill="white" x="247.775" y="6.74408" width="92.475" height="74.0903"/>
<path fill-rule="evenodd" clip-rule="evenodd" d="M295.351 17.0312L279.355 21.3172L280.177 24.3852L279.66 24.5238L280.38 27.2126L279.932 27.3328L279.673 26.3669L278.389 21.576L278.13 20.6101L279.096 20.3512L295.092 16.0652L296.058 15.8064L296.317 16.7723L297.6 21.5633L297.859 22.5292L297.412 22.6492L296.691 19.9603L296.173 20.0992L295.351 17.0312ZM251.767 34.8798L280.381 27.2127L280.64 28.1787L252.026 35.8457L263.518 78.7324L337.777 58.8346L326.286 15.9479L297.671 23.6152L297.412 22.6493L326.027 14.982L326.993 14.7232L327.252 15.6891L338.743 58.5758L339.002 59.5417L338.036 59.8005L263.776 79.6983L262.811 79.9572L262.552 78.9912L251.06 36.1046L250.801 35.1386L251.767 34.8798Z"/>
</mask>
<path fill-rule="evenodd" clip-rule="evenodd" d="M295.351 17.0312L279.355 21.3172L280.177 24.3852L279.66 24.5238L280.38 27.2126L279.932 27.3328L279.673 26.3669L278.389 21.576L278.13 20.6101L279.096 20.3512L295.092 16.0652L296.058 15.8064L296.317 16.7723L297.6 21.5633L297.859 22.5292L297.412 22.6492L296.691 19.9603L296.173 20.0992L295.351 17.0312ZM251.767 34.8798L280.381 27.2127L280.64 28.1787L252.026 35.8457L263.518 78.7324L337.777 58.8346L326.286 15.9479L297.671 23.6152L297.412 22.6493L326.027 14.982L326.993 14.7232L327.252 15.6891L338.743 58.5758L339.002 59.5417L338.036 59.8005L263.776 79.6983L262.811 79.9572L262.552 78.9912L251.06 36.1046L250.801 35.1386L251.767 34.8798Z" fill="white"/>
<path d="M279.355 21.3172L279.278 21.0274L278.988 21.105L279.065 21.3948L279.355 21.3172ZM295.351 17.0312L295.641 16.9535L295.563 16.6637L295.273 16.7414L295.351 17.0312ZM280.177 24.3852L280.255 24.675L280.545 24.5973L280.467 24.3075L280.177 24.3852ZM279.66 24.5238L279.582 24.234L279.293 24.3116L279.37 24.6014L279.66 24.5238ZM280.38 27.2126L280.458 27.5024L280.748 27.4247L280.67 27.135L280.38 27.2126ZM279.932 27.3328L279.642 27.4105L279.72 27.7003L280.009 27.6226L279.932 27.3328ZM279.673 26.3669L279.963 26.2893L279.673 26.3669ZM278.13 20.6101L278.053 20.3203L277.763 20.3979L277.841 20.6877L278.13 20.6101ZM296.058 15.8064L296.348 15.7288L296.27 15.439L295.98 15.5166L296.058 15.8064ZM296.317 16.7723L296.606 16.6947L296.317 16.7723ZM297.6 21.5633L297.311 21.6409L297.6 21.5633ZM297.859 22.5292L297.937 22.819L298.227 22.7413L298.149 22.4515L297.859 22.5292ZM297.412 22.6492L297.122 22.7268L297.199 23.0166L297.489 22.9389L297.412 22.6492ZM296.691 19.9603L296.981 19.8827L296.903 19.5929L296.613 19.6705L296.691 19.9603ZM296.173 20.0992L295.883 20.1768L295.961 20.4666L296.25 20.389L296.173 20.0992ZM280.381 27.2127L280.671 27.1351L280.593 26.8453L280.304 26.923L280.381 27.2127ZM280.64 28.1787L280.718 28.4684L281.008 28.3908L280.93 28.101L280.64 28.1787ZM252.026 35.8457L251.949 35.556L251.659 35.6336L251.736 35.9234L252.026 35.8457ZM263.518 78.7324L263.228 78.8101L263.306 79.0998L263.595 79.0222L263.518 78.7324ZM337.777 58.8346L337.855 59.1244L338.145 59.0467L338.067 58.757L337.777 58.8346ZM326.286 15.9479L326.576 15.8703L326.498 15.5805L326.208 15.6581L326.286 15.9479ZM297.671 23.6152L297.381 23.6929L297.459 23.9826L297.749 23.905L297.671 23.6152ZM297.412 22.6493L297.335 22.3595L297.045 22.4372L297.123 22.7269L297.412 22.6493ZM326.993 14.7232L327.283 14.6455L327.205 14.3558L326.915 14.4334L326.993 14.7232ZM338.743 58.5758L339.033 58.4981L338.743 58.5758ZM339.002 59.5417L339.08 59.8315L339.369 59.7538L339.292 59.4641L339.002 59.5417ZM262.811 79.9572L262.521 80.0348L262.598 80.3246L262.888 80.2469L262.811 79.9572ZM250.801 35.1386L250.724 34.8489L250.434 34.9265L250.512 35.2163L250.801 35.1386ZM279.433 21.6069L295.428 17.3209L295.273 16.7414L279.278 21.0274L279.433 21.6069ZM280.467 24.3075L279.645 21.2395L279.065 21.3948L279.887 24.4628L280.467 24.3075ZM279.738 24.8135L280.255 24.675L280.1 24.0954L279.582 24.234L279.738 24.8135ZM280.67 27.135L279.95 24.4461L279.37 24.6014L280.091 27.2903L280.67 27.135ZM280.009 27.6226L280.458 27.5024L280.303 26.9228L279.854 27.0431L280.009 27.6226ZM279.383 26.4445L279.642 27.4105L280.222 27.2552L279.963 26.2893L279.383 26.4445ZM278.099 21.6536L279.383 26.4445L279.963 26.2893L278.679 21.4983L278.099 21.6536ZM277.841 20.6877L278.099 21.6536L278.679 21.4983L278.42 20.5324L277.841 20.6877ZM279.019 20.0615L278.053 20.3203L278.208 20.8998L279.174 20.641L279.019 20.0615ZM295.014 15.7755L279.019 20.0615L279.174 20.641L295.17 16.355L295.014 15.7755ZM295.98 15.5166L295.014 15.7755L295.17 16.355L296.135 16.0962L295.98 15.5166ZM296.606 16.6947L296.348 15.7288L295.768 15.8841L296.027 16.85L296.606 16.6947ZM297.89 21.4856L296.606 16.6947L296.027 16.85L297.311 21.6409L297.89 21.4856ZM298.149 22.4515L297.89 21.4856L297.311 21.6409L297.569 22.6068L298.149 22.4515ZM297.489 22.9389L297.937 22.819L297.782 22.2394L297.334 22.3594L297.489 22.9389ZM296.401 20.038L297.122 22.7268L297.701 22.5715L296.981 19.8827L296.401 20.038ZM296.25 20.389L296.769 20.2501L296.613 19.6705L296.095 19.8094L296.25 20.389ZM295.061 17.1088L295.883 20.1768L296.463 20.0215L295.641 16.9535L295.061 17.1088ZM280.304 26.923L251.69 34.59L251.845 35.1696L280.459 27.5025L280.304 26.923ZM280.93 28.101L280.671 27.1351L280.091 27.2904L280.35 28.2563L280.93 28.101ZM252.104 36.1355L280.718 28.4684L280.562 27.8889L251.949 35.556L252.104 36.1355ZM263.807 78.6548L252.316 35.7681L251.736 35.9234L263.228 78.8101L263.807 78.6548ZM337.7 58.5448L263.44 78.4426L263.595 79.0222L337.855 59.1244L337.7 58.5448ZM325.996 16.0256L337.488 58.9122L338.067 58.757L326.576 15.8703L325.996 16.0256ZM297.749 23.905L326.363 16.2377L326.208 15.6581L297.593 23.3254L297.749 23.905ZM297.123 22.7269L297.381 23.6929L297.961 23.5376L297.702 22.5716L297.123 22.7269ZM325.949 14.6922L297.335 22.3595L297.49 22.9391L326.105 15.2718L325.949 14.6922ZM326.915 14.4334L325.949 14.6922L326.105 15.2718L327.071 15.013L326.915 14.4334ZM327.542 15.6115L327.283 14.6455L326.703 14.8008L326.962 15.7667L327.542 15.6115ZM339.033 58.4981L327.542 15.6115L326.962 15.7667L338.453 58.6534L339.033 58.4981ZM339.292 59.4641L339.033 58.4981L338.453 58.6534L338.712 59.6194L339.292 59.4641ZM338.114 60.0903L339.08 59.8315L338.924 59.2519L337.958 59.5107L338.114 60.0903ZM263.854 79.9881L338.114 60.0903L337.958 59.5107L263.699 79.4086L263.854 79.9881ZM262.888 80.2469L263.854 79.9881L263.699 79.4086L262.733 79.6674L262.888 80.2469ZM262.262 79.0689L262.521 80.0348L263.1 79.8795L262.841 78.9136L262.262 79.0689ZM250.77 36.1822L262.262 79.0689L262.841 78.9136L251.35 36.0269L250.77 36.1822ZM250.512 35.2163L250.77 36.1822L251.35 36.0269L251.091 35.061L250.512 35.2163ZM251.69 34.59L250.724 34.8489L250.879 35.4284L251.845 35.1696L251.69 34.59Z" fill="white" mask="url(#path-7-outside-2_0_1)"/>
<mask id="path-9-outside-3_0_1" maskUnits="userSpaceOnUse" x="0" y="223.228" width="390" height="272" fill="black">
<rect fill="white" y="223.228" width="390" height="272"/>
<path d="M388.766 284.87C388.765 277.665 387.967 270.487 386.391 263.487C386.358 263.344 386.275 263.221 386.158 263.144C386.042 263.067 385.902 263.044 385.77 263.079C385.637 263.113 385.523 263.204 385.452 263.33C385.381 263.455 385.36 263.606 385.392 263.75C386.961 270.661 387.749 277.753 387.74 284.87C387.74 318.301 367.39 358.091 337.001 364.479C335.973 358.994 333.787 353.839 330.613 349.416C327.439 344.994 323.363 341.423 318.703 338.983L224.404 289.392C223.786 278.745 225.144 268.073 228.398 258.003C228.442 257.867 228.436 257.718 228.381 257.588C228.325 257.457 228.225 257.355 228.101 257.303C228.038 257.275 227.969 257.261 227.901 257.262C227.832 257.263 227.764 257.279 227.701 257.309C227.638 257.338 227.581 257.382 227.534 257.436C227.487 257.49 227.45 257.554 227.427 257.624C224.186 267.668 222.82 278.306 223.405 288.925L106.949 227.868C98.9005 223.663 89.6386 223.077 81.191 226.237C72.7435 229.397 65.7987 236.047 61.8774 244.73L54.2666 261.708L45.2793 257.04C42.3443 255.503 38.9646 255.287 35.8828 256.441C32.8009 257.595 30.269 260.025 28.8431 263.195L2.2322 322.414C0.809688 325.586 0.610427 329.239 1.67819 332.57C2.74596 335.902 4.99342 338.638 7.92683 340.179L298.326 492.66C299.777 493.425 301.353 493.872 302.964 493.976C304.575 494.081 306.189 493.84 307.714 493.268C309.239 492.696 310.644 491.804 311.849 490.643C313.054 489.483 314.035 488.076 314.735 486.505L341.373 427.286C342.787 424.117 342.982 420.471 341.915 417.147C340.847 413.823 338.605 411.091 335.679 409.55L326.664 404.795L334.302 387.817C337.402 380.951 338.413 373.2 337.19 365.676C368.065 359.141 388.766 318.738 388.766 284.87ZM8.35865 339.071C5.67153 337.65 3.61468 335.137 2.63843 332.08C1.66217 329.024 1.84606 325.674 3.14982 322.764L29.7608 263.545C30.4088 262.101 31.3144 260.809 32.4255 259.744C33.5367 258.678 34.8315 257.861 36.2358 257.337C37.64 256.814 39.126 256.596 40.6084 256.695C42.0909 256.794 43.5406 257.209 44.8745 257.915L63.7666 267.863C65.0987 268.56 66.2904 269.535 67.2734 270.731C68.2564 271.928 69.0115 273.322 69.4953 274.834C69.9792 276.346 70.1823 277.946 70.0931 279.543C70.0039 281.14 69.6241 282.702 68.9755 284.141L42.3645 343.359C41.0603 346.267 38.7417 348.496 35.918 349.557C33.0943 350.618 29.9964 350.424 27.3048 349.018L8.35865 339.071ZM31.7309 351.323C34.1199 351.429 36.4855 350.779 38.5375 349.452C40.5894 348.125 42.2384 346.18 43.2821 343.855L62.1743 301.644L292.578 422.619L273.685 464.83C272.618 467.177 272.213 469.81 272.52 472.404C272.827 474.997 273.833 477.436 275.413 479.416L31.7309 351.323ZM335.22 410.425C336.554 411.12 337.749 412.093 338.734 413.288C339.72 414.483 340.478 415.877 340.964 417.389C341.451 418.901 341.656 420.502 341.569 422.101C341.482 423.699 341.103 425.263 340.456 426.703L313.818 485.921C313.172 487.361 312.27 488.649 311.164 489.712C310.057 490.774 308.767 491.59 307.368 492.113C305.97 492.636 304.489 492.856 303.011 492.759C301.534 492.663 300.089 492.253 298.758 491.551L279.866 481.604C277.181 480.189 275.124 477.681 274.148 474.629C273.171 471.577 273.354 468.232 274.657 465.326L301.268 406.108C301.916 404.667 302.82 403.378 303.93 402.315C305.039 401.252 306.331 400.436 307.732 399.913C309.133 399.39 310.616 399.171 312.095 399.268C313.575 399.365 315.022 399.776 316.355 400.477L335.22 410.425ZM333.385 387.088L325.747 404.065L316.732 399.34C315.281 398.573 313.705 398.124 312.093 398.017C310.481 397.91 308.865 398.148 307.339 398.717C305.812 399.286 304.404 400.175 303.196 401.333C301.987 402.491 301.002 403.896 300.296 405.466L293.171 421.627L62.7141 300.798L69.8931 284.782C71.3175 281.614 71.5207 277.963 70.4581 274.633C69.3956 271.302 67.1541 268.563 64.2254 267.017L55.2112 262.291L62.822 245.313C66.6217 236.886 73.3577 230.431 81.5536 227.363C89.7494 224.295 98.7362 224.865 106.544 228.948L318.244 340.121C326.016 344.217 331.972 351.472 334.809 360.3C337.646 369.128 337.134 378.812 333.385 387.233V387.088Z"/>
</mask>
<path d="M388.766 284.87C388.765 277.665 387.967 270.487 386.391 263.487C386.358 263.344 386.275 263.221 386.158 263.144C386.042 263.067 385.902 263.044 385.77 263.079C385.637 263.113 385.523 263.204 385.452 263.33C385.381 263.455 385.36 263.606 385.392 263.75C386.961 270.661 387.749 277.753 387.74 284.87C387.74 318.301 367.39 358.091 337.001 364.479C335.973 358.994 333.787 353.839 330.613 349.416C327.439 344.994 323.363 341.423 318.703 338.983L224.404 289.392C223.786 278.745 225.144 268.073 228.398 258.003C228.442 257.867 228.436 257.718 228.381 257.588C228.325 257.457 228.225 257.355 228.101 257.303C228.038 257.275 227.969 257.261 227.901 257.262C227.832 257.263 227.764 257.279 227.701 257.309C227.638 257.338 227.581 257.382 227.534 257.436C227.487 257.49 227.45 257.554 227.427 257.624C224.186 267.668 222.82 278.306 223.405 288.925L106.949 227.868C98.9005 223.663 89.6386 223.077 81.191 226.237C72.7435 229.397 65.7987 236.047 61.8774 244.73L54.2666 261.708L45.2793 257.04C42.3443 255.503 38.9646 255.287 35.8828 256.441C32.8009 257.595 30.269 260.025 28.8431 263.195L2.2322 322.414C0.809688 325.586 0.610427 329.239 1.67819 332.57C2.74596 335.902 4.99342 338.638 7.92683 340.179L298.326 492.66C299.777 493.425 301.353 493.872 302.964 493.976C304.575 494.081 306.189 493.84 307.714 493.268C309.239 492.696 310.644 491.804 311.849 490.643C313.054 489.483 314.035 488.076 314.735 486.505L341.373 427.286C342.787 424.117 342.982 420.471 341.915 417.147C340.847 413.823 338.605 411.091 335.679 409.55L326.664 404.795L334.302 387.817C337.402 380.951 338.413 373.2 337.19 365.676C368.065 359.141 388.766 318.738 388.766 284.87ZM8.35865 339.071C5.67153 337.65 3.61468 335.137 2.63843 332.08C1.66217 329.024 1.84606 325.674 3.14982 322.764L29.7608 263.545C30.4088 262.101 31.3144 260.809 32.4255 259.744C33.5367 258.678 34.8315 257.861 36.2358 257.337C37.64 256.814 39.126 256.596 40.6084 256.695C42.0909 256.794 43.5406 257.209 44.8745 257.915L63.7666 267.863C65.0987 268.56 66.2904 269.535 67.2734 270.731C68.2564 271.928 69.0115 273.322 69.4953 274.834C69.9792 276.346 70.1823 277.946 70.0931 279.543C70.0039 281.14 69.6241 282.702 68.9755 284.141L42.3645 343.359C41.0603 346.267 38.7417 348.496 35.918 349.557C33.0943 350.618 29.9964 350.424 27.3048 349.018L8.35865 339.071ZM31.7309 351.323C34.1199 351.429 36.4855 350.779 38.5375 349.452C40.5894 348.125 42.2384 346.18 43.2821 343.855L62.1743 301.644L292.578 422.619L273.685 464.83C272.618 467.177 272.213 469.81 272.52 472.404C272.827 474.997 273.833 477.436 275.413 479.416L31.7309 351.323ZM335.22 410.425C336.554 411.12 337.749 412.093 338.734 413.288C339.72 414.483 340.478 415.877 340.964 417.389C341.451 418.901 341.656 420.502 341.569 422.101C341.482 423.699 341.103 425.263 340.456 426.703L313.818 485.921C313.172 487.361 312.27 488.649 311.164 489.712C310.057 490.774 308.767 491.59 307.368 492.113C305.97 492.636 304.489 492.856 303.011 492.759C301.534 492.663 300.089 492.253 298.758 491.551L279.866 481.604C277.181 480.189 275.124 477.681 274.148 474.629C273.171 471.577 273.354 468.232 274.657 465.326L301.268 406.108C301.916 404.667 302.82 403.378 303.93 402.315C305.039 401.252 306.331 400.436 307.732 399.913C309.133 399.39 310.616 399.171 312.095 399.268C313.575 399.365 315.022 399.776 316.355 400.477L335.22 410.425ZM333.385 387.088L325.747 404.065L316.732 399.34C315.281 398.573 313.705 398.124 312.093 398.017C310.481 397.91 308.865 398.148 307.339 398.717C305.812 399.286 304.404 400.175 303.196 401.333C301.987 402.491 301.002 403.896 300.296 405.466L293.171 421.627L62.7141 300.798L69.8931 284.782C71.3175 281.614 71.5207 277.963 70.4581 274.633C69.3956 271.302 67.1541 268.563 64.2254 267.017L55.2112 262.291L62.822 245.313C66.6217 236.886 73.3577 230.431 81.5536 227.363C89.7494 224.295 98.7362 224.865 106.544 228.948L318.244 340.121C326.016 344.217 331.972 351.472 334.809 360.3C337.646 369.128 337.134 378.812 333.385 387.233V387.088Z" fill="white"/>
<path d="M388.766 284.87C388.765 277.665 387.967 270.487 386.391 263.487C386.358 263.344 386.275 263.221 386.158 263.144C386.042 263.067 385.902 263.044 385.77 263.079C385.637 263.113 385.523 263.204 385.452 263.33C385.381 263.455 385.36 263.606 385.392 263.75C386.961 270.661 387.749 277.753 387.74 284.87C387.74 318.301 367.39 358.091 337.001 364.479C335.973 358.994 333.787 353.839 330.613 349.416C327.439 344.994 323.363 341.423 318.703 338.983L224.404 289.392C223.786 278.745 225.144 268.073 228.398 258.003C228.442 257.867 228.436 257.718 228.381 257.588C228.325 257.457 228.225 257.355 228.101 257.303C228.038 257.275 227.969 257.261 227.901 257.262C227.832 257.263 227.764 257.279 227.701 257.309C227.638 257.338 227.581 257.382 227.534 257.436C227.487 257.49 227.45 257.554 227.427 257.624C224.186 267.668 222.82 278.306 223.405 288.925L106.949 227.868C98.9005 223.663 89.6386 223.077 81.191 226.237C72.7435 229.397 65.7987 236.047 61.8774 244.73L54.2666 261.708L45.2793 257.04C42.3443 255.503 38.9646 255.287 35.8828 256.441C32.8009 257.595 30.269 260.025 28.8431 263.195L2.2322 322.414C0.809688 325.586 0.610427 329.239 1.67819 332.57C2.74596 335.902 4.99342 338.638 7.92683 340.179L298.326 492.66C299.777 493.425 301.353 493.872 302.964 493.976C304.575 494.081 306.189 493.84 307.714 493.268C309.239 492.696 310.644 491.804 311.849 490.643C313.054 489.483 314.035 488.076 314.735 486.505L341.373 427.286C342.787 424.117 342.982 420.471 341.915 417.147C340.847 413.823 338.605 411.091 335.679 409.55L326.664 404.795L334.302 387.817C337.402 380.951 338.413 373.2 337.19 365.676C368.065 359.141 388.766 318.738 388.766 284.87ZM8.35865 339.071C5.67153 337.65 3.61468 335.137 2.63843 332.08C1.66217 329.024 1.84606 325.674 3.14982 322.764L29.7608 263.545C30.4088 262.101 31.3144 260.809 32.4255 259.744C33.5367 258.678 34.8315 257.861 36.2358 257.337C37.64 256.814 39.126 256.596 40.6084 256.695C42.0909 256.794 43.5406 257.209 44.8745 257.915L63.7666 267.863C65.0987 268.56 66.2904 269.535 67.2734 270.731C68.2564 271.928 69.0115 273.322 69.4953 274.834C69.9792 276.346 70.1823 277.946 70.0931 279.543C70.0039 281.14 69.6241 282.702 68.9755 284.141L42.3645 343.359C41.0603 346.267 38.7417 348.496 35.918 349.557C33.0943 350.618 29.9964 350.424 27.3048 349.018L8.35865 339.071ZM31.7309 351.323C34.1199 351.429 36.4855 350.779 38.5375 349.452C40.5894 348.125 42.2384 346.18 43.2821 343.855L62.1743 301.644L292.578 422.619L273.685 464.83C272.618 467.177 272.213 469.81 272.52 472.404C272.827 474.997 273.833 477.436 275.413 479.416L31.7309 351.323ZM335.22 410.425C336.554 411.12 337.749 412.093 338.734 413.288C339.72 414.483 340.478 415.877 340.964 417.389C341.451 418.901 341.656 420.502 341.569 422.101C341.482 423.699 341.103 425.263 340.456 426.703L313.818 485.921C313.172 487.361 312.27 488.649 311.164 489.712C310.057 490.774 308.767 491.59 307.368 492.113C305.97 492.636 304.489 492.856 303.011 492.759C301.534 492.663 300.089 492.253 298.758 491.551L279.866 481.604C277.181 480.189 275.124 477.681 274.148 474.629C273.171 471.577 273.354 468.232 274.657 465.326L301.268 406.108C301.916 404.667 302.82 403.378 303.93 402.315C305.039 401.252 306.331 400.436 307.732 399.913C309.133 399.39 310.616 399.171 312.095 399.268C313.575 399.365 315.022 399.776 316.355 400.477L335.22 410.425ZM333.385 387.088L325.747 404.065L316.732 399.34C315.281 398.573 313.705 398.124 312.093 398.017C310.481 397.91 308.865 398.148 307.339 398.717C305.812 399.286 304.404 400.175 303.196 401.333C301.987 402.491 301.002 403.896 300.296 405.466L293.171 421.627L62.7141 300.798L69.8931 284.782C71.3175 281.614 71.5207 277.963 70.4581 274.633C69.3956 271.302 67.1541 268.563 64.2254 267.017L55.2112 262.291L62.822 245.313C66.6217 236.886 73.3577 230.431 81.5536 227.363C89.7494 224.295 98.7362 224.865 106.544 228.948L318.244 340.121C326.016 344.217 331.972 351.472 334.809 360.3C337.646 369.128 337.134 378.812 333.385 387.233V387.088Z" stroke="white" stroke-width="0.6" mask="url(#path-9-outside-3_0_1)"/>
<path d="M255.468 119.506L255.469 119.505C262.22 115.127 265.733 111.921 267.224 109.937C267.597 109.441 267.847 109.016 267.989 108.664C268.129 108.317 268.172 108.018 268.096 107.788C268.013 107.54 267.805 107.411 267.545 107.385C267.295 107.361 266.984 107.429 266.641 107.571C262.805 108.962 259.962 109.791 257.334 110.513C262.939 104.703 265.434 100.792 266.256 98.5401C266.467 97.9635 266.571 97.4887 266.586 97.1143C266.601 96.7436 266.529 96.4486 266.362 96.2593C266.186 96.0607 265.935 96.0097 265.67 96.069C265.41 96.1271 265.127 96.2914 264.843 96.5407C261.337 99.4888 257.567 102.65 254.307 105.339C259.682 98.3282 262.224 93.2504 263.185 90.1572C263.438 89.3448 263.582 88.6663 263.64 88.1234C263.697 87.5843 263.67 87.1649 263.565 86.8797C263.513 86.7359 263.437 86.616 263.332 86.5361C263.224 86.4536 263.096 86.4225 262.961 86.4401C262.707 86.4733 262.439 86.6777 262.181 86.9906C261.119 88.2734 259.858 89.8286 258.504 91.4981C256.105 94.4572 253.414 97.7754 251.025 100.573C252.739 97.5368 253.912 95.2141 254.661 93.487C255.09 92.4998 255.381 91.7045 255.556 91.08C255.73 90.4598 255.793 89.9933 255.752 89.6707C255.731 89.5082 255.682 89.3683 255.594 89.265C255.502 89.1575 255.379 89.1035 255.242 89.0953C254.986 89.08 254.676 89.2242 254.351 89.4497C253.687 89.9097 252.836 90.7975 251.975 91.9251L251.975 91.9252C250.786 93.4866 249.201 95.532 247.546 97.6681C246.402 99.1436 245.225 100.662 244.122 102.095C242.773 103.847 241.534 105.469 240.604 106.724C240.138 107.351 239.75 107.886 239.463 108.301C239.18 108.709 238.985 109.013 238.921 109.17L238.92 109.17L238.917 109.181C238.546 110.315 238.293 111.489 238.162 112.682C236.293 110.484 234.769 108.975 233.557 107.991C232.301 106.971 231.362 106.498 230.71 106.424C230.379 106.386 230.106 106.449 229.908 106.615C229.712 106.78 229.616 107.026 229.595 107.303C229.554 107.85 229.803 108.574 230.27 109.28C233.349 114.08 235.709 119.376 237.263 124.971C237.246 128.551 236.932 132.123 236.324 135.642C235.907 136.568 234.162 140.077 231.883 144.367L231.83 144.467L231.91 144.545C237.024 149.537 243.489 152.62 250.352 153.338L250.471 153.351L250.509 153.238C251.562 150.145 252.508 147.226 253.21 144.684C254.666 139.92 255.561 136.99 255.907 134.548C256.255 132.094 256.049 130.133 255.317 127.305L255.316 127.303C255.142 126.676 254.968 126.091 254.807 125.55C254.694 125.169 254.587 124.81 254.492 124.474C254.258 123.653 254.088 122.953 254.032 122.341C253.976 121.731 254.035 121.217 254.252 120.762C254.468 120.307 254.85 119.896 255.468 119.506Z" fill="#007BFF" stroke="white" stroke-width="0.3"/>
<path d="M223.067 107.671L223.177 107.62L223.15 107.502L223.004 107.535C223.15 107.502 223.15 107.502 223.15 107.502L223.15 107.501L223.149 107.498L223.147 107.488L223.137 107.445L223.099 107.277C223.066 107.129 223.018 106.911 222.956 106.629C222.833 106.067 222.658 105.252 222.45 104.244C222.033 102.227 221.483 99.4362 220.948 96.3406C219.879 90.1444 218.877 82.7428 219.132 77.8755L219.132 77.8754C219.274 75.1522 219.211 73.3264 219.012 72.1791C218.913 71.6068 218.778 71.1903 218.609 70.914C218.438 70.6345 218.218 70.4781 217.954 70.4831C217.704 70.4878 217.463 70.6374 217.242 70.8494C217.018 71.065 216.793 71.3658 216.577 71.7178C216.145 72.4228 215.732 73.3562 215.413 74.2892C215.183 74.9609 214.92 75.8525 214.63 76.8359C214.519 77.2141 214.403 77.6058 214.284 78.0037C213.854 79.4405 213.375 80.9636 212.858 82.2494C212.6 82.8923 212.333 83.4728 212.06 83.9521C211.786 84.4332 211.511 84.8029 211.238 85.0326C210.967 85.2606 210.716 85.3378 210.474 85.2771C210.226 85.2147 209.945 84.997 209.643 84.5365C208.838 82.5387 208.12 80.9751 207.506 79.6363C207.36 79.3185 207.22 79.0133 207.085 78.718C204.892 71.822 203.092 64.787 201.695 57.6527C201.404 56.0803 201.1 54.9571 200.803 54.1722C200.508 53.3923 200.213 52.9283 199.928 52.6965C199.783 52.5784 199.634 52.515 199.485 52.5099C199.334 52.5048 199.202 52.5593 199.094 52.6442C198.884 52.809 198.752 53.096 198.701 53.3645L198.701 53.3645L198.701 53.3686C198.134 56.8736 197.999 60.4436 198.3 63.9853C196.774 61.9319 195.417 60.3464 194.298 59.257C193.699 58.6749 193.165 58.2312 192.706 57.9334C192.253 57.6391 191.852 57.4734 191.525 57.4798C191.357 57.4831 191.204 57.5323 191.08 57.6355C190.957 57.7376 190.873 57.8826 190.821 58.0574C190.719 58.4018 190.732 58.894 190.851 59.5218C191.089 60.7834 191.769 62.6715 192.964 65.2123C199.222 78.652 204.419 94.5827 203.746 109.541L203.74 109.666L203.862 109.694C210.304 111.177 217.012 110.47 223.067 107.671Z" fill="#007BFF" stroke="white" stroke-width="0.3"/>
<path d="M141.133 166.491L132.768 159.77C137.378 161.533 140.723 161.56 143.052 160.371C145.54 159.101 146.817 156.47 147.25 153.231C148.116 146.756 145.634 137.718 142.468 131.649C140.882 128.609 139.15 126.557 137.426 125.389C135.698 124.219 133.972 123.934 132.42 124.443C130.872 124.952 129.525 126.241 128.527 128.162C127.53 130.085 126.876 132.651 126.72 135.737L126.72 135.737L126.72 135.747C126.727 136.11 126.683 136.369 126.596 136.54C126.515 136.701 126.393 136.79 126.21 136.817C126.016 136.847 125.744 136.806 125.376 136.674C125.011 136.543 124.566 136.327 124.031 136.023C122.881 135.345 121.86 135.357 121.089 135.819C120.325 136.277 119.839 137.156 119.708 138.149C119.447 140.129 120.586 142.609 123.83 143.395C124.402 145.941 124.886 147.557 125.44 149.407C125.661 150.145 125.893 150.919 126.146 151.804C127.042 154.939 128.208 159.479 130.097 168.709L130.127 168.854L130.272 168.826L141.068 166.755L141.386 166.694L141.133 166.491Z" fill="#007BFF" stroke="white" stroke-width="0.3"/>
<path d="M425.118 420.261L425.118 420.261L442.715 426.825C448.03 428.806 453.838 428.56 458.994 426.136C464.149 423.712 468.278 419.285 470.564 413.726C470.796 413.079 470.796 412.361 470.563 411.715C470.331 411.068 469.884 410.542 469.314 410.238L441.384 396.937L441.383 396.937C435.256 394.006 430.402 388.653 427.814 381.979L425.118 420.261ZM425.118 420.261C421.331 418.852 417.861 416.593 414.937 413.632M425.118 420.261L414.937 413.632M425.712 376.61L401.913 386.964L408.149 403.078L425.712 376.61ZM425.712 376.61L427.814 381.978L425.712 376.61ZM414.937 413.632C412.012 410.671 409.699 407.074 408.149 403.078L414.937 413.632ZM424.69 421.592L442.259 428.127L418.626 354.92C418.324 354.248 417.803 353.714 417.156 353.425C416.475 353.12 415.709 353.112 415.022 353.402L415.022 353.402L415.021 353.402L394.078 362.416L394.078 362.416L394.076 362.417C393.728 362.573 393.414 362.8 393.149 363.087C392.885 363.373 392.676 363.712 392.534 364.084C392.392 364.457 392.319 364.856 392.32 365.258C392.321 365.628 392.384 365.996 392.507 366.342C392.505 366.346 392.504 366.35 392.503 366.353C392.502 366.366 392.503 366.385 392.504 366.392L392.507 366.403C392.508 366.408 392.509 366.411 392.509 366.413L392.513 366.426C392.532 366.479 392.625 366.725 392.86 367.334C393.801 369.777 397.033 378.113 406.925 403.595L407.064 403.54L406.925 403.595C408.547 407.775 410.968 411.538 414.029 414.64C417.09 417.741 420.722 420.11 424.69 421.592L424.69 421.592ZM417.449 355.576L417.449 355.576L417.45 355.579L425.197 375.31L401.399 385.663L393.737 365.885C393.737 365.885 393.737 365.885 393.737 365.884C393.66 365.682 393.621 365.464 393.622 365.244C393.622 365.025 393.663 364.807 393.742 364.605C393.82 364.403 393.935 364.22 394.078 364.067C394.221 363.914 394.39 363.794 394.575 363.713C394.575 363.713 394.575 363.713 394.575 363.713L415.517 354.67C415.517 354.67 415.517 354.67 415.517 354.67C415.882 354.514 416.289 354.521 416.65 354.689C417.012 354.857 417.3 355.175 417.449 355.576Z" fill="white" stroke="white" stroke-width="0.3"/>
<path d="M234.081 240.077L234.082 240.062L234.081 240.048C234.013 239.347 233.708 238.695 233.22 238.22C232.732 237.745 232.097 237.48 231.435 237.48C230.774 237.48 230.138 237.745 229.65 238.22C229.163 238.695 228.857 239.347 228.789 240.048L228.788 240.062L228.789 240.077C228.857 240.778 229.163 241.429 229.65 241.904C230.138 242.379 230.774 242.644 231.435 242.644C232.097 242.644 232.732 242.379 233.22 241.904C233.708 241.429 234.013 240.778 234.081 240.077Z" fill="white" stroke="white" stroke-width="0.3"/>
<path d="M271.564 210.117L271.565 210.103L271.564 210.089C271.496 209.388 271.191 208.736 270.703 208.261C270.215 207.786 269.579 207.521 268.918 207.521C268.257 207.521 267.621 207.786 267.133 208.261C266.645 208.736 266.34 209.388 266.272 210.089L266.271 210.103L266.272 210.117C266.34 210.818 266.645 211.47 267.133 211.945C267.621 212.42 268.257 212.685 268.918 212.685C269.579 212.685 270.215 212.42 270.703 211.945C271.191 211.47 271.496 210.818 271.564 210.117Z" fill="white" stroke="white" stroke-width="0.3"/>
<path d="M316.346 227.212L316.348 227.197L316.346 227.183C316.279 226.482 315.973 225.831 315.486 225.356C314.998 224.88 314.362 224.615 313.701 224.615C313.039 224.615 312.403 224.88 311.915 225.356C311.428 225.831 311.122 226.482 311.055 227.183L311.053 227.197L311.055 227.212C311.122 227.913 311.428 228.564 311.915 229.039C312.403 229.514 313.039 229.779 313.701 229.779C314.362 229.779 314.998 229.514 315.486 229.039C315.973 228.564 316.279 227.913 316.346 227.212Z" fill="white" stroke="white" stroke-width="0.3"/>
<path d="M363.843 212.83L363.845 212.816L363.843 212.802C363.776 212.101 363.47 211.449 362.983 210.974C362.495 210.499 361.859 210.234 361.198 210.234C360.536 210.234 359.9 210.499 359.413 210.974C358.925 211.449 358.619 212.101 358.552 212.802L358.55 212.816L358.552 212.83C358.619 213.531 358.925 214.183 359.413 214.658C359.9 215.133 360.536 215.398 361.198 215.398C361.859 215.398 362.495 215.133 362.983 214.658C363.47 214.183 363.776 213.531 363.843 212.83Z" fill="white" stroke="white" stroke-width="0.3"/>
<path d="M389.545 254.656C390.042 254.118 390.32 253.391 390.32 252.635C390.32 251.88 390.042 251.153 389.545 250.615C389.047 250.077 388.369 249.772 387.66 249.772C386.95 249.772 386.272 250.077 385.775 250.615C385.277 251.153 385 251.88 385 252.635C385 253.391 385.277 254.118 385.775 254.656C386.272 255.194 386.95 255.498 387.66 255.498C388.369 255.498 389.047 255.194 389.545 254.656Z" fill="white" stroke="white" stroke-width="0.3"/>
<path d="M260.43 185.315C260.927 184.777 261.205 184.05 261.205 183.294C261.205 182.539 260.927 181.812 260.43 181.274C259.932 180.736 259.254 180.431 258.545 180.431C257.835 180.431 257.157 180.736 256.66 181.274C256.162 181.812 255.885 182.539 255.885 183.294C255.885 184.05 256.162 184.777 256.66 185.315C257.157 185.853 257.835 186.157 258.545 186.157C259.254 186.157 259.932 185.853 260.43 185.315Z" fill="white" stroke="white" stroke-width="0.3"/>
<path d="M306.813 171.756L306.814 171.742L306.813 171.728C306.745 171.027 306.44 170.375 305.952 169.9C305.464 169.425 304.828 169.16 304.167 169.16C303.505 169.16 302.87 169.425 302.382 169.9C301.894 170.375 301.589 171.027 301.521 171.728L301.52 171.742L301.521 171.756C301.589 172.457 301.894 173.109 302.382 173.584C302.87 174.059 303.505 174.324 304.167 174.324C304.828 174.324 305.464 174.059 305.952 173.584C306.44 173.109 306.745 172.457 306.813 171.756Z" fill="white" stroke="white" stroke-width="0.3"/>
<path d="M316.346 127.036L316.348 127.022L316.346 127.008C316.279 126.307 315.973 125.655 315.486 125.18C314.998 124.705 314.362 124.44 313.701 124.44C313.039 124.44 312.403 124.705 311.915 125.18C311.428 125.655 311.122 126.307 311.055 127.008L311.053 127.022L311.055 127.036C311.122 127.737 311.428 128.389 311.915 128.864C312.403 129.339 313.039 129.604 313.701 129.604C314.362 129.604 314.998 129.339 315.486 128.864C315.973 128.389 316.279 127.737 316.346 127.036Z" fill="white" stroke="white" stroke-width="0.3"/>
<path d="M363.843 113.092L363.845 113.078L363.843 113.063C363.776 112.362 363.47 111.711 362.983 111.236C362.495 110.761 361.859 110.496 361.198 110.496C360.536 110.496 359.9 110.761 359.413 111.236C358.925 111.711 358.619 112.362 358.552 113.063L358.55 113.078L358.552 113.092C358.619 113.793 358.925 114.444 359.413 114.919C359.9 115.395 360.536 115.66 361.198 115.66C361.859 115.66 362.495 115.395 362.983 114.919C363.47 114.444 363.776 113.793 363.843 113.092Z" fill="white" stroke="white" stroke-width="0.3"/>
<path d="M374.864 67.6647C375.362 67.1271 375.639 66.4002 375.639 65.6445C375.639 64.8888 375.362 64.1619 374.864 63.6243C374.366 63.0862 373.689 62.7815 372.979 62.7815C372.27 62.7815 371.592 63.0862 371.094 63.6243C370.597 64.1619 370.319 64.8888 370.319 65.6445C370.319 66.4002 370.597 67.1271 371.094 67.6647C371.592 68.2027 372.27 68.5075 372.979 68.5075C373.689 68.5075 374.366 68.2027 374.864 67.6647Z" fill="white" stroke="white" stroke-width="0.3"/>
<path d="M422.337 120.226L422.337 120.226C422.417 120.168 422.509 120.128 422.605 120.111C422.702 120.094 422.801 120.1 422.895 120.129C422.989 120.157 423.075 120.207 423.148 120.275C423.221 120.342 423.278 120.425 423.318 120.517C423.355 120.605 423.375 120.701 423.376 120.797L425.349 134.258L437.764 132.156C437.85 132.129 437.94 132.121 438.029 132.132C438.122 132.144 438.211 132.176 438.29 132.226C438.37 132.277 438.438 132.344 438.491 132.423L438.367 132.506L438.491 132.423C438.544 132.502 438.581 132.591 438.6 132.685L438.453 132.715L438.6 132.685C438.619 132.779 438.619 132.876 438.601 132.971C438.584 133.065 438.548 133.155 438.496 133.234C438.443 133.314 438.376 133.382 438.297 133.433C438.219 133.484 438.131 133.517 438.039 133.53L425.581 135.635L427.504 149.113C427.504 149.113 427.504 149.113 427.504 149.113L427.504 149.113L427.355 149.134C427.366 149.207 427.363 149.281 427.347 149.353C427.331 149.425 427.302 149.492 427.262 149.552C427.222 149.611 427.172 149.662 427.114 149.7C427.055 149.739 426.991 149.765 426.923 149.776C426.856 149.788 426.787 149.785 426.721 149.767C426.655 149.75 426.592 149.719 426.537 149.676L422.337 120.226ZM422.337 120.226C422.258 120.284 422.192 120.36 422.143 120.447C422.094 120.534 422.064 120.631 422.054 120.731C422.045 120.827 422.054 120.924 422.081 121.016L424.028 134.483L411.581 136.586C411.487 136.588 411.396 136.611 411.311 136.652C411.223 136.696 411.146 136.759 411.084 136.837L411.084 136.837C411.022 136.915 410.978 137.006 410.953 137.103C410.927 137.201 410.922 137.302 410.937 137.402C410.952 137.501 410.987 137.596 411.04 137.681C411.093 137.765 411.163 137.837 411.245 137.891L411.327 137.765L411.245 137.891C411.328 137.945 411.421 137.979 411.519 137.991C411.611 138.001 411.705 137.991 411.793 137.961L424.233 135.86L422.337 120.226Z" fill="white" stroke="white" stroke-width="0.3"/>
<mask id="path-25-outside-4_0_1" maskUnits="userSpaceOnUse" x="71.7581" y="0" width="395" height="271" fill="black">
<rect fill="white" x="71.7581" width="395" height="271"/>
<path d="M466.249 262.874C466.249 261.474 463.793 259.111 447.356 252.314C437.829 248.405 421.204 239.741 412.595 235.103C413.093 232.342 413.382 229.542 413.459 226.731C413.455 226.63 413.428 226.533 413.381 226.446C413.334 226.36 413.268 226.287 413.189 226.235C385.496 210.266 356.262 197.636 326.015 188.574C319.776 186.673 313.231 186.245 306.826 187.32C340.712 154.264 372.878 119.204 403.176 82.3015C403.234 82.2063 403.265 82.0947 403.265 81.9806C403.265 81.8666 403.234 81.755 403.176 81.6597C401.583 78.7426 399.937 75.8254 398.21 73.3166C403.985 64.7693 413.459 57.0097 415.051 51.292C415.855 48.2212 416.084 45.0081 415.726 41.8404C414.565 28.5381 425.496 1.99184 418.02 1C416.724 1 414.079 2.83782 404.525 18.7072C399.64 26.8461 388.332 42.7739 379.804 54.0925C376.814 52.0634 373.64 50.3723 370.33 49.0458C370.246 48.9856 370.148 48.9535 370.047 48.9535C369.946 48.9535 369.848 48.9856 369.764 49.0458C330.97 96.5166 288.939 140.777 244.023 181.456C247.478 173.784 251.391 163.953 256.303 151.38C256.303 151.088 258.732 148.463 253.604 143.416C256.6 133.556 256.843 132.127 254.845 125.067C253.928 121.771 253.712 120.691 255.385 119.583C271.39 109.256 268.88 105.843 266.181 106.806C262.942 107.973 260.405 108.76 258.084 109.402C270.094 96.7415 266.586 93.766 264.103 95.8372L256.006 102.78C266.559 88.1942 263.644 83.7601 261.404 86.3272L252.632 97.0916C253.875 94.9652 254.872 92.6826 255.601 90.2946C256.06 88.3401 254.872 87.8733 253.631 88.7485C251.198 91.0517 249.024 93.6562 247.154 96.5081C241.756 103.305 238.409 107.827 238.058 108.644C237.75 109.589 237.533 110.567 237.411 111.561C233.335 106.864 230.421 104.91 229.152 106.018C228.477 106.631 228.585 107.914 229.476 109.227C232.518 113.976 234.849 119.214 236.385 124.746C236.315 128.145 236.045 131.536 235.576 134.898C234.37 134.607 233.116 134.641 231.925 134.997C230.735 135.353 229.643 136.02 228.747 136.94L226.993 102.955C226.831 102.663 227.533 99.4545 221.406 97.4708C220.021 90.9631 219.297 84.3115 219.247 77.634C219.598 71.0704 218.708 70.0202 217.925 69.8452C216.494 69.5243 215.226 72.7624 214.848 73.8709C213.877 76.7881 211.987 84.4019 210.422 84.6644C210.125 84.6644 209.855 84.4019 209.666 84.1102C205.969 75.0378 207.75 81.9515 203.783 66.3738C201.759 58.3516 201.408 51.9629 199.249 51.9338C198.964 51.9504 198.693 52.0726 198.481 52.2798C198.27 52.487 198.131 52.7666 198.088 53.0715C197.555 56.2164 197.392 59.4215 197.602 62.6106C196.226 60.8603 192.205 55.8428 190.612 57.0388C187.347 59.4309 199.276 73.5208 202.298 98.2876C195.794 100.913 196.442 104.122 196.442 104.443L199.653 157.856L162.463 170.021C162.599 168.542 162.366 167.052 161.788 165.703C163.763 165.664 165.661 164.868 167.143 163.458C168.626 162.048 169.598 160.114 169.885 158.002C170.1 156.374 169.894 154.714 169.289 153.205C168.684 151.696 167.704 150.398 166.457 149.455C168.136 148.914 169.613 147.81 170.673 146.302C171.733 144.795 172.322 142.962 172.355 141.068C172.389 139.175 171.864 137.319 170.857 135.77C169.85 134.22 168.413 133.057 166.754 132.448C168.033 131.258 168.945 129.674 169.366 127.908C169.787 126.142 169.698 124.279 169.11 122.569C168.522 120.86 167.464 119.386 166.078 118.346C164.691 117.306 163.044 116.75 161.356 116.753C162.12 115.165 162.426 113.366 162.235 111.588C162.044 109.81 161.364 108.135 160.283 106.778C159.203 105.422 157.771 104.447 156.173 103.979C154.574 103.51 152.883 103.57 151.317 104.151C151.551 102.327 151.259 100.469 150.481 98.8308C149.703 97.1924 148.477 95.853 146.969 94.9951C145.462 94.1373 143.746 93.8027 142.056 94.0369C140.366 94.2711 138.784 95.0627 137.525 96.3039C137.246 94.3563 136.403 92.5546 135.115 91.1586C133.828 89.7625 132.164 88.8442 130.364 88.536C128.563 88.2278 126.718 88.5456 125.094 89.4436C123.471 90.3415 122.154 91.7733 121.332 93.5326C120.494 91.9103 119.21 90.61 117.658 89.8117C116.105 89.0134 114.362 88.7568 112.668 89.0773C110.975 89.3978 109.416 90.2796 108.207 91.6006C106.998 92.9216 106.2 94.6162 105.921 96.4498C104.606 95.3708 103.022 94.7428 101.373 94.6468C99.7238 94.5509 98.0862 94.9914 96.6712 95.9116C95.2563 96.8317 94.129 98.1892 93.435 99.8087C92.741 101.428 92.5121 103.236 92.7779 104.997C91.1796 104.468 89.4708 104.474 87.8758 105.015C86.2808 105.555 84.8742 106.604 83.8408 108.023C82.8074 109.443 82.1954 111.168 82.0853 112.971C81.9752 114.773 82.3721 116.57 83.2238 118.124C81.2475 118.158 79.347 118.952 77.8631 120.363C76.3793 121.774 75.4093 123.711 75.1272 125.826C74.8988 127.457 75.1019 129.126 75.7132 130.638C76.3245 132.151 77.3189 133.445 78.5818 134.373C76.9104 134.935 75.4467 136.055 74.4005 137.572C73.3544 139.089 72.7796 140.925 72.7587 142.817C72.7377 144.709 73.2716 146.559 74.2838 148.103C75.2959 149.646 76.7344 150.804 78.3928 151.409C77.1338 152.603 76.2404 154.183 75.8314 155.939C75.4223 157.695 75.5168 159.543 76.1024 161.24C76.688 162.936 77.7369 164.4 79.1101 165.436C80.4832 166.473 82.1156 167.035 83.7906 167.045C83.0404 168.639 82.7487 170.439 82.953 172.213C83.1573 173.987 83.8483 175.655 84.9369 177.001C86.0256 178.347 87.4621 179.31 89.0615 179.766C90.6609 180.222 92.35 180.15 93.9114 179.56C93.6675 181.394 93.9575 183.264 94.741 184.911C95.5246 186.559 96.7629 187.902 98.2844 188.755C99.8058 189.607 101.535 189.927 103.232 189.67C104.929 189.413 106.511 188.592 107.757 187.32C108.009 189.203 108.812 190.951 110.049 192.306C111.285 193.662 112.89 194.554 114.629 194.854C116.369 195.154 118.151 194.845 119.716 193.972C121.281 193.1 122.547 191.709 123.329 190.003C123.894 191.117 124.672 192.088 125.611 192.851C126.551 193.614 127.63 194.152 128.777 194.428C129.924 194.704 131.112 194.713 132.263 194.453C133.413 194.193 134.499 193.67 135.447 192.921C136.984 197.762 139.041 202.393 141.574 206.719C156.822 232.04 177.253 244.642 207.048 243.446C208.587 245.984 217.007 258.032 236.007 260.045C255.763 262.087 310.442 238.078 314.464 236.27C342.368 244.207 369.438 255.244 395.241 269.205C395.324 269.281 395.429 269.322 395.538 269.322C395.647 269.322 395.752 269.281 395.835 269.205C397.643 266.842 399.451 264.362 401.233 261.737C415.159 269.03 418.532 272.705 428.761 269.205C440.771 264.975 467.004 271.042 466.249 262.874ZM230.637 108.848C230.07 107.973 230.016 107.272 230.151 107.127C230.286 106.981 232.526 107.127 237.573 113.194C237.249 115.703 237.06 118.854 236.898 121.946C235.366 117.295 233.26 112.889 230.637 108.848ZM236.952 135.102C237.87 130.989 237.762 113.165 239.354 109.285C239.759 108.293 248.908 96.6832 252.336 92.1907C253.039 91.1203 253.963 90.2414 255.034 89.6236C255.034 90.0904 254.818 92.5408 249.637 101.292C248.314 102.838 247.1 104.209 246.182 105.055C245.696 105.551 246.371 106.368 246.857 105.872C250.554 102.284 258.3 92.3949 262.591 87.2315C262.753 87.0273 262.861 86.9398 262.861 86.8815C263.32 87.7274 262.132 93.9702 252.929 105.668C251.931 106.485 250.959 107.214 250.041 107.885C249.954 107.976 249.9 108.097 249.887 108.227C249.875 108.356 249.905 108.487 249.973 108.595C250.04 108.703 250.141 108.782 250.258 108.818C250.374 108.853 250.498 108.843 250.608 108.789C257.409 103.889 265.614 95.983 265.965 96.5081C266.316 97.0332 265.722 100.738 256.492 110.102L253.496 111.181C253.364 111.216 253.249 111.307 253.179 111.432C253.108 111.558 253.086 111.709 253.118 111.852C253.15 111.996 253.234 112.119 253.35 112.196C253.467 112.272 253.607 112.296 253.739 112.261C266.451 108.819 266.748 108.089 267.422 108.148C267.584 108.644 265.83 112.144 255.088 119.087C252.632 120.662 253.199 122.704 254.09 125.826C256.627 134.781 255.169 135.54 249.853 152.78C243.392 151.999 237.307 149.098 232.418 144.466C237.033 135.598 236.817 135.89 236.952 135.248V135.102ZM254.792 152.955C253.307 156.777 251.904 160.307 250.581 163.603C245.649 163.715 240.753 162.668 236.233 160.532C231.712 158.396 227.676 155.224 224.402 151.234C226.264 146.975 227.803 143.125 228.774 140.587C231.095 148.2 248.071 156.368 254.792 153.101V152.955ZM199.411 53.5674C199.411 52.984 199.869 53.5674 200.139 53.9466C201.03 55.7553 201.92 62.9023 204.97 74.3668C203.196 70.9226 201.212 67.6092 199.033 64.4484C198.724 60.819 198.851 57.1616 199.411 53.5674ZM193.554 64.9152C191.287 60.0727 191.341 58.4099 191.53 58.2057C191.719 58.0015 192.501 57.8848 196.388 62.6106C199.39 66.4704 202.03 70.643 204.269 75.0669C207.008 79.792 209.296 84.8062 211.097 90.032C211.157 90.1499 211.256 90.2399 211.373 90.2851C211.491 90.3303 211.62 90.3276 211.735 90.2775C211.851 90.2274 211.946 90.1333 212.003 90.013C212.059 89.8926 212.073 89.7542 212.041 89.6236C211.555 88.2817 211.097 87.1149 210.665 86.0355C213.364 86.0355 215.091 77.6632 216.063 74.3668C216.818 72.1789 217.709 71.0412 217.979 71.0412C218.249 71.0412 218.815 71.4788 218.492 77.6924C218.114 85.3354 220.948 99.6879 222.513 107.039C216.711 109.718 210.298 110.45 204.107 109.139C204.592 94.1452 199.788 78.3925 193.554 64.9152ZM197.953 107.185C203.162 112.873 221.838 111.736 226.426 105.493L226.939 115.382C222.533 117.725 217.719 119.035 212.812 119.226C207.905 119.417 203.016 118.485 198.466 116.491L197.953 107.185ZM199.707 158.936L200.085 165.674C200.085 165.821 200.139 165.962 200.235 166.066C200.332 166.17 200.462 166.229 200.598 166.229C200.734 166.229 200.864 166.17 200.961 166.066C201.057 165.962 201.111 165.821 201.111 165.674C200.166 148.171 199.491 136.036 198.412 117.745C202.98 119.677 207.866 120.575 212.768 120.384C217.67 120.193 222.484 118.918 226.912 116.637L228.1 139.449C225.509 146.479 216.359 169.525 208.506 175.359C200.652 181.194 165.836 175.359 156.336 173.288L199.707 158.936ZM124.436 143.037C124.411 142.934 124.36 142.841 124.289 142.769C124.217 142.696 124.127 142.648 124.031 142.629C118.39 141.316 119.902 134.285 123.761 136.503C125.326 137.407 126.217 137.611 126.811 137.232C127.032 137.051 127.206 136.81 127.315 136.534C127.424 136.257 127.464 135.955 127.431 135.657C128.025 123.754 135.96 120.4 141.924 131.893C145.838 139.42 148.968 152.751 144.623 158.148C142.275 161.065 138.065 161.269 132.047 158.761C131.935 158.719 131.814 158.72 131.703 158.764C131.592 158.808 131.499 158.892 131.438 159.002C131.378 159.111 131.355 159.24 131.372 159.366C131.389 159.492 131.447 159.608 131.534 159.694L139.765 166.374L130.508 168.125C126.487 148.58 125.839 149.834 124.436 143.037ZM142.653 206.077C136.392 195.663 133.342 181.602 130.751 169.204L140.764 167.308C141.759 169.184 142.868 170.987 144.084 172.705C142.035 173.238 140.113 174.232 138.443 175.622C138.351 175.716 138.294 175.844 138.284 175.981C138.273 176.117 138.311 176.253 138.388 176.362C138.465 176.471 138.577 176.545 138.702 176.57C138.827 176.595 138.956 176.569 139.064 176.497C144.461 171.975 150.453 172.909 157.092 174.426C167.105 176.468 200.652 182.331 209.073 176.089C214.2 172.296 219.868 161.503 223.916 152.401C227.237 156.345 231.289 159.488 235.81 161.624C240.33 163.76 245.216 164.842 250.149 164.799C234.712 203.189 229.935 207.273 212.365 208.994C194.004 210.863 175.501 210.344 157.254 207.448C157.179 207.429 157.101 207.429 157.025 207.447C156.95 207.465 156.879 207.502 156.819 207.553C156.758 207.605 156.709 207.671 156.675 207.747C156.642 207.822 156.624 207.904 156.624 207.988C156.624 208.071 156.642 208.154 156.675 208.229C156.709 208.304 156.758 208.37 156.819 208.422C156.879 208.474 156.95 208.51 157.025 208.529C157.101 208.547 157.179 208.546 157.254 208.527C165.293 209.999 173.403 210.973 181.544 211.445L210.719 218.125C209.882 227.693 207.696 239.945 207.264 242.396C178.98 243.242 158.765 232.857 142.653 206.077ZM395.538 267.979C369.726 254.065 342.657 243.058 314.761 235.132C314.654 235.104 314.543 235.104 314.437 235.132C313.843 235.395 256.087 260.891 236.304 258.878C217.412 256.923 209.315 244.642 207.993 242.658C210.13 231.965 211.412 221.092 211.825 210.161C227.128 208.732 233.416 204.793 243.024 184.198C288.558 143.143 331.142 98.4106 370.411 50.3877C383.042 55.7553 393.757 66.2279 402.231 82.0098C371.701 119.206 339.264 154.52 305.072 187.786C303.452 188.136 289.634 192.016 242.997 204.356C242.865 204.391 242.751 204.481 242.68 204.607C242.609 204.733 242.587 204.884 242.62 205.027C242.652 205.17 242.735 205.293 242.852 205.37C242.968 205.447 243.108 205.47 243.24 205.435L303.209 189.332C310.65 187.327 318.446 187.458 325.826 189.712C355.906 198.737 384.983 211.287 412.541 227.139C411.92 242.95 404.741 255.786 395.538 267.979Z"/>
</mask>
<path d="M466.249 262.874C466.249 261.474 463.793 259.111 447.356 252.314C437.829 248.405 421.204 239.741 412.595 235.103C413.093 232.342 413.382 229.542 413.459 226.731C413.455 226.63 413.428 226.533 413.381 226.446C413.334 226.36 413.268 226.287 413.189 226.235C385.496 210.266 356.262 197.636 326.015 188.574C319.776 186.673 313.231 186.245 306.826 187.32C340.712 154.264 372.878 119.204 403.176 82.3015C403.234 82.2063 403.265 82.0947 403.265 81.9806C403.265 81.8666 403.234 81.755 403.176 81.6597C401.583 78.7426 399.937 75.8254 398.21 73.3166C403.985 64.7693 413.459 57.0097 415.051 51.292C415.855 48.2212 416.084 45.0081 415.726 41.8404C414.565 28.5381 425.496 1.99184 418.02 1C416.724 1 414.079 2.83782 404.525 18.7072C399.64 26.8461 388.332 42.7739 379.804 54.0925C376.814 52.0634 373.64 50.3723 370.33 49.0458C370.246 48.9856 370.148 48.9535 370.047 48.9535C369.946 48.9535 369.848 48.9856 369.764 49.0458C330.97 96.5166 288.939 140.777 244.023 181.456C247.478 173.784 251.391 163.953 256.303 151.38C256.303 151.088 258.732 148.463 253.604 143.416C256.6 133.556 256.843 132.127 254.845 125.067C253.928 121.771 253.712 120.691 255.385 119.583C271.39 109.256 268.88 105.843 266.181 106.806C262.942 107.973 260.405 108.76 258.084 109.402C270.094 96.7415 266.586 93.766 264.103 95.8372L256.006 102.78C266.559 88.1942 263.644 83.7601 261.404 86.3272L252.632 97.0916C253.875 94.9652 254.872 92.6826 255.601 90.2946C256.06 88.3401 254.872 87.8733 253.631 88.7485C251.198 91.0517 249.024 93.6562 247.154 96.5081C241.756 103.305 238.409 107.827 238.058 108.644C237.75 109.589 237.533 110.567 237.411 111.561C233.335 106.864 230.421 104.91 229.152 106.018C228.477 106.631 228.585 107.914 229.476 109.227C232.518 113.976 234.849 119.214 236.385 124.746C236.315 128.145 236.045 131.536 235.576 134.898C234.37 134.607 233.116 134.641 231.925 134.997C230.735 135.353 229.643 136.02 228.747 136.94L226.993 102.955C226.831 102.663 227.533 99.4545 221.406 97.4708C220.021 90.9631 219.297 84.3115 219.247 77.634C219.598 71.0704 218.708 70.0202 217.925 69.8452C216.494 69.5243 215.226 72.7624 214.848 73.8709C213.877 76.7881 211.987 84.4019 210.422 84.6644C210.125 84.6644 209.855 84.4019 209.666 84.1102C205.969 75.0378 207.75 81.9515 203.783 66.3738C201.759 58.3516 201.408 51.9629 199.249 51.9338C198.964 51.9504 198.693 52.0726 198.481 52.2798C198.27 52.487 198.131 52.7666 198.088 53.0715C197.555 56.2164 197.392 59.4215 197.602 62.6106C196.226 60.8603 192.205 55.8428 190.612 57.0388C187.347 59.4309 199.276 73.5208 202.298 98.2876C195.794 100.913 196.442 104.122 196.442 104.443L199.653 157.856L162.463 170.021C162.599 168.542 162.366 167.052 161.788 165.703C163.763 165.664 165.661 164.868 167.143 163.458C168.626 162.048 169.598 160.114 169.885 158.002C170.1 156.374 169.894 154.714 169.289 153.205C168.684 151.696 167.704 150.398 166.457 149.455C168.136 148.914 169.613 147.81 170.673 146.302C171.733 144.795 172.322 142.962 172.355 141.068C172.389 139.175 171.864 137.319 170.857 135.77C169.85 134.22 168.413 133.057 166.754 132.448C168.033 131.258 168.945 129.674 169.366 127.908C169.787 126.142 169.698 124.279 169.11 122.569C168.522 120.86 167.464 119.386 166.078 118.346C164.691 117.306 163.044 116.75 161.356 116.753C162.12 115.165 162.426 113.366 162.235 111.588C162.044 109.81 161.364 108.135 160.283 106.778C159.203 105.422 157.771 104.447 156.173 103.979C154.574 103.51 152.883 103.57 151.317 104.151C151.551 102.327 151.259 100.469 150.481 98.8308C149.703 97.1924 148.477 95.853 146.969 94.9951C145.462 94.1373 143.746 93.8027 142.056 94.0369C140.366 94.2711 138.784 95.0627 137.525 96.3039C137.246 94.3563 136.403 92.5546 135.115 91.1586C133.828 89.7625 132.164 88.8442 130.364 88.536C128.563 88.2278 126.718 88.5456 125.094 89.4436C123.471 90.3415 122.154 91.7733 121.332 93.5326C120.494 91.9103 119.21 90.61 117.658 89.8117C116.105 89.0134 114.362 88.7568 112.668 89.0773C110.975 89.3978 109.416 90.2796 108.207 91.6006C106.998 92.9216 106.2 94.6162 105.921 96.4498C104.606 95.3708 103.022 94.7428 101.373 94.6468C99.7238 94.5509 98.0862 94.9914 96.6712 95.9116C95.2563 96.8317 94.129 98.1892 93.435 99.8087C92.741 101.428 92.5121 103.236 92.7779 104.997C91.1796 104.468 89.4708 104.474 87.8758 105.015C86.2808 105.555 84.8742 106.604 83.8408 108.023C82.8074 109.443 82.1954 111.168 82.0853 112.971C81.9752 114.773 82.3721 116.57 83.2238 118.124C81.2475 118.158 79.347 118.952 77.8631 120.363C76.3793 121.774 75.4093 123.711 75.1272 125.826C74.8988 127.457 75.1019 129.126 75.7132 130.638C76.3245 132.151 77.3189 133.445 78.5818 134.373C76.9104 134.935 75.4467 136.055 74.4005 137.572C73.3544 139.089 72.7796 140.925 72.7587 142.817C72.7377 144.709 73.2716 146.559 74.2838 148.103C75.2959 149.646 76.7344 150.804 78.3928 151.409C77.1338 152.603 76.2404 154.183 75.8314 155.939C75.4223 157.695 75.5168 159.543 76.1024 161.24C76.688 162.936 77.7369 164.4 79.1101 165.436C80.4832 166.473 82.1156 167.035 83.7906 167.045C83.0404 168.639 82.7487 170.439 82.953 172.213C83.1573 173.987 83.8483 175.655 84.9369 177.001C86.0256 178.347 87.4621 179.31 89.0615 179.766C90.6609 180.222 92.35 180.15 93.9114 179.56C93.6675 181.394 93.9575 183.264 94.741 184.911C95.5246 186.559 96.7629 187.902 98.2844 188.755C99.8058 189.607 101.535 189.927 103.232 189.67C104.929 189.413 106.511 188.592 107.757 187.32C108.009 189.203 108.812 190.951 110.049 192.306C111.285 193.662 112.89 194.554 114.629 194.854C116.369 195.154 118.151 194.845 119.716 193.972C121.281 193.1 122.547 191.709 123.329 190.003C123.894 191.117 124.672 192.088 125.611 192.851C126.551 193.614 127.63 194.152 128.777 194.428C129.924 194.704 131.112 194.713 132.263 194.453C133.413 194.193 134.499 193.67 135.447 192.921C136.984 197.762 139.041 202.393 141.574 206.719C156.822 232.04 177.253 244.642 207.048 243.446C208.587 245.984 217.007 258.032 236.007 260.045C255.763 262.087 310.442 238.078 314.464 236.27C342.368 244.207 369.438 255.244 395.241 269.205C395.324 269.281 395.429 269.322 395.538 269.322C395.647 269.322 395.752 269.281 395.835 269.205C397.643 266.842 399.451 264.362 401.233 261.737C415.159 269.03 418.532 272.705 428.761 269.205C440.771 264.975 467.004 271.042 466.249 262.874ZM230.637 108.848C230.07 107.973 230.016 107.272 230.151 107.127C230.286 106.981 232.526 107.127 237.573 113.194C237.249 115.703 237.06 118.854 236.898 121.946C235.366 117.295 233.26 112.889 230.637 108.848ZM236.952 135.102C237.87 130.989 237.762 113.165 239.354 109.285C239.759 108.293 248.908 96.6832 252.336 92.1907C253.039 91.1203 253.963 90.2414 255.034 89.6236C255.034 90.0904 254.818 92.5408 249.637 101.292C248.314 102.838 247.1 104.209 246.182 105.055C245.696 105.551 246.371 106.368 246.857 105.872C250.554 102.284 258.3 92.3949 262.591 87.2315C262.753 87.0273 262.861 86.9398 262.861 86.8815C263.32 87.7274 262.132 93.9702 252.929 105.668C251.931 106.485 250.959 107.214 250.041 107.885C249.954 107.976 249.9 108.097 249.887 108.227C249.875 108.356 249.905 108.487 249.973 108.595C250.04 108.703 250.141 108.782 250.258 108.818C250.374 108.853 250.498 108.843 250.608 108.789C257.409 103.889 265.614 95.983 265.965 96.5081C266.316 97.0332 265.722 100.738 256.492 110.102L253.496 111.181C253.364 111.216 253.249 111.307 253.179 111.432C253.108 111.558 253.086 111.709 253.118 111.852C253.15 111.996 253.234 112.119 253.35 112.196C253.467 112.272 253.607 112.296 253.739 112.261C266.451 108.819 266.748 108.089 267.422 108.148C267.584 108.644 265.83 112.144 255.088 119.087C252.632 120.662 253.199 122.704 254.09 125.826C256.627 134.781 255.169 135.54 249.853 152.78C243.392 151.999 237.307 149.098 232.418 144.466C237.033 135.598 236.817 135.89 236.952 135.248V135.102ZM254.792 152.955C253.307 156.777 251.904 160.307 250.581 163.603C245.649 163.715 240.753 162.668 236.233 160.532C231.712 158.396 227.676 155.224 224.402 151.234C226.264 146.975 227.803 143.125 228.774 140.587C231.095 148.2 248.071 156.368 254.792 153.101V152.955ZM199.411 53.5674C199.411 52.984 199.869 53.5674 200.139 53.9466C201.03 55.7553 201.92 62.9023 204.97 74.3668C203.196 70.9226 201.212 67.6092 199.033 64.4484C198.724 60.819 198.851 57.1616 199.411 53.5674ZM193.554 64.9152C191.287 60.0727 191.341 58.4099 191.53 58.2057C191.719 58.0015 192.501 57.8848 196.388 62.6106C199.39 66.4704 202.03 70.643 204.269 75.0669C207.008 79.792 209.296 84.8062 211.097 90.032C211.157 90.1499 211.256 90.2399 211.373 90.2851C211.491 90.3303 211.62 90.3276 211.735 90.2775C211.851 90.2274 211.946 90.1333 212.003 90.013C212.059 89.8926 212.073 89.7542 212.041 89.6236C211.555 88.2817 211.097 87.1149 210.665 86.0355C213.364 86.0355 215.091 77.6632 216.063 74.3668C216.818 72.1789 217.709 71.0412 217.979 71.0412C218.249 71.0412 218.815 71.4788 218.492 77.6924C218.114 85.3354 220.948 99.6879 222.513 107.039C216.711 109.718 210.298 110.45 204.107 109.139C204.592 94.1452 199.788 78.3925 193.554 64.9152ZM197.953 107.185C203.162 112.873 221.838 111.736 226.426 105.493L226.939 115.382C222.533 117.725 217.719 119.035 212.812 119.226C207.905 119.417 203.016 118.485 198.466 116.491L197.953 107.185ZM199.707 158.936L200.085 165.674C200.085 165.821 200.139 165.962 200.235 166.066C200.332 166.17 200.462 166.229 200.598 166.229C200.734 166.229 200.864 166.17 200.961 166.066C201.057 165.962 201.111 165.821 201.111 165.674C200.166 148.171 199.491 136.036 198.412 117.745C202.98 119.677 207.866 120.575 212.768 120.384C217.67 120.193 222.484 118.918 226.912 116.637L228.1 139.449C225.509 146.479 216.359 169.525 208.506 175.359C200.652 181.194 165.836 175.359 156.336 173.288L199.707 158.936ZM124.436 143.037C124.411 142.934 124.36 142.841 124.289 142.769C124.217 142.696 124.127 142.648 124.031 142.629C118.39 141.316 119.902 134.285 123.761 136.503C125.326 137.407 126.217 137.611 126.811 137.232C127.032 137.051 127.206 136.81 127.315 136.534C127.424 136.257 127.464 135.955 127.431 135.657C128.025 123.754 135.96 120.4 141.924 131.893C145.838 139.42 148.968 152.751 144.623 158.148C142.275 161.065 138.065 161.269 132.047 158.761C131.935 158.719 131.814 158.72 131.703 158.764C131.592 158.808 131.499 158.892 131.438 159.002C131.378 159.111 131.355 159.24 131.372 159.366C131.389 159.492 131.447 159.608 131.534 159.694L139.765 166.374L130.508 168.125C126.487 148.58 125.839 149.834 124.436 143.037ZM142.653 206.077C136.392 195.663 133.342 181.602 130.751 169.204L140.764 167.308C141.759 169.184 142.868 170.987 144.084 172.705C142.035 173.238 140.113 174.232 138.443 175.622C138.351 175.716 138.294 175.844 138.284 175.981C138.273 176.117 138.311 176.253 138.388 176.362C138.465 176.471 138.577 176.545 138.702 176.57C138.827 176.595 138.956 176.569 139.064 176.497C144.461 171.975 150.453 172.909 157.092 174.426C167.105 176.468 200.652 182.331 209.073 176.089C214.2 172.296 219.868 161.503 223.916 152.401C227.237 156.345 231.289 159.488 235.81 161.624C240.33 163.76 245.216 164.842 250.149 164.799C234.712 203.189 229.935 207.273 212.365 208.994C194.004 210.863 175.501 210.344 157.254 207.448C157.179 207.429 157.101 207.429 157.025 207.447C156.95 207.465 156.879 207.502 156.819 207.553C156.758 207.605 156.709 207.671 156.675 207.747C156.642 207.822 156.624 207.904 156.624 207.988C156.624 208.071 156.642 208.154 156.675 208.229C156.709 208.304 156.758 208.37 156.819 208.422C156.879 208.474 156.95 208.51 157.025 208.529C157.101 208.547 157.179 208.546 157.254 208.527C165.293 209.999 173.403 210.973 181.544 211.445L210.719 218.125C209.882 227.693 207.696 239.945 207.264 242.396C178.98 243.242 158.765 232.857 142.653 206.077ZM395.538 267.979C369.726 254.065 342.657 243.058 314.761 235.132C314.654 235.104 314.543 235.104 314.437 235.132C313.843 235.395 256.087 260.891 236.304 258.878C217.412 256.923 209.315 244.642 207.993 242.658C210.13 231.965 211.412 221.092 211.825 210.161C227.128 208.732 233.416 204.793 243.024 184.198C288.558 143.143 331.142 98.4106 370.411 50.3877C383.042 55.7553 393.757 66.2279 402.231 82.0098C371.701 119.206 339.264 154.52 305.072 187.786C303.452 188.136 289.634 192.016 242.997 204.356C242.865 204.391 242.751 204.481 242.68 204.607C242.609 204.733 242.587 204.884 242.62 205.027C242.652 205.17 242.735 205.293 242.852 205.37C242.968 205.447 243.108 205.47 243.24 205.435L303.209 189.332C310.65 187.327 318.446 187.458 325.826 189.712C355.906 198.737 384.983 211.287 412.541 227.139C411.92 242.95 404.741 255.786 395.538 267.979Z" fill="white"/>
<path d="M466.249 262.874C466.249 261.474 463.793 259.111 447.356 252.314C437.829 248.405 421.204 239.741 412.595 235.103C413.093 232.342 413.382 229.542 413.459 226.731C413.455 226.63 413.428 226.533 413.381 226.446C413.334 226.36 413.268 226.287 413.189 226.235C385.496 210.266 356.262 197.636 326.015 188.574C319.776 186.673 313.231 186.245 306.826 187.32C340.712 154.264 372.878 119.204 403.176 82.3015C403.234 82.2063 403.265 82.0947 403.265 81.9806C403.265 81.8666 403.234 81.755 403.176 81.6597C401.583 78.7426 399.937 75.8254 398.21 73.3166C403.985 64.7693 413.459 57.0097 415.051 51.292C415.855 48.2212 416.084 45.0081 415.726 41.8404C414.565 28.5381 425.496 1.99184 418.02 1C416.724 1 414.079 2.83782 404.525 18.7072C399.64 26.8461 388.332 42.7739 379.804 54.0925C376.814 52.0634 373.64 50.3723 370.33 49.0458C370.246 48.9856 370.148 48.9535 370.047 48.9535C369.946 48.9535 369.848 48.9856 369.764 49.0458C330.97 96.5166 288.939 140.777 244.023 181.456C247.478 173.784 251.391 163.953 256.303 151.38C256.303 151.088 258.732 148.463 253.604 143.416C256.6 133.556 256.843 132.127 254.845 125.067C253.928 121.771 253.712 120.691 255.385 119.583C271.39 109.256 268.88 105.843 266.181 106.806C262.942 107.973 260.405 108.76 258.084 109.402C270.094 96.7415 266.586 93.766 264.103 95.8372L256.006 102.78C266.559 88.1942 263.644 83.7601 261.404 86.3272L252.632 97.0916C253.875 94.9652 254.872 92.6826 255.601 90.2946C256.06 88.3401 254.872 87.8733 253.631 88.7485C251.198 91.0517 249.024 93.6562 247.154 96.5081C241.756 103.305 238.409 107.827 238.058 108.644C237.75 109.589 237.533 110.567 237.411 111.561C233.335 106.864 230.421 104.91 229.152 106.018C228.477 106.631 228.585 107.914 229.476 109.227C232.518 113.976 234.849 119.214 236.385 124.746C236.315 128.145 236.045 131.536 235.576 134.898C234.37 134.607 233.116 134.641 231.925 134.997C230.735 135.353 229.643 136.02 228.747 136.94L226.993 102.955C226.831 102.663 227.533 99.4545 221.406 97.4708C220.021 90.9631 219.297 84.3115 219.247 77.634C219.598 71.0704 218.708 70.0202 217.925 69.8452C216.494 69.5243 215.226 72.7624 214.848 73.8709C213.877 76.7881 211.987 84.4019 210.422 84.6644C210.125 84.6644 209.855 84.4019 209.666 84.1102C205.969 75.0378 207.75 81.9515 203.783 66.3738C201.759 58.3516 201.408 51.9629 199.249 51.9338C198.964 51.9504 198.693 52.0726 198.481 52.2798C198.27 52.487 198.131 52.7666 198.088 53.0715C197.555 56.2164 197.392 59.4215 197.602 62.6106C196.226 60.8603 192.205 55.8428 190.612 57.0388C187.347 59.4309 199.276 73.5208 202.298 98.2876C195.794 100.913 196.442 104.122 196.442 104.443L199.653 157.856L162.463 170.021C162.599 168.542 162.366 167.052 161.788 165.703C163.763 165.664 165.661 164.868 167.143 163.458C168.626 162.048 169.598 160.114 169.885 158.002C170.1 156.374 169.894 154.714 169.289 153.205C168.684 151.696 167.704 150.398 166.457 149.455C168.136 148.914 169.613 147.81 170.673 146.302C171.733 144.795 172.322 142.962 172.355 141.068C172.389 139.175 171.864 137.319 170.857 135.77C169.85 134.22 168.413 133.057 166.754 132.448C168.033 131.258 168.945 129.674 169.366 127.908C169.787 126.142 169.698 124.279 169.11 122.569C168.522 120.86 167.464 119.386 166.078 118.346C164.691 117.306 163.044 116.75 161.356 116.753C162.12 115.165 162.426 113.366 162.235 111.588C162.044 109.81 161.364 108.135 160.283 106.778C159.203 105.422 157.771 104.447 156.173 103.979C154.574 103.51 152.883 103.57 151.317 104.151C151.551 102.327 151.259 100.469 150.481 98.8308C149.703 97.1924 148.477 95.853 146.969 94.9951C145.462 94.1373 143.746 93.8027 142.056 94.0369C140.366 94.2711 138.784 95.0627 137.525 96.3039C137.246 94.3563 136.403 92.5546 135.115 91.1586C133.828 89.7625 132.164 88.8442 130.364 88.536C128.563 88.2278 126.718 88.5456 125.094 89.4436C123.471 90.3415 122.154 91.7733 121.332 93.5326C120.494 91.9103 119.21 90.61 117.658 89.8117C116.105 89.0134 114.362 88.7568 112.668 89.0773C110.975 89.3978 109.416 90.2796 108.207 91.6006C106.998 92.9216 106.2 94.6162 105.921 96.4498C104.606 95.3708 103.022 94.7428 101.373 94.6468C99.7238 94.5509 98.0862 94.9914 96.6712 95.9116C95.2563 96.8317 94.129 98.1892 93.435 99.8087C92.741 101.428 92.5121 103.236 92.7779 104.997C91.1796 104.468 89.4708 104.474 87.8758 105.015C86.2808 105.555 84.8742 106.604 83.8408 108.023C82.8074 109.443 82.1954 111.168 82.0853 112.971C81.9752 114.773 82.3721 116.57 83.2238 118.124C81.2475 118.158 79.347 118.952 77.8631 120.363C76.3793 121.774 75.4093 123.711 75.1272 125.826C74.8988 127.457 75.1019 129.126 75.7132 130.638C76.3245 132.151 77.3189 133.445 78.5818 134.373C76.9104 134.935 75.4467 136.055 74.4005 137.572C73.3544 139.089 72.7796 140.925 72.7587 142.817C72.7377 144.709 73.2716 146.559 74.2838 148.103C75.2959 149.646 76.7344 150.804 78.3928 151.409C77.1338 152.603 76.2404 154.183 75.8314 155.939C75.4223 157.695 75.5168 159.543 76.1024 161.24C76.688 162.936 77.7369 164.4 79.1101 165.436C80.4832 166.473 82.1156 167.035 83.7906 167.045C83.0404 168.639 82.7487 170.439 82.953 172.213C83.1573 173.987 83.8483 175.655 84.9369 177.001C86.0256 178.347 87.4621 179.31 89.0615 179.766C90.6609 180.222 92.35 180.15 93.9114 179.56C93.6675 181.394 93.9575 183.264 94.741 184.911C95.5246 186.559 96.7629 187.902 98.2844 188.755C99.8058 189.607 101.535 189.927 103.232 189.67C104.929 189.413 106.511 188.592 107.757 187.32C108.009 189.203 108.812 190.951 110.049 192.306C111.285 193.662 112.89 194.554 114.629 194.854C116.369 195.154 118.151 194.845 119.716 193.972C121.281 193.1 122.547 191.709 123.329 190.003C123.894 191.117 124.672 192.088 125.611 192.851C126.551 193.614 127.63 194.152 128.777 194.428C129.924 194.704 131.112 194.713 132.263 194.453C133.413 194.193 134.499 193.67 135.447 192.921C136.984 197.762 139.041 202.393 141.574 206.719C156.822 232.04 177.253 244.642 207.048 243.446C208.587 245.984 217.007 258.032 236.007 260.045C255.763 262.087 310.442 238.078 314.464 236.27C342.368 244.207 369.438 255.244 395.241 269.205C395.324 269.281 395.429 269.322 395.538 269.322C395.647 269.322 395.752 269.281 395.835 269.205C397.643 266.842 399.451 264.362 401.233 261.737C415.159 269.03 418.532 272.705 428.761 269.205C440.771 264.975 467.004 271.042 466.249 262.874ZM230.637 108.848C230.07 107.973 230.016 107.272 230.151 107.127C230.286 106.981 232.526 107.127 237.573 113.194C237.249 115.703 237.06 118.854 236.898 121.946C235.366 117.295 233.26 112.889 230.637 108.848ZM236.952 135.102C237.87 130.989 237.762 113.165 239.354 109.285C239.759 108.293 248.908 96.6832 252.336 92.1907C253.039 91.1203 253.963 90.2414 255.034 89.6236C255.034 90.0904 254.818 92.5408 249.637 101.292C248.314 102.838 247.1 104.209 246.182 105.055C245.696 105.551 246.371 106.368 246.857 105.872C250.554 102.284 258.3 92.3949 262.591 87.2315C262.753 87.0273 262.861 86.9398 262.861 86.8815C263.32 87.7274 262.132 93.9702 252.929 105.668C251.931 106.485 250.959 107.214 250.041 107.885C249.954 107.976 249.9 108.097 249.887 108.227C249.875 108.356 249.905 108.487 249.973 108.595C250.04 108.703 250.141 108.782 250.258 108.818C250.374 108.853 250.498 108.843 250.608 108.789C257.409 103.889 265.614 95.983 265.965 96.5081C266.316 97.0332 265.722 100.738 256.492 110.102L253.496 111.181C253.364 111.216 253.249 111.307 253.179 111.432C253.108 111.558 253.086 111.709 253.118 111.852C253.15 111.996 253.234 112.119 253.35 112.196C253.467 112.272 253.607 112.296 253.739 112.261C266.451 108.819 266.748 108.089 267.422 108.148C267.584 108.644 265.83 112.144 255.088 119.087C252.632 120.662 253.199 122.704 254.09 125.826C256.627 134.781 255.169 135.54 249.853 152.78C243.392 151.999 237.307 149.098 232.418 144.466C237.033 135.598 236.817 135.89 236.952 135.248V135.102ZM254.792 152.955C253.307 156.777 251.904 160.307 250.581 163.603C245.649 163.715 240.753 162.668 236.233 160.532C231.712 158.396 227.676 155.224 224.402 151.234C226.264 146.975 227.803 143.125 228.774 140.587C231.095 148.2 248.071 156.368 254.792 153.101V152.955ZM199.411 53.5674C199.411 52.984 199.869 53.5674 200.139 53.9466C201.03 55.7553 201.92 62.9023 204.97 74.3668C203.196 70.9226 201.212 67.6092 199.033 64.4484C198.724 60.819 198.851 57.1616 199.411 53.5674ZM193.554 64.9152C191.287 60.0727 191.341 58.4099 191.53 58.2057C191.719 58.0015 192.501 57.8848 196.388 62.6106C199.39 66.4704 202.03 70.643 204.269 75.0669C207.008 79.792 209.296 84.8062 211.097 90.032C211.157 90.1499 211.256 90.2399 211.373 90.2851C211.491 90.3303 211.62 90.3276 211.735 90.2775C211.851 90.2274 211.946 90.1333 212.003 90.013C212.059 89.8926 212.073 89.7542 212.041 89.6236C211.555 88.2817 211.097 87.1149 210.665 86.0355C213.364 86.0355 215.091 77.6632 216.063 74.3668C216.818 72.1789 217.709 71.0412 217.979 71.0412C218.249 71.0412 218.815 71.4788 218.492 77.6924C218.114 85.3354 220.948 99.6879 222.513 107.039C216.711 109.718 210.298 110.45 204.107 109.139C204.592 94.1452 199.788 78.3925 193.554 64.9152ZM197.953 107.185C203.162 112.873 221.838 111.736 226.426 105.493L226.939 115.382C222.533 117.725 217.719 119.035 212.812 119.226C207.905 119.417 203.016 118.485 198.466 116.491L197.953 107.185ZM199.707 158.936L200.085 165.674C200.085 165.821 200.139 165.962 200.235 166.066C200.332 166.17 200.462 166.229 200.598 166.229C200.734 166.229 200.864 166.17 200.961 166.066C201.057 165.962 201.111 165.821 201.111 165.674C200.166 148.171 199.491 136.036 198.412 117.745C202.98 119.677 207.866 120.575 212.768 120.384C217.67 120.193 222.484 118.918 226.912 116.637L228.1 139.449C225.509 146.479 216.359 169.525 208.506 175.359C200.652 181.194 165.836 175.359 156.336 173.288L199.707 158.936ZM124.436 143.037C124.411 142.934 124.36 142.841 124.289 142.769C124.217 142.696 124.127 142.648 124.031 142.629C118.39 141.316 119.902 134.285 123.761 136.503C125.326 137.407 126.217 137.611 126.811 137.232C127.032 137.051 127.206 136.81 127.315 136.534C127.424 136.257 127.464 135.955 127.431 135.657C128.025 123.754 135.96 120.4 141.924 131.893C145.838 139.42 148.968 152.751 144.623 158.148C142.275 161.065 138.065 161.269 132.047 158.761C131.935 158.719 131.814 158.72 131.703 158.764C131.592 158.808 131.499 158.892 131.438 159.002C131.378 159.111 131.355 159.24 131.372 159.366C131.389 159.492 131.447 159.608 131.534 159.694L139.765 166.374L130.508 168.125C126.487 148.58 125.839 149.834 124.436 143.037ZM142.653 206.077C136.392 195.663 133.342 181.602 130.751 169.204L140.764 167.308C141.759 169.184 142.868 170.987 144.084 172.705C142.035 173.238 140.113 174.232 138.443 175.622C138.351 175.716 138.294 175.844 138.284 175.981C138.273 176.117 138.311 176.253 138.388 176.362C138.465 176.471 138.577 176.545 138.702 176.57C138.827 176.595 138.956 176.569 139.064 176.497C144.461 171.975 150.453 172.909 157.092 174.426C167.105 176.468 200.652 182.331 209.073 176.089C214.2 172.296 219.868 161.503 223.916 152.401C227.237 156.345 231.289 159.488 235.81 161.624C240.33 163.76 245.216 164.842 250.149 164.799C234.712 203.189 229.935 207.273 212.365 208.994C194.004 210.863 175.501 210.344 157.254 207.448C157.179 207.429 157.101 207.429 157.025 207.447C156.95 207.465 156.879 207.502 156.819 207.553C156.758 207.605 156.709 207.671 156.675 207.747C156.642 207.822 156.624 207.904 156.624 207.988C156.624 208.071 156.642 208.154 156.675 208.229C156.709 208.304 156.758 208.37 156.819 208.422C156.879 208.474 156.95 208.51 157.025 208.529C157.101 208.547 157.179 208.546 157.254 208.527C165.293 209.999 173.403 210.973 181.544 211.445L210.719 218.125C209.882 227.693 207.696 239.945 207.264 242.396C178.98 243.242 158.765 232.857 142.653 206.077ZM395.538 267.979C369.726 254.065 342.657 243.058 314.761 235.132C314.654 235.104 314.543 235.104 314.437 235.132C313.843 235.395 256.087 260.891 236.304 258.878C217.412 256.923 209.315 244.642 207.993 242.658C210.13 231.965 211.412 221.092 211.825 210.161C227.128 208.732 233.416 204.793 243.024 184.198C288.558 143.143 331.142 98.4106 370.411 50.3877C383.042 55.7553 393.757 66.2279 402.231 82.0098C371.701 119.206 339.264 154.52 305.072 187.786C303.452 188.136 289.634 192.016 242.997 204.356C242.865 204.391 242.751 204.481 242.68 204.607C242.609 204.733 242.587 204.884 242.62 205.027C242.652 205.17 242.735 205.293 242.852 205.37C242.968 205.447 243.108 205.47 243.24 205.435L303.209 189.332C310.65 187.327 318.446 187.458 325.826 189.712C355.906 198.737 384.983 211.287 412.541 227.139C411.92 242.95 404.741 255.786 395.538 267.979Z" stroke="white" stroke-width="0.6" mask="url(#path-25-outside-4_0_1)"/>
<path d="M39.5919 191.109L39.6018 191.108C39.7655 191.099 39.925 191.154 40.0509 191.261C40.1765 191.368 40.2599 191.518 40.2887 191.683C40.3175 191.847 40.2904 192.018 40.2111 192.164C40.1317 192.31 40.0043 192.423 39.85 192.479L39.8389 192.483L39.8273 192.485L33.2432 193.739C33.243 193.739 33.2429 193.739 33.2427 193.739C31.7805 194.03 30.4792 194.93 29.6216 196.252C28.7638 197.573 28.4199 199.208 28.666 200.803C28.6661 200.803 28.6661 200.803 28.6661 200.803L29.8265 207.92L29.8278 207.928L29.8282 207.937C29.8363 208.104 29.7883 208.27 29.691 208.404C29.5935 208.538 29.4522 208.632 29.2917 208.665C29.1309 208.698 28.9653 208.666 28.8262 208.578C28.6875 208.49 28.5856 208.352 28.5365 208.193L28.5336 208.183L28.532 208.174L27.3175 201.056L27.3173 201.055C27.0533 199.461 26.2173 198.048 24.9957 197.121C23.7746 196.195 22.2666 195.83 20.7998 196.102C20.7997 196.102 20.7996 196.102 20.7995 196.102L14.2149 197.356L14.2052 197.358L14.1953 197.359C14.0317 197.368 13.8721 197.313 13.7462 197.206L13.8433 197.091L13.7462 197.206C13.6206 197.099 13.5372 196.949 13.5084 196.784C13.4796 196.62 13.5068 196.449 13.5861 196.303C13.6655 196.157 13.7929 196.044 13.9471 195.989L13.9582 195.985L13.9699 195.982L20.5551 194.728L20.5569 194.728L20.5569 194.728C21.2888 194.597 21.9902 194.311 22.6204 193.886C23.2507 193.46 23.7974 192.903 24.2285 192.246C24.6597 191.59 24.9665 190.847 25.1308 190.06C25.2951 189.273 25.3136 188.459 25.1852 187.665L39.5919 191.109ZM39.5919 191.109L39.5822 191.111L32.9977 192.365C32.9976 192.365 32.9974 192.365 32.9973 192.365C31.5305 192.637 30.0225 192.272 28.8015 191.346C27.5799 190.419 26.744 189.006 26.4798 187.412C26.4798 187.412 26.4798 187.412 26.4798 187.412L25.3193 180.295L25.3177 180.284L25.3146 180.274C25.2655 180.115 25.1636 179.977 25.0249 179.889C24.8858 179.801 24.7202 179.769 24.5594 179.802C24.3989 179.835 24.2577 179.929 24.1601 180.063C24.0628 180.197 24.0148 180.363 24.0229 180.53L24.0233 180.539L24.0247 180.547L25.1851 187.665L39.5919 191.109ZM30.2257 193.598C28.8953 194.611 27.9353 196.093 27.508 197.784C26.5678 196.359 25.1966 195.327 23.6272 194.87C24.2931 194.367 24.872 193.741 25.3371 193.021C25.7964 192.31 26.1368 191.519 26.3443 190.684C27.2848 192.11 28.6562 193.141 30.2257 193.598Z" fill="white" stroke="white" stroke-width="0.3"/>
<path d="M88.9849 73.5599L141.579 101.426C141.702 101.491 141.846 101.505 141.98 101.464C142.113 101.423 142.224 101.331 142.29 101.207L161.504 64.9432C161.569 64.8199 161.583 64.6758 161.542 64.5424C161.501 64.4091 161.409 64.2974 161.285 64.2321L108.692 36.366C108.568 36.3007 108.424 36.287 108.291 36.328C108.157 36.369 108.046 36.4613 107.98 36.5845L88.7663 72.8488C88.701 72.9721 88.6874 73.1163 88.7284 73.2496C88.7693 73.383 88.8616 73.4946 88.9849 73.5599ZM160.328 64.9155L141.606 100.25L89.944 72.8775L108.666 37.5428L160.328 64.9155Z" fill="white" stroke="white" stroke-width="0.3"/>
<path d="M133.224 67.9906L133.224 67.9977C133.386 72.4324 133.512 75.7241 133.606 78.1694C133.647 79.2396 133.682 80.1477 133.711 80.9185C133.805 83.443 133.836 84.5034 133.809 84.961M133.224 67.9906L106.708 71.5245C113.714 75.2366 118.871 77.9755 122.67 79.9931C124.596 81.0159 126.173 81.8534 127.464 82.5383C131.299 84.5712 132.628 85.2637 133.114 85.4674C133.294 85.543 133.485 85.5722 133.63 85.4513C133.762 85.3424 133.8 85.1521 133.809 84.961M133.224 67.9906L133.223 67.9836M133.224 67.9906L133.223 67.9836M133.809 84.961C133.809 84.9613 133.809 84.9617 133.809 84.9621L133.659 84.9531L133.809 84.9599C133.809 84.9602 133.809 84.9606 133.809 84.961ZM133.223 67.9836C133.212 67.8966 133.18 67.8136 133.13 67.7415C133.079 67.6695 133.013 67.6104 132.935 67.5693C132.858 67.5282 132.772 67.5063 132.684 67.5054C132.596 67.5044 132.509 67.5244 132.431 67.5638L132.431 67.5632M133.223 67.9836L132.431 67.5632M132.431 67.5632L132.419 67.5707M132.431 67.5632L132.419 67.5707M132.419 67.5707L128.237 70.1868M132.419 67.5707L128.237 70.1868M128.237 70.1868L127.807 58.3076L127.806 58.3005L127.805 58.2935C127.794 58.2065 127.762 58.1235 127.712 58.0514C127.662 57.9794 127.595 57.9203 127.518 57.8792C127.44 57.8382 127.354 57.8162 127.266 57.8153C127.178 57.8143 127.092 57.8344 127.013 57.8738L127.013 57.8732L127.001 57.8807L106.674 70.6138L106.674 70.6138C106.596 70.6629 106.532 70.7317 106.489 70.8133C106.445 70.895 106.424 70.9866 106.428 71.0789C106.431 71.1712 106.459 71.261 106.508 71.3392C106.557 71.4174 106.626 71.4813 106.708 71.5245L128.237 70.1868Z" fill="white" stroke="white" stroke-width="0.3"/>
<path d="M141.26 65.1382L141.26 65.1381C140.723 64.8533 140.113 64.7343 139.507 64.7961C138.902 64.8579 138.329 65.0978 137.86 65.4855C137.391 65.8732 137.048 66.3912 136.873 66.974C136.699 67.5568 136.701 68.1783 136.88 68.7598C137.059 69.3413 137.406 69.8568 137.877 70.241C138.349 70.6253 138.924 70.861 139.53 70.9184C140.135 70.9759 140.744 70.8524 141.28 70.5636C141.815 70.2749 142.253 69.8339 142.538 69.2963L142.538 69.2962C142.92 68.5752 142.999 67.7324 142.76 66.9528C142.52 66.1731 141.981 65.5205 141.26 65.1382Z" fill="white" stroke="white" stroke-width="0.3"/>
</svg>
