<svg width="378" height="201" viewBox="0 0 378 201" fill="none" xmlns="http://www.w3.org/2000/svg">
<path d="M19.0772 15.4H28.7052C31.9919 15.4 34.3892 16.1733 35.8972 17.72C37.4052 19.228 38.1592 21.5673 38.1592 24.738V26.362C38.1592 28.45 37.8112 30.1513 37.1152 31.466C36.4579 32.7807 35.4332 33.728 34.0412 34.308V34.424C37.2119 35.5067 38.7972 38.3293 38.7972 42.892V46.372C38.7972 49.504 37.9659 51.9013 36.3032 53.564C34.6792 55.188 32.2819 56 29.1112 56H19.0772V15.4ZM27.9512 31.93C29.2272 31.93 30.1746 31.6013 30.7932 30.944C31.4506 30.2867 31.7792 29.1847 31.7792 27.638V25.376C31.7792 23.9067 31.5086 22.8433 30.9672 22.186C30.4646 21.5287 29.6526 21.2 28.5312 21.2H25.4572V31.93H27.9512ZM29.1112 50.2C30.2326 50.2 31.0639 49.91 31.6052 49.33C32.1466 48.7113 32.4172 47.6673 32.4172 46.198V42.66C32.4172 40.804 32.0886 39.528 31.4312 38.832C30.8126 38.0973 29.7686 37.73 28.2992 37.73H25.4572V50.2H29.1112ZM42.5264 15.4H59.9264V21.2H48.9064V31.93H57.6644V37.73H48.9064V50.2H59.9264V56H42.5264V15.4ZM77.8738 21.2H71.2038V15.4H90.9238V21.2H84.2538V56H77.8738V21.2ZM94.0128 15.4H100.393V31.93H107.237V15.4H113.617V56H107.237V37.73H100.393V56H94.0128V15.4ZM118.368 15.4H135.768V21.2H124.748V31.93H133.506V37.73H124.748V50.2H135.768V56H118.368V15.4ZM148.728 15.4H158.356C161.642 15.4 164.04 16.1733 165.548 17.72C167.056 19.228 167.81 21.5673 167.81 24.738V26.362C167.81 28.45 167.462 30.1513 166.766 31.466C166.108 32.7807 165.084 33.728 163.692 34.308V34.424C166.862 35.5067 168.448 38.3293 168.448 42.892V46.372C168.448 49.504 167.616 51.9013 165.954 53.564C164.33 55.188 161.932 56 158.762 56H148.728V15.4ZM157.602 31.93C158.878 31.93 159.825 31.6013 160.444 30.944C161.101 30.2867 161.43 29.1847 161.43 27.638V25.376C161.43 23.9067 161.159 22.8433 160.618 22.186C160.115 21.5287 159.303 21.2 158.182 21.2H155.108V31.93H157.602ZM158.762 50.2C159.883 50.2 160.714 49.91 161.256 49.33C161.797 48.7113 162.068 47.6673 162.068 46.198V42.66C162.068 40.804 161.739 39.528 161.082 38.832C160.463 38.0973 159.419 37.73 157.95 37.73H155.108V50.2H158.762ZM172.177 15.4H181.631C184.917 15.4 187.315 16.1733 188.823 17.72C190.331 19.228 191.085 21.5673 191.085 24.738V27.232C191.085 31.4467 189.693 34.1147 186.909 35.236V35.352C188.455 35.816 189.538 36.7633 190.157 38.194C190.814 39.6247 191.143 41.5387 191.143 43.936V51.07C191.143 52.23 191.181 53.1773 191.259 53.912C191.336 54.608 191.529 55.304 191.839 56H185.343C185.111 55.3427 184.956 54.724 184.879 54.144C184.801 53.564 184.763 52.52 184.763 51.012V43.588C184.763 41.732 184.453 40.4367 183.835 39.702C183.255 38.9673 182.23 38.6 180.761 38.6H178.557V56H172.177V15.4ZM180.877 32.8C182.153 32.8 183.1 32.4713 183.719 31.814C184.376 31.1567 184.705 30.0547 184.705 28.508V25.376C184.705 23.9067 184.434 22.8433 183.893 22.186C183.39 21.5287 182.578 21.2 181.457 21.2H178.557V32.8H180.877ZM200.499 15.4H209.141L215.753 56H209.373L208.213 47.938V48.054H200.963L199.803 56H193.887L200.499 15.4ZM207.459 42.544L204.617 22.476H204.501L201.717 42.544H207.459ZM218.849 15.4H226.853L233.059 39.702H233.175V15.4H238.859V56H232.305L224.649 26.362H224.533V56H218.849V15.4ZM243.601 15.4H253.345C256.515 15.4 258.893 16.2507 260.479 17.952C262.064 19.6533 262.857 22.1473 262.857 25.434V45.966C262.857 49.2527 262.064 51.7467 260.479 53.448C258.893 55.1493 256.515 56 253.345 56H243.601V15.4ZM253.229 50.2C254.273 50.2 255.065 49.8907 255.607 49.272C256.187 48.6533 256.477 47.648 256.477 46.256V25.144C256.477 23.752 256.187 22.7467 255.607 22.128C255.065 21.5093 254.273 21.2 253.229 21.2H249.981V50.2H253.229ZM281.44 21.2H274.77V15.4H294.49V21.2H287.82V56H281.44V21.2ZM297.579 15.4H303.959V31.93H310.803V15.4H317.183V56H310.803V37.73H303.959V56H297.579V15.4ZM326.865 15.4H335.507L342.119 56H335.739L334.579 47.938V48.054H327.329L326.169 56H320.253L326.865 15.4ZM333.825 42.544L330.983 22.476H330.867L328.083 42.544H333.825ZM347.54 21.2H340.87V15.4H360.59V21.2H353.92V56H347.54V21.2ZM24.4139 121.58C21.3592 121.58 19.0199 120.71 17.3959 118.97C15.8106 117.23 15.0179 114.775 15.0179 111.604V89.796C15.0179 86.6253 15.8106 84.17 17.3959 82.43C19.0199 80.69 21.3592 79.82 24.4139 79.82C27.4686 79.82 29.7886 80.69 31.3739 82.43C32.9979 84.17 33.8099 86.6253 33.8099 89.796V94.088H27.7779V89.39C27.7779 86.8767 26.7146 85.62 24.5879 85.62C22.4612 85.62 21.3979 86.8767 21.3979 89.39V112.068C21.3979 114.543 22.4612 115.78 24.5879 115.78C26.7146 115.78 27.7779 114.543 27.7779 112.068V105.862H33.8099V111.604C33.8099 114.775 32.9979 117.23 31.3739 118.97C29.7886 120.71 27.4686 121.58 24.4139 121.58ZM46.907 121.58C43.8137 121.58 41.455 120.71 39.831 118.97C38.207 117.191 37.395 114.659 37.395 111.372V80.4H43.775V111.836C43.775 113.228 44.0457 114.233 44.587 114.852C45.167 115.471 45.979 115.78 47.023 115.78C48.067 115.78 48.8597 115.471 49.401 114.852C49.981 114.233 50.271 113.228 50.271 111.836V80.4H56.419V111.372C56.419 114.659 55.607 117.191 53.983 118.97C52.359 120.71 50.0004 121.58 46.907 121.58ZM69.257 121.58C66.1636 121.58 63.8243 120.71 62.239 118.97C60.6536 117.191 59.861 114.659 59.861 111.372V109.052H65.893V111.836C65.893 114.465 66.995 115.78 69.199 115.78C70.2816 115.78 71.0936 115.471 71.635 114.852C72.215 114.195 72.505 113.151 72.505 111.72C72.505 110.019 72.1183 108.53 71.345 107.254C70.5716 105.939 69.141 104.373 67.053 102.556C64.4236 100.236 62.587 98.148 61.543 96.292C60.499 94.3973 59.977 92.2707 59.977 89.912C59.977 86.7027 60.789 84.228 62.413 82.488C64.037 80.7093 66.3956 79.82 69.489 79.82C72.5436 79.82 74.8443 80.7093 76.391 82.488C77.9763 84.228 78.769 86.7413 78.769 90.028V91.71H72.737V89.622C72.737 88.23 72.4663 87.2247 71.925 86.606C71.3836 85.9487 70.591 85.62 69.547 85.62C67.4203 85.62 66.357 86.9153 66.357 89.506C66.357 90.9753 66.7436 92.348 67.517 93.624C68.329 94.9 69.779 96.4467 71.867 98.264C74.535 100.584 76.3716 102.691 77.377 104.586C78.3823 106.481 78.885 108.704 78.885 111.256C78.885 114.581 78.0536 117.133 76.391 118.912C74.767 120.691 72.389 121.58 69.257 121.58ZM87.531 86.2H80.861V80.4H100.581V86.2H93.911V121H87.531V86.2ZM112.665 121.58C109.533 121.58 107.136 120.691 105.473 118.912C103.811 117.133 102.979 114.62 102.979 111.372V90.028C102.979 86.78 103.811 84.2667 105.473 82.488C107.136 80.7093 109.533 79.82 112.665 79.82C115.797 79.82 118.195 80.7093 119.857 82.488C121.52 84.2667 122.351 86.78 122.351 90.028V111.372C122.351 114.62 121.52 117.133 119.857 118.912C118.195 120.691 115.797 121.58 112.665 121.58ZM112.665 115.78C114.869 115.78 115.971 114.446 115.971 111.778V89.622C115.971 86.954 114.869 85.62 112.665 85.62C110.461 85.62 109.359 86.954 109.359 89.622V111.778C109.359 114.446 110.461 115.78 112.665 115.78ZM126.666 80.4H135.772L139.832 109.458H139.948L144.008 80.4H153.114V121H147.082V90.26H146.966L142.326 121H136.99L132.35 90.26H132.234V121H126.666V80.4ZM157.875 80.4H175.275V86.2H164.255V96.93H173.013V102.73H164.255V115.2H175.275V121H157.875V80.4ZM178.945 80.4H188.399C191.686 80.4 194.083 81.1733 195.591 82.72C197.099 84.228 197.853 86.5673 197.853 89.738V92.232C197.853 96.4467 196.461 99.1147 193.677 100.236V100.352C195.224 100.816 196.307 101.763 196.925 103.194C197.583 104.625 197.911 106.539 197.911 108.936V116.07C197.911 117.23 197.95 118.177 198.027 118.912C198.105 119.608 198.298 120.304 198.607 121H192.111C191.879 120.343 191.725 119.724 191.647 119.144C191.57 118.564 191.531 117.52 191.531 116.012V108.588C191.531 106.732 191.222 105.437 190.603 104.702C190.023 103.967 188.999 103.6 187.529 103.6H185.325V121H178.945V80.4ZM187.645 97.8C188.921 97.8 189.869 97.4713 190.487 96.814C191.145 96.1567 191.473 95.0547 191.473 93.508V90.376C191.473 88.9067 191.203 87.8433 190.661 87.186C190.159 86.5287 189.347 86.2 188.225 86.2H185.325V97.8H187.645ZM210.632 121.58C207.539 121.58 205.199 120.71 203.614 118.97C202.029 117.191 201.236 114.659 201.236 111.372V109.052H207.268V111.836C207.268 114.465 208.37 115.78 210.574 115.78C211.657 115.78 212.469 115.471 213.01 114.852C213.59 114.195 213.88 113.151 213.88 111.72C213.88 110.019 213.493 108.53 212.72 107.254C211.947 105.939 210.516 104.373 208.428 102.556C205.799 100.236 203.962 98.148 202.918 96.292C201.874 94.3973 201.352 92.2707 201.352 89.912C201.352 86.7027 202.164 84.228 203.788 82.488C205.412 80.7093 207.771 79.82 210.864 79.82C213.919 79.82 216.219 80.7093 217.766 82.488C219.351 84.228 220.144 86.7413 220.144 90.028V91.71H214.112V89.622C214.112 88.23 213.841 87.2247 213.3 86.606C212.759 85.9487 211.966 85.62 210.922 85.62C208.795 85.62 207.732 86.9153 207.732 89.506C207.732 90.9753 208.119 92.348 208.892 93.624C209.704 94.9 211.154 96.4467 213.242 98.264C215.91 100.584 217.747 102.691 218.752 104.586C219.757 106.481 220.26 108.704 220.26 111.256C220.26 114.581 219.429 117.133 217.766 118.912C216.142 120.691 213.764 121.58 210.632 121.58ZM231.699 80.4H237.847L240.689 111.604H240.805L243.821 80.4H250.781L253.797 111.604H253.913L256.755 80.4H262.265L258.147 121H250.201L247.301 93.624H247.185L244.285 121H235.817L231.699 80.4ZM269.629 80.4H278.271L284.883 121H278.503L277.343 112.938V113.054H270.093L268.933 121H263.017L269.629 80.4ZM276.589 107.544L273.747 87.476H273.631L270.847 107.544H276.589ZM287.979 80.4H295.983L302.189 104.702H302.305V80.4H307.989V121H301.435L293.779 91.362H293.663V121H287.979V80.4ZM317.719 86.2H311.049V80.4H330.769V86.2H324.099V121H317.719V86.2ZM349.817 121.58C347.497 121.58 345.737 120.787 344.539 119.202C343.34 117.617 342.741 115.316 342.741 112.3V108.066C342.741 105.939 343.108 104.161 343.843 102.73C344.577 101.299 345.776 100.255 347.439 99.598V99.482C345.931 98.8633 344.809 97.8773 344.075 96.524C343.379 95.132 343.031 93.3533 343.031 91.188V90.434C343.031 87.1473 343.823 84.6533 345.409 82.952C346.994 81.2507 349.372 80.4 352.543 80.4H359.851V86.2H352.659C351.615 86.2 350.803 86.5093 350.223 87.128C349.681 87.7467 349.411 88.752 349.411 90.144V92.638C349.411 94.1847 349.72 95.2867 350.339 95.944C350.996 96.6013 351.963 96.93 353.239 96.93H355.733V92.406H361.997V96.93H363.795V102.73H361.997V116.07C361.997 117.23 362.035 118.177 362.113 118.912C362.19 119.608 362.383 120.304 362.693 121H356.313C356.003 120.149 355.81 119.086 355.733 117.81H355.617C354.921 119.086 354.109 120.033 353.181 120.652C352.291 121.271 351.17 121.58 349.817 121.58ZM352.195 115.78C354.205 115.78 355.385 114.562 355.733 112.126V102.73H353.297C351.827 102.73 350.764 103.136 350.107 103.948C349.449 104.721 349.121 106.036 349.121 107.892V112.01C349.121 113.363 349.391 114.33 349.933 114.91C350.474 115.49 351.228 115.78 352.195 115.78ZM26.7645 186.58C23.7098 186.58 21.3705 185.71 19.7465 183.97C18.1612 182.23 17.3685 179.775 17.3685 176.604V154.796C17.3685 151.625 18.1612 149.17 19.7465 147.43C21.3705 145.69 23.7098 144.82 26.7645 144.82C29.8192 144.82 32.1392 145.69 33.7245 147.43C35.3485 149.17 36.1605 151.625 36.1605 154.796V159.088H30.1285V154.39C30.1285 151.877 29.0652 150.62 26.9385 150.62C24.8118 150.62 23.7485 151.877 23.7485 154.39V177.068C23.7485 179.543 24.8118 180.78 26.9385 180.78C29.0652 180.78 30.1285 179.543 30.1285 177.068V170.862H36.1605V176.604C36.1605 179.775 35.3485 182.23 33.7245 183.97C32.1392 185.71 29.8192 186.58 26.7645 186.58ZM49.3129 186.58C46.1809 186.58 43.7836 185.691 42.1209 183.912C40.4582 182.133 39.6269 179.62 39.6269 176.372V155.028C39.6269 151.78 40.4582 149.267 42.1209 147.488C43.7836 145.709 46.1809 144.82 49.3129 144.82C52.4449 144.82 54.8422 145.709 56.5049 147.488C58.1676 149.267 58.9989 151.78 58.9989 155.028V176.372C58.9989 179.62 58.1676 182.133 56.5049 183.912C54.8422 185.691 52.4449 186.58 49.3129 186.58ZM49.3129 180.78C51.5169 180.78 52.6189 179.446 52.6189 176.778V154.622C52.6189 151.954 51.5169 150.62 49.3129 150.62C47.1089 150.62 46.0069 151.954 46.0069 154.622V176.778C46.0069 179.446 47.1089 180.78 49.3129 180.78ZM63.3135 145.4H72.4195L76.4795 174.458H76.5955L80.6555 145.4H89.7615V186H83.7295V155.26H83.6135L78.9735 186H73.6375L68.9975 155.26H68.8815V186H63.3135V145.4ZM94.5225 145.4H103.919C107.089 145.4 109.467 146.251 111.053 147.952C112.638 149.653 113.431 152.147 113.431 155.434V159.436C113.431 162.723 112.638 165.217 111.053 166.918C109.467 168.619 107.089 169.47 103.919 169.47H100.903V186H94.5225V145.4ZM103.919 163.67C104.963 163.67 105.736 163.38 106.239 162.8C106.78 162.22 107.051 161.234 107.051 159.842V155.028C107.051 153.636 106.78 152.65 106.239 152.07C105.736 151.49 104.963 151.2 103.919 151.2H100.903V163.67H103.919ZM116.896 145.4H134.296V151.2H123.276V161.93H132.034V167.73H123.276V180.2H134.296V186H116.896V145.4ZM142.954 151.2H136.284V145.4H156.004V151.2H149.334V186H142.954V151.2ZM159.093 145.4H165.473V186H159.093V145.4ZM175.239 151.2H168.569V145.4H188.289V151.2H181.619V186H175.239V151.2ZM200.373 186.58C197.241 186.58 194.844 185.691 193.181 183.912C191.519 182.133 190.687 179.62 190.687 176.372V155.028C190.687 151.78 191.519 149.267 193.181 147.488C194.844 145.709 197.241 144.82 200.373 144.82C203.505 144.82 205.903 145.709 207.565 147.488C209.228 149.267 210.059 151.78 210.059 155.028V176.372C210.059 179.62 209.228 182.133 207.565 183.912C205.903 185.691 203.505 186.58 200.373 186.58ZM200.373 180.78C202.577 180.78 203.679 179.446 203.679 176.778V154.622C203.679 151.954 202.577 150.62 200.373 150.62C198.169 150.62 197.067 151.954 197.067 154.622V176.778C197.067 179.446 198.169 180.78 200.373 180.78ZM214.374 145.4H223.828C227.115 145.4 229.512 146.173 231.02 147.72C232.528 149.228 233.282 151.567 233.282 154.738V157.232C233.282 161.447 231.89 164.115 229.106 165.236V165.352C230.653 165.816 231.735 166.763 232.354 168.194C233.011 169.625 233.34 171.539 233.34 173.936V181.07C233.34 182.23 233.379 183.177 233.456 183.912C233.533 184.608 233.727 185.304 234.036 186H227.54C227.308 185.343 227.153 184.724 227.076 184.144C226.999 183.564 226.96 182.52 226.96 181.012V173.588C226.96 171.732 226.651 170.437 226.032 169.702C225.452 168.967 224.427 168.6 222.958 168.6H220.754V186H214.374V145.4ZM223.074 162.8C224.35 162.8 225.297 162.471 225.916 161.814C226.573 161.157 226.902 160.055 226.902 158.508V155.376C226.902 153.907 226.631 152.843 226.09 152.186C225.587 151.529 224.775 151.2 223.654 151.2H220.754V162.8H223.074ZM246.061 186.58C242.967 186.58 240.628 185.71 239.043 183.97C237.457 182.191 236.665 179.659 236.665 176.372V174.052H242.697V176.836C242.697 179.465 243.799 180.78 246.003 180.78C247.085 180.78 247.897 180.471 248.439 179.852C249.019 179.195 249.309 178.151 249.309 176.72C249.309 175.019 248.922 173.53 248.149 172.254C247.375 170.939 245.945 169.373 243.857 167.556C241.227 165.236 239.391 163.148 238.347 161.292C237.303 159.397 236.781 157.271 236.781 154.912C236.781 151.703 237.593 149.228 239.217 147.488C240.841 145.709 243.199 144.82 246.293 144.82C249.347 144.82 251.648 145.709 253.195 147.488C254.78 149.228 255.573 151.741 255.573 155.028V156.71H249.541V154.622C249.541 153.23 249.27 152.225 248.729 151.606C248.187 150.949 247.395 150.62 246.351 150.62C244.224 150.62 243.161 151.915 243.161 154.506C243.161 155.975 243.547 157.348 244.321 158.624C245.133 159.9 246.583 161.447 248.671 163.264C251.339 165.584 253.175 167.691 254.181 169.586C255.186 171.481 255.689 173.704 255.689 176.256C255.689 179.581 254.857 182.133 253.195 183.912C251.571 185.691 249.193 186.58 246.061 186.58ZM268.636 145.4H286.036V151.2H275.016V161.93H283.774V167.73H275.016V180.2H286.036V186H268.636V145.4ZM289.706 145.4H297.71L303.916 169.702H304.032V145.4H309.716V186H303.162L295.506 156.362H295.39V186H289.706V145.4ZM312.776 145.4H319.214L323.39 176.894H323.506L327.682 145.4H333.54L327.392 186H318.924L312.776 145.4ZM342.463 168.716L334.749 145.4H341.535L345.885 160.306H346.001L350.351 145.4H356.557L348.843 168.716V186H342.463V168.716ZM354.05 179.852H360.198V186H354.05V179.852Z" fill="#FF5E19"/>
<path d="M19.0772 9.4H28.7052C31.9919 9.4 34.3892 10.1733 35.8972 11.72C37.4052 13.228 38.1592 15.5673 38.1592 18.738V20.362C38.1592 22.45 37.8112 24.1513 37.1152 25.466C36.4579 26.7807 35.4332 27.728 34.0412 28.308V28.424C37.2119 29.5067 38.7972 32.3293 38.7972 36.892V40.372C38.7972 43.504 37.9659 45.9013 36.3032 47.564C34.6792 49.188 32.2819 50 29.1112 50H19.0772V9.4ZM27.9512 25.93C29.2272 25.93 30.1746 25.6013 30.7932 24.944C31.4506 24.2867 31.7792 23.1847 31.7792 21.638V19.376C31.7792 17.9067 31.5086 16.8433 30.9672 16.186C30.4646 15.5287 29.6526 15.2 28.5312 15.2H25.4572V25.93H27.9512ZM29.1112 44.2C30.2326 44.2 31.0639 43.91 31.6052 43.33C32.1466 42.7113 32.4172 41.6673 32.4172 40.198V36.66C32.4172 34.804 32.0886 33.528 31.4312 32.832C30.8126 32.0973 29.7686 31.73 28.2992 31.73H25.4572V44.2H29.1112ZM42.5264 9.4H59.9264V15.2H48.9064V25.93H57.6644V31.73H48.9064V44.2H59.9264V50H42.5264V9.4ZM77.8738 15.2H71.2038V9.4H90.9238V15.2H84.2538V50H77.8738V15.2ZM94.0128 9.4H100.393V25.93H107.237V9.4H113.617V50H107.237V31.73H100.393V50H94.0128V9.4ZM118.368 9.4H135.768V15.2H124.748V25.93H133.506V31.73H124.748V44.2H135.768V50H118.368V9.4ZM148.728 9.4H158.356C161.642 9.4 164.04 10.1733 165.548 11.72C167.056 13.228 167.81 15.5673 167.81 18.738V20.362C167.81 22.45 167.462 24.1513 166.766 25.466C166.108 26.7807 165.084 27.728 163.692 28.308V28.424C166.862 29.5067 168.448 32.3293 168.448 36.892V40.372C168.448 43.504 167.616 45.9013 165.954 47.564C164.33 49.188 161.932 50 158.762 50H148.728V9.4ZM157.602 25.93C158.878 25.93 159.825 25.6013 160.444 24.944C161.101 24.2867 161.43 23.1847 161.43 21.638V19.376C161.43 17.9067 161.159 16.8433 160.618 16.186C160.115 15.5287 159.303 15.2 158.182 15.2H155.108V25.93H157.602ZM158.762 44.2C159.883 44.2 160.714 43.91 161.256 43.33C161.797 42.7113 162.068 41.6673 162.068 40.198V36.66C162.068 34.804 161.739 33.528 161.082 32.832C160.463 32.0973 159.419 31.73 157.95 31.73H155.108V44.2H158.762ZM172.177 9.4H181.631C184.917 9.4 187.315 10.1733 188.823 11.72C190.331 13.228 191.085 15.5673 191.085 18.738V21.232C191.085 25.4467 189.693 28.1147 186.909 29.236V29.352C188.455 29.816 189.538 30.7633 190.157 32.194C190.814 33.6247 191.143 35.5387 191.143 37.936V45.07C191.143 46.23 191.181 47.1773 191.259 47.912C191.336 48.608 191.529 49.304 191.839 50H185.343C185.111 49.3427 184.956 48.724 184.879 48.144C184.801 47.564 184.763 46.52 184.763 45.012V37.588C184.763 35.732 184.453 34.4367 183.835 33.702C183.255 32.9673 182.23 32.6 180.761 32.6H178.557V50H172.177V9.4ZM180.877 26.8C182.153 26.8 183.1 26.4713 183.719 25.814C184.376 25.1567 184.705 24.0547 184.705 22.508V19.376C184.705 17.9067 184.434 16.8433 183.893 16.186C183.39 15.5287 182.578 15.2 181.457 15.2H178.557V26.8H180.877ZM200.499 9.4H209.141L215.753 50H209.373L208.213 41.938V42.054H200.963L199.803 50H193.887L200.499 9.4ZM207.459 36.544L204.617 16.476H204.501L201.717 36.544H207.459ZM218.849 9.4H226.853L233.059 33.702H233.175V9.4H238.859V50H232.305L224.649 20.362H224.533V50H218.849V9.4ZM243.601 9.4H253.345C256.515 9.4 258.893 10.2507 260.479 11.952C262.064 13.6533 262.857 16.1473 262.857 19.434V39.966C262.857 43.2527 262.064 45.7467 260.479 47.448C258.893 49.1493 256.515 50 253.345 50H243.601V9.4ZM253.229 44.2C254.273 44.2 255.065 43.8907 255.607 43.272C256.187 42.6533 256.477 41.648 256.477 40.256V19.144C256.477 17.752 256.187 16.7467 255.607 16.128C255.065 15.5093 254.273 15.2 253.229 15.2H249.981V44.2H253.229ZM281.44 15.2H274.77V9.4H294.49V15.2H287.82V50H281.44V15.2ZM297.579 9.4H303.959V25.93H310.803V9.4H317.183V50H310.803V31.73H303.959V50H297.579V9.4ZM326.865 9.4H335.507L342.119 50H335.739L334.579 41.938V42.054H327.329L326.169 50H320.253L326.865 9.4ZM333.825 36.544L330.983 16.476H330.867L328.083 36.544H333.825ZM347.54 15.2H340.87V9.4H360.59V15.2H353.92V50H347.54V15.2ZM24.4139 115.58C21.3592 115.58 19.0199 114.71 17.3959 112.97C15.8106 111.23 15.0179 108.775 15.0179 105.604V83.796C15.0179 80.6253 15.8106 78.17 17.3959 76.43C19.0199 74.69 21.3592 73.82 24.4139 73.82C27.4686 73.82 29.7886 74.69 31.3739 76.43C32.9979 78.17 33.8099 80.6253 33.8099 83.796V88.088H27.7779V83.39C27.7779 80.8767 26.7146 79.62 24.5879 79.62C22.4612 79.62 21.3979 80.8767 21.3979 83.39V106.068C21.3979 108.543 22.4612 109.78 24.5879 109.78C26.7146 109.78 27.7779 108.543 27.7779 106.068V99.862H33.8099V105.604C33.8099 108.775 32.9979 111.23 31.3739 112.97C29.7886 114.71 27.4686 115.58 24.4139 115.58ZM46.907 115.58C43.8137 115.58 41.455 114.71 39.831 112.97C38.207 111.191 37.395 108.659 37.395 105.372V74.4H43.775V105.836C43.775 107.228 44.0457 108.233 44.587 108.852C45.167 109.471 45.979 109.78 47.023 109.78C48.067 109.78 48.8597 109.471 49.401 108.852C49.981 108.233 50.271 107.228 50.271 105.836V74.4H56.419V105.372C56.419 108.659 55.607 111.191 53.983 112.97C52.359 114.71 50.0004 115.58 46.907 115.58ZM69.257 115.58C66.1636 115.58 63.8243 114.71 62.239 112.97C60.6536 111.191 59.861 108.659 59.861 105.372V103.052H65.893V105.836C65.893 108.465 66.995 109.78 69.199 109.78C70.2816 109.78 71.0936 109.471 71.635 108.852C72.215 108.195 72.505 107.151 72.505 105.72C72.505 104.019 72.1183 102.53 71.345 101.254C70.5716 99.9393 69.141 98.3733 67.053 96.556C64.4236 94.236 62.587 92.148 61.543 90.292C60.499 88.3973 59.977 86.2707 59.977 83.912C59.977 80.7027 60.789 78.228 62.413 76.488C64.037 74.7093 66.3956 73.82 69.489 73.82C72.5436 73.82 74.8443 74.7093 76.391 76.488C77.9763 78.228 78.769 80.7413 78.769 84.028V85.71H72.737V83.622C72.737 82.23 72.4663 81.2247 71.925 80.606C71.3836 79.9487 70.591 79.62 69.547 79.62C67.4203 79.62 66.357 80.9153 66.357 83.506C66.357 84.9753 66.7436 86.348 67.517 87.624C68.329 88.9 69.779 90.4467 71.867 92.264C74.535 94.584 76.3716 96.6913 77.377 98.586C78.3823 100.481 78.885 102.704 78.885 105.256C78.885 108.581 78.0536 111.133 76.391 112.912C74.767 114.691 72.389 115.58 69.257 115.58ZM87.531 80.2H80.861V74.4H100.581V80.2H93.911V115H87.531V80.2ZM112.665 115.58C109.533 115.58 107.136 114.691 105.473 112.912C103.811 111.133 102.979 108.62 102.979 105.372V84.028C102.979 80.78 103.811 78.2667 105.473 76.488C107.136 74.7093 109.533 73.82 112.665 73.82C115.797 73.82 118.195 74.7093 119.857 76.488C121.52 78.2667 122.351 80.78 122.351 84.028V105.372C122.351 108.62 121.52 111.133 119.857 112.912C118.195 114.691 115.797 115.58 112.665 115.58ZM112.665 109.78C114.869 109.78 115.971 108.446 115.971 105.778V83.622C115.971 80.954 114.869 79.62 112.665 79.62C110.461 79.62 109.359 80.954 109.359 83.622V105.778C109.359 108.446 110.461 109.78 112.665 109.78ZM126.666 74.4H135.772L139.832 103.458H139.948L144.008 74.4H153.114V115H147.082V84.26H146.966L142.326 115H136.99L132.35 84.26H132.234V115H126.666V74.4ZM157.875 74.4H175.275V80.2H164.255V90.93H173.013V96.73H164.255V109.2H175.275V115H157.875V74.4ZM178.945 74.4H188.399C191.686 74.4 194.083 75.1733 195.591 76.72C197.099 78.228 197.853 80.5673 197.853 83.738V86.232C197.853 90.4467 196.461 93.1147 193.677 94.236V94.352C195.224 94.816 196.307 95.7633 196.925 97.194C197.583 98.6247 197.911 100.539 197.911 102.936V110.07C197.911 111.23 197.95 112.177 198.027 112.912C198.105 113.608 198.298 114.304 198.607 115H192.111C191.879 114.343 191.725 113.724 191.647 113.144C191.57 112.564 191.531 111.52 191.531 110.012V102.588C191.531 100.732 191.222 99.4367 190.603 98.702C190.023 97.9673 188.999 97.6 187.529 97.6H185.325V115H178.945V74.4ZM187.645 91.8C188.921 91.8 189.869 91.4713 190.487 90.814C191.145 90.1567 191.473 89.0547 191.473 87.508V84.376C191.473 82.9067 191.203 81.8433 190.661 81.186C190.159 80.5287 189.347 80.2 188.225 80.2H185.325V91.8H187.645ZM210.632 115.58C207.539 115.58 205.199 114.71 203.614 112.97C202.029 111.191 201.236 108.659 201.236 105.372V103.052H207.268V105.836C207.268 108.465 208.37 109.78 210.574 109.78C211.657 109.78 212.469 109.471 213.01 108.852C213.59 108.195 213.88 107.151 213.88 105.72C213.88 104.019 213.493 102.53 212.72 101.254C211.947 99.9393 210.516 98.3733 208.428 96.556C205.799 94.236 203.962 92.148 202.918 90.292C201.874 88.3973 201.352 86.2707 201.352 83.912C201.352 80.7027 202.164 78.228 203.788 76.488C205.412 74.7093 207.771 73.82 210.864 73.82C213.919 73.82 216.219 74.7093 217.766 76.488C219.351 78.228 220.144 80.7413 220.144 84.028V85.71H214.112V83.622C214.112 82.23 213.841 81.2247 213.3 80.606C212.759 79.9487 211.966 79.62 210.922 79.62C208.795 79.62 207.732 80.9153 207.732 83.506C207.732 84.9753 208.119 86.348 208.892 87.624C209.704 88.9 211.154 90.4467 213.242 92.264C215.91 94.584 217.747 96.6913 218.752 98.586C219.757 100.481 220.26 102.704 220.26 105.256C220.26 108.581 219.429 111.133 217.766 112.912C216.142 114.691 213.764 115.58 210.632 115.58ZM231.699 74.4H237.847L240.689 105.604H240.805L243.821 74.4H250.781L253.797 105.604H253.913L256.755 74.4H262.265L258.147 115H250.201L247.301 87.624H247.185L244.285 115H235.817L231.699 74.4ZM269.629 74.4H278.271L284.883 115H278.503L277.343 106.938V107.054H270.093L268.933 115H263.017L269.629 74.4ZM276.589 101.544L273.747 81.476H273.631L270.847 101.544H276.589ZM287.979 74.4H295.983L302.189 98.702H302.305V74.4H307.989V115H301.435L293.779 85.362H293.663V115H287.979V74.4ZM317.719 80.2H311.049V74.4H330.769V80.2H324.099V115H317.719V80.2ZM349.817 115.58C347.497 115.58 345.737 114.787 344.539 113.202C343.34 111.617 342.741 109.316 342.741 106.3V102.066C342.741 99.9393 343.108 98.1607 343.843 96.73C344.577 95.2993 345.776 94.2553 347.439 93.598V93.482C345.931 92.8633 344.809 91.8773 344.075 90.524C343.379 89.132 343.031 87.3533 343.031 85.188V84.434C343.031 81.1473 343.823 78.6533 345.409 76.952C346.994 75.2507 349.372 74.4 352.543 74.4H359.851V80.2H352.659C351.615 80.2 350.803 80.5093 350.223 81.128C349.681 81.7467 349.411 82.752 349.411 84.144V86.638C349.411 88.1847 349.72 89.2867 350.339 89.944C350.996 90.6013 351.963 90.93 353.239 90.93H355.733V86.406H361.997V90.93H363.795V96.73H361.997V110.07C361.997 111.23 362.035 112.177 362.113 112.912C362.19 113.608 362.383 114.304 362.693 115H356.313C356.003 114.149 355.81 113.086 355.733 111.81H355.617C354.921 113.086 354.109 114.033 353.181 114.652C352.291 115.271 351.17 115.58 349.817 115.58ZM352.195 109.78C354.205 109.78 355.385 108.562 355.733 106.126V96.73H353.297C351.827 96.73 350.764 97.136 350.107 97.948C349.449 98.7213 349.121 100.036 349.121 101.892V106.01C349.121 107.363 349.391 108.33 349.933 108.91C350.474 109.49 351.228 109.78 352.195 109.78ZM26.7645 180.58C23.7098 180.58 21.3705 179.71 19.7465 177.97C18.1612 176.23 17.3685 173.775 17.3685 170.604V148.796C17.3685 145.625 18.1612 143.17 19.7465 141.43C21.3705 139.69 23.7098 138.82 26.7645 138.82C29.8192 138.82 32.1392 139.69 33.7245 141.43C35.3485 143.17 36.1605 145.625 36.1605 148.796V153.088H30.1285V148.39C30.1285 145.877 29.0652 144.62 26.9385 144.62C24.8118 144.62 23.7485 145.877 23.7485 148.39V171.068C23.7485 173.543 24.8118 174.78 26.9385 174.78C29.0652 174.78 30.1285 173.543 30.1285 171.068V164.862H36.1605V170.604C36.1605 173.775 35.3485 176.23 33.7245 177.97C32.1392 179.71 29.8192 180.58 26.7645 180.58ZM49.3129 180.58C46.1809 180.58 43.7836 179.691 42.1209 177.912C40.4582 176.133 39.6269 173.62 39.6269 170.372V149.028C39.6269 145.78 40.4582 143.267 42.1209 141.488C43.7836 139.709 46.1809 138.82 49.3129 138.82C52.4449 138.82 54.8422 139.709 56.5049 141.488C58.1676 143.267 58.9989 145.78 58.9989 149.028V170.372C58.9989 173.62 58.1676 176.133 56.5049 177.912C54.8422 179.691 52.4449 180.58 49.3129 180.58ZM49.3129 174.78C51.5169 174.78 52.6189 173.446 52.6189 170.778V148.622C52.6189 145.954 51.5169 144.62 49.3129 144.62C47.1089 144.62 46.0069 145.954 46.0069 148.622V170.778C46.0069 173.446 47.1089 174.78 49.3129 174.78ZM63.3135 139.4H72.4195L76.4795 168.458H76.5955L80.6555 139.4H89.7615V180H83.7295V149.26H83.6135L78.9735 180H73.6375L68.9975 149.26H68.8815V180H63.3135V139.4ZM94.5225 139.4H103.919C107.089 139.4 109.467 140.251 111.053 141.952C112.638 143.653 113.431 146.147 113.431 149.434V153.436C113.431 156.723 112.638 159.217 111.053 160.918C109.467 162.619 107.089 163.47 103.919 163.47H100.903V180H94.5225V139.4ZM103.919 157.67C104.963 157.67 105.736 157.38 106.239 156.8C106.78 156.22 107.051 155.234 107.051 153.842V149.028C107.051 147.636 106.78 146.65 106.239 146.07C105.736 145.49 104.963 145.2 103.919 145.2H100.903V157.67H103.919ZM116.896 139.4H134.296V145.2H123.276V155.93H132.034V161.73H123.276V174.2H134.296V180H116.896V139.4ZM142.954 145.2H136.284V139.4H156.004V145.2H149.334V180H142.954V145.2ZM159.093 139.4H165.473V180H159.093V139.4ZM175.239 145.2H168.569V139.4H188.289V145.2H181.619V180H175.239V145.2ZM200.373 180.58C197.241 180.58 194.844 179.691 193.181 177.912C191.519 176.133 190.687 173.62 190.687 170.372V149.028C190.687 145.78 191.519 143.267 193.181 141.488C194.844 139.709 197.241 138.82 200.373 138.82C203.505 138.82 205.903 139.709 207.565 141.488C209.228 143.267 210.059 145.78 210.059 149.028V170.372C210.059 173.62 209.228 176.133 207.565 177.912C205.903 179.691 203.505 180.58 200.373 180.58ZM200.373 174.78C202.577 174.78 203.679 173.446 203.679 170.778V148.622C203.679 145.954 202.577 144.62 200.373 144.62C198.169 144.62 197.067 145.954 197.067 148.622V170.778C197.067 173.446 198.169 174.78 200.373 174.78ZM214.374 139.4H223.828C227.115 139.4 229.512 140.173 231.02 141.72C232.528 143.228 233.282 145.567 233.282 148.738V151.232C233.282 155.447 231.89 158.115 229.106 159.236V159.352C230.653 159.816 231.735 160.763 232.354 162.194C233.011 163.625 233.34 165.539 233.34 167.936V175.07C233.34 176.23 233.379 177.177 233.456 177.912C233.533 178.608 233.727 179.304 234.036 180H227.54C227.308 179.343 227.153 178.724 227.076 178.144C226.999 177.564 226.96 176.52 226.96 175.012V167.588C226.96 165.732 226.651 164.437 226.032 163.702C225.452 162.967 224.427 162.6 222.958 162.6H220.754V180H214.374V139.4ZM223.074 156.8C224.35 156.8 225.297 156.471 225.916 155.814C226.573 155.157 226.902 154.055 226.902 152.508V149.376C226.902 147.907 226.631 146.843 226.09 146.186C225.587 145.529 224.775 145.2 223.654 145.2H220.754V156.8H223.074ZM246.061 180.58C242.967 180.58 240.628 179.71 239.043 177.97C237.457 176.191 236.665 173.659 236.665 170.372V168.052H242.697V170.836C242.697 173.465 243.799 174.78 246.003 174.78C247.085 174.78 247.897 174.471 248.439 173.852C249.019 173.195 249.309 172.151 249.309 170.72C249.309 169.019 248.922 167.53 248.149 166.254C247.375 164.939 245.945 163.373 243.857 161.556C241.227 159.236 239.391 157.148 238.347 155.292C237.303 153.397 236.781 151.271 236.781 148.912C236.781 145.703 237.593 143.228 239.217 141.488C240.841 139.709 243.199 138.82 246.293 138.82C249.347 138.82 251.648 139.709 253.195 141.488C254.78 143.228 255.573 145.741 255.573 149.028V150.71H249.541V148.622C249.541 147.23 249.27 146.225 248.729 145.606C248.187 144.949 247.395 144.62 246.351 144.62C244.224 144.62 243.161 145.915 243.161 148.506C243.161 149.975 243.547 151.348 244.321 152.624C245.133 153.9 246.583 155.447 248.671 157.264C251.339 159.584 253.175 161.691 254.181 163.586C255.186 165.481 255.689 167.704 255.689 170.256C255.689 173.581 254.857 176.133 253.195 177.912C251.571 179.691 249.193 180.58 246.061 180.58ZM268.636 139.4H286.036V145.2H275.016V155.93H283.774V161.73H275.016V174.2H286.036V180H268.636V139.4ZM289.706 139.4H297.71L303.916 163.702H304.032V139.4H309.716V180H303.162L295.506 150.362H295.39V180H289.706V139.4ZM312.776 139.4H319.214L323.39 170.894H323.506L327.682 139.4H333.54L327.392 180H318.924L312.776 139.4ZM342.463 162.716L334.749 139.4H341.535L345.885 154.306H346.001L350.351 139.4H356.557L348.843 162.716V180H342.463V162.716ZM354.05 173.852H360.198V180H354.05V173.852Z" fill="white"/>
</svg>
