<svg width="486" height="501" viewBox="0 0 486 501" fill="none" xmlns="http://www.w3.org/2000/svg">
<mask id="path-1-outside-1_1_1019" maskUnits="userSpaceOnUse" x="318.813" y="117.156" width="167" height="259" fill="black">
<rect fill="white" x="318.813" y="117.156" width="167" height="259"/>
<path d="M461.228 271.264C487.128 226.653 465.216 187.71 413.599 186.713C384.47 144.49 356.47 118.195 340.463 118.169C340.39 118.152 340.314 118.152 340.24 118.168C340.167 118.184 340.098 118.217 340.04 118.264C339.981 118.311 339.933 118.37 339.9 118.438C339.868 118.505 339.851 118.579 339.851 118.655C339.851 118.73 339.868 118.804 339.9 118.872C339.933 118.939 339.981 118.999 340.04 119.045C340.098 119.092 340.167 119.125 340.24 119.141C340.314 119.158 340.39 119.157 340.463 119.14H341.801C351.773 123.654 361.456 136.538 345.213 150.394C340.809 153.867 335.825 156.533 330.491 158.267C330.44 158.162 330.354 158.078 330.248 158.031C330.141 157.983 330.022 157.974 329.91 158.005C329.797 158.036 329.7 158.106 329.633 158.201C329.567 158.297 329.536 158.413 329.546 158.529C343.979 230.694 418.191 351.301 461.7 372.032L325.111 345.58C324.167 345.187 323.17 344.714 322.094 344.137C322.029 344.107 321.958 344.091 321.886 344.089C321.815 344.088 321.743 344.101 321.677 344.128C321.611 344.155 321.55 344.196 321.5 344.247C321.45 344.298 321.411 344.359 321.385 344.426C320.887 345.738 320.388 347.05 319.837 348.519C319.806 348.616 319.805 348.72 319.835 348.817C319.865 348.915 319.924 349 320.004 349.063C320.084 349.126 320.181 349.163 320.283 349.169C320.384 349.175 320.485 349.15 320.572 349.097L325.059 346.473L467.158 374.158C470.614 375.311 474.385 375.056 477.655 373.449C491.747 365.655 485.16 324.561 461.228 271.264ZM409.636 319.785C383.63 284.522 362.047 246.203 345.37 205.685C369.408 192.906 395.02 186.634 417.561 187.972C464.324 190.78 484.058 225.734 462.172 267.222C450.81 288.872 430.997 307.057 409.636 319.785Z"/>
</mask>
<path d="M461.228 271.264C487.128 226.653 465.216 187.71 413.599 186.713C384.47 144.49 356.47 118.195 340.463 118.169C340.39 118.152 340.314 118.152 340.24 118.168C340.167 118.184 340.098 118.217 340.04 118.264C339.981 118.311 339.933 118.37 339.9 118.438C339.868 118.505 339.851 118.579 339.851 118.655C339.851 118.73 339.868 118.804 339.9 118.872C339.933 118.939 339.981 118.999 340.04 119.045C340.098 119.092 340.167 119.125 340.24 119.141C340.314 119.158 340.39 119.157 340.463 119.14H341.801C351.773 123.654 361.456 136.538 345.213 150.394C340.809 153.867 335.825 156.533 330.491 158.267C330.44 158.162 330.354 158.078 330.248 158.031C330.141 157.983 330.022 157.974 329.91 158.005C329.797 158.036 329.7 158.106 329.633 158.201C329.567 158.297 329.536 158.413 329.546 158.529C343.979 230.694 418.191 351.301 461.7 372.032L325.111 345.58C324.167 345.187 323.17 344.714 322.094 344.137C322.029 344.107 321.958 344.091 321.886 344.089C321.815 344.088 321.743 344.101 321.677 344.128C321.611 344.155 321.55 344.196 321.5 344.247C321.45 344.298 321.411 344.359 321.385 344.426C320.887 345.738 320.388 347.05 319.837 348.519C319.806 348.616 319.805 348.72 319.835 348.817C319.865 348.915 319.924 349 320.004 349.063C320.084 349.126 320.181 349.163 320.283 349.169C320.384 349.175 320.485 349.15 320.572 349.097L325.059 346.473L467.158 374.158C470.614 375.311 474.385 375.056 477.655 373.449C491.747 365.655 485.16 324.561 461.228 271.264ZM409.636 319.785C383.63 284.522 362.047 246.203 345.37 205.685C369.408 192.906 395.02 186.634 417.561 187.972C464.324 190.78 484.058 225.734 462.172 267.222C450.81 288.872 430.997 307.057 409.636 319.785Z" fill="white"/>
<path d="M461.228 271.264C487.128 226.653 465.216 187.71 413.599 186.713C384.47 144.49 356.47 118.195 340.463 118.169C340.39 118.152 340.314 118.152 340.24 118.168C340.167 118.184 340.098 118.217 340.04 118.264C339.981 118.311 339.933 118.37 339.9 118.438C339.868 118.505 339.851 118.579 339.851 118.655C339.851 118.73 339.868 118.804 339.9 118.872C339.933 118.939 339.981 118.999 340.04 119.045C340.098 119.092 340.167 119.125 340.24 119.141C340.314 119.158 340.39 119.157 340.463 119.14H341.801C351.773 123.654 361.456 136.538 345.213 150.394C340.809 153.867 335.825 156.533 330.491 158.267C330.44 158.162 330.354 158.078 330.248 158.031C330.141 157.983 330.022 157.974 329.91 158.005C329.797 158.036 329.7 158.106 329.633 158.201C329.567 158.297 329.536 158.413 329.546 158.529C343.979 230.694 418.191 351.301 461.7 372.032L325.111 345.58C324.167 345.187 323.17 344.714 322.094 344.137C322.029 344.107 321.958 344.091 321.886 344.089C321.815 344.088 321.743 344.101 321.677 344.128C321.611 344.155 321.55 344.196 321.5 344.247C321.45 344.298 321.411 344.359 321.385 344.426C320.887 345.738 320.388 347.05 319.837 348.519C319.806 348.616 319.805 348.72 319.835 348.817C319.865 348.915 319.924 349 320.004 349.063C320.084 349.126 320.181 349.163 320.283 349.169C320.384 349.175 320.485 349.15 320.572 349.097L325.059 346.473L467.158 374.158C470.614 375.311 474.385 375.056 477.655 373.449C491.747 365.655 485.16 324.561 461.228 271.264ZM409.636 319.785C383.63 284.522 362.047 246.203 345.37 205.685C369.408 192.906 395.02 186.634 417.561 187.972C464.324 190.78 484.058 225.734 462.172 267.222C450.81 288.872 430.997 307.057 409.636 319.785Z" stroke="white" stroke-width="0.6" mask="url(#path-1-outside-1_1_1019)"/>
<mask id="path-2-outside-2_1_1019" maskUnits="userSpaceOnUse" x="-0.0390625" y="152.466" width="336" height="349" fill="black">
<rect fill="white" x="-0.0390625" y="152.466" width="336" height="349"/>
<path d="M333.615 467.001L298.005 402.866C297.939 402.751 297.83 402.668 297.702 402.633C297.574 402.599 297.438 402.616 297.323 402.683C297.208 402.749 297.124 402.858 297.09 402.986C297.055 403.114 297.073 403.25 297.139 403.365L332.749 467.368C334.113 469.814 334.516 472.68 333.881 475.407C333.245 478.134 331.616 480.526 329.311 482.116C320.029 488.563 310.132 494.074 299.763 498.57C297.196 499.689 294.304 499.809 291.654 498.906C289.003 498.003 286.785 496.142 285.435 493.689L232.427 398.431L279.216 372.19C279.306 372.151 279.383 372.088 279.437 372.006C279.491 371.924 279.52 371.828 279.52 371.73C279.52 371.632 279.491 371.537 279.437 371.455C279.383 371.373 279.306 371.309 279.216 371.271C283.992 353.794 290.5 329.625 291.287 326.398C289.581 317.79 285.698 298.135 283.966 289.502L279.557 289.056L277.93 293.307L273.941 292.651L258.511 324.377C255.901 329.745 251.316 333.894 245.715 335.959C240.115 338.023 233.934 337.841 228.464 335.451L188.288 316.085C188.333 315.99 188.348 315.884 188.329 315.781C188.31 315.678 188.259 315.583 188.184 315.51C188.108 315.438 188.012 315.391 187.908 315.376C187.804 315.361 187.699 315.38 187.606 315.429L161.968 329.862C135.044 345.029 133.102 372.951 142.811 392.842C116.551 391.302 91.5399 381.111 71.6819 363.859C51.8239 346.608 38.2369 323.266 33.0418 297.479C40.0301 296.814 46.5418 293.643 51.3747 288.552C56.2076 283.461 59.0354 276.793 59.336 269.779C59.6366 262.766 57.3897 255.881 53.0102 250.394C48.6307 244.908 42.4143 241.192 35.5086 239.931C40.4093 223.402 48.8305 208.131 60.1933 195.166C71.5562 182.2 85.5914 171.849 101.334 164.823C117.077 157.797 134.155 154.262 151.394 154.462C168.632 154.662 185.623 158.592 201.199 165.982C201.259 166.022 201.326 166.048 201.397 166.06C201.468 166.071 201.54 166.067 201.61 166.048C201.679 166.028 201.743 165.995 201.798 165.948C201.853 165.902 201.897 165.844 201.927 165.78C201.958 165.715 201.974 165.644 201.975 165.572C201.975 165.5 201.961 165.429 201.931 165.364C201.902 165.298 201.859 165.24 201.805 165.193C201.751 165.145 201.688 165.11 201.619 165.09C185.906 157.634 168.764 153.671 151.373 153.474C133.982 153.277 116.754 156.85 100.876 163.947C84.998 171.045 70.846 181.498 59.3941 194.588C47.9421 207.678 39.4621 223.093 34.5376 239.774C30.4938 239.14 26.3618 239.367 22.4119 240.441C18.462 241.514 14.7832 243.409 11.6163 246.003C8.44936 248.596 5.86562 251.828 4.03411 255.489C2.2026 259.149 1.16459 263.155 0.98801 267.245C0.811425 271.334 1.50024 275.415 3.00938 279.219C4.51853 283.024 6.81399 286.467 9.7456 289.324C12.6772 292.18 16.1789 294.386 20.0216 295.796C23.8642 297.205 27.9613 297.788 32.0446 297.506C37.319 323.608 51.1184 347.217 71.2735 364.622C91.4286 382.027 116.796 392.24 143.388 393.655C150.631 407.695 165.064 419.372 183.276 419.372C190.12 419.312 196.873 417.801 203.089 414.937L231.508 399.009L284.517 494.293C285.997 496.949 288.414 498.958 291.296 499.929C294.178 500.899 297.319 500.761 300.104 499.541C310.544 495.04 320.504 489.501 329.836 483.009C332.344 481.288 334.12 478.695 334.819 475.735C335.518 472.775 335.088 469.661 333.615 467.001ZM35.1412 240.902C41.8351 242.095 47.8685 245.677 52.1213 250.983C56.3741 256.288 58.5573 262.956 58.2655 269.75C57.9738 276.543 55.227 282.999 50.535 287.92C45.843 292.842 39.5247 295.893 32.7532 296.508C29.1853 278.042 30.0033 258.995 35.1412 240.902ZM202.669 414.098C149.24 437.925 111.82 359.226 162.44 330.728L167.321 327.972C164.933 351.144 181.99 394.39 211.355 409.322L202.669 414.098Z"/>
</mask>
<path d="M333.615 467.001L298.005 402.866C297.939 402.751 297.83 402.668 297.702 402.633C297.574 402.599 297.438 402.616 297.323 402.683C297.208 402.749 297.124 402.858 297.09 402.986C297.055 403.114 297.073 403.25 297.139 403.365L332.749 467.368C334.113 469.814 334.516 472.68 333.881 475.407C333.245 478.134 331.616 480.526 329.311 482.116C320.029 488.563 310.132 494.074 299.763 498.57C297.196 499.689 294.304 499.809 291.654 498.906C289.003 498.003 286.785 496.142 285.435 493.689L232.427 398.431L279.216 372.19C279.306 372.151 279.383 372.088 279.437 372.006C279.491 371.924 279.52 371.828 279.52 371.73C279.52 371.632 279.491 371.537 279.437 371.455C279.383 371.373 279.306 371.309 279.216 371.271C283.992 353.794 290.5 329.625 291.287 326.398C289.581 317.79 285.698 298.135 283.966 289.502L279.557 289.056L277.93 293.307L273.941 292.651L258.511 324.377C255.901 329.745 251.316 333.894 245.715 335.959C240.115 338.023 233.934 337.841 228.464 335.451L188.288 316.085C188.333 315.99 188.348 315.884 188.329 315.781C188.31 315.678 188.259 315.583 188.184 315.51C188.108 315.438 188.012 315.391 187.908 315.376C187.804 315.361 187.699 315.38 187.606 315.429L161.968 329.862C135.044 345.029 133.102 372.951 142.811 392.842C116.551 391.302 91.5399 381.111 71.6819 363.859C51.8239 346.608 38.2369 323.266 33.0418 297.479C40.0301 296.814 46.5418 293.643 51.3747 288.552C56.2076 283.461 59.0354 276.793 59.336 269.779C59.6366 262.766 57.3897 255.881 53.0102 250.394C48.6307 244.908 42.4143 241.192 35.5086 239.931C40.4093 223.402 48.8305 208.131 60.1933 195.166C71.5562 182.2 85.5914 171.849 101.334 164.823C117.077 157.797 134.155 154.262 151.394 154.462C168.632 154.662 185.623 158.592 201.199 165.982C201.259 166.022 201.326 166.048 201.397 166.06C201.468 166.071 201.54 166.067 201.61 166.048C201.679 166.028 201.743 165.995 201.798 165.948C201.853 165.902 201.897 165.844 201.927 165.78C201.958 165.715 201.974 165.644 201.975 165.572C201.975 165.5 201.961 165.429 201.931 165.364C201.902 165.298 201.859 165.24 201.805 165.193C201.751 165.145 201.688 165.11 201.619 165.09C185.906 157.634 168.764 153.671 151.373 153.474C133.982 153.277 116.754 156.85 100.876 163.947C84.998 171.045 70.846 181.498 59.3941 194.588C47.9421 207.678 39.4621 223.093 34.5376 239.774C30.4938 239.14 26.3618 239.367 22.4119 240.441C18.462 241.514 14.7832 243.409 11.6163 246.003C8.44936 248.596 5.86562 251.828 4.03411 255.489C2.2026 259.149 1.16459 263.155 0.98801 267.245C0.811425 271.334 1.50024 275.415 3.00938 279.219C4.51853 283.024 6.81399 286.467 9.7456 289.324C12.6772 292.18 16.1789 294.386 20.0216 295.796C23.8642 297.205 27.9613 297.788 32.0446 297.506C37.319 323.608 51.1184 347.217 71.2735 364.622C91.4286 382.027 116.796 392.24 143.388 393.655C150.631 407.695 165.064 419.372 183.276 419.372C190.12 419.312 196.873 417.801 203.089 414.937L231.508 399.009L284.517 494.293C285.997 496.949 288.414 498.958 291.296 499.929C294.178 500.899 297.319 500.761 300.104 499.541C310.544 495.04 320.504 489.501 329.836 483.009C332.344 481.288 334.12 478.695 334.819 475.735C335.518 472.775 335.088 469.661 333.615 467.001ZM35.1412 240.902C41.8351 242.095 47.8685 245.677 52.1213 250.983C56.3741 256.288 58.5573 262.956 58.2655 269.75C57.9738 276.543 55.227 282.999 50.535 287.92C45.843 292.842 39.5247 295.893 32.7532 296.508C29.1853 278.042 30.0033 258.995 35.1412 240.902ZM202.669 414.098C149.24 437.925 111.82 359.226 162.44 330.728L167.321 327.972C164.933 351.144 181.99 394.39 211.355 409.322L202.669 414.098Z" fill="white"/>
<path d="M333.615 467.001L298.005 402.866C297.939 402.751 297.83 402.668 297.702 402.633C297.574 402.599 297.438 402.616 297.323 402.683C297.208 402.749 297.124 402.858 297.09 402.986C297.055 403.114 297.073 403.25 297.139 403.365L332.749 467.368C334.113 469.814 334.516 472.68 333.881 475.407C333.245 478.134 331.616 480.526 329.311 482.116C320.029 488.563 310.132 494.074 299.763 498.57C297.196 499.689 294.304 499.809 291.654 498.906C289.003 498.003 286.785 496.142 285.435 493.689L232.427 398.431L279.216 372.19C279.306 372.151 279.383 372.088 279.437 372.006C279.491 371.924 279.52 371.828 279.52 371.73C279.52 371.632 279.491 371.537 279.437 371.455C279.383 371.373 279.306 371.309 279.216 371.271C283.992 353.794 290.5 329.625 291.287 326.398C289.581 317.79 285.698 298.135 283.966 289.502L279.557 289.056L277.93 293.307L273.941 292.651L258.511 324.377C255.901 329.745 251.316 333.894 245.715 335.959C240.115 338.023 233.934 337.841 228.464 335.451L188.288 316.085C188.333 315.99 188.348 315.884 188.329 315.781C188.31 315.678 188.259 315.583 188.184 315.51C188.108 315.438 188.012 315.391 187.908 315.376C187.804 315.361 187.699 315.38 187.606 315.429L161.968 329.862C135.044 345.029 133.102 372.951 142.811 392.842C116.551 391.302 91.5399 381.111 71.6819 363.859C51.8239 346.608 38.2369 323.266 33.0418 297.479C40.0301 296.814 46.5418 293.643 51.3747 288.552C56.2076 283.461 59.0354 276.793 59.336 269.779C59.6366 262.766 57.3897 255.881 53.0102 250.394C48.6307 244.908 42.4143 241.192 35.5086 239.931C40.4093 223.402 48.8305 208.131 60.1933 195.166C71.5562 182.2 85.5914 171.849 101.334 164.823C117.077 157.797 134.155 154.262 151.394 154.462C168.632 154.662 185.623 158.592 201.199 165.982C201.259 166.022 201.326 166.048 201.397 166.06C201.468 166.071 201.54 166.067 201.61 166.048C201.679 166.028 201.743 165.995 201.798 165.948C201.853 165.902 201.897 165.844 201.927 165.78C201.958 165.715 201.974 165.644 201.975 165.572C201.975 165.5 201.961 165.429 201.931 165.364C201.902 165.298 201.859 165.24 201.805 165.193C201.751 165.145 201.688 165.11 201.619 165.09C185.906 157.634 168.764 153.671 151.373 153.474C133.982 153.277 116.754 156.85 100.876 163.947C84.998 171.045 70.846 181.498 59.3941 194.588C47.9421 207.678 39.4621 223.093 34.5376 239.774C30.4938 239.14 26.3618 239.367 22.4119 240.441C18.462 241.514 14.7832 243.409 11.6163 246.003C8.44936 248.596 5.86562 251.828 4.03411 255.489C2.2026 259.149 1.16459 263.155 0.98801 267.245C0.811425 271.334 1.50024 275.415 3.00938 279.219C4.51853 283.024 6.81399 286.467 9.7456 289.324C12.6772 292.18 16.1789 294.386 20.0216 295.796C23.8642 297.205 27.9613 297.788 32.0446 297.506C37.319 323.608 51.1184 347.217 71.2735 364.622C91.4286 382.027 116.796 392.24 143.388 393.655C150.631 407.695 165.064 419.372 183.276 419.372C190.12 419.312 196.873 417.801 203.089 414.937L231.508 399.009L284.517 494.293C285.997 496.949 288.414 498.958 291.296 499.929C294.178 500.899 297.319 500.761 300.104 499.541C310.544 495.04 320.504 489.501 329.836 483.009C332.344 481.288 334.12 478.695 334.819 475.735C335.518 472.775 335.088 469.661 333.615 467.001ZM35.1412 240.902C41.8351 242.095 47.8685 245.677 52.1213 250.983C56.3741 256.288 58.5573 262.956 58.2655 269.75C57.9738 276.543 55.227 282.999 50.535 287.92C45.843 292.842 39.5247 295.893 32.7532 296.508C29.1853 278.042 30.0033 258.995 35.1412 240.902ZM202.669 414.098C149.24 437.925 111.82 359.226 162.44 330.728L167.321 327.972C164.933 351.144 181.99 394.39 211.355 409.322L202.669 414.098Z" stroke="white" stroke-width="0.6" mask="url(#path-2-outside-2_1_1019)"/>
<mask id="path-3-outside-3_1_1019" maskUnits="userSpaceOnUse" x="138.449" y="111.816" width="216" height="105" fill="black">
<rect fill="white" x="138.449" y="111.816" width="216" height="105"/>
<path d="M248.851 149.265C248.143 149.607 247.355 149.974 246.516 150.315C216.81 162.675 190.673 169.314 139.449 179.312C140.551 179.05 141.811 179.863 143.071 181.464C149.92 190.124 152.78 213.558 147.427 214.765C180.623 208.677 216.836 200.227 247.854 186.529C253.26 194.559 263.757 204.032 264.937 213.899C278.688 217.022 295.299 216.523 303.828 210.934C307.764 184.902 306.452 172.883 303.198 165.562C314.297 163.976 325.135 160.914 335.423 156.456C338.956 154.969 342.247 152.961 345.185 150.499C364.367 134.15 347.442 119.14 336.525 117.67C318.681 115.282 297.95 112.816 297.95 112.816C301.965 113.367 304.116 121.895 302.726 131.815C301.335 141.734 296.979 149.37 292.964 148.819C290.339 148.452 288.555 144.778 287.978 139.53C285.485 140.055 282.939 140.527 280.368 140.973C280.368 140.973 292.859 160.287 281.47 164.591C271.55 168.396 248.851 149.265 248.851 149.265Z"/>
</mask>
<path d="M248.851 149.265C248.143 149.607 247.355 149.974 246.516 150.315C216.81 162.675 190.673 169.314 139.449 179.312C140.551 179.05 141.811 179.863 143.071 181.464C149.92 190.124 152.78 213.558 147.427 214.765C180.623 208.677 216.836 200.227 247.854 186.529C253.26 194.559 263.757 204.032 264.937 213.899C278.688 217.022 295.299 216.523 303.828 210.934C307.764 184.902 306.452 172.883 303.198 165.562C314.297 163.976 325.135 160.914 335.423 156.456C338.956 154.969 342.247 152.961 345.185 150.499C364.367 134.15 347.442 119.14 336.525 117.67C318.681 115.282 297.95 112.816 297.95 112.816C301.965 113.367 304.116 121.895 302.726 131.815C301.335 141.734 296.979 149.37 292.964 148.819C290.339 148.452 288.555 144.778 287.978 139.53C285.485 140.055 282.939 140.527 280.368 140.973C280.368 140.973 292.859 160.287 281.47 164.591C271.55 168.396 248.851 149.265 248.851 149.265Z" fill="#00916E"/>
<path d="M248.851 149.265C248.143 149.607 247.355 149.974 246.516 150.315C216.81 162.675 190.673 169.314 139.449 179.312C140.551 179.05 141.811 179.863 143.071 181.464C149.92 190.124 152.78 213.558 147.427 214.765C180.623 208.677 216.836 200.227 247.854 186.529C253.26 194.559 263.757 204.032 264.937 213.899C278.688 217.022 295.299 216.523 303.828 210.934C307.764 184.902 306.452 172.883 303.198 165.562C314.297 163.976 325.135 160.914 335.423 156.456C338.956 154.969 342.247 152.961 345.185 150.499C364.367 134.15 347.442 119.14 336.525 117.67C318.681 115.282 297.95 112.816 297.95 112.816C301.965 113.367 304.116 121.895 302.726 131.815C301.335 141.734 296.979 149.37 292.964 148.819C290.339 148.452 288.555 144.778 287.978 139.53C285.485 140.055 282.939 140.527 280.368 140.973C280.368 140.973 292.859 160.287 281.47 164.591C271.55 168.396 248.851 149.265 248.851 149.265Z" stroke="white" stroke-width="0.6" mask="url(#path-3-outside-3_1_1019)"/>
<mask id="path-4-outside-4_1_1019" maskUnits="userSpaceOnUse" x="235.232" y="189.541" width="24" height="33" fill="black">
<rect fill="white" x="235.232" y="189.541" width="24" height="33"/>
<path d="M257.36 221.798C251.983 210.632 244.9 200.371 236.366 191.384C236.276 191.286 236.228 191.157 236.233 191.024C236.237 190.891 236.295 190.766 236.392 190.675C236.49 190.585 236.619 190.537 236.752 190.542C236.885 190.547 237.01 190.604 237.101 190.701C245.684 199.808 252.802 210.192 258.199 221.483C258.191 221.576 258.156 221.665 258.099 221.739C258.042 221.814 257.966 221.87 257.878 221.903C257.79 221.936 257.695 221.944 257.604 221.925C257.512 221.906 257.427 221.862 257.36 221.798Z"/>
</mask>
<path d="M257.36 221.798C251.983 210.632 244.9 200.371 236.366 191.384C236.276 191.286 236.228 191.157 236.233 191.024C236.237 190.891 236.295 190.766 236.392 190.675C236.49 190.585 236.619 190.537 236.752 190.542C236.885 190.547 237.01 190.604 237.101 190.701C245.684 199.808 252.802 210.192 258.199 221.483C258.191 221.576 258.156 221.665 258.099 221.739C258.042 221.814 257.966 221.87 257.878 221.903C257.79 221.936 257.695 221.944 257.604 221.925C257.512 221.906 257.427 221.862 257.36 221.798Z" fill="white"/>
<path d="M257.36 221.798C251.983 210.632 244.9 200.371 236.366 191.384C236.276 191.286 236.228 191.157 236.233 191.024C236.237 190.891 236.295 190.766 236.392 190.675C236.49 190.585 236.619 190.537 236.752 190.542C236.885 190.547 237.01 190.604 237.101 190.701C245.684 199.808 252.802 210.192 258.199 221.483C258.191 221.576 258.156 221.665 258.099 221.739C258.042 221.814 257.966 221.87 257.878 221.903C257.79 221.936 257.695 221.944 257.604 221.925C257.512 221.906 257.427 221.862 257.36 221.798Z" stroke="white" stroke-width="0.6" mask="url(#path-4-outside-4_1_1019)"/>
<mask id="path-5-outside-5_1_1019" maskUnits="userSpaceOnUse" x="304.537" y="161.365" width="13" height="31" fill="black">
<rect fill="white" x="304.537" y="161.365" width="13" height="31"/>
<path d="M305.566 190.859L315.931 162.78C315.944 162.708 315.972 162.639 316.013 162.579C316.055 162.519 316.11 162.469 316.174 162.432C316.237 162.395 316.308 162.373 316.381 162.367C316.454 162.361 316.528 162.371 316.596 162.396C316.665 162.422 316.727 162.462 316.779 162.515C316.83 162.567 316.869 162.63 316.893 162.699C316.918 162.769 316.926 162.842 316.919 162.915C316.911 162.988 316.888 163.059 316.85 163.121L306.537 191.2C306.491 191.329 306.397 191.434 306.274 191.493C306.151 191.552 306.009 191.56 305.881 191.515C305.752 191.47 305.646 191.375 305.587 191.252C305.528 191.129 305.52 190.988 305.566 190.859Z"/>
</mask>
<path d="M305.566 190.859L315.931 162.78C315.944 162.708 315.972 162.639 316.013 162.579C316.055 162.519 316.11 162.469 316.174 162.432C316.237 162.395 316.308 162.373 316.381 162.367C316.454 162.361 316.528 162.371 316.596 162.396C316.665 162.422 316.727 162.462 316.779 162.515C316.83 162.567 316.869 162.63 316.893 162.699C316.918 162.769 316.926 162.842 316.919 162.915C316.911 162.988 316.888 163.059 316.85 163.121L306.537 191.2C306.491 191.329 306.397 191.434 306.274 191.493C306.151 191.552 306.009 191.56 305.881 191.515C305.752 191.47 305.646 191.375 305.587 191.252C305.528 191.129 305.52 190.988 305.566 190.859Z" fill="white"/>
<path d="M305.566 190.859L315.931 162.78C315.944 162.708 315.972 162.639 316.013 162.579C316.055 162.519 316.11 162.469 316.174 162.432C316.237 162.395 316.308 162.373 316.381 162.367C316.454 162.361 316.528 162.371 316.596 162.396C316.665 162.422 316.727 162.462 316.779 162.515C316.83 162.567 316.869 162.63 316.893 162.699C316.918 162.769 316.926 162.842 316.919 162.915C316.911 162.988 316.888 163.059 316.85 163.121L306.537 191.2C306.491 191.329 306.397 191.434 306.274 191.493C306.151 191.552 306.009 191.56 305.881 191.515C305.752 191.47 305.646 191.375 305.587 191.252C305.528 191.129 305.52 190.988 305.566 190.859Z" stroke="white" stroke-width="0.6" mask="url(#path-5-outside-5_1_1019)"/>
<mask id="path-6-outside-6_1_1019" maskUnits="userSpaceOnUse" x="118.925" y="190.593" width="24" height="14" fill="black">
<rect fill="white" x="118.925" y="190.593" width="24" height="14"/>
<path d="M141.054 203.822C136.956 203.486 132.973 202.3 129.358 200.339C125.743 198.378 122.577 195.686 120.061 192.433C120.013 192.382 119.976 192.322 119.953 192.256C119.93 192.191 119.921 192.121 119.927 192.051C119.932 191.982 119.952 191.914 119.986 191.853C120.019 191.791 120.065 191.738 120.12 191.695C120.176 191.653 120.239 191.623 120.307 191.606C120.375 191.59 120.445 191.588 120.514 191.601C120.583 191.613 120.648 191.64 120.705 191.68C120.763 191.719 120.812 191.77 120.848 191.83C123.293 194.989 126.373 197.599 129.89 199.493C133.406 201.387 137.281 202.522 141.264 202.825C141.397 202.853 141.512 202.932 141.586 203.045C141.66 203.158 141.686 203.296 141.658 203.429C141.63 203.561 141.551 203.677 141.438 203.75C141.324 203.824 141.187 203.85 141.054 203.822Z"/>
</mask>
<path d="M141.054 203.822C136.956 203.486 132.973 202.3 129.358 200.339C125.743 198.378 122.577 195.686 120.061 192.433C120.013 192.382 119.976 192.322 119.953 192.256C119.93 192.191 119.921 192.121 119.927 192.051C119.932 191.982 119.952 191.914 119.986 191.853C120.019 191.791 120.065 191.738 120.12 191.695C120.176 191.653 120.239 191.623 120.307 191.606C120.375 191.59 120.445 191.588 120.514 191.601C120.583 191.613 120.648 191.64 120.705 191.68C120.763 191.719 120.812 191.77 120.848 191.83C123.293 194.989 126.373 197.599 129.89 199.493C133.406 201.387 137.281 202.522 141.264 202.825C141.397 202.853 141.512 202.932 141.586 203.045C141.66 203.158 141.686 203.296 141.658 203.429C141.63 203.561 141.551 203.677 141.438 203.75C141.324 203.824 141.187 203.85 141.054 203.822Z" fill="white"/>
<path d="M141.054 203.822C136.956 203.486 132.973 202.3 129.358 200.339C125.743 198.378 122.577 195.686 120.061 192.433C120.013 192.382 119.976 192.322 119.953 192.256C119.93 192.191 119.921 192.121 119.927 192.051C119.932 191.982 119.952 191.914 119.986 191.853C120.019 191.791 120.065 191.738 120.12 191.695C120.176 191.653 120.239 191.623 120.307 191.606C120.375 191.59 120.445 191.588 120.514 191.601C120.583 191.613 120.648 191.64 120.705 191.68C120.763 191.719 120.812 191.77 120.848 191.83C123.293 194.989 126.373 197.599 129.89 199.493C133.406 201.387 137.281 202.522 141.264 202.825C141.397 202.853 141.512 202.932 141.586 203.045C141.66 203.158 141.686 203.296 141.658 203.429C141.63 203.561 141.551 203.677 141.438 203.75C141.324 203.824 141.187 203.85 141.054 203.822Z" stroke="white" stroke-width="0.6" mask="url(#path-6-outside-6_1_1019)"/>
<mask id="path-7-outside-7_1_1019" maskUnits="userSpaceOnUse" x="89.1184" y="405.474" width="30" height="29" fill="black">
<rect fill="white" x="89.1184" y="405.474" width="30" height="29"/>
<path d="M106.438 407.432C105.255 408.167 104.253 409.16 103.508 410.337C102.762 411.514 102.293 412.845 102.134 414.229L100.035 413.651C99.0469 413.362 98.0108 413.273 96.9877 413.39C95.9646 413.507 94.9754 413.828 94.0782 414.334C92.7401 415.1 91.6566 416.243 90.9621 417.619C90.2676 418.996 89.9927 420.547 90.1716 422.078C90.3504 423.61 90.9752 425.055 91.9683 426.235C92.9613 427.415 94.279 428.277 95.7577 428.714L112.474 433.438C112.536 433.458 112.601 433.464 112.666 433.458C112.731 433.451 112.793 433.431 112.85 433.399C112.907 433.367 112.956 433.324 112.995 433.272C113.034 433.219 113.062 433.16 113.077 433.097L117.801 416.407C118.204 414.918 118.162 413.344 117.679 411.879C117.195 410.415 116.293 409.124 115.082 408.168C113.872 407.212 112.407 406.633 110.871 406.502C109.334 406.371 107.793 406.695 106.438 407.432ZM91.9264 424.515C91.2656 423.331 90.9714 421.977 91.0812 420.625C91.191 419.273 91.6998 417.984 92.543 416.921C93.3863 415.859 94.5261 415.07 95.8178 414.657C97.1096 414.243 98.4952 414.222 99.7989 414.596L102.423 415.331C102.548 415.357 102.678 415.337 102.789 415.274C102.9 415.211 102.985 415.11 103.027 414.99L103.761 412.366C104.377 410.773 105.566 409.469 107.093 408.707C108.621 407.945 110.378 407.782 112.02 408.248C113.663 408.715 115.071 409.777 115.971 411.228C116.87 412.679 117.195 414.414 116.882 416.092L112.29 432.336L96.0726 427.743C95.2025 427.506 94.388 427.099 93.6763 426.544C92.9647 425.99 92.3699 425.301 91.9264 424.515Z"/>
</mask>
<path d="M106.438 407.432C105.255 408.167 104.253 409.16 103.508 410.337C102.762 411.514 102.293 412.845 102.134 414.229L100.035 413.651C99.0469 413.362 98.0108 413.273 96.9877 413.39C95.9646 413.507 94.9754 413.828 94.0782 414.334C92.7401 415.1 91.6566 416.243 90.9621 417.619C90.2676 418.996 89.9927 420.547 90.1716 422.078C90.3504 423.61 90.9752 425.055 91.9683 426.235C92.9613 427.415 94.279 428.277 95.7577 428.714L112.474 433.438C112.536 433.458 112.601 433.464 112.666 433.458C112.731 433.451 112.793 433.431 112.85 433.399C112.907 433.367 112.956 433.324 112.995 433.272C113.034 433.219 113.062 433.16 113.077 433.097L117.801 416.407C118.204 414.918 118.162 413.344 117.679 411.879C117.195 410.415 116.293 409.124 115.082 408.168C113.872 407.212 112.407 406.633 110.871 406.502C109.334 406.371 107.793 406.695 106.438 407.432ZM91.9264 424.515C91.2656 423.331 90.9714 421.977 91.0812 420.625C91.191 419.273 91.6998 417.984 92.543 416.921C93.3863 415.859 94.5261 415.07 95.8178 414.657C97.1096 414.243 98.4952 414.222 99.7989 414.596L102.423 415.331C102.548 415.357 102.678 415.337 102.789 415.274C102.9 415.211 102.985 415.11 103.027 414.99L103.761 412.366C104.377 410.773 105.566 409.469 107.093 408.707C108.621 407.945 110.378 407.782 112.02 408.248C113.663 408.715 115.071 409.777 115.971 411.228C116.87 412.679 117.195 414.414 116.882 416.092L112.29 432.336L96.0726 427.743C95.2025 427.506 94.388 427.099 93.6763 426.544C92.9647 425.99 92.3699 425.301 91.9264 424.515Z" fill="white"/>
<path d="M106.438 407.432C105.255 408.167 104.253 409.16 103.508 410.337C102.762 411.514 102.293 412.845 102.134 414.229L100.035 413.651C99.0469 413.362 98.0108 413.273 96.9877 413.39C95.9646 413.507 94.9754 413.828 94.0782 414.334C92.7401 415.1 91.6566 416.243 90.9621 417.619C90.2676 418.996 89.9927 420.547 90.1716 422.078C90.3504 423.61 90.9752 425.055 91.9683 426.235C92.9613 427.415 94.279 428.277 95.7577 428.714L112.474 433.438C112.536 433.458 112.601 433.464 112.666 433.458C112.731 433.451 112.793 433.431 112.85 433.399C112.907 433.367 112.956 433.324 112.995 433.272C113.034 433.219 113.062 433.16 113.077 433.097L117.801 416.407C118.204 414.918 118.162 413.344 117.679 411.879C117.195 410.415 116.293 409.124 115.082 408.168C113.872 407.212 112.407 406.633 110.871 406.502C109.334 406.371 107.793 406.695 106.438 407.432ZM91.9264 424.515C91.2656 423.331 90.9714 421.977 91.0812 420.625C91.191 419.273 91.6998 417.984 92.543 416.921C93.3863 415.859 94.5261 415.07 95.8178 414.657C97.1096 414.243 98.4952 414.222 99.7989 414.596L102.423 415.331C102.548 415.357 102.678 415.337 102.789 415.274C102.9 415.211 102.985 415.11 103.027 414.99L103.761 412.366C104.377 410.773 105.566 409.469 107.093 408.707C108.621 407.945 110.378 407.782 112.02 408.248C113.663 408.715 115.071 409.777 115.971 411.228C116.87 412.679 117.195 414.414 116.882 416.092L112.29 432.336L96.0726 427.743C95.2025 427.506 94.388 427.099 93.6763 426.544C92.9647 425.99 92.3699 425.301 91.9264 424.515Z" stroke="white" stroke-width="0.6" mask="url(#path-7-outside-7_1_1019)"/>
<mask id="path-8-outside-8_1_1019" maskUnits="userSpaceOnUse" x="419.52" y="152.571" width="15" height="15" fill="black">
<rect fill="white" x="419.52" y="152.571" width="15" height="15"/>
<path d="M432.602 156.193C431.787 155.138 430.678 154.348 429.415 153.923C428.151 153.498 426.79 153.457 425.504 153.805C424.217 154.153 423.062 154.874 422.185 155.878C421.308 156.882 420.748 158.123 420.576 159.444C420.404 160.766 420.627 162.109 421.218 163.304C421.809 164.499 422.74 165.492 423.895 166.158C425.05 166.824 426.376 167.132 427.706 167.045C429.036 166.957 430.311 166.478 431.368 165.666C432.785 164.571 433.709 162.96 433.941 161.184C434.172 159.409 433.69 157.614 432.602 156.193ZM430.765 164.879C429.86 165.578 428.769 165.993 427.629 166.071C426.489 166.149 425.352 165.887 424.361 165.319C423.37 164.75 422.57 163.9 422.062 162.876C421.554 161.852 421.362 160.701 421.509 159.568C421.656 158.435 422.136 157.371 422.889 156.511C423.641 155.65 424.632 155.033 425.735 154.736C426.839 154.439 428.005 154.477 429.087 154.844C430.17 155.211 431.119 155.89 431.814 156.797C432.728 158.005 433.13 159.524 432.934 161.027C432.737 162.529 431.958 163.894 430.765 164.827V164.879Z"/>
</mask>
<path d="M432.602 156.193C431.787 155.138 430.678 154.348 429.415 153.923C428.151 153.498 426.79 153.457 425.504 153.805C424.217 154.153 423.062 154.874 422.185 155.878C421.308 156.882 420.748 158.123 420.576 159.444C420.404 160.766 420.627 162.109 421.218 163.304C421.809 164.499 422.74 165.492 423.895 166.158C425.05 166.824 426.376 167.132 427.706 167.045C429.036 166.957 430.311 166.478 431.368 165.666C432.785 164.571 433.709 162.96 433.941 161.184C434.172 159.409 433.69 157.614 432.602 156.193ZM430.765 164.879C429.86 165.578 428.769 165.993 427.629 166.071C426.489 166.149 425.352 165.887 424.361 165.319C423.37 164.75 422.57 163.9 422.062 162.876C421.554 161.852 421.362 160.701 421.509 159.568C421.656 158.435 422.136 157.371 422.889 156.511C423.641 155.65 424.632 155.033 425.735 154.736C426.839 154.439 428.005 154.477 429.087 154.844C430.17 155.211 431.119 155.89 431.814 156.797C432.728 158.005 433.13 159.524 432.934 161.027C432.737 162.529 431.958 163.894 430.765 164.827V164.879Z" fill="white"/>
<path d="M432.602 156.193C431.787 155.138 430.678 154.348 429.415 153.923C428.151 153.498 426.79 153.457 425.504 153.805C424.217 154.153 423.062 154.874 422.185 155.878C421.308 156.882 420.748 158.123 420.576 159.444C420.404 160.766 420.627 162.109 421.218 163.304C421.809 164.499 422.74 165.492 423.895 166.158C425.05 166.824 426.376 167.132 427.706 167.045C429.036 166.957 430.311 166.478 431.368 165.666C432.785 164.571 433.709 162.96 433.941 161.184C434.172 159.409 433.69 157.614 432.602 156.193ZM430.765 164.879C429.86 165.578 428.769 165.993 427.629 166.071C426.489 166.149 425.352 165.887 424.361 165.319C423.37 164.75 422.57 163.9 422.062 162.876C421.554 161.852 421.362 160.701 421.509 159.568C421.656 158.435 422.136 157.371 422.889 156.511C423.641 155.65 424.632 155.033 425.735 154.736C426.839 154.439 428.005 154.477 429.087 154.844C430.17 155.211 431.119 155.89 431.814 156.797C432.728 158.005 433.13 159.524 432.934 161.027C432.737 162.529 431.958 163.894 430.765 164.827V164.879Z" stroke="white" stroke-width="0.6" mask="url(#path-8-outside-8_1_1019)"/>
<mask id="path-9-outside-9_1_1019" maskUnits="userSpaceOnUse" x="256.306" y="221.031" width="18" height="9" fill="black">
<rect fill="white" x="256.306" y="221.031" width="18" height="9"/>
<path d="M257.804 229.671C257.672 229.671 257.545 229.618 257.452 229.525C257.358 229.431 257.306 229.304 257.306 229.172C257.306 229.04 257.358 228.913 257.452 228.819C257.545 228.726 257.672 228.673 257.804 228.673C268.485 228.673 272.605 222.297 272.657 222.218C272.734 222.123 272.842 222.059 272.963 222.038C273.083 222.018 273.207 222.043 273.31 222.107C273.414 222.172 273.49 222.272 273.524 222.39C273.559 222.507 273.549 222.632 273.497 222.743C273.313 223.058 269.062 229.671 257.804 229.671Z"/>
</mask>
<path d="M257.804 229.671C257.672 229.671 257.545 229.618 257.452 229.525C257.358 229.431 257.306 229.304 257.306 229.172C257.306 229.04 257.358 228.913 257.452 228.819C257.545 228.726 257.672 228.673 257.804 228.673C268.485 228.673 272.605 222.297 272.657 222.218C272.734 222.123 272.842 222.059 272.963 222.038C273.083 222.018 273.207 222.043 273.31 222.107C273.414 222.172 273.49 222.272 273.524 222.39C273.559 222.507 273.549 222.632 273.497 222.743C273.313 223.058 269.062 229.671 257.804 229.671Z" fill="white"/>
<path d="M257.804 229.671C257.672 229.671 257.545 229.618 257.452 229.525C257.358 229.431 257.306 229.304 257.306 229.172C257.306 229.04 257.358 228.913 257.452 228.819C257.545 228.726 257.672 228.673 257.804 228.673C268.485 228.673 272.605 222.297 272.657 222.218C272.734 222.123 272.842 222.059 272.963 222.038C273.083 222.018 273.207 222.043 273.31 222.107C273.414 222.172 273.49 222.272 273.524 222.39C273.559 222.507 273.549 222.632 273.497 222.743C273.313 223.058 269.062 229.671 257.804 229.671Z" stroke="white" stroke-width="0.6" mask="url(#path-9-outside-9_1_1019)"/>
<mask id="path-10-outside-10_1_1019" maskUnits="userSpaceOnUse" x="87.3152" y="110.13" width="27" height="27" fill="black">
<rect fill="white" x="87.3152" y="110.13" width="27" height="27"/>
<path d="M112.787 117.802L101.188 123.05L95.94 111.425C95.8843 111.304 95.7825 111.209 95.657 111.162C95.5315 111.115 95.3926 111.12 95.2708 111.176C95.149 111.232 95.0543 111.334 95.0076 111.459C94.9608 111.585 94.9658 111.723 95.0215 111.845L100.27 123.47L88.671 128.719C88.6023 128.739 88.5388 128.774 88.4848 128.822C88.4309 128.869 88.3878 128.927 88.3586 128.993C88.3293 129.058 88.3145 129.13 88.3152 129.201C88.3159 129.273 88.3321 129.344 88.3626 129.409C88.3932 129.474 88.4374 129.531 88.4922 129.577C88.5471 129.624 88.6113 129.658 88.6804 129.677C88.7495 129.696 88.822 129.7 88.8928 129.689C88.9637 129.677 89.0312 129.651 89.0909 129.611L100.69 124.363L105.938 135.961C105.953 136.034 105.984 136.103 106.029 136.162C106.074 136.221 106.132 136.269 106.198 136.303C106.264 136.337 106.337 136.356 106.411 136.358C106.486 136.36 106.559 136.346 106.627 136.316C106.695 136.286 106.756 136.241 106.804 136.185C106.853 136.129 106.888 136.062 106.907 135.99C106.927 135.919 106.93 135.843 106.917 135.77C106.903 135.697 106.874 135.628 106.83 135.568L101.582 123.943L113.207 118.694C113.306 118.628 113.378 118.528 113.41 118.413C113.442 118.298 113.432 118.176 113.381 118.068C113.33 117.96 113.242 117.873 113.133 117.825C113.024 117.776 112.902 117.768 112.787 117.802Z"/>
</mask>
<path d="M112.787 117.802L101.188 123.05L95.94 111.425C95.8843 111.304 95.7825 111.209 95.657 111.162C95.5315 111.115 95.3926 111.12 95.2708 111.176C95.149 111.232 95.0543 111.334 95.0076 111.459C94.9608 111.585 94.9658 111.723 95.0215 111.845L100.27 123.47L88.671 128.719C88.6023 128.739 88.5388 128.774 88.4848 128.822C88.4309 128.869 88.3878 128.927 88.3586 128.993C88.3293 129.058 88.3145 129.13 88.3152 129.201C88.3159 129.273 88.3321 129.344 88.3626 129.409C88.3932 129.474 88.4374 129.531 88.4922 129.577C88.5471 129.624 88.6113 129.658 88.6804 129.677C88.7495 129.696 88.822 129.7 88.8928 129.689C88.9637 129.677 89.0312 129.651 89.0909 129.611L100.69 124.363L105.938 135.961C105.953 136.034 105.984 136.103 106.029 136.162C106.074 136.221 106.132 136.269 106.198 136.303C106.264 136.337 106.337 136.356 106.411 136.358C106.486 136.36 106.559 136.346 106.627 136.316C106.695 136.286 106.756 136.241 106.804 136.185C106.853 136.129 106.888 136.062 106.907 135.99C106.927 135.919 106.93 135.843 106.917 135.77C106.903 135.697 106.874 135.628 106.83 135.568L101.582 123.943L113.207 118.694C113.306 118.628 113.378 118.528 113.41 118.413C113.442 118.298 113.432 118.176 113.381 118.068C113.33 117.96 113.242 117.873 113.133 117.825C113.024 117.776 112.902 117.768 112.787 117.802Z" fill="white"/>
<path d="M112.787 117.802L101.188 123.05L95.94 111.425C95.8843 111.304 95.7825 111.209 95.657 111.162C95.5315 111.115 95.3926 111.12 95.2708 111.176C95.149 111.232 95.0543 111.334 95.0076 111.459C94.9608 111.585 94.9658 111.723 95.0215 111.845L100.27 123.47L88.671 128.719C88.6023 128.739 88.5388 128.774 88.4848 128.822C88.4309 128.869 88.3878 128.927 88.3586 128.993C88.3293 129.058 88.3145 129.13 88.3152 129.201C88.3159 129.273 88.3321 129.344 88.3626 129.409C88.3932 129.474 88.4374 129.531 88.4922 129.577C88.5471 129.624 88.6113 129.658 88.6804 129.677C88.7495 129.696 88.822 129.7 88.8928 129.689C88.9637 129.677 89.0312 129.651 89.0909 129.611L100.69 124.363L105.938 135.961C105.953 136.034 105.984 136.103 106.029 136.162C106.074 136.221 106.132 136.269 106.198 136.303C106.264 136.337 106.337 136.356 106.411 136.358C106.486 136.36 106.559 136.346 106.627 136.316C106.695 136.286 106.756 136.241 106.804 136.185C106.853 136.129 106.888 136.062 106.907 135.99C106.927 135.919 106.93 135.843 106.917 135.77C106.903 135.697 106.874 135.628 106.83 135.568L101.582 123.943L113.207 118.694C113.306 118.628 113.378 118.528 113.41 118.413C113.442 118.298 113.432 118.176 113.381 118.068C113.33 117.96 113.242 117.873 113.133 117.825C113.024 117.776 112.902 117.768 112.787 117.802Z" stroke="white" stroke-width="0.6" mask="url(#path-10-outside-10_1_1019)"/>
<mask id="path-11-outside-11_1_1019" maskUnits="userSpaceOnUse" x="289.985" y="23.2158" width="42" height="30" fill="black">
<rect fill="white" x="289.985" y="23.2158" width="42" height="30"/>
<path d="M331.095 31.8076L311.44 24.25C311.347 24.2135 311.244 24.206 311.147 24.2286C311.049 24.2511 310.96 24.3026 310.892 24.3762C310.824 24.4499 310.78 24.5424 310.765 24.6416C310.751 24.7407 310.766 24.842 310.81 24.9322L314.117 32.175C306.979 36.5311 295.144 41.4646 291.969 33.7232C291.654 32.9622 290.735 33.3296 291.05 34.0906C294.199 41.9631 299.867 47.2115 308.58 47.2115C312.44 47.1295 316.24 46.2353 319.732 44.5873L323.275 52.4599C323.313 52.5501 323.377 52.6271 323.459 52.6813C323.54 52.7354 323.636 52.7643 323.734 52.7643C323.832 52.7643 323.928 52.7354 324.01 52.6813C324.091 52.6271 324.155 52.5501 324.194 52.4599L331.384 32.6473C331.459 32.5864 331.514 32.5037 331.541 32.4105C331.568 32.3172 331.565 32.218 331.534 32.1263C331.502 32.0346 331.443 31.9548 331.365 31.8978C331.286 31.8407 331.192 31.8093 331.095 31.8076ZM323.8 50.7804L320.572 43.6689C320.491 43.5413 320.363 43.4506 320.216 43.4162C320.069 43.3819 319.914 43.4066 319.785 43.4852C318.761 43.9838 310.285 47.9463 302.544 45.0597C298.9 43.6292 295.866 40.976 293.963 37.5545C299.448 41.0447 309.708 36.2424 315.14 32.7785C315.35 32.6473 315.429 32.4111 315.14 32.0175L312.201 25.6145L330.282 32.5686L323.8 50.7804Z"/>
</mask>
<path d="M331.095 31.8076L311.44 24.25C311.347 24.2135 311.244 24.206 311.147 24.2286C311.049 24.2511 310.96 24.3026 310.892 24.3762C310.824 24.4499 310.78 24.5424 310.765 24.6416C310.751 24.7407 310.766 24.842 310.81 24.9322L314.117 32.175C306.979 36.5311 295.144 41.4646 291.969 33.7232C291.654 32.9622 290.735 33.3296 291.05 34.0906C294.199 41.9631 299.867 47.2115 308.58 47.2115C312.44 47.1295 316.24 46.2353 319.732 44.5873L323.275 52.4599C323.313 52.5501 323.377 52.6271 323.459 52.6813C323.54 52.7354 323.636 52.7643 323.734 52.7643C323.832 52.7643 323.928 52.7354 324.01 52.6813C324.091 52.6271 324.155 52.5501 324.194 52.4599L331.384 32.6473C331.459 32.5864 331.514 32.5037 331.541 32.4105C331.568 32.3172 331.565 32.218 331.534 32.1263C331.502 32.0346 331.443 31.9548 331.365 31.8978C331.286 31.8407 331.192 31.8093 331.095 31.8076ZM323.8 50.7804L320.572 43.6689C320.491 43.5413 320.363 43.4506 320.216 43.4162C320.069 43.3819 319.914 43.4066 319.785 43.4852C318.761 43.9838 310.285 47.9463 302.544 45.0597C298.9 43.6292 295.866 40.976 293.963 37.5545C299.448 41.0447 309.708 36.2424 315.14 32.7785C315.35 32.6473 315.429 32.4111 315.14 32.0175L312.201 25.6145L330.282 32.5686L323.8 50.7804Z" fill="white"/>
<path d="M331.095 31.8076L311.44 24.25C311.347 24.2135 311.244 24.206 311.147 24.2286C311.049 24.2511 310.96 24.3026 310.892 24.3762C310.824 24.4499 310.78 24.5424 310.765 24.6416C310.751 24.7407 310.766 24.842 310.81 24.9322L314.117 32.175C306.979 36.5311 295.144 41.4646 291.969 33.7232C291.654 32.9622 290.735 33.3296 291.05 34.0906C294.199 41.9631 299.867 47.2115 308.58 47.2115C312.44 47.1295 316.24 46.2353 319.732 44.5873L323.275 52.4599C323.313 52.5501 323.377 52.6271 323.459 52.6813C323.54 52.7354 323.636 52.7643 323.734 52.7643C323.832 52.7643 323.928 52.7354 324.01 52.6813C324.091 52.6271 324.155 52.5501 324.194 52.4599L331.384 32.6473C331.459 32.5864 331.514 32.5037 331.541 32.4105C331.568 32.3172 331.565 32.218 331.534 32.1263C331.502 32.0346 331.443 31.9548 331.365 31.8978C331.286 31.8407 331.192 31.8093 331.095 31.8076ZM323.8 50.7804L320.572 43.6689C320.491 43.5413 320.363 43.4506 320.216 43.4162C320.069 43.3819 319.914 43.4066 319.785 43.4852C318.761 43.9838 310.285 47.9463 302.544 45.0597C298.9 43.6292 295.866 40.976 293.963 37.5545C299.448 41.0447 309.708 36.2424 315.14 32.7785C315.35 32.6473 315.429 32.4111 315.14 32.0175L312.201 25.6145L330.282 32.5686L323.8 50.7804Z" stroke="white" stroke-width="0.6" mask="url(#path-11-outside-11_1_1019)"/>
<mask id="path-12-outside-12_1_1019" maskUnits="userSpaceOnUse" x="272.898" y="0" width="77" height="77" fill="black">
<rect fill="white" x="272.898" width="77" height="77"/>
<path d="M311.153 75.7888C302.687 75.7573 294.482 72.8539 287.88 67.5533C281.279 62.2528 276.671 54.869 274.811 46.6096C272.951 38.3502 273.949 29.7041 277.642 22.0855C281.334 14.4669 287.502 8.32676 295.138 4.66938C302.773 1.01199 311.424 0.0538503 319.675 1.95167C327.926 3.8495 335.288 8.49095 340.558 15.1169C345.828 21.7428 348.694 29.9609 348.687 38.4271C348.679 46.8934 345.799 55.1065 340.518 61.7232C337.003 66.1328 332.535 69.6889 327.449 72.125C322.363 74.561 316.792 75.8136 311.153 75.7888ZM311.153 2.02321C302.558 2.016 294.237 5.05325 287.668 10.5963C281.098 16.1393 276.704 23.8299 275.265 32.3041C273.826 40.7783 275.434 49.4883 279.805 56.8895C284.176 64.2907 291.027 69.9048 299.143 72.7359C307.259 75.567 316.115 75.4323 324.141 72.3556C332.167 69.2789 338.844 63.4592 342.988 55.9284C347.132 48.3977 348.475 39.6427 346.778 31.2162C345.082 22.7898 340.456 15.2364 333.721 9.89574C327.321 4.82084 319.4 2.04778 311.232 2.02321H311.153Z"/>
</mask>
<path d="M311.153 75.7888C302.687 75.7573 294.482 72.8539 287.88 67.5533C281.279 62.2528 276.671 54.869 274.811 46.6096C272.951 38.3502 273.949 29.7041 277.642 22.0855C281.334 14.4669 287.502 8.32676 295.138 4.66938C302.773 1.01199 311.424 0.0538503 319.675 1.95167C327.926 3.8495 335.288 8.49095 340.558 15.1169C345.828 21.7428 348.694 29.9609 348.687 38.4271C348.679 46.8934 345.799 55.1065 340.518 61.7232C337.003 66.1328 332.535 69.6889 327.449 72.125C322.363 74.561 316.792 75.8136 311.153 75.7888ZM311.153 2.02321C302.558 2.016 294.237 5.05325 287.668 10.5963C281.098 16.1393 276.704 23.8299 275.265 32.3041C273.826 40.7783 275.434 49.4883 279.805 56.8895C284.176 64.2907 291.027 69.9048 299.143 72.7359C307.259 75.567 316.115 75.4323 324.141 72.3556C332.167 69.2789 338.844 63.4592 342.988 55.9284C347.132 48.3977 348.475 39.6427 346.778 31.2162C345.082 22.7898 340.456 15.2364 333.721 9.89574C327.321 4.82084 319.4 2.04778 311.232 2.02321H311.153Z" fill="white"/>
<path d="M311.153 75.7888C302.687 75.7573 294.482 72.8539 287.88 67.5533C281.279 62.2528 276.671 54.869 274.811 46.6096C272.951 38.3502 273.949 29.7041 277.642 22.0855C281.334 14.4669 287.502 8.32676 295.138 4.66938C302.773 1.01199 311.424 0.0538503 319.675 1.95167C327.926 3.8495 335.288 8.49095 340.558 15.1169C345.828 21.7428 348.694 29.9609 348.687 38.4271C348.679 46.8934 345.799 55.1065 340.518 61.7232C337.003 66.1328 332.535 69.6889 327.449 72.125C322.363 74.561 316.792 75.8136 311.153 75.7888ZM311.153 2.02321C302.558 2.016 294.237 5.05325 287.668 10.5963C281.098 16.1393 276.704 23.8299 275.265 32.3041C273.826 40.7783 275.434 49.4883 279.805 56.8895C284.176 64.2907 291.027 69.9048 299.143 72.7359C307.259 75.567 316.115 75.4323 324.141 72.3556C332.167 69.2789 338.844 63.4592 342.988 55.9284C347.132 48.3977 348.475 39.6427 346.778 31.2162C345.082 22.7898 340.456 15.2364 333.721 9.89574C327.321 4.82084 319.4 2.04778 311.232 2.02321H311.153Z" stroke="white" stroke-width="0.6" mask="url(#path-12-outside-12_1_1019)"/>
<mask id="path-13-outside-13_1_1019" maskUnits="userSpaceOnUse" x="376.702" y="414.41" width="33" height="30" fill="black">
<rect fill="white" x="376.702" y="414.41" width="33" height="30"/>
<path d="M409.061 421.052C409.04 419.806 408.525 418.62 407.63 417.753C406.734 416.887 405.531 416.412 404.285 416.433C403.039 416.454 401.853 416.969 400.987 417.865C400.121 418.76 399.646 419.964 399.667 421.209L387.123 419.635C386.995 418.432 386.411 417.324 385.491 416.539C384.57 415.754 383.384 415.353 382.176 415.417C380.968 415.48 379.831 416.005 378.999 416.883C378.166 417.76 377.702 418.924 377.702 420.133C377.702 421.343 378.166 422.506 378.999 423.384C379.831 424.262 380.968 424.786 382.176 424.85C383.384 424.914 384.57 424.512 385.491 423.728C386.411 422.943 386.995 421.835 387.123 420.632L399.667 422.207C399.839 423.293 400.398 424.281 401.241 424.988L395.547 434.803C394.4 434.42 393.15 434.492 392.054 435.004C390.959 435.516 390.101 436.428 389.658 437.553C389.215 438.678 389.22 439.93 389.673 441.051C390.125 442.172 390.99 443.077 392.089 443.58C393.189 444.082 394.439 444.144 395.583 443.753C396.727 443.361 397.677 442.546 398.238 441.475C398.799 440.404 398.927 439.158 398.598 437.995C398.268 436.832 397.505 435.84 396.465 435.222L402.055 425.565C402.802 425.982 403.649 426.188 404.505 426.16C405.36 426.133 406.192 425.874 406.912 425.41C407.631 424.947 408.211 424.296 408.59 423.529C408.968 422.761 409.131 421.905 409.061 421.052ZM397.856 439.001C397.919 439.811 397.717 440.619 397.278 441.303C396.84 441.987 396.191 442.509 395.428 442.789C394.666 443.07 393.833 443.094 393.056 442.857C392.279 442.621 391.601 442.137 391.124 441.48C390.647 440.822 390.399 440.027 390.415 439.215C390.432 438.403 390.714 437.619 391.218 436.982C391.721 436.344 392.42 435.889 393.206 435.685C393.992 435.482 394.823 435.54 395.573 435.852C396.207 436.116 396.755 436.55 397.158 437.105C397.561 437.661 397.802 438.317 397.856 439.001ZM385.312 422.81C384.917 423.28 384.412 423.644 383.842 423.871C383.272 424.099 382.655 424.182 382.045 424.113C381.435 424.044 380.852 423.826 380.347 423.478C379.841 423.13 379.43 422.662 379.149 422.116C378.868 421.571 378.726 420.964 378.736 420.351C378.746 419.737 378.907 419.135 379.205 418.599C379.503 418.063 379.929 417.608 380.446 417.276C380.962 416.944 381.552 416.745 382.163 416.696C382.896 416.637 383.63 416.796 384.273 417.153C384.915 417.511 385.438 418.05 385.775 418.704C386.111 419.358 386.247 420.096 386.165 420.827C386.082 421.558 385.786 422.248 385.312 422.81ZM404.679 425.146C403.944 425.206 403.208 425.046 402.564 424.688C401.92 424.329 401.397 423.788 401.06 423.132C400.724 422.476 400.59 421.735 400.674 421.003C400.759 420.271 401.059 419.58 401.536 419.019C402.014 418.457 402.647 418.05 403.356 417.848C404.065 417.646 404.817 417.659 405.519 417.885C406.22 418.111 406.839 418.54 407.297 419.118C407.755 419.695 408.031 420.396 408.09 421.131C408.133 421.619 408.079 422.111 407.93 422.578C407.782 423.045 407.542 423.478 407.224 423.852C406.907 424.225 406.518 424.532 406.081 424.754C405.644 424.976 405.168 425.109 404.679 425.146Z"/>
</mask>
<path d="M409.061 421.052C409.04 419.806 408.525 418.62 407.63 417.753C406.734 416.887 405.531 416.412 404.285 416.433C403.039 416.454 401.853 416.969 400.987 417.865C400.121 418.76 399.646 419.964 399.667 421.209L387.123 419.635C386.995 418.432 386.411 417.324 385.491 416.539C384.57 415.754 383.384 415.353 382.176 415.417C380.968 415.48 379.831 416.005 378.999 416.883C378.166 417.76 377.702 418.924 377.702 420.133C377.702 421.343 378.166 422.506 378.999 423.384C379.831 424.262 380.968 424.786 382.176 424.85C383.384 424.914 384.57 424.512 385.491 423.728C386.411 422.943 386.995 421.835 387.123 420.632L399.667 422.207C399.839 423.293 400.398 424.281 401.241 424.988L395.547 434.803C394.4 434.42 393.15 434.492 392.054 435.004C390.959 435.516 390.101 436.428 389.658 437.553C389.215 438.678 389.22 439.93 389.673 441.051C390.125 442.172 390.99 443.077 392.089 443.58C393.189 444.082 394.439 444.144 395.583 443.753C396.727 443.361 397.677 442.546 398.238 441.475C398.799 440.404 398.927 439.158 398.598 437.995C398.268 436.832 397.505 435.84 396.465 435.222L402.055 425.565C402.802 425.982 403.649 426.188 404.505 426.16C405.36 426.133 406.192 425.874 406.912 425.41C407.631 424.947 408.211 424.296 408.59 423.529C408.968 422.761 409.131 421.905 409.061 421.052ZM397.856 439.001C397.919 439.811 397.717 440.619 397.278 441.303C396.84 441.987 396.191 442.509 395.428 442.789C394.666 443.07 393.833 443.094 393.056 442.857C392.279 442.621 391.601 442.137 391.124 441.48C390.647 440.822 390.399 440.027 390.415 439.215C390.432 438.403 390.714 437.619 391.218 436.982C391.721 436.344 392.42 435.889 393.206 435.685C393.992 435.482 394.823 435.54 395.573 435.852C396.207 436.116 396.755 436.55 397.158 437.105C397.561 437.661 397.802 438.317 397.856 439.001ZM385.312 422.81C384.917 423.28 384.412 423.644 383.842 423.871C383.272 424.099 382.655 424.182 382.045 424.113C381.435 424.044 380.852 423.826 380.347 423.478C379.841 423.13 379.43 422.662 379.149 422.116C378.868 421.571 378.726 420.964 378.736 420.351C378.746 419.737 378.907 419.135 379.205 418.599C379.503 418.063 379.929 417.608 380.446 417.276C380.962 416.944 381.552 416.745 382.163 416.696C382.896 416.637 383.63 416.796 384.273 417.153C384.915 417.511 385.438 418.05 385.775 418.704C386.111 419.358 386.247 420.096 386.165 420.827C386.082 421.558 385.786 422.248 385.312 422.81ZM404.679 425.146C403.944 425.206 403.208 425.046 402.564 424.688C401.92 424.329 401.397 423.788 401.06 423.132C400.724 422.476 400.59 421.735 400.674 421.003C400.759 420.271 401.059 419.58 401.536 419.019C402.014 418.457 402.647 418.05 403.356 417.848C404.065 417.646 404.817 417.659 405.519 417.885C406.22 418.111 406.839 418.54 407.297 419.118C407.755 419.695 408.031 420.396 408.09 421.131C408.133 421.619 408.079 422.111 407.93 422.578C407.782 423.045 407.542 423.478 407.224 423.852C406.907 424.225 406.518 424.532 406.081 424.754C405.644 424.976 405.168 425.109 404.679 425.146Z" fill="white"/>
<path d="M409.061 421.052C409.04 419.806 408.525 418.62 407.63 417.753C406.734 416.887 405.531 416.412 404.285 416.433C403.039 416.454 401.853 416.969 400.987 417.865C400.121 418.76 399.646 419.964 399.667 421.209L387.123 419.635C386.995 418.432 386.411 417.324 385.491 416.539C384.57 415.754 383.384 415.353 382.176 415.417C380.968 415.48 379.831 416.005 378.999 416.883C378.166 417.76 377.702 418.924 377.702 420.133C377.702 421.343 378.166 422.506 378.999 423.384C379.831 424.262 380.968 424.786 382.176 424.85C383.384 424.914 384.57 424.512 385.491 423.728C386.411 422.943 386.995 421.835 387.123 420.632L399.667 422.207C399.839 423.293 400.398 424.281 401.241 424.988L395.547 434.803C394.4 434.42 393.15 434.492 392.054 435.004C390.959 435.516 390.101 436.428 389.658 437.553C389.215 438.678 389.22 439.93 389.673 441.051C390.125 442.172 390.99 443.077 392.089 443.58C393.189 444.082 394.439 444.144 395.583 443.753C396.727 443.361 397.677 442.546 398.238 441.475C398.799 440.404 398.927 439.158 398.598 437.995C398.268 436.832 397.505 435.84 396.465 435.222L402.055 425.565C402.802 425.982 403.649 426.188 404.505 426.16C405.36 426.133 406.192 425.874 406.912 425.41C407.631 424.947 408.211 424.296 408.59 423.529C408.968 422.761 409.131 421.905 409.061 421.052ZM397.856 439.001C397.919 439.811 397.717 440.619 397.278 441.303C396.84 441.987 396.191 442.509 395.428 442.789C394.666 443.07 393.833 443.094 393.056 442.857C392.279 442.621 391.601 442.137 391.124 441.48C390.647 440.822 390.399 440.027 390.415 439.215C390.432 438.403 390.714 437.619 391.218 436.982C391.721 436.344 392.42 435.889 393.206 435.685C393.992 435.482 394.823 435.54 395.573 435.852C396.207 436.116 396.755 436.55 397.158 437.105C397.561 437.661 397.802 438.317 397.856 439.001ZM385.312 422.81C384.917 423.28 384.412 423.644 383.842 423.871C383.272 424.099 382.655 424.182 382.045 424.113C381.435 424.044 380.852 423.826 380.347 423.478C379.841 423.13 379.43 422.662 379.149 422.116C378.868 421.571 378.726 420.964 378.736 420.351C378.746 419.737 378.907 419.135 379.205 418.599C379.503 418.063 379.929 417.608 380.446 417.276C380.962 416.944 381.552 416.745 382.163 416.696C382.896 416.637 383.63 416.796 384.273 417.153C384.915 417.511 385.438 418.05 385.775 418.704C386.111 419.358 386.247 420.096 386.165 420.827C386.082 421.558 385.786 422.248 385.312 422.81ZM404.679 425.146C403.944 425.206 403.208 425.046 402.564 424.688C401.92 424.329 401.397 423.788 401.06 423.132C400.724 422.476 400.59 421.735 400.674 421.003C400.759 420.271 401.059 419.58 401.536 419.019C402.014 418.457 402.647 418.05 403.356 417.848C404.065 417.646 404.817 417.659 405.519 417.885C406.22 418.111 406.839 418.54 407.297 419.118C407.755 419.695 408.031 420.396 408.09 421.131C408.133 421.619 408.079 422.111 407.93 422.578C407.782 423.045 407.542 423.478 407.224 423.852C406.907 424.225 406.518 424.532 406.081 424.754C405.644 424.976 405.168 425.109 404.679 425.146Z" stroke="white" stroke-width="0.6" mask="url(#path-13-outside-13_1_1019)"/>
<mask id="path-14-outside-14_1_1019" maskUnits="userSpaceOnUse" x="363.342" y="397.904" width="60" height="60" fill="black">
<rect fill="white" x="363.342" y="397.904" width="60" height="60"/>
<path d="M393.418 457.055C387.666 457.055 382.044 455.349 377.262 452.153C372.479 448.957 368.753 444.415 366.553 439.1C364.353 433.786 363.779 427.938 364.903 422.297C366.027 416.657 368.799 411.476 372.867 407.41C376.936 403.345 382.12 400.578 387.762 399.459C393.404 398.34 399.251 398.92 404.563 401.124C409.875 403.329 414.415 407.06 417.606 411.845C420.798 416.63 422.499 422.254 422.494 428.006C422.487 435.713 419.42 443.101 413.968 448.549C408.516 453.996 401.125 457.055 393.418 457.055ZM393.418 399.927C387.864 399.927 382.436 401.574 377.818 404.659C373.201 407.744 369.602 412.13 367.477 417.26C365.351 422.391 364.795 428.037 365.879 433.484C366.962 438.93 369.636 443.933 373.563 447.86C377.49 451.787 382.493 454.461 387.94 455.545C393.387 456.628 399.032 456.072 404.163 453.947C409.294 451.822 413.679 448.223 416.765 443.605C419.85 438.988 421.497 433.559 421.497 428.006C421.49 420.561 418.529 413.423 413.265 408.159C408.001 402.894 400.863 399.934 393.418 399.927Z"/>
</mask>
<path d="M393.418 457.055C387.666 457.055 382.044 455.349 377.262 452.153C372.479 448.957 368.753 444.415 366.553 439.1C364.353 433.786 363.779 427.938 364.903 422.297C366.027 416.657 368.799 411.476 372.867 407.41C376.936 403.345 382.12 400.578 387.762 399.459C393.404 398.34 399.251 398.92 404.563 401.124C409.875 403.329 414.415 407.06 417.606 411.845C420.798 416.63 422.499 422.254 422.494 428.006C422.487 435.713 419.42 443.101 413.968 448.549C408.516 453.996 401.125 457.055 393.418 457.055ZM393.418 399.927C387.864 399.927 382.436 401.574 377.818 404.659C373.201 407.744 369.602 412.13 367.477 417.26C365.351 422.391 364.795 428.037 365.879 433.484C366.962 438.93 369.636 443.933 373.563 447.86C377.49 451.787 382.493 454.461 387.94 455.545C393.387 456.628 399.032 456.072 404.163 453.947C409.294 451.822 413.679 448.223 416.765 443.605C419.85 438.988 421.497 433.559 421.497 428.006C421.49 420.561 418.529 413.423 413.265 408.159C408.001 402.894 400.863 399.934 393.418 399.927Z" fill="white"/>
<path d="M393.418 457.055C387.666 457.055 382.044 455.349 377.262 452.153C372.479 448.957 368.753 444.415 366.553 439.1C364.353 433.786 363.779 427.938 364.903 422.297C366.027 416.657 368.799 411.476 372.867 407.41C376.936 403.345 382.12 400.578 387.762 399.459C393.404 398.34 399.251 398.92 404.563 401.124C409.875 403.329 414.415 407.06 417.606 411.845C420.798 416.63 422.499 422.254 422.494 428.006C422.487 435.713 419.42 443.101 413.968 448.549C408.516 453.996 401.125 457.055 393.418 457.055ZM393.418 399.927C387.864 399.927 382.436 401.574 377.818 404.659C373.201 407.744 369.602 412.13 367.477 417.26C365.351 422.391 364.795 428.037 365.879 433.484C366.962 438.93 369.636 443.933 373.563 447.86C377.49 451.787 382.493 454.461 387.94 455.545C393.387 456.628 399.032 456.072 404.163 453.947C409.294 451.822 413.679 448.223 416.765 443.605C419.85 438.988 421.497 433.559 421.497 428.006C421.49 420.561 418.529 413.423 413.265 408.159C408.001 402.894 400.863 399.934 393.418 399.927Z" stroke="white" stroke-width="0.6" mask="url(#path-14-outside-14_1_1019)"/>
<mask id="path-15-outside-15_1_1019" maskUnits="userSpaceOnUse" x="81.4429" y="79.6016" width="274" height="402" fill="black">
<rect fill="white" x="81.4429" y="79.6016" width="274" height="402"/>
<path d="M353.818 131.211C351.588 123.654 343.138 118.09 336.604 117.146C320.281 114.968 301.282 112.685 298.396 112.343C297.845 112.199 297.267 112.199 296.716 112.343C297.136 107.462 298.055 102.949 297.477 100.823C297.189 99.7736 296.296 99.5375 295.404 100.561C293.436 102.791 292.78 106.859 294.486 99.4587C295.01 96.992 296.06 91.2188 294.066 90.6415C292.99 90.3528 291.888 91.7437 290.917 93.6855C291.179 88.4372 290.366 87.4662 289.578 87.3088C287.978 87.0201 286.324 91.1401 285.747 92.6884C285.747 90.5365 285.747 88.5159 284.907 88.306C284.068 88.096 283.595 88.306 281.863 93.5543C280.131 99.1009 279.014 104.821 278.531 110.611C277.997 109.348 277.251 108.186 276.326 107.174C275.749 106.518 275.25 106.649 274.988 106.78C272.679 108.066 274.07 123.208 276.169 130.949C277.166 134.623 281.076 137.588 286.666 139.372C283.333 140.055 279.869 140.685 276.353 141.236C270.369 142.18 267.194 135.148 266.486 133.363C267.687 133.06 268.812 132.508 269.788 131.744C270.764 130.981 271.57 130.022 272.154 128.928C274.07 124.703 271.498 118.432 264.518 110.559C264.675 103.939 262.583 97.462 258.583 92.1854C254.583 86.9087 248.912 83.1448 242.496 81.5088C236.08 79.8727 229.298 80.4613 223.26 83.1784C217.222 85.8954 212.283 90.5802 209.252 96.4672C207.249 94.6323 204.769 93.3979 202.097 92.9051C199.425 92.4123 196.668 92.6809 194.142 93.6803C191.615 94.6796 189.421 96.3694 187.809 98.5566C186.197 100.744 185.233 103.34 185.026 106.05C184.82 108.759 185.379 111.471 186.641 113.878C187.903 116.284 189.816 118.287 192.162 119.657C194.508 121.028 197.192 121.711 199.908 121.629C202.624 121.547 205.262 120.703 207.52 119.193C209.016 123.583 211.534 127.554 214.865 130.781C218.196 134.008 222.246 136.398 226.682 137.753C231.117 139.108 235.811 139.391 240.377 138.578C244.943 137.764 249.25 135.878 252.945 133.074C257.222 141.288 255.884 145.854 246.306 149.843C215.393 162.701 188.416 169.131 139.79 178.709C137.691 179.129 136.904 181.018 136.484 183.275L135.539 183.59C134.097 184.142 132.522 184.246 131.02 183.891C129.518 183.535 128.157 182.735 127.116 181.595C117.275 170.915 115.228 172.358 114.546 172.831C110.898 175.455 119.558 184.744 119.505 189.074C119.505 189.888 116.094 190.728 113.444 190.78L98.617 191.069C95.9929 191.069 91.4268 191.384 91.3218 193.273C91.2169 195.162 94.9432 196.133 98.4596 196.58L108.405 197.839L94.3396 200.463C91.7155 200.909 87.2806 201.907 87.4643 203.796C87.648 205.685 90.8232 205.948 94.0772 205.948C95.5467 205.948 97.4886 205.79 109.35 205.554C106.49 206.42 102.737 207.417 98.3809 208.388C94.0247 209.359 91.558 210.645 91.7417 211.983C92.0303 214.004 97.4362 213.899 99.4568 213.794C101.477 213.689 107.172 213.269 111.161 212.797C109.35 213.479 107.356 214.188 105.23 214.765C100.69 216.025 98.5383 217.389 98.7745 218.649C99.3256 221.509 110.111 219.646 112.971 219.147C127.142 216.681 131.603 216.523 143.595 213.296C144.566 214.476 145.983 215.71 147.479 215.421C188.574 206.998 221.638 198.574 247.697 187.132C252.945 195.005 263.179 204.268 264.465 213.715C247.32 230.666 235.04 251.909 228.907 275.226C228.87 275.335 228.873 275.453 228.917 275.559C228.96 275.666 229.041 275.752 229.144 275.803L233.027 277.903C232.817 279.294 231.925 284.752 231.19 291.024C226.126 290.026 189.624 282.154 174.22 278.428C165.225 276.514 156.748 272.683 149.369 267.196C149.233 267.146 149.084 267.146 148.949 267.196C125.233 271.11 102.63 280.058 82.662 293.438C82.5807 293.49 82.5171 293.565 82.4798 293.654C82.4425 293.742 82.4332 293.84 82.4532 293.935C82.4731 294.029 82.5215 294.115 82.5916 294.181C82.6618 294.247 82.7505 294.29 82.8457 294.304C124.833 304.643 136.825 292.729 156.48 301.31C157.372 301.704 149.946 298.135 227.517 335.425C233.145 338.137 239.62 338.509 245.522 336.458C251.424 334.407 256.273 330.1 259.007 324.482L274.279 292.992L277.717 293.727C277.779 293.746 277.845 293.752 277.91 293.744C277.975 293.735 278.037 293.713 278.092 293.678C278.147 293.643 278.193 293.596 278.228 293.541C278.263 293.486 278.286 293.424 278.294 293.359L279.79 289.502C280.997 289.607 282.204 289.685 283.412 289.738L290.681 326.319C289.421 331.331 275.959 381.138 273.833 388.512C270.763 399.009 263.704 411.237 262.707 413.547C262.601 413.74 262.547 413.956 262.549 414.176C266.872 437.483 275.276 459.843 287.374 480.227C287.415 480.31 287.479 480.379 287.558 480.428C287.637 480.477 287.728 480.503 287.82 480.503C287.913 480.503 288.004 480.477 288.082 480.428C288.161 480.379 288.225 480.31 288.266 480.227C300.574 444.669 289.185 427.743 295.089 409.899C295.378 409.269 323.352 346.446 327.655 328.366C328.768 313.314 327.886 298.181 325.031 283.361C326.815 282.731 328.574 282.049 330.279 281.34C330.395 281.288 330.486 281.194 330.535 281.077C330.584 280.96 330.586 280.829 330.542 280.711C317.736 245.127 305.245 213.007 304.3 210.75C308.131 185.348 306.924 173.277 303.88 165.824C314.792 164.222 325.443 161.177 335.554 156.771C346.182 152.336 357.046 142.233 353.818 131.211ZM290.287 97.8055C292.203 92.5571 293.593 91.56 293.777 91.6124C293.961 91.6649 294.722 93.7118 293.515 99.275C292.413 104.235 291.337 108.67 290.707 112.396C289.676 111.357 288.501 110.474 287.217 109.772C288.161 105.179 289.683 99.1963 290.287 97.8055ZM288.844 88.7259C289.368 88.1223 289.526 88.2273 289.71 88.8833C290.106 91.3869 290.106 93.9373 289.71 96.4409C288.316 100.63 287.168 104.897 286.272 109.221C285.33 108.765 284.346 108.405 283.333 108.145C283.963 103.552 285.905 92.321 288.844 88.7259ZM277.114 130.713C274.699 121.712 274.227 108.512 275.408 107.699C276.86 109.207 277.867 111.087 278.321 113.131C278.12 115.19 278.12 117.264 278.321 119.324C278.324 119.395 278.343 119.464 278.376 119.527C278.409 119.59 278.455 119.646 278.511 119.69C278.567 119.734 278.631 119.765 278.7 119.782C278.769 119.799 278.841 119.801 278.911 119.788C278.981 119.774 279.047 119.746 279.106 119.705C279.164 119.664 279.212 119.612 279.249 119.55C279.285 119.489 279.307 119.421 279.314 119.35C279.322 119.279 279.314 119.208 279.292 119.14C278.989 110.591 280.152 102.053 282.729 93.8955C283.158 92.3894 283.776 90.9435 284.566 89.5918C284.797 92.4224 284.665 95.2709 284.173 98.0679C283.333 101.663 282.729 104.943 282.309 108.066L281.443 107.909C281.315 107.901 281.189 107.943 281.092 108.026C280.994 108.11 280.932 108.227 280.919 108.355C280.908 108.419 280.91 108.484 280.925 108.548C280.941 108.611 280.969 108.67 281.008 108.722C281.048 108.774 281.097 108.817 281.154 108.848C281.211 108.88 281.274 108.9 281.339 108.906C283.426 109.189 285.427 109.922 287.203 111.055C288.98 112.187 290.488 113.693 291.625 115.466C291.94 116.017 292.832 115.466 292.491 114.994C292.184 114.433 291.833 113.898 291.442 113.393C291.678 111.95 292.045 110.218 292.439 108.433C293.396 106.075 294.482 103.771 295.693 101.532C296.27 100.666 296.559 100.928 296.664 101.899C296.673 103.878 296.506 105.854 296.165 107.804C295.406 114.267 295.003 120.767 294.958 127.275C294.958 127.407 295.011 127.534 295.104 127.628C295.198 127.721 295.324 127.774 295.457 127.774C295.589 127.774 295.716 127.721 295.809 127.628C295.903 127.534 295.955 127.407 295.955 127.275C295.955 125.648 295.955 121.738 296.296 117.487C298.006 118.269 299.85 118.715 301.728 118.799C303.204 125.937 302.65 133.347 300.128 140.186C288.424 140.448 278.688 136.355 277.114 130.581V130.713ZM255.858 137.693C254.955 134.489 253.479 131.475 251.502 128.797C251.121 128.414 250.621 128.174 250.085 128.115C241.346 127.17 241.713 119.56 246.568 121.161C248.274 121.738 249.192 121.764 249.822 121.161C250.028 120.912 250.161 120.612 250.207 120.292C250.254 119.973 250.211 119.647 250.085 119.35C247.46 112.868 249.691 97.8317 261.001 108.276C265.41 112.37 273.912 122.551 271.262 128.43C269.084 133.206 260.765 133.258 260.607 133.258C260.45 133.258 259.715 133.809 260.319 134.15L268.428 138.585C269.327 139.865 270.563 140.871 271.999 141.491C273.435 142.112 275.014 142.323 276.562 142.102L280.184 141.498C284.829 149.029 289.578 160.996 281.365 164.145C272.705 167.425 253.391 152.231 249.875 149.318C254.887 146.563 257.327 143.073 255.858 137.562V137.693ZM248.799 149.948C251.16 151.916 268.165 165.693 278.531 165.693C280.234 165.79 281.923 165.33 283.343 164.383C284.763 163.437 285.837 162.054 286.403 160.445C288.529 153.989 282.861 144.017 281.286 141.393C283.254 141.052 285.222 140.685 287.112 140.291C288.607 142.915 288.371 145.539 290.549 147.954C293.777 157.243 294.249 167.714 284.934 170.81C275.198 174.038 260.817 167.95 242.212 152.703C244.6 151.654 247.25 150.578 248.799 149.817V149.948ZM95.0219 204.741C90.1409 204.924 88.514 203.901 88.4615 203.534C88.409 203.166 89.3799 202.09 94.5233 201.251L113.654 197.865C114.151 199.783 114.837 201.646 115.7 203.429C115.176 203.612 114.126 203.98 112.788 204.4C111.843 204.347 102.606 204.505 95.0219 204.741ZM99.4305 212.613C94.4708 212.902 92.7914 212.01 92.7389 211.669C92.6864 211.327 93.6049 210.304 98.6433 209.044C104.569 207.742 110.413 206.095 116.147 204.111C117 205.775 117.992 207.364 119.112 208.861C118.377 209.281 116.724 210.173 114.415 211.222C112.578 211.564 106.358 212.246 99.4305 212.613ZM127.64 215.605C116.356 217.232 113.129 218.229 106.804 218.833C101.556 219.436 99.8504 218.649 99.7717 218.281C99.693 217.914 100.585 216.917 105.519 215.657C110.49 214.248 115.28 212.267 119.794 209.753C121.121 211.381 122.532 212.94 124.019 214.424C124.11 214.514 124.232 214.565 124.36 214.565C124.488 214.565 124.611 214.514 124.701 214.424C124.792 214.333 124.843 214.211 124.843 214.083C124.843 213.955 124.792 213.832 124.701 213.742C119.112 207.785 115.359 202.746 113.864 194.323C113.833 194.196 113.758 194.084 113.652 194.007C113.546 193.93 113.417 193.893 113.286 193.903C113.158 193.928 113.045 194.003 112.971 194.111C112.898 194.219 112.869 194.352 112.893 194.48C112.893 195.32 113.207 196.133 113.391 196.921L111.685 197.209L98.5645 195.556C93.7098 194.926 92.2665 193.667 92.2928 193.299C92.319 192.932 93.4212 192.04 98.5908 192.013L113.444 191.725C113.444 191.725 120.476 191.462 120.476 189.101C120.476 184.823 112.604 175.429 115.228 173.67C116.173 172.988 119.663 174.904 126.486 182.304C127.663 183.586 129.197 184.486 130.89 184.888C132.583 185.29 134.358 185.176 135.985 184.561L142.966 182.094C147.479 188.103 150.838 202.589 149.552 210.383C142.391 212.674 135.066 214.42 127.64 215.605ZM258.193 324.141C256.906 326.813 255.104 329.205 252.891 331.179C250.678 333.154 248.097 334.672 245.296 335.647C242.495 336.622 239.529 337.035 236.568 336.862C233.607 336.689 230.71 335.933 228.041 334.637C150.786 297.374 158.028 300.864 157.189 300.523C139.922 292.966 128.664 300.523 100.401 296.718C117.533 286.256 135.928 278.02 155.142 272.208C161.102 275.472 167.475 277.917 174.088 279.477C189.623 283.282 226.572 291.129 231.19 292.126C230.607 296.846 230.274 301.594 230.193 306.349C230.193 306.481 230.246 306.608 230.339 306.701C230.433 306.795 230.56 306.847 230.692 306.847C230.824 306.847 230.951 306.795 231.044 306.701C231.138 306.608 231.19 306.481 231.19 306.349C231.547 297.007 232.511 287.697 234.077 278.48C246.531 284.976 259.757 289.869 273.44 293.044L258.193 324.141ZM326.737 328.339C322.512 346.263 294.564 409.007 294.249 409.689C289.001 425.434 296.611 439.185 291.625 464.797C289.788 461.123 283.753 449.052 267.562 406.75C270.528 401.095 272.978 395.184 274.883 389.089C276.772 382.555 291.73 326.975 291.783 326.686C291.835 326.398 291.783 326.686 284.54 289.948C297.989 290.376 311.4 288.294 324.086 283.807C326.911 298.463 327.776 313.429 326.658 328.313L326.737 328.339ZM329.518 280.737C313.927 287.158 297.052 289.854 280.236 288.609L296.559 246.019C296.597 245.956 296.62 245.886 296.628 245.813C296.635 245.74 296.627 245.666 296.602 245.597C296.578 245.528 296.539 245.465 296.488 245.412C296.436 245.36 296.374 245.32 296.305 245.294C296.237 245.269 296.163 245.258 296.09 245.265C296.017 245.271 295.946 245.293 295.883 245.33C295.819 245.366 295.764 245.416 295.723 245.477C295.681 245.537 295.653 245.606 295.64 245.678L277.586 292.756C260.916 289.3 244.872 283.318 230.01 275.016C236.133 252.014 248.281 231.062 265.2 214.319C276.431 216.943 294.066 217.573 303.67 211.695C305.428 216.156 317.237 246.806 329.44 280.711L329.518 280.737ZM335.318 155.984C325.195 160.376 314.536 163.411 303.618 165.011C302.082 161.802 300.142 158.804 297.845 156.088C297.76 155.999 297.645 155.943 297.522 155.934C297.399 155.924 297.276 155.96 297.178 156.035C297.081 156.11 297.014 156.219 296.992 156.34C296.969 156.462 296.993 156.587 297.057 156.692L297.635 157.453C303.329 164.801 309.207 172.411 303.46 210.645C294.564 216.445 277.638 216.182 265.462 213.479C264.518 206.761 259.348 200.201 254.572 194.323L257.852 182.435C257.852 182.147 257.852 181.307 257.196 181.7C230.193 194.979 194.872 205.554 149.264 213.925C153.541 207.365 148.004 183.537 141.575 179.339C186.343 170.574 212.664 164.328 241.057 153.097C256.96 166.218 269.53 172.647 279.213 172.647C290.366 172.647 296.847 164.775 291.861 149.029C292.885 149.502 290.444 149.344 326.658 149.344C326.79 149.344 326.917 149.292 327.011 149.198C327.104 149.105 327.157 148.978 327.157 148.846C327.157 148.714 327.104 148.587 327.011 148.493C326.917 148.4 326.79 148.347 326.658 148.347H296.113C299.314 145.985 302.148 139.714 303.224 131.92C303.576 129.399 303.699 126.852 303.592 124.31C303.434 121.082 302.726 116.07 300.443 113.629C306.504 114.364 322.459 116.253 336.472 118.195C342.692 119.009 350.748 124.362 352.874 131.552C355.944 141.97 345.211 151.68 335.239 155.957L335.318 155.984Z"/>
</mask>
<path d="M353.818 131.211C351.588 123.654 343.138 118.09 336.604 117.146C320.281 114.968 301.282 112.685 298.396 112.343C297.845 112.199 297.267 112.199 296.716 112.343C297.136 107.462 298.055 102.949 297.477 100.823C297.189 99.7736 296.296 99.5375 295.404 100.561C293.436 102.791 292.78 106.859 294.486 99.4587C295.01 96.992 296.06 91.2188 294.066 90.6415C292.99 90.3528 291.888 91.7437 290.917 93.6855C291.179 88.4372 290.366 87.4662 289.578 87.3088C287.978 87.0201 286.324 91.1401 285.747 92.6884C285.747 90.5365 285.747 88.5159 284.907 88.306C284.068 88.096 283.595 88.306 281.863 93.5543C280.131 99.1009 279.014 104.821 278.531 110.611C277.997 109.348 277.251 108.186 276.326 107.174C275.749 106.518 275.25 106.649 274.988 106.78C272.679 108.066 274.07 123.208 276.169 130.949C277.166 134.623 281.076 137.588 286.666 139.372C283.333 140.055 279.869 140.685 276.353 141.236C270.369 142.18 267.194 135.148 266.486 133.363C267.687 133.06 268.812 132.508 269.788 131.744C270.764 130.981 271.57 130.022 272.154 128.928C274.07 124.703 271.498 118.432 264.518 110.559C264.675 103.939 262.583 97.462 258.583 92.1854C254.583 86.9087 248.912 83.1448 242.496 81.5088C236.08 79.8727 229.298 80.4613 223.26 83.1784C217.222 85.8954 212.283 90.5802 209.252 96.4672C207.249 94.6323 204.769 93.3979 202.097 92.9051C199.425 92.4123 196.668 92.6809 194.142 93.6803C191.615 94.6796 189.421 96.3694 187.809 98.5566C186.197 100.744 185.233 103.34 185.026 106.05C184.82 108.759 185.379 111.471 186.641 113.878C187.903 116.284 189.816 118.287 192.162 119.657C194.508 121.028 197.192 121.711 199.908 121.629C202.624 121.547 205.262 120.703 207.52 119.193C209.016 123.583 211.534 127.554 214.865 130.781C218.196 134.008 222.246 136.398 226.682 137.753C231.117 139.108 235.811 139.391 240.377 138.578C244.943 137.764 249.25 135.878 252.945 133.074C257.222 141.288 255.884 145.854 246.306 149.843C215.393 162.701 188.416 169.131 139.79 178.709C137.691 179.129 136.904 181.018 136.484 183.275L135.539 183.59C134.097 184.142 132.522 184.246 131.02 183.891C129.518 183.535 128.157 182.735 127.116 181.595C117.275 170.915 115.228 172.358 114.546 172.831C110.898 175.455 119.558 184.744 119.505 189.074C119.505 189.888 116.094 190.728 113.444 190.78L98.617 191.069C95.9929 191.069 91.4268 191.384 91.3218 193.273C91.2169 195.162 94.9432 196.133 98.4596 196.58L108.405 197.839L94.3396 200.463C91.7155 200.909 87.2806 201.907 87.4643 203.796C87.648 205.685 90.8232 205.948 94.0772 205.948C95.5467 205.948 97.4886 205.79 109.35 205.554C106.49 206.42 102.737 207.417 98.3809 208.388C94.0247 209.359 91.558 210.645 91.7417 211.983C92.0303 214.004 97.4362 213.899 99.4568 213.794C101.477 213.689 107.172 213.269 111.161 212.797C109.35 213.479 107.356 214.188 105.23 214.765C100.69 216.025 98.5383 217.389 98.7745 218.649C99.3256 221.509 110.111 219.646 112.971 219.147C127.142 216.681 131.603 216.523 143.595 213.296C144.566 214.476 145.983 215.71 147.479 215.421C188.574 206.998 221.638 198.574 247.697 187.132C252.945 195.005 263.179 204.268 264.465 213.715C247.32 230.666 235.04 251.909 228.907 275.226C228.87 275.335 228.873 275.453 228.917 275.559C228.96 275.666 229.041 275.752 229.144 275.803L233.027 277.903C232.817 279.294 231.925 284.752 231.19 291.024C226.126 290.026 189.624 282.154 174.22 278.428C165.225 276.514 156.748 272.683 149.369 267.196C149.233 267.146 149.084 267.146 148.949 267.196C125.233 271.11 102.63 280.058 82.662 293.438C82.5807 293.49 82.5171 293.565 82.4798 293.654C82.4425 293.742 82.4332 293.84 82.4532 293.935C82.4731 294.029 82.5215 294.115 82.5916 294.181C82.6618 294.247 82.7505 294.29 82.8457 294.304C124.833 304.643 136.825 292.729 156.48 301.31C157.372 301.704 149.946 298.135 227.517 335.425C233.145 338.137 239.62 338.509 245.522 336.458C251.424 334.407 256.273 330.1 259.007 324.482L274.279 292.992L277.717 293.727C277.779 293.746 277.845 293.752 277.91 293.744C277.975 293.735 278.037 293.713 278.092 293.678C278.147 293.643 278.193 293.596 278.228 293.541C278.263 293.486 278.286 293.424 278.294 293.359L279.79 289.502C280.997 289.607 282.204 289.685 283.412 289.738L290.681 326.319C289.421 331.331 275.959 381.138 273.833 388.512C270.763 399.009 263.704 411.237 262.707 413.547C262.601 413.74 262.547 413.956 262.549 414.176C266.872 437.483 275.276 459.843 287.374 480.227C287.415 480.31 287.479 480.379 287.558 480.428C287.637 480.477 287.728 480.503 287.82 480.503C287.913 480.503 288.004 480.477 288.082 480.428C288.161 480.379 288.225 480.31 288.266 480.227C300.574 444.669 289.185 427.743 295.089 409.899C295.378 409.269 323.352 346.446 327.655 328.366C328.768 313.314 327.886 298.181 325.031 283.361C326.815 282.731 328.574 282.049 330.279 281.34C330.395 281.288 330.486 281.194 330.535 281.077C330.584 280.96 330.586 280.829 330.542 280.711C317.736 245.127 305.245 213.007 304.3 210.75C308.131 185.348 306.924 173.277 303.88 165.824C314.792 164.222 325.443 161.177 335.554 156.771C346.182 152.336 357.046 142.233 353.818 131.211ZM290.287 97.8055C292.203 92.5571 293.593 91.56 293.777 91.6124C293.961 91.6649 294.722 93.7118 293.515 99.275C292.413 104.235 291.337 108.67 290.707 112.396C289.676 111.357 288.501 110.474 287.217 109.772C288.161 105.179 289.683 99.1963 290.287 97.8055ZM288.844 88.7259C289.368 88.1223 289.526 88.2273 289.71 88.8833C290.106 91.3869 290.106 93.9373 289.71 96.4409C288.316 100.63 287.168 104.897 286.272 109.221C285.33 108.765 284.346 108.405 283.333 108.145C283.963 103.552 285.905 92.321 288.844 88.7259ZM277.114 130.713C274.699 121.712 274.227 108.512 275.408 107.699C276.86 109.207 277.867 111.087 278.321 113.131C278.12 115.19 278.12 117.264 278.321 119.324C278.324 119.395 278.343 119.464 278.376 119.527C278.409 119.59 278.455 119.646 278.511 119.69C278.567 119.734 278.631 119.765 278.7 119.782C278.769 119.799 278.841 119.801 278.911 119.788C278.981 119.774 279.047 119.746 279.106 119.705C279.164 119.664 279.212 119.612 279.249 119.55C279.285 119.489 279.307 119.421 279.314 119.35C279.322 119.279 279.314 119.208 279.292 119.14C278.989 110.591 280.152 102.053 282.729 93.8955C283.158 92.3894 283.776 90.9435 284.566 89.5918C284.797 92.4224 284.665 95.2709 284.173 98.0679C283.333 101.663 282.729 104.943 282.309 108.066L281.443 107.909C281.315 107.901 281.189 107.943 281.092 108.026C280.994 108.11 280.932 108.227 280.919 108.355C280.908 108.419 280.91 108.484 280.925 108.548C280.941 108.611 280.969 108.67 281.008 108.722C281.048 108.774 281.097 108.817 281.154 108.848C281.211 108.88 281.274 108.9 281.339 108.906C283.426 109.189 285.427 109.922 287.203 111.055C288.98 112.187 290.488 113.693 291.625 115.466C291.94 116.017 292.832 115.466 292.491 114.994C292.184 114.433 291.833 113.898 291.442 113.393C291.678 111.95 292.045 110.218 292.439 108.433C293.396 106.075 294.482 103.771 295.693 101.532C296.27 100.666 296.559 100.928 296.664 101.899C296.673 103.878 296.506 105.854 296.165 107.804C295.406 114.267 295.003 120.767 294.958 127.275C294.958 127.407 295.011 127.534 295.104 127.628C295.198 127.721 295.324 127.774 295.457 127.774C295.589 127.774 295.716 127.721 295.809 127.628C295.903 127.534 295.955 127.407 295.955 127.275C295.955 125.648 295.955 121.738 296.296 117.487C298.006 118.269 299.85 118.715 301.728 118.799C303.204 125.937 302.65 133.347 300.128 140.186C288.424 140.448 278.688 136.355 277.114 130.581V130.713ZM255.858 137.693C254.955 134.489 253.479 131.475 251.502 128.797C251.121 128.414 250.621 128.174 250.085 128.115C241.346 127.17 241.713 119.56 246.568 121.161C248.274 121.738 249.192 121.764 249.822 121.161C250.028 120.912 250.161 120.612 250.207 120.292C250.254 119.973 250.211 119.647 250.085 119.35C247.46 112.868 249.691 97.8317 261.001 108.276C265.41 112.37 273.912 122.551 271.262 128.43C269.084 133.206 260.765 133.258 260.607 133.258C260.45 133.258 259.715 133.809 260.319 134.15L268.428 138.585C269.327 139.865 270.563 140.871 271.999 141.491C273.435 142.112 275.014 142.323 276.562 142.102L280.184 141.498C284.829 149.029 289.578 160.996 281.365 164.145C272.705 167.425 253.391 152.231 249.875 149.318C254.887 146.563 257.327 143.073 255.858 137.562V137.693ZM248.799 149.948C251.16 151.916 268.165 165.693 278.531 165.693C280.234 165.79 281.923 165.33 283.343 164.383C284.763 163.437 285.837 162.054 286.403 160.445C288.529 153.989 282.861 144.017 281.286 141.393C283.254 141.052 285.222 140.685 287.112 140.291C288.607 142.915 288.371 145.539 290.549 147.954C293.777 157.243 294.249 167.714 284.934 170.81C275.198 174.038 260.817 167.95 242.212 152.703C244.6 151.654 247.25 150.578 248.799 149.817V149.948ZM95.0219 204.741C90.1409 204.924 88.514 203.901 88.4615 203.534C88.409 203.166 89.3799 202.09 94.5233 201.251L113.654 197.865C114.151 199.783 114.837 201.646 115.7 203.429C115.176 203.612 114.126 203.98 112.788 204.4C111.843 204.347 102.606 204.505 95.0219 204.741ZM99.4305 212.613C94.4708 212.902 92.7914 212.01 92.7389 211.669C92.6864 211.327 93.6049 210.304 98.6433 209.044C104.569 207.742 110.413 206.095 116.147 204.111C117 205.775 117.992 207.364 119.112 208.861C118.377 209.281 116.724 210.173 114.415 211.222C112.578 211.564 106.358 212.246 99.4305 212.613ZM127.64 215.605C116.356 217.232 113.129 218.229 106.804 218.833C101.556 219.436 99.8504 218.649 99.7717 218.281C99.693 217.914 100.585 216.917 105.519 215.657C110.49 214.248 115.28 212.267 119.794 209.753C121.121 211.381 122.532 212.94 124.019 214.424C124.11 214.514 124.232 214.565 124.36 214.565C124.488 214.565 124.611 214.514 124.701 214.424C124.792 214.333 124.843 214.211 124.843 214.083C124.843 213.955 124.792 213.832 124.701 213.742C119.112 207.785 115.359 202.746 113.864 194.323C113.833 194.196 113.758 194.084 113.652 194.007C113.546 193.93 113.417 193.893 113.286 193.903C113.158 193.928 113.045 194.003 112.971 194.111C112.898 194.219 112.869 194.352 112.893 194.48C112.893 195.32 113.207 196.133 113.391 196.921L111.685 197.209L98.5645 195.556C93.7098 194.926 92.2665 193.667 92.2928 193.299C92.319 192.932 93.4212 192.04 98.5908 192.013L113.444 191.725C113.444 191.725 120.476 191.462 120.476 189.101C120.476 184.823 112.604 175.429 115.228 173.67C116.173 172.988 119.663 174.904 126.486 182.304C127.663 183.586 129.197 184.486 130.89 184.888C132.583 185.29 134.358 185.176 135.985 184.561L142.966 182.094C147.479 188.103 150.838 202.589 149.552 210.383C142.391 212.674 135.066 214.42 127.64 215.605ZM258.193 324.141C256.906 326.813 255.104 329.205 252.891 331.179C250.678 333.154 248.097 334.672 245.296 335.647C242.495 336.622 239.529 337.035 236.568 336.862C233.607 336.689 230.71 335.933 228.041 334.637C150.786 297.374 158.028 300.864 157.189 300.523C139.922 292.966 128.664 300.523 100.401 296.718C117.533 286.256 135.928 278.02 155.142 272.208C161.102 275.472 167.475 277.917 174.088 279.477C189.623 283.282 226.572 291.129 231.19 292.126C230.607 296.846 230.274 301.594 230.193 306.349C230.193 306.481 230.246 306.608 230.339 306.701C230.433 306.795 230.56 306.847 230.692 306.847C230.824 306.847 230.951 306.795 231.044 306.701C231.138 306.608 231.19 306.481 231.19 306.349C231.547 297.007 232.511 287.697 234.077 278.48C246.531 284.976 259.757 289.869 273.44 293.044L258.193 324.141ZM326.737 328.339C322.512 346.263 294.564 409.007 294.249 409.689C289.001 425.434 296.611 439.185 291.625 464.797C289.788 461.123 283.753 449.052 267.562 406.75C270.528 401.095 272.978 395.184 274.883 389.089C276.772 382.555 291.73 326.975 291.783 326.686C291.835 326.398 291.783 326.686 284.54 289.948C297.989 290.376 311.4 288.294 324.086 283.807C326.911 298.463 327.776 313.429 326.658 328.313L326.737 328.339ZM329.518 280.737C313.927 287.158 297.052 289.854 280.236 288.609L296.559 246.019C296.597 245.956 296.62 245.886 296.628 245.813C296.635 245.74 296.627 245.666 296.602 245.597C296.578 245.528 296.539 245.465 296.488 245.412C296.436 245.36 296.374 245.32 296.305 245.294C296.237 245.269 296.163 245.258 296.09 245.265C296.017 245.271 295.946 245.293 295.883 245.33C295.819 245.366 295.764 245.416 295.723 245.477C295.681 245.537 295.653 245.606 295.64 245.678L277.586 292.756C260.916 289.3 244.872 283.318 230.01 275.016C236.133 252.014 248.281 231.062 265.2 214.319C276.431 216.943 294.066 217.573 303.67 211.695C305.428 216.156 317.237 246.806 329.44 280.711L329.518 280.737ZM335.318 155.984C325.195 160.376 314.536 163.411 303.618 165.011C302.082 161.802 300.142 158.804 297.845 156.088C297.76 155.999 297.645 155.943 297.522 155.934C297.399 155.924 297.276 155.96 297.178 156.035C297.081 156.11 297.014 156.219 296.992 156.34C296.969 156.462 296.993 156.587 297.057 156.692L297.635 157.453C303.329 164.801 309.207 172.411 303.46 210.645C294.564 216.445 277.638 216.182 265.462 213.479C264.518 206.761 259.348 200.201 254.572 194.323L257.852 182.435C257.852 182.147 257.852 181.307 257.196 181.7C230.193 194.979 194.872 205.554 149.264 213.925C153.541 207.365 148.004 183.537 141.575 179.339C186.343 170.574 212.664 164.328 241.057 153.097C256.96 166.218 269.53 172.647 279.213 172.647C290.366 172.647 296.847 164.775 291.861 149.029C292.885 149.502 290.444 149.344 326.658 149.344C326.79 149.344 326.917 149.292 327.011 149.198C327.104 149.105 327.157 148.978 327.157 148.846C327.157 148.714 327.104 148.587 327.011 148.493C326.917 148.4 326.79 148.347 326.658 148.347H296.113C299.314 145.985 302.148 139.714 303.224 131.92C303.576 129.399 303.699 126.852 303.592 124.31C303.434 121.082 302.726 116.07 300.443 113.629C306.504 114.364 322.459 116.253 336.472 118.195C342.692 119.009 350.748 124.362 352.874 131.552C355.944 141.97 345.211 151.68 335.239 155.957L335.318 155.984Z" fill="white"/>
<path d="M353.818 131.211C351.588 123.654 343.138 118.09 336.604 117.146C320.281 114.968 301.282 112.685 298.396 112.343C297.845 112.199 297.267 112.199 296.716 112.343C297.136 107.462 298.055 102.949 297.477 100.823C297.189 99.7736 296.296 99.5375 295.404 100.561C293.436 102.791 292.78 106.859 294.486 99.4587C295.01 96.992 296.06 91.2188 294.066 90.6415C292.99 90.3528 291.888 91.7437 290.917 93.6855C291.179 88.4372 290.366 87.4662 289.578 87.3088C287.978 87.0201 286.324 91.1401 285.747 92.6884C285.747 90.5365 285.747 88.5159 284.907 88.306C284.068 88.096 283.595 88.306 281.863 93.5543C280.131 99.1009 279.014 104.821 278.531 110.611C277.997 109.348 277.251 108.186 276.326 107.174C275.749 106.518 275.25 106.649 274.988 106.78C272.679 108.066 274.07 123.208 276.169 130.949C277.166 134.623 281.076 137.588 286.666 139.372C283.333 140.055 279.869 140.685 276.353 141.236C270.369 142.18 267.194 135.148 266.486 133.363C267.687 133.06 268.812 132.508 269.788 131.744C270.764 130.981 271.57 130.022 272.154 128.928C274.07 124.703 271.498 118.432 264.518 110.559C264.675 103.939 262.583 97.462 258.583 92.1854C254.583 86.9087 248.912 83.1448 242.496 81.5088C236.08 79.8727 229.298 80.4613 223.26 83.1784C217.222 85.8954 212.283 90.5802 209.252 96.4672C207.249 94.6323 204.769 93.3979 202.097 92.9051C199.425 92.4123 196.668 92.6809 194.142 93.6803C191.615 94.6796 189.421 96.3694 187.809 98.5566C186.197 100.744 185.233 103.34 185.026 106.05C184.82 108.759 185.379 111.471 186.641 113.878C187.903 116.284 189.816 118.287 192.162 119.657C194.508 121.028 197.192 121.711 199.908 121.629C202.624 121.547 205.262 120.703 207.52 119.193C209.016 123.583 211.534 127.554 214.865 130.781C218.196 134.008 222.246 136.398 226.682 137.753C231.117 139.108 235.811 139.391 240.377 138.578C244.943 137.764 249.25 135.878 252.945 133.074C257.222 141.288 255.884 145.854 246.306 149.843C215.393 162.701 188.416 169.131 139.79 178.709C137.691 179.129 136.904 181.018 136.484 183.275L135.539 183.59C134.097 184.142 132.522 184.246 131.02 183.891C129.518 183.535 128.157 182.735 127.116 181.595C117.275 170.915 115.228 172.358 114.546 172.831C110.898 175.455 119.558 184.744 119.505 189.074C119.505 189.888 116.094 190.728 113.444 190.78L98.617 191.069C95.9929 191.069 91.4268 191.384 91.3218 193.273C91.2169 195.162 94.9432 196.133 98.4596 196.58L108.405 197.839L94.3396 200.463C91.7155 200.909 87.2806 201.907 87.4643 203.796C87.648 205.685 90.8232 205.948 94.0772 205.948C95.5467 205.948 97.4886 205.79 109.35 205.554C106.49 206.42 102.737 207.417 98.3809 208.388C94.0247 209.359 91.558 210.645 91.7417 211.983C92.0303 214.004 97.4362 213.899 99.4568 213.794C101.477 213.689 107.172 213.269 111.161 212.797C109.35 213.479 107.356 214.188 105.23 214.765C100.69 216.025 98.5383 217.389 98.7745 218.649C99.3256 221.509 110.111 219.646 112.971 219.147C127.142 216.681 131.603 216.523 143.595 213.296C144.566 214.476 145.983 215.71 147.479 215.421C188.574 206.998 221.638 198.574 247.697 187.132C252.945 195.005 263.179 204.268 264.465 213.715C247.32 230.666 235.04 251.909 228.907 275.226C228.87 275.335 228.873 275.453 228.917 275.559C228.96 275.666 229.041 275.752 229.144 275.803L233.027 277.903C232.817 279.294 231.925 284.752 231.19 291.024C226.126 290.026 189.624 282.154 174.22 278.428C165.225 276.514 156.748 272.683 149.369 267.196C149.233 267.146 149.084 267.146 148.949 267.196C125.233 271.11 102.63 280.058 82.662 293.438C82.5807 293.49 82.5171 293.565 82.4798 293.654C82.4425 293.742 82.4332 293.84 82.4532 293.935C82.4731 294.029 82.5215 294.115 82.5916 294.181C82.6618 294.247 82.7505 294.29 82.8457 294.304C124.833 304.643 136.825 292.729 156.48 301.31C157.372 301.704 149.946 298.135 227.517 335.425C233.145 338.137 239.62 338.509 245.522 336.458C251.424 334.407 256.273 330.1 259.007 324.482L274.279 292.992L277.717 293.727C277.779 293.746 277.845 293.752 277.91 293.744C277.975 293.735 278.037 293.713 278.092 293.678C278.147 293.643 278.193 293.596 278.228 293.541C278.263 293.486 278.286 293.424 278.294 293.359L279.79 289.502C280.997 289.607 282.204 289.685 283.412 289.738L290.681 326.319C289.421 331.331 275.959 381.138 273.833 388.512C270.763 399.009 263.704 411.237 262.707 413.547C262.601 413.74 262.547 413.956 262.549 414.176C266.872 437.483 275.276 459.843 287.374 480.227C287.415 480.31 287.479 480.379 287.558 480.428C287.637 480.477 287.728 480.503 287.82 480.503C287.913 480.503 288.004 480.477 288.082 480.428C288.161 480.379 288.225 480.31 288.266 480.227C300.574 444.669 289.185 427.743 295.089 409.899C295.378 409.269 323.352 346.446 327.655 328.366C328.768 313.314 327.886 298.181 325.031 283.361C326.815 282.731 328.574 282.049 330.279 281.34C330.395 281.288 330.486 281.194 330.535 281.077C330.584 280.96 330.586 280.829 330.542 280.711C317.736 245.127 305.245 213.007 304.3 210.75C308.131 185.348 306.924 173.277 303.88 165.824C314.792 164.222 325.443 161.177 335.554 156.771C346.182 152.336 357.046 142.233 353.818 131.211ZM290.287 97.8055C292.203 92.5571 293.593 91.56 293.777 91.6124C293.961 91.6649 294.722 93.7118 293.515 99.275C292.413 104.235 291.337 108.67 290.707 112.396C289.676 111.357 288.501 110.474 287.217 109.772C288.161 105.179 289.683 99.1963 290.287 97.8055ZM288.844 88.7259C289.368 88.1223 289.526 88.2273 289.71 88.8833C290.106 91.3869 290.106 93.9373 289.71 96.4409C288.316 100.63 287.168 104.897 286.272 109.221C285.33 108.765 284.346 108.405 283.333 108.145C283.963 103.552 285.905 92.321 288.844 88.7259ZM277.114 130.713C274.699 121.712 274.227 108.512 275.408 107.699C276.86 109.207 277.867 111.087 278.321 113.131C278.12 115.19 278.12 117.264 278.321 119.324C278.324 119.395 278.343 119.464 278.376 119.527C278.409 119.59 278.455 119.646 278.511 119.69C278.567 119.734 278.631 119.765 278.7 119.782C278.769 119.799 278.841 119.801 278.911 119.788C278.981 119.774 279.047 119.746 279.106 119.705C279.164 119.664 279.212 119.612 279.249 119.55C279.285 119.489 279.307 119.421 279.314 119.35C279.322 119.279 279.314 119.208 279.292 119.14C278.989 110.591 280.152 102.053 282.729 93.8955C283.158 92.3894 283.776 90.9435 284.566 89.5918C284.797 92.4224 284.665 95.2709 284.173 98.0679C283.333 101.663 282.729 104.943 282.309 108.066L281.443 107.909C281.315 107.901 281.189 107.943 281.092 108.026C280.994 108.11 280.932 108.227 280.919 108.355C280.908 108.419 280.91 108.484 280.925 108.548C280.941 108.611 280.969 108.67 281.008 108.722C281.048 108.774 281.097 108.817 281.154 108.848C281.211 108.88 281.274 108.9 281.339 108.906C283.426 109.189 285.427 109.922 287.203 111.055C288.98 112.187 290.488 113.693 291.625 115.466C291.94 116.017 292.832 115.466 292.491 114.994C292.184 114.433 291.833 113.898 291.442 113.393C291.678 111.95 292.045 110.218 292.439 108.433C293.396 106.075 294.482 103.771 295.693 101.532C296.27 100.666 296.559 100.928 296.664 101.899C296.673 103.878 296.506 105.854 296.165 107.804C295.406 114.267 295.003 120.767 294.958 127.275C294.958 127.407 295.011 127.534 295.104 127.628C295.198 127.721 295.324 127.774 295.457 127.774C295.589 127.774 295.716 127.721 295.809 127.628C295.903 127.534 295.955 127.407 295.955 127.275C295.955 125.648 295.955 121.738 296.296 117.487C298.006 118.269 299.85 118.715 301.728 118.799C303.204 125.937 302.65 133.347 300.128 140.186C288.424 140.448 278.688 136.355 277.114 130.581V130.713ZM255.858 137.693C254.955 134.489 253.479 131.475 251.502 128.797C251.121 128.414 250.621 128.174 250.085 128.115C241.346 127.17 241.713 119.56 246.568 121.161C248.274 121.738 249.192 121.764 249.822 121.161C250.028 120.912 250.161 120.612 250.207 120.292C250.254 119.973 250.211 119.647 250.085 119.35C247.46 112.868 249.691 97.8317 261.001 108.276C265.41 112.37 273.912 122.551 271.262 128.43C269.084 133.206 260.765 133.258 260.607 133.258C260.45 133.258 259.715 133.809 260.319 134.15L268.428 138.585C269.327 139.865 270.563 140.871 271.999 141.491C273.435 142.112 275.014 142.323 276.562 142.102L280.184 141.498C284.829 149.029 289.578 160.996 281.365 164.145C272.705 167.425 253.391 152.231 249.875 149.318C254.887 146.563 257.327 143.073 255.858 137.562V137.693ZM248.799 149.948C251.16 151.916 268.165 165.693 278.531 165.693C280.234 165.79 281.923 165.33 283.343 164.383C284.763 163.437 285.837 162.054 286.403 160.445C288.529 153.989 282.861 144.017 281.286 141.393C283.254 141.052 285.222 140.685 287.112 140.291C288.607 142.915 288.371 145.539 290.549 147.954C293.777 157.243 294.249 167.714 284.934 170.81C275.198 174.038 260.817 167.95 242.212 152.703C244.6 151.654 247.25 150.578 248.799 149.817V149.948ZM95.0219 204.741C90.1409 204.924 88.514 203.901 88.4615 203.534C88.409 203.166 89.3799 202.09 94.5233 201.251L113.654 197.865C114.151 199.783 114.837 201.646 115.7 203.429C115.176 203.612 114.126 203.98 112.788 204.4C111.843 204.347 102.606 204.505 95.0219 204.741ZM99.4305 212.613C94.4708 212.902 92.7914 212.01 92.7389 211.669C92.6864 211.327 93.6049 210.304 98.6433 209.044C104.569 207.742 110.413 206.095 116.147 204.111C117 205.775 117.992 207.364 119.112 208.861C118.377 209.281 116.724 210.173 114.415 211.222C112.578 211.564 106.358 212.246 99.4305 212.613ZM127.64 215.605C116.356 217.232 113.129 218.229 106.804 218.833C101.556 219.436 99.8504 218.649 99.7717 218.281C99.693 217.914 100.585 216.917 105.519 215.657C110.49 214.248 115.28 212.267 119.794 209.753C121.121 211.381 122.532 212.94 124.019 214.424C124.11 214.514 124.232 214.565 124.36 214.565C124.488 214.565 124.611 214.514 124.701 214.424C124.792 214.333 124.843 214.211 124.843 214.083C124.843 213.955 124.792 213.832 124.701 213.742C119.112 207.785 115.359 202.746 113.864 194.323C113.833 194.196 113.758 194.084 113.652 194.007C113.546 193.93 113.417 193.893 113.286 193.903C113.158 193.928 113.045 194.003 112.971 194.111C112.898 194.219 112.869 194.352 112.893 194.48C112.893 195.32 113.207 196.133 113.391 196.921L111.685 197.209L98.5645 195.556C93.7098 194.926 92.2665 193.667 92.2928 193.299C92.319 192.932 93.4212 192.04 98.5908 192.013L113.444 191.725C113.444 191.725 120.476 191.462 120.476 189.101C120.476 184.823 112.604 175.429 115.228 173.67C116.173 172.988 119.663 174.904 126.486 182.304C127.663 183.586 129.197 184.486 130.89 184.888C132.583 185.29 134.358 185.176 135.985 184.561L142.966 182.094C147.479 188.103 150.838 202.589 149.552 210.383C142.391 212.674 135.066 214.42 127.64 215.605ZM258.193 324.141C256.906 326.813 255.104 329.205 252.891 331.179C250.678 333.154 248.097 334.672 245.296 335.647C242.495 336.622 239.529 337.035 236.568 336.862C233.607 336.689 230.71 335.933 228.041 334.637C150.786 297.374 158.028 300.864 157.189 300.523C139.922 292.966 128.664 300.523 100.401 296.718C117.533 286.256 135.928 278.02 155.142 272.208C161.102 275.472 167.475 277.917 174.088 279.477C189.623 283.282 226.572 291.129 231.19 292.126C230.607 296.846 230.274 301.594 230.193 306.349C230.193 306.481 230.246 306.608 230.339 306.701C230.433 306.795 230.56 306.847 230.692 306.847C230.824 306.847 230.951 306.795 231.044 306.701C231.138 306.608 231.19 306.481 231.19 306.349C231.547 297.007 232.511 287.697 234.077 278.48C246.531 284.976 259.757 289.869 273.44 293.044L258.193 324.141ZM326.737 328.339C322.512 346.263 294.564 409.007 294.249 409.689C289.001 425.434 296.611 439.185 291.625 464.797C289.788 461.123 283.753 449.052 267.562 406.75C270.528 401.095 272.978 395.184 274.883 389.089C276.772 382.555 291.73 326.975 291.783 326.686C291.835 326.398 291.783 326.686 284.54 289.948C297.989 290.376 311.4 288.294 324.086 283.807C326.911 298.463 327.776 313.429 326.658 328.313L326.737 328.339ZM329.518 280.737C313.927 287.158 297.052 289.854 280.236 288.609L296.559 246.019C296.597 245.956 296.62 245.886 296.628 245.813C296.635 245.74 296.627 245.666 296.602 245.597C296.578 245.528 296.539 245.465 296.488 245.412C296.436 245.36 296.374 245.32 296.305 245.294C296.237 245.269 296.163 245.258 296.09 245.265C296.017 245.271 295.946 245.293 295.883 245.33C295.819 245.366 295.764 245.416 295.723 245.477C295.681 245.537 295.653 245.606 295.64 245.678L277.586 292.756C260.916 289.3 244.872 283.318 230.01 275.016C236.133 252.014 248.281 231.062 265.2 214.319C276.431 216.943 294.066 217.573 303.67 211.695C305.428 216.156 317.237 246.806 329.44 280.711L329.518 280.737ZM335.318 155.984C325.195 160.376 314.536 163.411 303.618 165.011C302.082 161.802 300.142 158.804 297.845 156.088C297.76 155.999 297.645 155.943 297.522 155.934C297.399 155.924 297.276 155.96 297.178 156.035C297.081 156.11 297.014 156.219 296.992 156.34C296.969 156.462 296.993 156.587 297.057 156.692L297.635 157.453C303.329 164.801 309.207 172.411 303.46 210.645C294.564 216.445 277.638 216.182 265.462 213.479C264.518 206.761 259.348 200.201 254.572 194.323L257.852 182.435C257.852 182.147 257.852 181.307 257.196 181.7C230.193 194.979 194.872 205.554 149.264 213.925C153.541 207.365 148.004 183.537 141.575 179.339C186.343 170.574 212.664 164.328 241.057 153.097C256.96 166.218 269.53 172.647 279.213 172.647C290.366 172.647 296.847 164.775 291.861 149.029C292.885 149.502 290.444 149.344 326.658 149.344C326.79 149.344 326.917 149.292 327.011 149.198C327.104 149.105 327.157 148.978 327.157 148.846C327.157 148.714 327.104 148.587 327.011 148.493C326.917 148.4 326.79 148.347 326.658 148.347H296.113C299.314 145.985 302.148 139.714 303.224 131.92C303.576 129.399 303.699 126.852 303.592 124.31C303.434 121.082 302.726 116.07 300.443 113.629C306.504 114.364 322.459 116.253 336.472 118.195C342.692 119.009 350.748 124.362 352.874 131.552C355.944 141.97 345.211 151.68 335.239 155.957L335.318 155.984Z" stroke="white" stroke-width="0.6" mask="url(#path-15-outside-15_1_1019)"/>
</svg>
