<svg width="482" height="448" viewBox="0 0 482 448" fill="none" xmlns="http://www.w3.org/2000/svg">
<mask id="path-1-outside-1_1_968" maskUnits="userSpaceOnUse" x="235.471" y="48.947" width="174" height="168" fill="black">
<rect fill="white" x="235.471" y="48.947" width="174" height="168"/>
<path d="M398.256 80.516L271.335 50.3087C262.978 48.7731 258.195 52.247 255.778 58.4646L253.89 63.4992C258.698 71.9824 254.369 86.8343 247.446 90.9375C249.057 106.696 248.654 114.298 246.943 116.412C245.231 118.527 241.228 119.534 236.471 118.779C236.965 122.093 237.638 125.379 238.485 128.621C240.256 128.773 242.014 129.05 243.746 129.452L269.724 61.6112L391.761 91.2396L353.272 201.093L317.703 190.395C314.959 193.944 311.989 197.72 308.767 201.672L353.499 215.115C360.346 217.179 366.916 214.964 369.962 206.707L407.721 97.8852C410.389 90.4089 409.659 83.3101 398.256 80.516ZM384.31 151.277C384.158 151.846 383.891 152.379 383.525 152.841C383.158 153.304 382.701 153.686 382.181 153.964C381.661 154.242 381.089 154.41 380.501 154.458C379.913 154.506 379.322 154.433 378.763 154.242C378.205 154.052 377.692 153.749 377.255 153.353C376.819 152.956 376.469 152.474 376.226 151.936C375.984 151.398 375.855 150.816 375.847 150.227C375.839 149.637 375.952 149.052 376.179 148.508C376.331 147.938 376.599 147.405 376.965 146.943C377.332 146.481 377.789 146.099 378.309 145.82C378.829 145.542 379.401 145.374 379.989 145.326C380.577 145.278 381.168 145.352 381.726 145.542C382.285 145.732 382.798 146.035 383.234 146.432C383.671 146.828 384.021 147.31 384.263 147.848C384.506 148.386 384.635 148.968 384.643 149.558C384.651 150.147 384.538 150.732 384.31 151.277Z"/>
</mask>
<path d="M398.256 80.516L271.335 50.3087C262.978 48.7731 258.195 52.247 255.778 58.4646L253.89 63.4992C258.698 71.9824 254.369 86.8343 247.446 90.9375C249.057 106.696 248.654 114.298 246.943 116.412C245.231 118.527 241.228 119.534 236.471 118.779C236.965 122.093 237.638 125.379 238.485 128.621C240.256 128.773 242.014 129.05 243.746 129.452L269.724 61.6112L391.761 91.2396L353.272 201.093L317.703 190.395C314.959 193.944 311.989 197.72 308.767 201.672L353.499 215.115C360.346 217.179 366.916 214.964 369.962 206.707L407.721 97.8852C410.389 90.4089 409.659 83.3101 398.256 80.516ZM384.31 151.277C384.158 151.846 383.891 152.379 383.525 152.841C383.158 153.304 382.701 153.686 382.181 153.964C381.661 154.242 381.089 154.41 380.501 154.458C379.913 154.506 379.322 154.433 378.763 154.242C378.205 154.052 377.692 153.749 377.255 153.353C376.819 152.956 376.469 152.474 376.226 151.936C375.984 151.398 375.855 150.816 375.847 150.227C375.839 149.637 375.952 149.052 376.179 148.508C376.331 147.938 376.599 147.405 376.965 146.943C377.332 146.481 377.789 146.099 378.309 145.82C378.829 145.542 379.401 145.374 379.989 145.326C380.577 145.278 381.168 145.352 381.726 145.542C382.285 145.732 382.798 146.035 383.234 146.432C383.671 146.828 384.021 147.31 384.263 147.848C384.506 148.386 384.635 148.968 384.643 149.558C384.651 150.147 384.538 150.732 384.31 151.277Z" fill="white"/>
<path d="M398.256 80.516L271.335 50.3087C262.978 48.7731 258.195 52.247 255.778 58.4646L253.89 63.4992C258.698 71.9824 254.369 86.8343 247.446 90.9375C249.057 106.696 248.654 114.298 246.943 116.412C245.231 118.527 241.228 119.534 236.471 118.779C236.965 122.093 237.638 125.379 238.485 128.621C240.256 128.773 242.014 129.05 243.746 129.452L269.724 61.6112L391.761 91.2396L353.272 201.093L317.703 190.395C314.959 193.944 311.989 197.72 308.767 201.672L353.499 215.115C360.346 217.179 366.916 214.964 369.962 206.707L407.721 97.8852C410.389 90.4089 409.659 83.3101 398.256 80.516ZM384.31 151.277C384.158 151.846 383.891 152.379 383.525 152.841C383.158 153.304 382.701 153.686 382.181 153.964C381.661 154.242 381.089 154.41 380.501 154.458C379.913 154.506 379.322 154.433 378.763 154.242C378.205 154.052 377.692 153.749 377.255 153.353C376.819 152.956 376.469 152.474 376.226 151.936C375.984 151.398 375.855 150.816 375.847 150.227C375.839 149.637 375.952 149.052 376.179 148.508C376.331 147.938 376.599 147.405 376.965 146.943C377.332 146.481 377.789 146.099 378.309 145.82C378.829 145.542 379.401 145.374 379.989 145.326C380.577 145.278 381.168 145.352 381.726 145.542C382.285 145.732 382.798 146.035 383.234 146.432C383.671 146.828 384.021 147.31 384.263 147.848C384.506 148.386 384.635 148.968 384.643 149.558C384.651 150.147 384.538 150.732 384.31 151.277Z" stroke="white" stroke-width="0.6" mask="url(#path-1-outside-1_1_968)"/>
<mask id="path-2-outside-2_1_968" maskUnits="userSpaceOnUse" x="101.327" y="127.408" width="230" height="113" fill="black">
<rect fill="white" x="101.327" y="127.408" width="230" height="113"/>
<path d="M329.108 163.862C329.987 166.918 330.294 170.11 330.014 173.277C321.135 186.277 311.529 198.766 301.242 210.683C289.285 224.579 278.762 225.787 266.403 213.578C258.851 206.026 238.99 178.689 233.678 170.332C234.854 179.513 235.392 188.765 235.289 198.022C235.037 198.701 234.559 200.086 234.559 200.086C216.309 196.36 196.095 197.367 179.683 205.12C179.166 193.225 177.702 181.39 175.302 169.727C169.01 176.848 162.285 183.574 155.164 189.866C151.288 191.2 147.612 192.383 145.095 193.44C144.441 199.859 143.358 228.053 143.232 240.161C143.232 238.449 140.715 236.46 134.85 235.126C127.753 233.835 120.526 233.412 113.327 233.868C105.775 234.371 102.553 236.032 102.327 237.769C102.502 224.361 103.435 210.973 105.121 197.669C107.638 178.563 109.023 172.496 128.834 159.91C152.222 145.335 178.193 135.388 205.334 130.609C216.273 128.689 227.396 128.022 238.486 128.62C252.608 129.854 259.455 136.676 281.959 169.425C285.937 164.114 298.599 150.168 302.274 146.015C310.732 143.724 325.307 150.873 329.108 163.862Z"/>
</mask>
<path d="M329.108 163.862C329.987 166.918 330.294 170.11 330.014 173.277C321.135 186.277 311.529 198.766 301.242 210.683C289.285 224.579 278.762 225.787 266.403 213.578C258.851 206.026 238.99 178.689 233.678 170.332C234.854 179.513 235.392 188.765 235.289 198.022C235.037 198.701 234.559 200.086 234.559 200.086C216.309 196.36 196.095 197.367 179.683 205.12C179.166 193.225 177.702 181.39 175.302 169.727C169.01 176.848 162.285 183.574 155.164 189.866C151.288 191.2 147.612 192.383 145.095 193.44C144.441 199.859 143.358 228.053 143.232 240.161C143.232 238.449 140.715 236.46 134.85 235.126C127.753 233.835 120.526 233.412 113.327 233.868C105.775 234.371 102.553 236.032 102.327 237.769C102.502 224.361 103.435 210.973 105.121 197.669C107.638 178.563 109.023 172.496 128.834 159.91C152.222 145.335 178.193 135.388 205.334 130.609C216.273 128.689 227.396 128.022 238.486 128.62C252.608 129.854 259.455 136.676 281.959 169.425C285.937 164.114 298.599 150.168 302.274 146.015C310.732 143.724 325.307 150.873 329.108 163.862Z" fill="#E63946"/>
<path d="M329.108 163.862C329.987 166.918 330.294 170.11 330.014 173.277C321.135 186.277 311.529 198.766 301.242 210.683C289.285 224.579 278.762 225.787 266.403 213.578C258.851 206.026 238.99 178.689 233.678 170.332C234.854 179.513 235.392 188.765 235.289 198.022C235.037 198.701 234.559 200.086 234.559 200.086C216.309 196.36 196.095 197.367 179.683 205.12C179.166 193.225 177.702 181.39 175.302 169.727C169.01 176.848 162.285 183.574 155.164 189.866C151.288 191.2 147.612 192.383 145.095 193.44C144.441 199.859 143.358 228.053 143.232 240.161C143.232 238.449 140.715 236.46 134.85 235.126C127.753 233.835 120.526 233.412 113.327 233.868C105.775 234.371 102.553 236.032 102.327 237.769C102.502 224.361 103.435 210.973 105.121 197.669C107.638 178.563 109.023 172.496 128.834 159.91C152.222 145.335 178.193 135.388 205.334 130.609C216.273 128.689 227.396 128.022 238.486 128.62C252.608 129.854 259.455 136.676 281.959 169.425C285.937 164.114 298.599 150.168 302.274 146.015C310.732 143.724 325.307 150.873 329.108 163.862Z" stroke="white" stroke-width="0.6" mask="url(#path-2-outside-2_1_968)"/>
<mask id="path-3-outside-3_1_968" maskUnits="userSpaceOnUse" x="263.64" y="377.418" width="72" height="49" fill="black">
<rect fill="white" x="263.64" y="377.418" width="72" height="49"/>
<path d="M334.469 425.658C333.009 416.973 266.855 397.339 264.64 404.437C265.193 400.561 267.484 382.713 268.164 378.509C277.316 378.142 286.478 378.886 295.451 380.725C295.232 384.193 296.249 387.626 298.321 390.416C307.559 403.003 334.821 413.072 334.469 425.658Z"/>
</mask>
<path d="M334.469 425.658C333.009 416.973 266.855 397.339 264.64 404.437C265.193 400.561 267.484 382.713 268.164 378.509C277.316 378.142 286.478 378.886 295.451 380.725C295.232 384.193 296.249 387.626 298.321 390.416C307.559 403.003 334.821 413.072 334.469 425.658Z" fill="#E63946"/>
<path d="M334.469 425.658C333.009 416.973 266.855 397.339 264.64 404.437C265.193 400.561 267.484 382.713 268.164 378.509C277.316 378.142 286.478 378.886 295.451 380.725C295.232 384.193 296.249 387.626 298.321 390.416C307.559 403.003 334.821 413.072 334.469 425.658Z" stroke="white" stroke-width="0.6" mask="url(#path-3-outside-3_1_968)"/>
<mask id="path-4-outside-4_1_968" maskUnits="userSpaceOnUse" x="58.2036" y="364.898" width="32" height="82" fill="black">
<rect fill="white" x="58.2036" y="364.898" width="32" height="82"/>
<path d="M89.2347 393.739C87.1121 394.172 85.1372 395.146 83.5011 396.566C81.865 397.986 80.6231 399.804 79.8956 401.845C78.0732 406.712 76.8558 411.784 76.2707 416.948C74.559 428.704 71.4124 442.927 63.6844 446.249C71.9914 440.233 67.6113 371.814 59.2036 371.814C64.943 370.53 68.7441 369.296 83.7722 365.898C87.0435 374.834 88.8869 384.229 89.2347 393.739Z"/>
</mask>
<path d="M89.2347 393.739C87.1121 394.172 85.1372 395.146 83.5011 396.566C81.865 397.986 80.6231 399.804 79.8956 401.845C78.0732 406.712 76.8558 411.784 76.2707 416.948C74.559 428.704 71.4124 442.927 63.6844 446.249C71.9914 440.233 67.6113 371.814 59.2036 371.814C64.943 370.53 68.7441 369.296 83.7722 365.898C87.0435 374.834 88.8869 384.229 89.2347 393.739Z" fill="#E63946"/>
<path d="M89.2347 393.739C87.1121 394.172 85.1372 395.146 83.5011 396.566C81.865 397.986 80.6231 399.804 79.8956 401.845C78.0732 406.712 76.8558 411.784 76.2707 416.948C74.559 428.704 71.4124 442.927 63.6844 446.249C71.9914 440.233 67.6113 371.814 59.2036 371.814C64.943 370.53 68.7441 369.296 83.7722 365.898C87.0435 374.834 88.8869 384.229 89.2347 393.739Z" stroke="white" stroke-width="0.6" mask="url(#path-4-outside-4_1_968)"/>
<mask id="path-5-outside-5_1_968" maskUnits="userSpaceOnUse" x="329.583" y="92.2271" width="37" height="37" fill="black">
<rect fill="white" x="329.583" y="92.2271" width="37" height="37"/>
<path d="M358.682 97.0034C374.44 109.741 360.369 132.472 344.459 127.639C343.427 125.575 342.118 123.108 340.482 120.087C340.352 117.368 339.557 114.724 338.166 112.384C335.777 111.36 333.213 110.805 330.614 110.748C329.759 97.8593 346.725 87.3119 358.682 97.0034Z"/>
</mask>
<path d="M358.682 97.0034C374.44 109.741 360.369 132.472 344.459 127.639C343.427 125.575 342.118 123.108 340.482 120.087C340.352 117.368 339.557 114.724 338.166 112.384C335.777 111.36 333.213 110.805 330.614 110.748C329.759 97.8593 346.725 87.3119 358.682 97.0034Z" fill="white"/>
<path d="M358.682 97.0034C374.44 109.741 360.369 132.472 344.459 127.639C343.427 125.575 342.118 123.108 340.482 120.087C340.352 117.368 339.557 114.724 338.166 112.384C335.777 111.36 333.213 110.805 330.614 110.748C329.759 97.8593 346.725 87.3119 358.682 97.0034Z" stroke="white" stroke-width="0.6" mask="url(#path-5-outside-5_1_968)"/>
<mask id="path-6-outside-6_1_968" maskUnits="userSpaceOnUse" x="268.948" y="100.057" width="41" height="53" fill="black">
<rect fill="white" x="268.948" y="100.057" width="41" height="53"/>
<path d="M305.595 112.334L309.396 116.438C306.879 122.152 304.714 125.5 304.689 127.312C304.689 131.869 306.048 136.677 305.57 145.613C304.45 145.588 303.332 145.715 302.247 145.99L297.666 151.277C288.477 154.247 270.731 146.821 269.976 128.621C269.094 107.678 289.963 97.105 302.373 102.416L305.595 112.334Z"/>
</mask>
<path d="M305.595 112.334L309.396 116.438C306.879 122.152 304.714 125.5 304.689 127.312C304.689 131.869 306.048 136.677 305.57 145.613C304.45 145.588 303.332 145.715 302.247 145.99L297.666 151.277C288.477 154.247 270.731 146.821 269.976 128.621C269.094 107.678 289.963 97.105 302.373 102.416L305.595 112.334Z" fill="white"/>
<path d="M305.595 112.334L309.396 116.438C306.879 122.152 304.714 125.5 304.689 127.312C304.689 131.869 306.048 136.677 305.57 145.613C304.45 145.588 303.332 145.715 302.247 145.99L297.666 151.277C288.477 154.247 270.731 146.821 269.976 128.621C269.094 107.678 289.963 97.105 302.373 102.416L305.595 112.334Z" stroke="white" stroke-width="0.6" mask="url(#path-6-outside-6_1_968)"/>
<mask id="path-7-outside-7_1_968" maskUnits="userSpaceOnUse" x="0" y="306.285" width="49" height="49" fill="black">
<rect fill="white" y="306.285" width="49" height="49"/>
<path d="M47.7252 346.011L25.7494 330.631L41.13 308.655C41.2635 308.468 41.3173 308.236 41.2795 308.009C41.2418 307.782 41.1155 307.58 40.9286 307.446C40.7417 307.313 40.5093 307.259 40.2827 307.297C40.0561 307.335 39.8538 307.461 39.7203 307.648L24.3146 329.624L2.36393 314.243C2.27033 314.177 2.16437 314.13 2.05235 314.106C1.94032 314.081 1.82452 314.079 1.71182 314.101C1.59911 314.122 1.4918 314.165 1.39626 314.229C1.30072 314.292 1.21889 314.374 1.15564 314.47C1.02592 314.658 0.974416 314.889 1.01199 315.115C1.04957 315.34 1.17329 315.542 1.35702 315.678L23.3328 331.059L7.95229 353.009C7.85875 353.138 7.80287 353.29 7.79091 353.448C7.77894 353.607 7.81137 353.766 7.88455 353.907C7.95773 354.048 8.06877 354.166 8.20523 354.247C8.34168 354.329 8.49816 354.371 8.65712 354.368C8.79749 354.369 8.93607 354.337 9.06248 354.276C9.18889 354.215 9.29987 354.126 9.38713 354.016L24.7425 332.04C48.858 348.931 46.8694 347.622 47.1714 347.622C47.3782 347.671 47.5959 347.642 47.7821 347.539C47.9683 347.437 48.1097 347.269 48.1788 347.068C48.2479 346.867 48.2397 346.647 48.1559 346.452C48.072 346.257 47.9185 346.1 47.7252 346.011Z"/>
</mask>
<path d="M47.7252 346.011L25.7494 330.631L41.13 308.655C41.2635 308.468 41.3173 308.236 41.2795 308.009C41.2418 307.782 41.1155 307.58 40.9286 307.446C40.7417 307.313 40.5093 307.259 40.2827 307.297C40.0561 307.335 39.8538 307.461 39.7203 307.648L24.3146 329.624L2.36393 314.243C2.27033 314.177 2.16437 314.13 2.05235 314.106C1.94032 314.081 1.82452 314.079 1.71182 314.101C1.59911 314.122 1.4918 314.165 1.39626 314.229C1.30072 314.292 1.21889 314.374 1.15564 314.47C1.02592 314.658 0.974416 314.889 1.01199 315.115C1.04957 315.34 1.17329 315.542 1.35702 315.678L23.3328 331.059L7.95229 353.009C7.85875 353.138 7.80287 353.29 7.79091 353.448C7.77894 353.607 7.81137 353.766 7.88455 353.907C7.95773 354.048 8.06877 354.166 8.20523 354.247C8.34168 354.329 8.49816 354.371 8.65712 354.368C8.79749 354.369 8.93607 354.337 9.06248 354.276C9.18889 354.215 9.29987 354.126 9.38713 354.016L24.7425 332.04C48.858 348.931 46.8694 347.622 47.1714 347.622C47.3782 347.671 47.5959 347.642 47.7821 347.539C47.9683 347.437 48.1097 347.269 48.1788 347.068C48.2479 346.867 48.2397 346.647 48.1559 346.452C48.072 346.257 47.9185 346.1 47.7252 346.011Z" fill="white"/>
<path d="M47.7252 346.011L25.7494 330.631L41.13 308.655C41.2635 308.468 41.3173 308.236 41.2795 308.009C41.2418 307.782 41.1155 307.58 40.9286 307.446C40.7417 307.313 40.5093 307.259 40.2827 307.297C40.0561 307.335 39.8538 307.461 39.7203 307.648L24.3146 329.624L2.36393 314.243C2.27033 314.177 2.16437 314.13 2.05235 314.106C1.94032 314.081 1.82452 314.079 1.71182 314.101C1.59911 314.122 1.4918 314.165 1.39626 314.229C1.30072 314.292 1.21889 314.374 1.15564 314.47C1.02592 314.658 0.974416 314.889 1.01199 315.115C1.04957 315.34 1.17329 315.542 1.35702 315.678L23.3328 331.059L7.95229 353.009C7.85875 353.138 7.80287 353.29 7.79091 353.448C7.77894 353.607 7.81137 353.766 7.88455 353.907C7.95773 354.048 8.06877 354.166 8.20523 354.247C8.34168 354.329 8.49816 354.371 8.65712 354.368C8.79749 354.369 8.93607 354.337 9.06248 354.276C9.18889 354.215 9.29987 354.126 9.38713 354.016L24.7425 332.04C48.858 348.931 46.8694 347.622 47.1714 347.622C47.3782 347.671 47.5959 347.642 47.7821 347.539C47.9683 347.437 48.1097 347.269 48.1788 347.068C48.2479 346.867 48.2397 346.647 48.1559 346.452C48.072 346.257 47.9185 346.1 47.7252 346.011Z" stroke="white" stroke-width="0.6" mask="url(#path-7-outside-7_1_968)"/>
<mask id="path-8-outside-8_1_968" maskUnits="userSpaceOnUse" x="308.85" y="229.609" width="34" height="34" fill="black">
<rect fill="white" x="308.85" y="229.609" width="34" height="34"/>
<path d="M342.225 243.962C342.207 243.849 342.166 243.741 342.106 243.644C342.045 243.546 341.965 243.463 341.871 243.397C341.777 243.331 341.671 243.285 341.559 243.261C341.447 243.237 341.331 243.236 341.218 243.258L326.794 245.775L324.277 231.326C324.234 231.1 324.105 230.9 323.917 230.769C323.729 230.637 323.497 230.584 323.27 230.621C323.157 230.639 323.049 230.68 322.952 230.741C322.854 230.801 322.77 230.881 322.705 230.975C322.639 231.069 322.593 231.175 322.569 231.287C322.545 231.399 322.544 231.515 322.565 231.628L325.083 246.077L310.634 248.594C310.407 248.614 310.197 248.724 310.05 248.898C309.904 249.073 309.833 249.299 309.853 249.526C309.873 249.753 309.983 249.962 310.157 250.109C310.332 250.255 310.558 250.326 310.785 250.306C310.986 250.306 310.936 250.306 325.385 247.789L327.902 262.213C327.937 262.415 328.042 262.599 328.198 262.732C328.355 262.865 328.553 262.94 328.758 262.943C328.885 262.941 329.011 262.911 329.126 262.856C329.241 262.801 329.343 262.722 329.424 262.624C329.505 262.526 329.564 262.411 329.597 262.288C329.63 262.165 329.636 262.036 329.614 261.911L327.097 247.487L341.52 244.969C341.634 244.951 341.742 244.91 341.839 244.85C341.936 244.789 342.02 244.709 342.086 244.615C342.152 244.521 342.198 244.415 342.222 244.303C342.246 244.191 342.247 244.075 342.225 243.962Z"/>
</mask>
<path d="M342.225 243.962C342.207 243.849 342.166 243.741 342.106 243.644C342.045 243.546 341.965 243.463 341.871 243.397C341.777 243.331 341.671 243.285 341.559 243.261C341.447 243.237 341.331 243.236 341.218 243.258L326.794 245.775L324.277 231.326C324.234 231.1 324.105 230.9 323.917 230.769C323.729 230.637 323.497 230.584 323.27 230.621C323.157 230.639 323.049 230.68 322.952 230.741C322.854 230.801 322.77 230.881 322.705 230.975C322.639 231.069 322.593 231.175 322.569 231.287C322.545 231.399 322.544 231.515 322.565 231.628L325.083 246.077L310.634 248.594C310.407 248.614 310.197 248.724 310.05 248.898C309.904 249.073 309.833 249.299 309.853 249.526C309.873 249.753 309.983 249.962 310.157 250.109C310.332 250.255 310.558 250.326 310.785 250.306C310.986 250.306 310.936 250.306 325.385 247.789L327.902 262.213C327.937 262.415 328.042 262.599 328.198 262.732C328.355 262.865 328.553 262.94 328.758 262.943C328.885 262.941 329.011 262.911 329.126 262.856C329.241 262.801 329.343 262.722 329.424 262.624C329.505 262.526 329.564 262.411 329.597 262.288C329.63 262.165 329.636 262.036 329.614 261.911L327.097 247.487L341.52 244.969C341.634 244.951 341.742 244.91 341.839 244.85C341.936 244.789 342.02 244.709 342.086 244.615C342.152 244.521 342.198 244.415 342.222 244.303C342.246 244.191 342.247 244.075 342.225 243.962Z" fill="white"/>
<path d="M342.225 243.962C342.207 243.849 342.166 243.741 342.106 243.644C342.045 243.546 341.965 243.463 341.871 243.397C341.777 243.331 341.671 243.285 341.559 243.261C341.447 243.237 341.331 243.236 341.218 243.258L326.794 245.775L324.277 231.326C324.234 231.1 324.105 230.9 323.917 230.769C323.729 230.637 323.497 230.584 323.27 230.621C323.157 230.639 323.049 230.68 322.952 230.741C322.854 230.801 322.77 230.881 322.705 230.975C322.639 231.069 322.593 231.175 322.569 231.287C322.545 231.399 322.544 231.515 322.565 231.628L325.083 246.077L310.634 248.594C310.407 248.614 310.197 248.724 310.05 248.898C309.904 249.073 309.833 249.299 309.853 249.526C309.873 249.753 309.983 249.962 310.157 250.109C310.332 250.255 310.558 250.326 310.785 250.306C310.986 250.306 310.936 250.306 325.385 247.789L327.902 262.213C327.937 262.415 328.042 262.599 328.198 262.732C328.355 262.865 328.553 262.94 328.758 262.943C328.885 262.941 329.011 262.911 329.126 262.856C329.241 262.801 329.343 262.722 329.424 262.624C329.505 262.526 329.564 262.411 329.597 262.288C329.63 262.165 329.636 262.036 329.614 261.911L327.097 247.487L341.52 244.969C341.634 244.951 341.742 244.91 341.839 244.85C341.936 244.789 342.02 244.709 342.086 244.615C342.152 244.521 342.198 244.415 342.222 244.303C342.246 244.191 342.247 244.075 342.225 243.962Z" stroke="white" stroke-width="0.6" mask="url(#path-8-outside-8_1_968)"/>
<mask id="path-9-outside-9_1_968" maskUnits="userSpaceOnUse" x="42.7236" y="116.066" width="58" height="58" fill="black">
<rect fill="white" x="42.7236" y="116.066" width="58" height="58"/>
<path d="M71.9423 173.504C66.3612 173.504 60.9054 171.849 56.2649 168.748C51.6243 165.647 48.0075 161.24 45.8717 156.084C43.7359 150.928 43.177 145.254 44.2659 139.78C45.3547 134.306 48.0422 129.278 51.9887 125.331C55.9351 121.385 60.9632 118.697 66.4371 117.609C71.911 116.52 77.5848 117.079 82.7411 119.214C87.8974 121.35 92.3046 124.967 95.4053 129.608C98.506 134.248 100.161 139.704 100.161 145.285C100.154 152.767 97.1791 159.941 91.8885 165.231C86.598 170.522 79.4243 173.497 71.9423 173.504ZM71.9423 118.803C66.6976 118.798 61.5693 120.349 57.2064 123.26C52.8435 126.171 49.4421 130.31 47.4328 135.155C45.4234 139.999 44.8964 145.331 45.9183 150.475C46.9403 155.619 49.4654 160.345 53.1739 164.053C56.8825 167.762 61.6079 170.287 66.7521 171.309C71.8962 172.331 77.228 171.804 82.0725 169.795C86.917 167.785 91.0566 164.384 93.9673 160.021C96.878 155.658 98.429 150.53 98.424 145.285C98.4174 138.264 95.6252 131.532 90.6604 126.567C85.6955 121.602 78.9636 118.81 71.9423 118.803Z"/>
</mask>
<path d="M71.9423 173.504C66.3612 173.504 60.9054 171.849 56.2649 168.748C51.6243 165.647 48.0075 161.24 45.8717 156.084C43.7359 150.928 43.177 145.254 44.2659 139.78C45.3547 134.306 48.0422 129.278 51.9887 125.331C55.9351 121.385 60.9632 118.697 66.4371 117.609C71.911 116.52 77.5848 117.079 82.7411 119.214C87.8974 121.35 92.3046 124.967 95.4053 129.608C98.506 134.248 100.161 139.704 100.161 145.285C100.154 152.767 97.1791 159.941 91.8885 165.231C86.598 170.522 79.4243 173.497 71.9423 173.504ZM71.9423 118.803C66.6976 118.798 61.5693 120.349 57.2064 123.26C52.8435 126.171 49.4421 130.31 47.4328 135.155C45.4234 139.999 44.8964 145.331 45.9183 150.475C46.9403 155.619 49.4654 160.345 53.1739 164.053C56.8825 167.762 61.6079 170.287 66.7521 171.309C71.8962 172.331 77.228 171.804 82.0725 169.795C86.917 167.785 91.0566 164.384 93.9673 160.021C96.878 155.658 98.429 150.53 98.424 145.285C98.4174 138.264 95.6252 131.532 90.6604 126.567C85.6955 121.602 78.9636 118.81 71.9423 118.803Z" fill="white"/>
<path d="M71.9423 173.504C66.3612 173.504 60.9054 171.849 56.2649 168.748C51.6243 165.647 48.0075 161.24 45.8717 156.084C43.7359 150.928 43.177 145.254 44.2659 139.78C45.3547 134.306 48.0422 129.278 51.9887 125.331C55.9351 121.385 60.9632 118.697 66.4371 117.609C71.911 116.52 77.5848 117.079 82.7411 119.214C87.8974 121.35 92.3046 124.967 95.4053 129.608C98.506 134.248 100.161 139.704 100.161 145.285C100.154 152.767 97.1791 159.941 91.8885 165.231C86.598 170.522 79.4243 173.497 71.9423 173.504ZM71.9423 118.803C66.6976 118.798 61.5693 120.349 57.2064 123.26C52.8435 126.171 49.4421 130.31 47.4328 135.155C45.4234 139.999 44.8964 145.331 45.9183 150.475C46.9403 155.619 49.4654 160.345 53.1739 164.053C56.8825 167.762 61.6079 170.287 66.7521 171.309C71.8962 172.331 77.228 171.804 82.0725 169.795C86.917 167.785 91.0566 164.384 93.9673 160.021C96.878 155.658 98.429 150.53 98.424 145.285C98.4174 138.264 95.6252 131.532 90.6604 126.567C85.6955 121.602 78.9636 118.81 71.9423 118.803Z" stroke="white" stroke-width="0.6" mask="url(#path-9-outside-9_1_968)"/>
<mask id="path-10-outside-10_1_968" maskUnits="userSpaceOnUse" x="188.411" y="365.032" width="71" height="9" fill="black">
<rect fill="white" x="188.411" y="365.032" width="71" height="9"/>
<path d="M190.103 367.76C189.88 367.706 189.686 367.569 189.56 367.378C189.434 367.186 189.385 366.954 189.423 366.728C189.472 366.502 189.607 366.304 189.8 366.177C189.993 366.05 190.229 366.004 190.455 366.048C212.531 370.48 235.032 372.438 257.541 371.888C257.653 371.885 257.765 371.904 257.87 371.944C257.975 371.984 258.072 372.044 258.154 372.121C258.235 372.198 258.301 372.291 258.347 372.394C258.393 372.496 258.419 372.607 258.422 372.719C258.422 372.951 258.334 373.174 258.175 373.343C258.015 373.511 257.798 373.613 257.566 373.625C234.93 374.178 212.304 372.211 190.103 367.76Z"/>
</mask>
<path d="M190.103 367.76C189.88 367.706 189.686 367.569 189.56 367.378C189.434 367.186 189.385 366.954 189.423 366.728C189.472 366.502 189.607 366.304 189.8 366.177C189.993 366.05 190.229 366.004 190.455 366.048C212.531 370.48 235.032 372.438 257.541 371.888C257.653 371.885 257.765 371.904 257.87 371.944C257.975 371.984 258.072 372.044 258.154 372.121C258.235 372.198 258.301 372.291 258.347 372.394C258.393 372.496 258.419 372.607 258.422 372.719C258.422 372.951 258.334 373.174 258.175 373.343C258.015 373.511 257.798 373.613 257.566 373.625C234.93 374.178 212.304 372.211 190.103 367.76Z" fill="white"/>
<path d="M190.103 367.76C189.88 367.706 189.686 367.569 189.56 367.378C189.434 367.186 189.385 366.954 189.423 366.728C189.472 366.502 189.607 366.304 189.8 366.177C189.993 366.05 190.229 366.004 190.455 366.048C212.531 370.48 235.032 372.438 257.541 371.888C257.653 371.885 257.765 371.904 257.87 371.944C257.975 371.984 258.072 372.044 258.154 372.121C258.235 372.198 258.301 372.291 258.347 372.394C258.393 372.496 258.419 372.607 258.422 372.719C258.422 372.951 258.334 373.174 258.175 373.343C258.015 373.511 257.798 373.613 257.566 373.625C234.93 374.178 212.304 372.211 190.103 367.76Z" stroke="white" stroke-width="0.6" mask="url(#path-10-outside-10_1_968)"/>
<mask id="path-11-outside-11_1_968" maskUnits="userSpaceOnUse" x="4.7002" y="4.78125" width="429" height="365" fill="black">
<rect fill="white" x="4.7002" y="4.78125" width="429" height="365"/>
<path d="M305.015 367.888C304.969 367.664 305.012 367.432 305.134 367.24C305.256 367.047 305.448 366.909 305.669 366.855C421.036 341.255 468.814 201.194 396.719 91.6417C368.123 48.0676 301.541 11.3406 245.154 7.91708C194.406 4.84601 167.496 19.7483 165.18 52.2966C162.864 84.845 143.255 91.0879 111.764 81.7236C80.2724 72.3593 48.3534 79.5839 28.6935 100.553C3.8983 126.934 0.600674 169.853 19.4299 221.382C39.5681 276.636 77.6293 319.405 129.41 345.106C129.617 345.206 129.775 345.385 129.851 345.602C129.926 345.819 129.913 346.057 129.812 346.264C129.712 346.471 129.534 346.63 129.317 346.705C129.1 346.781 128.861 346.767 128.654 346.667C76.4462 320.764 38.0326 277.643 17.8944 221.986C-7.80703 151.502 12.8598 114.876 27.5355 99.3194C47.6737 77.847 80.3983 70.4714 112.443 80.0118C142.625 89.0992 161.203 83.964 163.443 52.1708C165.961 18.5148 193.374 3.03357 245.255 6.18016C302.12 9.654 369.306 46.7586 398.179 90.6851C471.18 201.798 422.018 342.815 306.047 368.542C305.936 368.568 305.821 368.572 305.709 368.553C305.597 368.534 305.49 368.492 305.393 368.431C305.297 368.371 305.214 368.291 305.149 368.198C305.084 368.104 305.039 367.999 305.015 367.888Z"/>
</mask>
<path d="M305.015 367.888C304.969 367.664 305.012 367.432 305.134 367.24C305.256 367.047 305.448 366.909 305.669 366.855C421.036 341.255 468.814 201.194 396.719 91.6417C368.123 48.0676 301.541 11.3406 245.154 7.91708C194.406 4.84601 167.496 19.7483 165.18 52.2966C162.864 84.845 143.255 91.0879 111.764 81.7236C80.2724 72.3593 48.3534 79.5839 28.6935 100.553C3.8983 126.934 0.600674 169.853 19.4299 221.382C39.5681 276.636 77.6293 319.405 129.41 345.106C129.617 345.206 129.775 345.385 129.851 345.602C129.926 345.819 129.913 346.057 129.812 346.264C129.712 346.471 129.534 346.63 129.317 346.705C129.1 346.781 128.861 346.767 128.654 346.667C76.4462 320.764 38.0326 277.643 17.8944 221.986C-7.80703 151.502 12.8598 114.876 27.5355 99.3194C47.6737 77.847 80.3983 70.4714 112.443 80.0118C142.625 89.0992 161.203 83.964 163.443 52.1708C165.961 18.5148 193.374 3.03357 245.255 6.18016C302.12 9.654 369.306 46.7586 398.179 90.6851C471.18 201.798 422.018 342.815 306.047 368.542C305.936 368.568 305.821 368.572 305.709 368.553C305.597 368.534 305.49 368.492 305.393 368.431C305.297 368.371 305.214 368.291 305.149 368.198C305.084 368.104 305.039 367.999 305.015 367.888Z" fill="white"/>
<path d="M305.015 367.888C304.969 367.664 305.012 367.432 305.134 367.24C305.256 367.047 305.448 366.909 305.669 366.855C421.036 341.255 468.814 201.194 396.719 91.6417C368.123 48.0676 301.541 11.3406 245.154 7.91708C194.406 4.84601 167.496 19.7483 165.18 52.2966C162.864 84.845 143.255 91.0879 111.764 81.7236C80.2724 72.3593 48.3534 79.5839 28.6935 100.553C3.8983 126.934 0.600674 169.853 19.4299 221.382C39.5681 276.636 77.6293 319.405 129.41 345.106C129.617 345.206 129.775 345.385 129.851 345.602C129.926 345.819 129.913 346.057 129.812 346.264C129.712 346.471 129.534 346.63 129.317 346.705C129.1 346.781 128.861 346.767 128.654 346.667C76.4462 320.764 38.0326 277.643 17.8944 221.986C-7.80703 151.502 12.8598 114.876 27.5355 99.3194C47.6737 77.847 80.3983 70.4714 112.443 80.0118C142.625 89.0992 161.203 83.964 163.443 52.1708C165.961 18.5148 193.374 3.03357 245.255 6.18016C302.12 9.654 369.306 46.7586 398.179 90.6851C471.18 201.798 422.018 342.815 306.047 368.542C305.936 368.568 305.821 368.572 305.709 368.553C305.597 368.534 305.49 368.492 305.393 368.431C305.297 368.371 305.214 368.291 305.149 368.198C305.084 368.104 305.039 367.999 305.015 367.888Z" stroke="white" stroke-width="0.6" mask="url(#path-11-outside-11_1_968)"/>
<mask id="path-12-outside-12_1_968" maskUnits="userSpaceOnUse" x="12.95" y="21.042" width="96" height="33" fill="black">
<rect fill="white" x="12.95" y="21.042" width="96" height="33"/>
<path d="M107.31 27.9298C84.2771 21.6115 85.9385 22.0142 85.6616 22.0646C-1.73822 38.1751 29.4508 31.8819 22.478 33.2161C21.1425 33.4525 19.8666 33.9496 18.7232 34.679C17.5798 35.4085 16.5912 36.356 15.814 37.4675C14.2443 39.7122 13.6307 42.4885 14.108 45.1857C14.5854 47.8829 16.1146 50.28 18.3594 51.8497C20.6041 53.4194 23.3805 54.033 26.0777 53.5557C94.2203 41.5735 89.2613 42.53 89.7899 42.1273L107.587 29.5409C107.737 29.4486 107.855 29.3137 107.928 29.1534C108 28.9932 108.023 28.8151 107.993 28.6418C107.963 28.4686 107.882 28.3082 107.76 28.1814C107.639 28.0545 107.482 27.9669 107.31 27.9298ZM40.2751 49.4022L37.2796 32.4609L85.1078 24.028L88.1033 40.9693L40.2751 49.4022ZM29.5515 51.2901L26.5811 34.3489L35.5426 32.763L38.5382 49.7043L29.5515 51.2901ZM25.7504 51.9446C23.5476 52.2428 21.3147 51.6773 19.5193 50.3666C17.724 49.0558 16.5052 47.1014 16.1181 44.9124C15.731 42.7234 16.2057 40.4695 17.4428 38.6225C18.6798 36.7756 20.5833 35.4787 22.7549 35.0034L24.8694 34.6509L27.8398 51.5922L25.7504 51.9446ZM89.6892 40.1638L86.8699 24.2294L105.07 29.264L89.6892 40.1638Z"/>
</mask>
<path d="M107.31 27.9298C84.2771 21.6115 85.9385 22.0142 85.6616 22.0646C-1.73822 38.1751 29.4508 31.8819 22.478 33.2161C21.1425 33.4525 19.8666 33.9496 18.7232 34.679C17.5798 35.4085 16.5912 36.356 15.814 37.4675C14.2443 39.7122 13.6307 42.4885 14.108 45.1857C14.5854 47.8829 16.1146 50.28 18.3594 51.8497C20.6041 53.4194 23.3805 54.033 26.0777 53.5557C94.2203 41.5735 89.2613 42.53 89.7899 42.1273L107.587 29.5409C107.737 29.4486 107.855 29.3137 107.928 29.1534C108 28.9932 108.023 28.8151 107.993 28.6418C107.963 28.4686 107.882 28.3082 107.76 28.1814C107.639 28.0545 107.482 27.9669 107.31 27.9298ZM40.2751 49.4022L37.2796 32.4609L85.1078 24.028L88.1033 40.9693L40.2751 49.4022ZM29.5515 51.2901L26.5811 34.3489L35.5426 32.763L38.5382 49.7043L29.5515 51.2901ZM25.7504 51.9446C23.5476 52.2428 21.3147 51.6773 19.5193 50.3666C17.724 49.0558 16.5052 47.1014 16.1181 44.9124C15.731 42.7234 16.2057 40.4695 17.4428 38.6225C18.6798 36.7756 20.5833 35.4787 22.7549 35.0034L24.8694 34.6509L27.8398 51.5922L25.7504 51.9446ZM89.6892 40.1638L86.8699 24.2294L105.07 29.264L89.6892 40.1638Z" fill="white"/>
<path d="M107.31 27.9298C84.2771 21.6115 85.9385 22.0142 85.6616 22.0646C-1.73822 38.1751 29.4508 31.8819 22.478 33.2161C21.1425 33.4525 19.8666 33.9496 18.7232 34.679C17.5798 35.4085 16.5912 36.356 15.814 37.4675C14.2443 39.7122 13.6307 42.4885 14.108 45.1857C14.5854 47.8829 16.1146 50.28 18.3594 51.8497C20.6041 53.4194 23.3805 54.033 26.0777 53.5557C94.2203 41.5735 89.2613 42.53 89.7899 42.1273L107.587 29.5409C107.737 29.4486 107.855 29.3137 107.928 29.1534C108 28.9932 108.023 28.8151 107.993 28.6418C107.963 28.4686 107.882 28.3082 107.76 28.1814C107.639 28.0545 107.482 27.9669 107.31 27.9298ZM40.2751 49.4022L37.2796 32.4609L85.1078 24.028L88.1033 40.9693L40.2751 49.4022ZM29.5515 51.2901L26.5811 34.3489L35.5426 32.763L38.5382 49.7043L29.5515 51.2901ZM25.7504 51.9446C23.5476 52.2428 21.3147 51.6773 19.5193 50.3666C17.724 49.0558 16.5052 47.1014 16.1181 44.9124C15.731 42.7234 16.2057 40.4695 17.4428 38.6225C18.6798 36.7756 20.5833 35.4787 22.7549 35.0034L24.8694 34.6509L27.8398 51.5922L25.7504 51.9446ZM89.6892 40.1638L86.8699 24.2294L105.07 29.264L89.6892 40.1638Z" stroke="white" stroke-width="0.6" mask="url(#path-12-outside-12_1_968)"/>
<mask id="path-13-outside-13_1_968" maskUnits="userSpaceOnUse" x="409.813" y="0.000244141" width="30" height="112" fill="black">
<rect fill="white" x="409.813" y="0.000244141" width="30" height="112"/>
<path d="M435.232 56.9289C433.76 48.6503 431.63 40.5021 428.864 32.5617C434.679 19.6984 425.566 6.25618 412.501 1.0706C412.345 1.00314 412.173 0.983616 412.006 1.01453C411.839 1.04544 411.685 1.12538 411.563 1.24416C411.442 1.36295 411.358 1.51521 411.324 1.68155C411.289 1.84789 411.305 2.02078 411.369 2.1782C415.572 12.9773 404.924 23.8268 416.151 34.9028C416.297 43.3407 417.079 51.7555 418.492 60.0755C421.01 74.7261 428.184 104.808 434.1 109.993C435.786 111.478 437.171 110.723 438.001 108.634C441.249 100.352 437.75 71.1516 435.232 56.9289ZM417.888 35.2048L427.378 33.5686C429.549 40.0497 431.355 46.6468 432.791 53.3292L419.575 55.6703C418.642 48.8841 418.079 42.0522 417.888 35.2048ZM434.628 108.206C431.356 104.329 424.71 85.0217 420.204 59.6476L419.726 57.3821L433.017 55.041C433.168 55.771 433.294 56.501 433.445 57.231C437.825 82.152 438.253 102.24 436.592 107.577C436.164 109.162 435.534 109.213 434.628 108.155V108.206Z"/>
</mask>
<path d="M435.232 56.9289C433.76 48.6503 431.63 40.5021 428.864 32.5617C434.679 19.6984 425.566 6.25618 412.501 1.0706C412.345 1.00314 412.173 0.983616 412.006 1.01453C411.839 1.04544 411.685 1.12538 411.563 1.24416C411.442 1.36295 411.358 1.51521 411.324 1.68155C411.289 1.84789 411.305 2.02078 411.369 2.1782C415.572 12.9773 404.924 23.8268 416.151 34.9028C416.297 43.3407 417.079 51.7555 418.492 60.0755C421.01 74.7261 428.184 104.808 434.1 109.993C435.786 111.478 437.171 110.723 438.001 108.634C441.249 100.352 437.75 71.1516 435.232 56.9289ZM417.888 35.2048L427.378 33.5686C429.549 40.0497 431.355 46.6468 432.791 53.3292L419.575 55.6703C418.642 48.8841 418.079 42.0522 417.888 35.2048ZM434.628 108.206C431.356 104.329 424.71 85.0217 420.204 59.6476L419.726 57.3821L433.017 55.041C433.168 55.771 433.294 56.501 433.445 57.231C437.825 82.152 438.253 102.24 436.592 107.577C436.164 109.162 435.534 109.213 434.628 108.155V108.206Z" fill="white"/>
<path d="M435.232 56.9289C433.76 48.6503 431.63 40.5021 428.864 32.5617C434.679 19.6984 425.566 6.25618 412.501 1.0706C412.345 1.00314 412.173 0.983616 412.006 1.01453C411.839 1.04544 411.685 1.12538 411.563 1.24416C411.442 1.36295 411.358 1.51521 411.324 1.68155C411.289 1.84789 411.305 2.02078 411.369 2.1782C415.572 12.9773 404.924 23.8268 416.151 34.9028C416.297 43.3407 417.079 51.7555 418.492 60.0755C421.01 74.7261 428.184 104.808 434.1 109.993C435.786 111.478 437.171 110.723 438.001 108.634C441.249 100.352 437.75 71.1516 435.232 56.9289ZM417.888 35.2048L427.378 33.5686C429.549 40.0497 431.355 46.6468 432.791 53.3292L419.575 55.6703C418.642 48.8841 418.079 42.0522 417.888 35.2048ZM434.628 108.206C431.356 104.329 424.71 85.0217 420.204 59.6476L419.726 57.3821L433.017 55.041C433.168 55.771 433.294 56.501 433.445 57.231C437.825 82.152 438.253 102.24 436.592 107.577C436.164 109.162 435.534 109.213 434.628 108.155V108.206Z" stroke="white" stroke-width="0.6" mask="url(#path-13-outside-13_1_968)"/>
<mask id="path-14-outside-14_1_968" maskUnits="userSpaceOnUse" x="50.8511" y="32.9424" width="310" height="415" fill="black">
<rect fill="white" x="50.8511" y="32.9424" width="310" height="415"/>
<path d="M358.178 155.229L346.397 142.416C349.972 137.18 349.217 134.26 341.363 119.761C341.25 116.9 340.381 114.121 338.846 111.705C337.537 110.396 329.733 109.415 315.636 108.76C312.641 105.488 312.741 105.563 312.49 105.462L302.798 101.384C302.644 101.325 302.476 101.31 302.314 101.342C302.151 101.374 302.001 101.45 301.88 101.563C301.76 101.676 301.673 101.821 301.631 101.981C301.588 102.14 301.591 102.309 301.64 102.467L304.888 112.536C304.888 112.813 304.888 112.536 308.437 116.538C305.92 122.102 303.906 125.248 303.906 127.262C303.906 131.768 305.19 136.324 304.812 144.707C303.894 144.747 302.983 144.882 302.093 145.11C301.933 145.158 301.786 145.245 301.665 145.361C297.94 149.641 286.562 162 282.031 168.017C260.13 136.173 253.082 129.175 238.734 127.74C238.255 125.223 237.853 122.404 237.55 119.735C240.622 120.113 244.297 120.214 246.562 118.149C250.514 114.55 249.231 105.765 248.425 91.3405C259.199 84.1915 263.126 54.4624 239.388 56.0987C241.477 30.5231 205.355 26.3445 202.258 47.4644C182.674 34.1732 154.078 56.4762 172.806 72.4106C162.359 74.6762 159.515 88.0429 169.534 89.8302C144.361 109.641 164.071 148.508 218.721 117.822C212.787 122.528 206.529 126.81 199.993 130.635C174.649 135.793 150.447 145.489 128.552 159.257C108.414 171.843 106.702 178.463 104.412 197.519C102.698 210.879 101.765 224.327 101.618 237.796C101.59 238.183 101.64 238.572 101.765 238.94C101.891 239.307 102.089 239.646 102.348 239.935C104.349 241.804 106.94 242.916 109.673 243.082C107.005 245.146 102.675 248.116 101.668 250.634C100.258 254.334 99.3269 256.826 97.4389 261.332C97.011 262.389 95.6768 265.637 97.4389 266.694C100.409 268.506 107.508 260.376 109.597 257.833C110.567 256.667 111.894 255.853 113.373 255.517C111.989 258.001 111.028 260.698 110.529 263.497C105.617 265.817 100.379 267.371 94.9972 268.104C91.1961 268.683 89.2578 269.765 89.283 271.326C89.3081 272.886 91.045 273.843 93.9651 274.195C96.1025 274.334 98.2467 274.334 100.384 274.195C99.3772 274.724 98.4207 275.152 97.5144 275.555C93.2602 277.317 90.8688 279.608 91.3975 281.344C91.624 282.049 92.3289 282.779 94.2672 282.779C98.8562 282.156 103.337 280.902 107.584 279.054C105.847 280.917 104.336 282.377 102.801 283.786C98.8738 287.461 97.3131 290.482 98.4962 292.093C99.6793 293.704 102.927 292.521 104.84 291.414C108.561 289.233 112.067 286.704 115.312 283.862C114.355 285.993 113.348 288.108 112.291 290.205C109.774 294.938 109.295 297.757 110.806 298.764C112.744 300.073 116.042 297.103 117.627 295.24C123.921 287.688 134.896 270.067 135.953 266.014C136.708 263.27 136.532 252.648 136.255 244.643C140.837 244.315 144.059 242.629 144.235 240.363C144.235 240.111 144.89 206.858 146.048 194.071C156.159 190.198 166.46 186.838 176.909 184.001C177.866 190.899 178.571 197.997 178.822 204.417C166.487 210.173 156.892 220.527 152.089 233.265C141.265 261.886 145.116 300.451 147.457 340.802L75.6141 356.938C71.6369 357.693 70.353 363.785 70.7558 368.039C68.5406 368.593 60.9384 370.557 58.975 370.985C52.8076 371.186 51.8762 388.958 51.8511 399.581C51.8511 416.547 54.3683 440.663 59.8308 446.327C60.3021 446.945 60.9901 447.361 61.7562 447.492C62.5223 447.623 63.3096 447.458 63.9592 447.032C72.1403 443.482 75.3121 429.411 77.1497 417.101C77.7067 412.734 78.633 408.423 79.9187 404.213C80.2848 405.216 80.9158 406.101 81.7446 406.775C82.5733 407.449 83.569 407.885 84.626 408.039C85.4315 408.039 83.2918 408.291 101.341 404.364C119.39 400.437 146.249 394.597 162.435 389.889C184.688 383.47 190.276 374.081 195.16 354.094C198.331 340.853 208.879 296.448 211.094 287.185C221.39 290.105 241.855 296.926 256.833 302.087C257.261 311.124 257.135 363.961 256.833 383.344C256.833 387.196 262.044 389.31 265.794 390.141C265.366 393.212 264.208 402.501 263.932 404.49C262.346 410.078 277.525 416.27 290.589 420.499C298.519 423.017 336.58 434.042 335.498 425.836C335.8 412.872 310.753 403.885 300.256 391.45C303.125 391.224 306.876 390.242 306.927 387.372V313.012C306.927 285.85 305.215 279.079 285.379 262.666C267.1 247.941 248.024 234.235 228.237 221.61C232.315 208.469 236.619 196.613 241.779 183.624C249.633 194.649 260.332 208.797 265.769 214.184C278.96 227.122 290.086 225.083 301.867 211.264C312.189 199.388 321.812 186.923 330.69 173.932C330.788 173.811 330.841 173.66 330.841 173.504C331.102 170.339 330.804 167.152 329.96 164.09C331.143 161.447 336.177 156.11 340.029 151.201L350.425 162.504C350.895 163.011 351.459 163.421 352.087 163.71C352.715 164 353.394 164.162 354.084 164.189C354.775 164.216 355.464 164.107 356.113 163.867C356.761 163.628 357.356 163.263 357.864 162.793C358.371 162.324 358.781 161.759 359.07 161.131C359.359 160.503 359.522 159.825 359.549 159.134C359.576 158.443 359.466 157.754 359.227 157.106C358.987 156.457 358.622 155.862 358.153 155.355L358.178 155.229ZM337.537 113.065C339.651 115.078 340.255 126.381 340.457 130.081V130.66C340.47 130.879 340.565 131.083 340.724 131.233C340.884 131.383 341.094 131.466 341.313 131.466C341.43 131.466 341.547 131.442 341.656 131.396C341.764 131.351 341.862 131.284 341.945 131.199C342.027 131.115 342.091 131.014 342.134 130.905C342.177 130.795 342.197 130.677 342.194 130.56C342.068 128.546 341.942 126.658 341.766 124.443C347.606 135.418 347.53 137.608 345.139 141.107L330.916 125.651C331.118 123.356 331.118 121.048 330.916 118.754C330.905 118.571 330.835 118.396 330.718 118.256C330.6 118.115 330.44 118.016 330.262 117.973C329.053 117.671 326.561 117.243 322.71 116.639L317.222 110.698C330.992 111.403 336.807 112.385 337.537 113.065ZM237.701 101.888C237.793 101.741 237.841 101.57 237.841 101.397C237.841 101.224 237.793 101.054 237.701 100.906C233.447 95.0661 237.248 91.0133 239.036 95.1668C239.615 96.5513 240.395 96.7275 240.924 96.6016C242.585 96.2744 243.139 92.6495 243.29 90.5098C244.435 90.6777 245.553 90.9994 246.613 91.4664C247.217 102.24 248.123 110.623 246.613 114.701C246.411 115.28 246.285 115.733 245.555 115.859C244.825 115.985 241.956 115.481 236.468 111.504C236.338 111.409 236.183 111.353 236.022 111.342C235.862 111.33 235.701 111.365 235.559 111.441C235.417 111.518 235.299 111.633 235.219 111.773C235.14 111.913 235.101 112.073 235.109 112.234C235.34 117.401 235.912 122.548 236.82 127.64C226.076 127.22 215.316 127.945 204.725 129.804C218.167 121.422 233.296 108.685 237.701 101.888ZM94.2168 272.484C92.0268 272.207 91.1457 271.502 91.0954 271.326C91.045 271.15 91.4982 270.394 95.3244 269.815C101.016 269.001 106.545 267.302 111.712 264.781C111.847 264.727 111.965 264.638 112.054 264.523C112.142 264.408 112.198 264.271 112.215 264.126C112.707 260.985 113.838 257.978 115.538 255.291C116.425 255.361 117.285 255.627 118.055 256.071C121.882 258.261 122.738 263.623 120.422 270.822C117.754 269.317 115.3 267.463 113.122 265.309C112.961 265.15 112.744 265.06 112.517 265.06C112.291 265.06 112.074 265.15 111.913 265.309C111.83 265.389 111.764 265.485 111.719 265.591C111.674 265.697 111.651 265.811 111.651 265.926C111.651 266.041 111.674 266.155 111.719 266.261C111.764 266.367 111.83 266.463 111.913 266.543L112.089 266.744C108.993 268.909 106.476 270.596 104.311 271.905C100.96 272.464 97.559 272.658 94.1665 272.484H94.2168ZM96.4824 280.74C93.9651 281.244 93.2351 280.891 93.1344 280.74C93.0337 280.589 94.242 278.727 98.1689 277.04C103.515 274.551 108.578 271.496 113.273 267.927C113.902 268.481 114.582 269.035 115.261 269.564C113.373 272.081 111.762 274.12 110.227 275.857C105.838 278.025 101.207 279.664 96.432 280.74H96.4824ZM104.034 289.928C101.517 291.439 100.107 291.288 99.9562 291.061C99.8052 290.835 99.9562 288.921 104.034 285.07C108.754 280.693 113.021 275.853 116.772 270.621C117.753 271.301 118.785 271.93 119.818 272.509C118.987 275.026 118.081 277.317 117.099 279.708C113.168 283.635 108.772 287.067 104.009 289.928H104.034ZM134.241 265.435C133.31 268.808 122.712 286.329 116.243 294.006C113.877 296.801 112.014 297.38 111.737 297.203C111.46 297.027 110.982 296.146 113.776 290.885C116.804 284.903 119.42 278.722 121.605 272.383C126.086 259.797 120.598 255.618 118.785 254.586C117.054 253.646 115.05 253.338 113.116 253.714C111.182 254.091 109.44 255.129 108.188 256.65C102.297 263.749 98.8486 265.36 98.2696 265.158C98.2696 265.158 97.892 264.529 98.9745 261.911C100.661 257.883 101.668 255.24 103.229 251.162C104.437 248.016 113.046 243.611 113.751 241.093C114.212 238.953 114.39 236.761 114.279 234.573C120.907 234.237 127.551 234.634 134.09 235.757C134.367 239.759 135.274 261.659 134.317 265.435H134.241ZM157.677 340.349C157.899 340.29 158.09 340.146 158.207 339.949C158.325 339.751 158.36 339.516 158.307 339.292C158.283 339.181 158.237 339.077 158.172 338.984C158.107 338.892 158.023 338.814 157.926 338.755C157.83 338.696 157.722 338.657 157.61 338.641C157.498 338.626 157.384 338.633 157.275 338.663L149.093 340.5C146.576 298.991 143.153 261.71 153.625 233.995C156.041 227.625 159.715 221.808 164.43 216.89C169.144 211.973 174.801 208.056 181.063 205.373C192.683 200.398 205.295 198.175 217.916 198.879C200.899 221.182 188.564 268.104 176.859 354.95C147.608 364.112 104.361 374.131 87.974 377.605C86.5895 371.211 83.8456 361.343 79.2139 358.071C84.7267 356.686 153.473 341.356 157.753 340.349H157.677ZM75.4379 416.849C74.0534 426.012 71.662 437.793 66.4261 443.18C71.2089 429.511 68.1882 379.82 61.3915 372.193C65.9982 371.085 71.4606 369.676 83.1156 366.957C86.1357 375.37 87.8917 384.184 88.3264 393.112C78.509 396.208 76.9483 406.503 75.4379 416.849ZM311.709 403.432C320.117 409.398 330.639 415.817 333.056 422.438C322.559 413.753 275.486 399.43 265.769 402.602C267.33 391.022 267.229 390.544 268.891 379.418C277.501 379.133 286.116 379.834 294.567 381.507C294.667 388.731 297.512 393.313 311.709 403.432ZM284.019 263.9C302.622 279.381 304.963 284.894 304.938 313.012V383.873C302.219 381.356 295.725 379.141 281.754 378.008C269.57 377.026 261.616 377.781 258.419 380.248C258.746 358.348 258.821 308.053 258.419 301.281C258.411 301.111 258.352 300.948 258.248 300.813C258.144 300.678 258.002 300.577 257.84 300.526C247.368 296.901 234.026 292.42 223.378 289.022C223.101 277.115 222.573 249.929 223.378 238.249C224.838 233.038 226.273 228.18 227.733 223.321C247.239 235.809 266.046 249.355 284.07 263.9H284.019ZM193.397 353.565C188.942 372.168 184.411 381.633 161.982 388.102C140.912 394.219 101.114 402.425 88.2257 405.371C91.6492 399.228 89.7109 386.038 88.3516 379.141C104.865 375.692 148.59 365.547 177.916 356.309C178.073 356.259 178.212 356.167 178.319 356.043C178.425 355.918 178.495 355.766 178.52 355.604C190.377 267.499 202.812 220.678 220.055 199.004C224.553 199.261 229.027 199.824 233.447 200.691C219.325 239.809 211.522 277.644 193.372 353.565H193.397ZM329.104 173.026C320.306 185.937 310.766 198.326 300.533 210.131C289.306 223.296 279.312 225.083 266.952 212.95C258.998 205.121 238.482 176.45 234.479 169.88C234.371 169.718 234.213 169.597 234.028 169.534C233.844 169.472 233.645 169.473 233.461 169.536C233.277 169.599 233.119 169.722 233.012 169.884C232.905 170.046 232.854 170.239 232.868 170.433C234.033 179.498 234.579 188.632 234.505 197.771C234.328 198.199 234.177 198.627 234.026 199.055C216.128 195.531 196.519 196.537 180.534 203.712C179.905 190.37 177.136 170.131 173.184 157.998C173.149 157.89 173.094 157.79 173.021 157.704C172.948 157.618 172.859 157.547 172.758 157.495C172.657 157.444 172.547 157.413 172.435 157.404C172.322 157.395 172.209 157.409 172.101 157.444C171.882 157.519 171.701 157.677 171.597 157.884C171.493 158.092 171.476 158.331 171.548 158.552C172.675 162.151 173.616 165.806 174.367 169.502C168.263 176.392 161.758 182.915 154.883 189.036C151.132 190.295 147.659 191.553 144.965 192.56C144.815 192.619 144.683 192.719 144.586 192.848C144.488 192.976 144.428 193.129 144.411 193.29C143.757 199.483 142.8 224.278 142.574 237.217C140.372 235.752 137.883 234.774 135.274 234.347H135.148C128.175 232.862 109.371 231.653 103.405 235.404C103.636 222.844 104.56 210.305 106.174 197.846C108.414 178.992 109.925 173.026 129.484 160.817C161.529 140.679 198.608 129.326 231.232 129.326C252.352 129.326 257.009 134.361 286.109 177.154C286.17 177.249 286.249 177.331 286.342 177.394C286.436 177.457 286.541 177.501 286.652 177.522C286.762 177.543 286.876 177.541 286.986 177.517C287.096 177.493 287.2 177.447 287.292 177.381C287.484 177.253 287.618 177.054 287.665 176.828C287.712 176.602 287.668 176.367 287.544 176.173C285.958 173.857 284.447 171.642 282.987 169.552C287.241 164.039 298.796 151.327 302.723 146.897C308.437 145.537 315.863 148.785 320.344 152.535C323.359 154.982 325.733 158.126 327.259 161.697C328.786 165.267 329.419 169.156 329.104 173.026ZM329.104 161.749C327.23 157.126 324.13 153.102 320.138 150.112C316.145 147.122 311.412 145.279 306.448 144.782C306.826 136.224 305.542 131.718 305.542 127.312C305.542 125.525 308.487 120.994 311.483 113.618C312.062 112.209 312.792 111.68 313.144 111.806C314.05 112.058 315.309 114.927 314.277 120.667C312.314 131.793 319.312 137.306 325.378 135.116L338.871 149.792C335.321 154.298 331.168 158.829 329.23 161.749H329.104ZM315.687 122.152C315.687 121.749 315.687 121.372 315.863 120.969C316.87 115.305 315.863 110.9 313.497 110.119C312.968 109.968 310.979 109.717 309.746 112.964C309.494 113.618 309.217 114.248 308.966 114.852L306.448 111.881L303.931 103.851L311.735 107.099L348.99 147.803C346.758 148.748 344.93 150.451 343.83 152.611L315.687 122.152ZM345.013 154.021C345.424 152.888 346.093 151.866 346.967 151.036C347.841 150.206 348.895 149.591 350.047 149.238L351.356 150.648C349.115 151.576 347.277 153.271 346.171 155.43L345.013 154.021ZM356.794 161.346C356.454 161.671 356.052 161.925 355.612 162.091C355.173 162.258 354.704 162.334 354.234 162.315C353.764 162.296 353.302 162.183 352.877 161.982C352.452 161.781 352.072 161.496 351.759 161.145L347.782 156.815C348.215 155.669 348.909 154.641 349.81 153.811C350.71 152.98 351.791 152.371 352.967 152.032L356.794 156.311C357.135 156.636 357.407 157.026 357.592 157.459C357.778 157.892 357.874 158.358 357.874 158.829C357.874 159.3 357.778 159.766 357.592 160.198C357.407 160.631 357.135 161.021 356.794 161.346Z"/>
</mask>
<path d="M358.178 155.229L346.397 142.416C349.972 137.18 349.217 134.26 341.363 119.761C341.25 116.9 340.381 114.121 338.846 111.705C337.537 110.396 329.733 109.415 315.636 108.76C312.641 105.488 312.741 105.563 312.49 105.462L302.798 101.384C302.644 101.325 302.476 101.31 302.314 101.342C302.151 101.374 302.001 101.45 301.88 101.563C301.76 101.676 301.673 101.821 301.631 101.981C301.588 102.14 301.591 102.309 301.64 102.467L304.888 112.536C304.888 112.813 304.888 112.536 308.437 116.538C305.92 122.102 303.906 125.248 303.906 127.262C303.906 131.768 305.19 136.324 304.812 144.707C303.894 144.747 302.983 144.882 302.093 145.11C301.933 145.158 301.786 145.245 301.665 145.361C297.94 149.641 286.562 162 282.031 168.017C260.13 136.173 253.082 129.175 238.734 127.74C238.255 125.223 237.853 122.404 237.55 119.735C240.622 120.113 244.297 120.214 246.562 118.149C250.514 114.55 249.231 105.765 248.425 91.3405C259.199 84.1915 263.126 54.4624 239.388 56.0987C241.477 30.5231 205.355 26.3445 202.258 47.4644C182.674 34.1732 154.078 56.4762 172.806 72.4106C162.359 74.6762 159.515 88.0429 169.534 89.8302C144.361 109.641 164.071 148.508 218.721 117.822C212.787 122.528 206.529 126.81 199.993 130.635C174.649 135.793 150.447 145.489 128.552 159.257C108.414 171.843 106.702 178.463 104.412 197.519C102.698 210.879 101.765 224.327 101.618 237.796C101.59 238.183 101.64 238.572 101.765 238.94C101.891 239.307 102.089 239.646 102.348 239.935C104.349 241.804 106.94 242.916 109.673 243.082C107.005 245.146 102.675 248.116 101.668 250.634C100.258 254.334 99.3269 256.826 97.4389 261.332C97.011 262.389 95.6768 265.637 97.4389 266.694C100.409 268.506 107.508 260.376 109.597 257.833C110.567 256.667 111.894 255.853 113.373 255.517C111.989 258.001 111.028 260.698 110.529 263.497C105.617 265.817 100.379 267.371 94.9972 268.104C91.1961 268.683 89.2578 269.765 89.283 271.326C89.3081 272.886 91.045 273.843 93.9651 274.195C96.1025 274.334 98.2467 274.334 100.384 274.195C99.3772 274.724 98.4207 275.152 97.5144 275.555C93.2602 277.317 90.8688 279.608 91.3975 281.344C91.624 282.049 92.3289 282.779 94.2672 282.779C98.8562 282.156 103.337 280.902 107.584 279.054C105.847 280.917 104.336 282.377 102.801 283.786C98.8738 287.461 97.3131 290.482 98.4962 292.093C99.6793 293.704 102.927 292.521 104.84 291.414C108.561 289.233 112.067 286.704 115.312 283.862C114.355 285.993 113.348 288.108 112.291 290.205C109.774 294.938 109.295 297.757 110.806 298.764C112.744 300.073 116.042 297.103 117.627 295.24C123.921 287.688 134.896 270.067 135.953 266.014C136.708 263.27 136.532 252.648 136.255 244.643C140.837 244.315 144.059 242.629 144.235 240.363C144.235 240.111 144.89 206.858 146.048 194.071C156.159 190.198 166.46 186.838 176.909 184.001C177.866 190.899 178.571 197.997 178.822 204.417C166.487 210.173 156.892 220.527 152.089 233.265C141.265 261.886 145.116 300.451 147.457 340.802L75.6141 356.938C71.6369 357.693 70.353 363.785 70.7558 368.039C68.5406 368.593 60.9384 370.557 58.975 370.985C52.8076 371.186 51.8762 388.958 51.8511 399.581C51.8511 416.547 54.3683 440.663 59.8308 446.327C60.3021 446.945 60.9901 447.361 61.7562 447.492C62.5223 447.623 63.3096 447.458 63.9592 447.032C72.1403 443.482 75.3121 429.411 77.1497 417.101C77.7067 412.734 78.633 408.423 79.9187 404.213C80.2848 405.216 80.9158 406.101 81.7446 406.775C82.5733 407.449 83.569 407.885 84.626 408.039C85.4315 408.039 83.2918 408.291 101.341 404.364C119.39 400.437 146.249 394.597 162.435 389.889C184.688 383.47 190.276 374.081 195.16 354.094C198.331 340.853 208.879 296.448 211.094 287.185C221.39 290.105 241.855 296.926 256.833 302.087C257.261 311.124 257.135 363.961 256.833 383.344C256.833 387.196 262.044 389.31 265.794 390.141C265.366 393.212 264.208 402.501 263.932 404.49C262.346 410.078 277.525 416.27 290.589 420.499C298.519 423.017 336.58 434.042 335.498 425.836C335.8 412.872 310.753 403.885 300.256 391.45C303.125 391.224 306.876 390.242 306.927 387.372V313.012C306.927 285.85 305.215 279.079 285.379 262.666C267.1 247.941 248.024 234.235 228.237 221.61C232.315 208.469 236.619 196.613 241.779 183.624C249.633 194.649 260.332 208.797 265.769 214.184C278.96 227.122 290.086 225.083 301.867 211.264C312.189 199.388 321.812 186.923 330.69 173.932C330.788 173.811 330.841 173.66 330.841 173.504C331.102 170.339 330.804 167.152 329.96 164.09C331.143 161.447 336.177 156.11 340.029 151.201L350.425 162.504C350.895 163.011 351.459 163.421 352.087 163.71C352.715 164 353.394 164.162 354.084 164.189C354.775 164.216 355.464 164.107 356.113 163.867C356.761 163.628 357.356 163.263 357.864 162.793C358.371 162.324 358.781 161.759 359.07 161.131C359.359 160.503 359.522 159.825 359.549 159.134C359.576 158.443 359.466 157.754 359.227 157.106C358.987 156.457 358.622 155.862 358.153 155.355L358.178 155.229ZM337.537 113.065C339.651 115.078 340.255 126.381 340.457 130.081V130.66C340.47 130.879 340.565 131.083 340.724 131.233C340.884 131.383 341.094 131.466 341.313 131.466C341.43 131.466 341.547 131.442 341.656 131.396C341.764 131.351 341.862 131.284 341.945 131.199C342.027 131.115 342.091 131.014 342.134 130.905C342.177 130.795 342.197 130.677 342.194 130.56C342.068 128.546 341.942 126.658 341.766 124.443C347.606 135.418 347.53 137.608 345.139 141.107L330.916 125.651C331.118 123.356 331.118 121.048 330.916 118.754C330.905 118.571 330.835 118.396 330.718 118.256C330.6 118.115 330.44 118.016 330.262 117.973C329.053 117.671 326.561 117.243 322.71 116.639L317.222 110.698C330.992 111.403 336.807 112.385 337.537 113.065ZM237.701 101.888C237.793 101.741 237.841 101.57 237.841 101.397C237.841 101.224 237.793 101.054 237.701 100.906C233.447 95.0661 237.248 91.0133 239.036 95.1668C239.615 96.5513 240.395 96.7275 240.924 96.6016C242.585 96.2744 243.139 92.6495 243.29 90.5098C244.435 90.6777 245.553 90.9994 246.613 91.4664C247.217 102.24 248.123 110.623 246.613 114.701C246.411 115.28 246.285 115.733 245.555 115.859C244.825 115.985 241.956 115.481 236.468 111.504C236.338 111.409 236.183 111.353 236.022 111.342C235.862 111.33 235.701 111.365 235.559 111.441C235.417 111.518 235.299 111.633 235.219 111.773C235.14 111.913 235.101 112.073 235.109 112.234C235.34 117.401 235.912 122.548 236.82 127.64C226.076 127.22 215.316 127.945 204.725 129.804C218.167 121.422 233.296 108.685 237.701 101.888ZM94.2168 272.484C92.0268 272.207 91.1457 271.502 91.0954 271.326C91.045 271.15 91.4982 270.394 95.3244 269.815C101.016 269.001 106.545 267.302 111.712 264.781C111.847 264.727 111.965 264.638 112.054 264.523C112.142 264.408 112.198 264.271 112.215 264.126C112.707 260.985 113.838 257.978 115.538 255.291C116.425 255.361 117.285 255.627 118.055 256.071C121.882 258.261 122.738 263.623 120.422 270.822C117.754 269.317 115.3 267.463 113.122 265.309C112.961 265.15 112.744 265.06 112.517 265.06C112.291 265.06 112.074 265.15 111.913 265.309C111.83 265.389 111.764 265.485 111.719 265.591C111.674 265.697 111.651 265.811 111.651 265.926C111.651 266.041 111.674 266.155 111.719 266.261C111.764 266.367 111.83 266.463 111.913 266.543L112.089 266.744C108.993 268.909 106.476 270.596 104.311 271.905C100.96 272.464 97.559 272.658 94.1665 272.484H94.2168ZM96.4824 280.74C93.9651 281.244 93.2351 280.891 93.1344 280.74C93.0337 280.589 94.242 278.727 98.1689 277.04C103.515 274.551 108.578 271.496 113.273 267.927C113.902 268.481 114.582 269.035 115.261 269.564C113.373 272.081 111.762 274.12 110.227 275.857C105.838 278.025 101.207 279.664 96.432 280.74H96.4824ZM104.034 289.928C101.517 291.439 100.107 291.288 99.9562 291.061C99.8052 290.835 99.9562 288.921 104.034 285.07C108.754 280.693 113.021 275.853 116.772 270.621C117.753 271.301 118.785 271.93 119.818 272.509C118.987 275.026 118.081 277.317 117.099 279.708C113.168 283.635 108.772 287.067 104.009 289.928H104.034ZM134.241 265.435C133.31 268.808 122.712 286.329 116.243 294.006C113.877 296.801 112.014 297.38 111.737 297.203C111.46 297.027 110.982 296.146 113.776 290.885C116.804 284.903 119.42 278.722 121.605 272.383C126.086 259.797 120.598 255.618 118.785 254.586C117.054 253.646 115.05 253.338 113.116 253.714C111.182 254.091 109.44 255.129 108.188 256.65C102.297 263.749 98.8486 265.36 98.2696 265.158C98.2696 265.158 97.892 264.529 98.9745 261.911C100.661 257.883 101.668 255.24 103.229 251.162C104.437 248.016 113.046 243.611 113.751 241.093C114.212 238.953 114.39 236.761 114.279 234.573C120.907 234.237 127.551 234.634 134.09 235.757C134.367 239.759 135.274 261.659 134.317 265.435H134.241ZM157.677 340.349C157.899 340.29 158.09 340.146 158.207 339.949C158.325 339.751 158.36 339.516 158.307 339.292C158.283 339.181 158.237 339.077 158.172 338.984C158.107 338.892 158.023 338.814 157.926 338.755C157.83 338.696 157.722 338.657 157.61 338.641C157.498 338.626 157.384 338.633 157.275 338.663L149.093 340.5C146.576 298.991 143.153 261.71 153.625 233.995C156.041 227.625 159.715 221.808 164.43 216.89C169.144 211.973 174.801 208.056 181.063 205.373C192.683 200.398 205.295 198.175 217.916 198.879C200.899 221.182 188.564 268.104 176.859 354.95C147.608 364.112 104.361 374.131 87.974 377.605C86.5895 371.211 83.8456 361.343 79.2139 358.071C84.7267 356.686 153.473 341.356 157.753 340.349H157.677ZM75.4379 416.849C74.0534 426.012 71.662 437.793 66.4261 443.18C71.2089 429.511 68.1882 379.82 61.3915 372.193C65.9982 371.085 71.4606 369.676 83.1156 366.957C86.1357 375.37 87.8917 384.184 88.3264 393.112C78.509 396.208 76.9483 406.503 75.4379 416.849ZM311.709 403.432C320.117 409.398 330.639 415.817 333.056 422.438C322.559 413.753 275.486 399.43 265.769 402.602C267.33 391.022 267.229 390.544 268.891 379.418C277.501 379.133 286.116 379.834 294.567 381.507C294.667 388.731 297.512 393.313 311.709 403.432ZM284.019 263.9C302.622 279.381 304.963 284.894 304.938 313.012V383.873C302.219 381.356 295.725 379.141 281.754 378.008C269.57 377.026 261.616 377.781 258.419 380.248C258.746 358.348 258.821 308.053 258.419 301.281C258.411 301.111 258.352 300.948 258.248 300.813C258.144 300.678 258.002 300.577 257.84 300.526C247.368 296.901 234.026 292.42 223.378 289.022C223.101 277.115 222.573 249.929 223.378 238.249C224.838 233.038 226.273 228.18 227.733 223.321C247.239 235.809 266.046 249.355 284.07 263.9H284.019ZM193.397 353.565C188.942 372.168 184.411 381.633 161.982 388.102C140.912 394.219 101.114 402.425 88.2257 405.371C91.6492 399.228 89.7109 386.038 88.3516 379.141C104.865 375.692 148.59 365.547 177.916 356.309C178.073 356.259 178.212 356.167 178.319 356.043C178.425 355.918 178.495 355.766 178.52 355.604C190.377 267.499 202.812 220.678 220.055 199.004C224.553 199.261 229.027 199.824 233.447 200.691C219.325 239.809 211.522 277.644 193.372 353.565H193.397ZM329.104 173.026C320.306 185.937 310.766 198.326 300.533 210.131C289.306 223.296 279.312 225.083 266.952 212.95C258.998 205.121 238.482 176.45 234.479 169.88C234.371 169.718 234.213 169.597 234.028 169.534C233.844 169.472 233.645 169.473 233.461 169.536C233.277 169.599 233.119 169.722 233.012 169.884C232.905 170.046 232.854 170.239 232.868 170.433C234.033 179.498 234.579 188.632 234.505 197.771C234.328 198.199 234.177 198.627 234.026 199.055C216.128 195.531 196.519 196.537 180.534 203.712C179.905 190.37 177.136 170.131 173.184 157.998C173.149 157.89 173.094 157.79 173.021 157.704C172.948 157.618 172.859 157.547 172.758 157.495C172.657 157.444 172.547 157.413 172.435 157.404C172.322 157.395 172.209 157.409 172.101 157.444C171.882 157.519 171.701 157.677 171.597 157.884C171.493 158.092 171.476 158.331 171.548 158.552C172.675 162.151 173.616 165.806 174.367 169.502C168.263 176.392 161.758 182.915 154.883 189.036C151.132 190.295 147.659 191.553 144.965 192.56C144.815 192.619 144.683 192.719 144.586 192.848C144.488 192.976 144.428 193.129 144.411 193.29C143.757 199.483 142.8 224.278 142.574 237.217C140.372 235.752 137.883 234.774 135.274 234.347H135.148C128.175 232.862 109.371 231.653 103.405 235.404C103.636 222.844 104.56 210.305 106.174 197.846C108.414 178.992 109.925 173.026 129.484 160.817C161.529 140.679 198.608 129.326 231.232 129.326C252.352 129.326 257.009 134.361 286.109 177.154C286.17 177.249 286.249 177.331 286.342 177.394C286.436 177.457 286.541 177.501 286.652 177.522C286.762 177.543 286.876 177.541 286.986 177.517C287.096 177.493 287.2 177.447 287.292 177.381C287.484 177.253 287.618 177.054 287.665 176.828C287.712 176.602 287.668 176.367 287.544 176.173C285.958 173.857 284.447 171.642 282.987 169.552C287.241 164.039 298.796 151.327 302.723 146.897C308.437 145.537 315.863 148.785 320.344 152.535C323.359 154.982 325.733 158.126 327.259 161.697C328.786 165.267 329.419 169.156 329.104 173.026ZM329.104 161.749C327.23 157.126 324.13 153.102 320.138 150.112C316.145 147.122 311.412 145.279 306.448 144.782C306.826 136.224 305.542 131.718 305.542 127.312C305.542 125.525 308.487 120.994 311.483 113.618C312.062 112.209 312.792 111.68 313.144 111.806C314.05 112.058 315.309 114.927 314.277 120.667C312.314 131.793 319.312 137.306 325.378 135.116L338.871 149.792C335.321 154.298 331.168 158.829 329.23 161.749H329.104ZM315.687 122.152C315.687 121.749 315.687 121.372 315.863 120.969C316.87 115.305 315.863 110.9 313.497 110.119C312.968 109.968 310.979 109.717 309.746 112.964C309.494 113.618 309.217 114.248 308.966 114.852L306.448 111.881L303.931 103.851L311.735 107.099L348.99 147.803C346.758 148.748 344.93 150.451 343.83 152.611L315.687 122.152ZM345.013 154.021C345.424 152.888 346.093 151.866 346.967 151.036C347.841 150.206 348.895 149.591 350.047 149.238L351.356 150.648C349.115 151.576 347.277 153.271 346.171 155.43L345.013 154.021ZM356.794 161.346C356.454 161.671 356.052 161.925 355.612 162.091C355.173 162.258 354.704 162.334 354.234 162.315C353.764 162.296 353.302 162.183 352.877 161.982C352.452 161.781 352.072 161.496 351.759 161.145L347.782 156.815C348.215 155.669 348.909 154.641 349.81 153.811C350.71 152.98 351.791 152.371 352.967 152.032L356.794 156.311C357.135 156.636 357.407 157.026 357.592 157.459C357.778 157.892 357.874 158.358 357.874 158.829C357.874 159.3 357.778 159.766 357.592 160.198C357.407 160.631 357.135 161.021 356.794 161.346Z" fill="white"/>
<path d="M358.178 155.229L346.397 142.416C349.972 137.18 349.217 134.26 341.363 119.761C341.25 116.9 340.381 114.121 338.846 111.705C337.537 110.396 329.733 109.415 315.636 108.76C312.641 105.488 312.741 105.563 312.49 105.462L302.798 101.384C302.644 101.325 302.476 101.31 302.314 101.342C302.151 101.374 302.001 101.45 301.88 101.563C301.76 101.676 301.673 101.821 301.631 101.981C301.588 102.14 301.591 102.309 301.64 102.467L304.888 112.536C304.888 112.813 304.888 112.536 308.437 116.538C305.92 122.102 303.906 125.248 303.906 127.262C303.906 131.768 305.19 136.324 304.812 144.707C303.894 144.747 302.983 144.882 302.093 145.11C301.933 145.158 301.786 145.245 301.665 145.361C297.94 149.641 286.562 162 282.031 168.017C260.13 136.173 253.082 129.175 238.734 127.74C238.255 125.223 237.853 122.404 237.55 119.735C240.622 120.113 244.297 120.214 246.562 118.149C250.514 114.55 249.231 105.765 248.425 91.3405C259.199 84.1915 263.126 54.4624 239.388 56.0987C241.477 30.5231 205.355 26.3445 202.258 47.4644C182.674 34.1732 154.078 56.4762 172.806 72.4106C162.359 74.6762 159.515 88.0429 169.534 89.8302C144.361 109.641 164.071 148.508 218.721 117.822C212.787 122.528 206.529 126.81 199.993 130.635C174.649 135.793 150.447 145.489 128.552 159.257C108.414 171.843 106.702 178.463 104.412 197.519C102.698 210.879 101.765 224.327 101.618 237.796C101.59 238.183 101.64 238.572 101.765 238.94C101.891 239.307 102.089 239.646 102.348 239.935C104.349 241.804 106.94 242.916 109.673 243.082C107.005 245.146 102.675 248.116 101.668 250.634C100.258 254.334 99.3269 256.826 97.4389 261.332C97.011 262.389 95.6768 265.637 97.4389 266.694C100.409 268.506 107.508 260.376 109.597 257.833C110.567 256.667 111.894 255.853 113.373 255.517C111.989 258.001 111.028 260.698 110.529 263.497C105.617 265.817 100.379 267.371 94.9972 268.104C91.1961 268.683 89.2578 269.765 89.283 271.326C89.3081 272.886 91.045 273.843 93.9651 274.195C96.1025 274.334 98.2467 274.334 100.384 274.195C99.3772 274.724 98.4207 275.152 97.5144 275.555C93.2602 277.317 90.8688 279.608 91.3975 281.344C91.624 282.049 92.3289 282.779 94.2672 282.779C98.8562 282.156 103.337 280.902 107.584 279.054C105.847 280.917 104.336 282.377 102.801 283.786C98.8738 287.461 97.3131 290.482 98.4962 292.093C99.6793 293.704 102.927 292.521 104.84 291.414C108.561 289.233 112.067 286.704 115.312 283.862C114.355 285.993 113.348 288.108 112.291 290.205C109.774 294.938 109.295 297.757 110.806 298.764C112.744 300.073 116.042 297.103 117.627 295.24C123.921 287.688 134.896 270.067 135.953 266.014C136.708 263.27 136.532 252.648 136.255 244.643C140.837 244.315 144.059 242.629 144.235 240.363C144.235 240.111 144.89 206.858 146.048 194.071C156.159 190.198 166.46 186.838 176.909 184.001C177.866 190.899 178.571 197.997 178.822 204.417C166.487 210.173 156.892 220.527 152.089 233.265C141.265 261.886 145.116 300.451 147.457 340.802L75.6141 356.938C71.6369 357.693 70.353 363.785 70.7558 368.039C68.5406 368.593 60.9384 370.557 58.975 370.985C52.8076 371.186 51.8762 388.958 51.8511 399.581C51.8511 416.547 54.3683 440.663 59.8308 446.327C60.3021 446.945 60.9901 447.361 61.7562 447.492C62.5223 447.623 63.3096 447.458 63.9592 447.032C72.1403 443.482 75.3121 429.411 77.1497 417.101C77.7067 412.734 78.633 408.423 79.9187 404.213C80.2848 405.216 80.9158 406.101 81.7446 406.775C82.5733 407.449 83.569 407.885 84.626 408.039C85.4315 408.039 83.2918 408.291 101.341 404.364C119.39 400.437 146.249 394.597 162.435 389.889C184.688 383.47 190.276 374.081 195.16 354.094C198.331 340.853 208.879 296.448 211.094 287.185C221.39 290.105 241.855 296.926 256.833 302.087C257.261 311.124 257.135 363.961 256.833 383.344C256.833 387.196 262.044 389.31 265.794 390.141C265.366 393.212 264.208 402.501 263.932 404.49C262.346 410.078 277.525 416.27 290.589 420.499C298.519 423.017 336.58 434.042 335.498 425.836C335.8 412.872 310.753 403.885 300.256 391.45C303.125 391.224 306.876 390.242 306.927 387.372V313.012C306.927 285.85 305.215 279.079 285.379 262.666C267.1 247.941 248.024 234.235 228.237 221.61C232.315 208.469 236.619 196.613 241.779 183.624C249.633 194.649 260.332 208.797 265.769 214.184C278.96 227.122 290.086 225.083 301.867 211.264C312.189 199.388 321.812 186.923 330.69 173.932C330.788 173.811 330.841 173.66 330.841 173.504C331.102 170.339 330.804 167.152 329.96 164.09C331.143 161.447 336.177 156.11 340.029 151.201L350.425 162.504C350.895 163.011 351.459 163.421 352.087 163.71C352.715 164 353.394 164.162 354.084 164.189C354.775 164.216 355.464 164.107 356.113 163.867C356.761 163.628 357.356 163.263 357.864 162.793C358.371 162.324 358.781 161.759 359.07 161.131C359.359 160.503 359.522 159.825 359.549 159.134C359.576 158.443 359.466 157.754 359.227 157.106C358.987 156.457 358.622 155.862 358.153 155.355L358.178 155.229ZM337.537 113.065C339.651 115.078 340.255 126.381 340.457 130.081V130.66C340.47 130.879 340.565 131.083 340.724 131.233C340.884 131.383 341.094 131.466 341.313 131.466C341.43 131.466 341.547 131.442 341.656 131.396C341.764 131.351 341.862 131.284 341.945 131.199C342.027 131.115 342.091 131.014 342.134 130.905C342.177 130.795 342.197 130.677 342.194 130.56C342.068 128.546 341.942 126.658 341.766 124.443C347.606 135.418 347.53 137.608 345.139 141.107L330.916 125.651C331.118 123.356 331.118 121.048 330.916 118.754C330.905 118.571 330.835 118.396 330.718 118.256C330.6 118.115 330.44 118.016 330.262 117.973C329.053 117.671 326.561 117.243 322.71 116.639L317.222 110.698C330.992 111.403 336.807 112.385 337.537 113.065ZM237.701 101.888C237.793 101.741 237.841 101.57 237.841 101.397C237.841 101.224 237.793 101.054 237.701 100.906C233.447 95.0661 237.248 91.0133 239.036 95.1668C239.615 96.5513 240.395 96.7275 240.924 96.6016C242.585 96.2744 243.139 92.6495 243.29 90.5098C244.435 90.6777 245.553 90.9994 246.613 91.4664C247.217 102.24 248.123 110.623 246.613 114.701C246.411 115.28 246.285 115.733 245.555 115.859C244.825 115.985 241.956 115.481 236.468 111.504C236.338 111.409 236.183 111.353 236.022 111.342C235.862 111.33 235.701 111.365 235.559 111.441C235.417 111.518 235.299 111.633 235.219 111.773C235.14 111.913 235.101 112.073 235.109 112.234C235.34 117.401 235.912 122.548 236.82 127.64C226.076 127.22 215.316 127.945 204.725 129.804C218.167 121.422 233.296 108.685 237.701 101.888ZM94.2168 272.484C92.0268 272.207 91.1457 271.502 91.0954 271.326C91.045 271.15 91.4982 270.394 95.3244 269.815C101.016 269.001 106.545 267.302 111.712 264.781C111.847 264.727 111.965 264.638 112.054 264.523C112.142 264.408 112.198 264.271 112.215 264.126C112.707 260.985 113.838 257.978 115.538 255.291C116.425 255.361 117.285 255.627 118.055 256.071C121.882 258.261 122.738 263.623 120.422 270.822C117.754 269.317 115.3 267.463 113.122 265.309C112.961 265.15 112.744 265.06 112.517 265.06C112.291 265.06 112.074 265.15 111.913 265.309C111.83 265.389 111.764 265.485 111.719 265.591C111.674 265.697 111.651 265.811 111.651 265.926C111.651 266.041 111.674 266.155 111.719 266.261C111.764 266.367 111.83 266.463 111.913 266.543L112.089 266.744C108.993 268.909 106.476 270.596 104.311 271.905C100.96 272.464 97.559 272.658 94.1665 272.484H94.2168ZM96.4824 280.74C93.9651 281.244 93.2351 280.891 93.1344 280.74C93.0337 280.589 94.242 278.727 98.1689 277.04C103.515 274.551 108.578 271.496 113.273 267.927C113.902 268.481 114.582 269.035 115.261 269.564C113.373 272.081 111.762 274.12 110.227 275.857C105.838 278.025 101.207 279.664 96.432 280.74H96.4824ZM104.034 289.928C101.517 291.439 100.107 291.288 99.9562 291.061C99.8052 290.835 99.9562 288.921 104.034 285.07C108.754 280.693 113.021 275.853 116.772 270.621C117.753 271.301 118.785 271.93 119.818 272.509C118.987 275.026 118.081 277.317 117.099 279.708C113.168 283.635 108.772 287.067 104.009 289.928H104.034ZM134.241 265.435C133.31 268.808 122.712 286.329 116.243 294.006C113.877 296.801 112.014 297.38 111.737 297.203C111.46 297.027 110.982 296.146 113.776 290.885C116.804 284.903 119.42 278.722 121.605 272.383C126.086 259.797 120.598 255.618 118.785 254.586C117.054 253.646 115.05 253.338 113.116 253.714C111.182 254.091 109.44 255.129 108.188 256.65C102.297 263.749 98.8486 265.36 98.2696 265.158C98.2696 265.158 97.892 264.529 98.9745 261.911C100.661 257.883 101.668 255.24 103.229 251.162C104.437 248.016 113.046 243.611 113.751 241.093C114.212 238.953 114.39 236.761 114.279 234.573C120.907 234.237 127.551 234.634 134.09 235.757C134.367 239.759 135.274 261.659 134.317 265.435H134.241ZM157.677 340.349C157.899 340.29 158.09 340.146 158.207 339.949C158.325 339.751 158.36 339.516 158.307 339.292C158.283 339.181 158.237 339.077 158.172 338.984C158.107 338.892 158.023 338.814 157.926 338.755C157.83 338.696 157.722 338.657 157.61 338.641C157.498 338.626 157.384 338.633 157.275 338.663L149.093 340.5C146.576 298.991 143.153 261.71 153.625 233.995C156.041 227.625 159.715 221.808 164.43 216.89C169.144 211.973 174.801 208.056 181.063 205.373C192.683 200.398 205.295 198.175 217.916 198.879C200.899 221.182 188.564 268.104 176.859 354.95C147.608 364.112 104.361 374.131 87.974 377.605C86.5895 371.211 83.8456 361.343 79.2139 358.071C84.7267 356.686 153.473 341.356 157.753 340.349H157.677ZM75.4379 416.849C74.0534 426.012 71.662 437.793 66.4261 443.18C71.2089 429.511 68.1882 379.82 61.3915 372.193C65.9982 371.085 71.4606 369.676 83.1156 366.957C86.1357 375.37 87.8917 384.184 88.3264 393.112C78.509 396.208 76.9483 406.503 75.4379 416.849ZM311.709 403.432C320.117 409.398 330.639 415.817 333.056 422.438C322.559 413.753 275.486 399.43 265.769 402.602C267.33 391.022 267.229 390.544 268.891 379.418C277.501 379.133 286.116 379.834 294.567 381.507C294.667 388.731 297.512 393.313 311.709 403.432ZM284.019 263.9C302.622 279.381 304.963 284.894 304.938 313.012V383.873C302.219 381.356 295.725 379.141 281.754 378.008C269.57 377.026 261.616 377.781 258.419 380.248C258.746 358.348 258.821 308.053 258.419 301.281C258.411 301.111 258.352 300.948 258.248 300.813C258.144 300.678 258.002 300.577 257.84 300.526C247.368 296.901 234.026 292.42 223.378 289.022C223.101 277.115 222.573 249.929 223.378 238.249C224.838 233.038 226.273 228.18 227.733 223.321C247.239 235.809 266.046 249.355 284.07 263.9H284.019ZM193.397 353.565C188.942 372.168 184.411 381.633 161.982 388.102C140.912 394.219 101.114 402.425 88.2257 405.371C91.6492 399.228 89.7109 386.038 88.3516 379.141C104.865 375.692 148.59 365.547 177.916 356.309C178.073 356.259 178.212 356.167 178.319 356.043C178.425 355.918 178.495 355.766 178.52 355.604C190.377 267.499 202.812 220.678 220.055 199.004C224.553 199.261 229.027 199.824 233.447 200.691C219.325 239.809 211.522 277.644 193.372 353.565H193.397ZM329.104 173.026C320.306 185.937 310.766 198.326 300.533 210.131C289.306 223.296 279.312 225.083 266.952 212.95C258.998 205.121 238.482 176.45 234.479 169.88C234.371 169.718 234.213 169.597 234.028 169.534C233.844 169.472 233.645 169.473 233.461 169.536C233.277 169.599 233.119 169.722 233.012 169.884C232.905 170.046 232.854 170.239 232.868 170.433C234.033 179.498 234.579 188.632 234.505 197.771C234.328 198.199 234.177 198.627 234.026 199.055C216.128 195.531 196.519 196.537 180.534 203.712C179.905 190.37 177.136 170.131 173.184 157.998C173.149 157.89 173.094 157.79 173.021 157.704C172.948 157.618 172.859 157.547 172.758 157.495C172.657 157.444 172.547 157.413 172.435 157.404C172.322 157.395 172.209 157.409 172.101 157.444C171.882 157.519 171.701 157.677 171.597 157.884C171.493 158.092 171.476 158.331 171.548 158.552C172.675 162.151 173.616 165.806 174.367 169.502C168.263 176.392 161.758 182.915 154.883 189.036C151.132 190.295 147.659 191.553 144.965 192.56C144.815 192.619 144.683 192.719 144.586 192.848C144.488 192.976 144.428 193.129 144.411 193.29C143.757 199.483 142.8 224.278 142.574 237.217C140.372 235.752 137.883 234.774 135.274 234.347H135.148C128.175 232.862 109.371 231.653 103.405 235.404C103.636 222.844 104.56 210.305 106.174 197.846C108.414 178.992 109.925 173.026 129.484 160.817C161.529 140.679 198.608 129.326 231.232 129.326C252.352 129.326 257.009 134.361 286.109 177.154C286.17 177.249 286.249 177.331 286.342 177.394C286.436 177.457 286.541 177.501 286.652 177.522C286.762 177.543 286.876 177.541 286.986 177.517C287.096 177.493 287.2 177.447 287.292 177.381C287.484 177.253 287.618 177.054 287.665 176.828C287.712 176.602 287.668 176.367 287.544 176.173C285.958 173.857 284.447 171.642 282.987 169.552C287.241 164.039 298.796 151.327 302.723 146.897C308.437 145.537 315.863 148.785 320.344 152.535C323.359 154.982 325.733 158.126 327.259 161.697C328.786 165.267 329.419 169.156 329.104 173.026ZM329.104 161.749C327.23 157.126 324.13 153.102 320.138 150.112C316.145 147.122 311.412 145.279 306.448 144.782C306.826 136.224 305.542 131.718 305.542 127.312C305.542 125.525 308.487 120.994 311.483 113.618C312.062 112.209 312.792 111.68 313.144 111.806C314.05 112.058 315.309 114.927 314.277 120.667C312.314 131.793 319.312 137.306 325.378 135.116L338.871 149.792C335.321 154.298 331.168 158.829 329.23 161.749H329.104ZM315.687 122.152C315.687 121.749 315.687 121.372 315.863 120.969C316.87 115.305 315.863 110.9 313.497 110.119C312.968 109.968 310.979 109.717 309.746 112.964C309.494 113.618 309.217 114.248 308.966 114.852L306.448 111.881L303.931 103.851L311.735 107.099L348.99 147.803C346.758 148.748 344.93 150.451 343.83 152.611L315.687 122.152ZM345.013 154.021C345.424 152.888 346.093 151.866 346.967 151.036C347.841 150.206 348.895 149.591 350.047 149.238L351.356 150.648C349.115 151.576 347.277 153.271 346.171 155.43L345.013 154.021ZM356.794 161.346C356.454 161.671 356.052 161.925 355.612 162.091C355.173 162.258 354.704 162.334 354.234 162.315C353.764 162.296 353.302 162.183 352.877 161.982C352.452 161.781 352.072 161.496 351.759 161.145L347.782 156.815C348.215 155.669 348.909 154.641 349.81 153.811C350.71 152.98 351.791 152.371 352.967 152.032L356.794 156.311C357.135 156.636 357.407 157.026 357.592 157.459C357.778 157.892 357.874 158.358 357.874 158.829C357.874 159.3 357.778 159.766 357.592 160.198C357.407 160.631 357.135 161.021 356.794 161.346Z" stroke="white" stroke-width="0.6" mask="url(#path-14-outside-14_1_968)"/>
<mask id="path-15-outside-15_1_968" maskUnits="userSpaceOnUse" x="344.47" y="245.177" width="137" height="137" fill="black">
<rect fill="white" x="344.47" y="245.177" width="137" height="137"/>
<path d="M413.26 246.177C399.857 246.173 386.753 250.143 375.605 257.586C364.458 265.029 355.769 275.611 350.636 287.993C345.503 300.375 344.157 314.001 346.769 327.147C349.381 340.294 355.833 352.371 365.309 361.851C374.785 371.33 386.86 377.787 400.006 380.404C413.152 383.02 426.778 381.68 439.162 376.552C451.546 371.423 462.131 362.738 469.578 351.593C477.025 340.449 481 327.346 481 313.943C480.947 295.991 473.794 278.789 461.103 266.093C448.411 253.397 431.212 246.237 413.26 246.177ZM413.26 379.971C401.834 379.966 390.603 376.997 380.667 371.354C370.731 365.711 362.429 357.586 356.571 347.775C391.008 325.925 415.878 291.01 426.703 249.299C442.701 252.628 456.896 261.77 466.544 274.959C476.191 288.147 480.606 304.444 478.934 320.699C477.262 336.954 469.622 352.011 457.491 362.959C445.36 373.908 429.601 379.969 413.26 379.971Z"/>
</mask>
<path d="M413.26 246.177C399.857 246.173 386.753 250.143 375.605 257.586C364.458 265.029 355.769 275.611 350.636 287.993C345.503 300.375 344.157 314.001 346.769 327.147C349.381 340.294 355.833 352.371 365.309 361.851C374.785 371.33 386.86 377.787 400.006 380.404C413.152 383.02 426.778 381.68 439.162 376.552C451.546 371.423 462.131 362.738 469.578 351.593C477.025 340.449 481 327.346 481 313.943C480.947 295.991 473.794 278.789 461.103 266.093C448.411 253.397 431.212 246.237 413.26 246.177ZM413.26 379.971C401.834 379.966 390.603 376.997 380.667 371.354C370.731 365.711 362.429 357.586 356.571 347.775C391.008 325.925 415.878 291.01 426.703 249.299C442.701 252.628 456.896 261.77 466.544 274.959C476.191 288.147 480.606 304.444 478.934 320.699C477.262 336.954 469.622 352.011 457.491 362.959C445.36 373.908 429.601 379.969 413.26 379.971Z" fill="white"/>
<path d="M413.26 246.177C399.857 246.173 386.753 250.143 375.605 257.586C364.458 265.029 355.769 275.611 350.636 287.993C345.503 300.375 344.157 314.001 346.769 327.147C349.381 340.294 355.833 352.371 365.309 361.851C374.785 371.33 386.86 377.787 400.006 380.404C413.152 383.02 426.778 381.68 439.162 376.552C451.546 371.423 462.131 362.738 469.578 351.593C477.025 340.449 481 327.346 481 313.943C480.947 295.991 473.794 278.789 461.103 266.093C448.411 253.397 431.212 246.237 413.26 246.177ZM413.26 379.971C401.834 379.966 390.603 376.997 380.667 371.354C370.731 365.711 362.429 357.586 356.571 347.775C391.008 325.925 415.878 291.01 426.703 249.299C442.701 252.628 456.896 261.77 466.544 274.959C476.191 288.147 480.606 304.444 478.934 320.699C477.262 336.954 469.622 352.011 457.491 362.959C445.36 373.908 429.601 379.969 413.26 379.971Z" stroke="white" stroke-width="0.6" mask="url(#path-15-outside-15_1_968)"/>
</svg>
