<?xml version="1.0" encoding="UTF-8"?>
<!DOCTYPE svg PUBLIC "-//W3C//DTD SVG 1.1//EN" "http://www.w3.org/Graphics/SVG/1.1/DTD/svg11.dtd">
<svg xmlns="http://www.w3.org/2000/svg" version="1.1" width="512px" height="512px" style="shape-rendering:geometricPrecision; text-rendering:geometricPrecision; image-rendering:optimizeQuality; fill-rule:evenodd; clip-rule:evenodd" xmlns:xlink="http://www.w3.org/1999/xlink">
<g><path style="opacity:0.979" fill="#000000" d="M 511.5,253.5 C 511.5,256.5 511.5,259.5 511.5,262.5C 504.074,271.769 496.408,280.935 488.5,290C 486.541,290.931 484.541,291.764 482.5,292.5C 480.556,291.811 478.556,291.311 476.5,291C 402.833,229.833 329.167,168.667 255.5,107.5C 182.687,167.812 110.021,228.312 37.5,289C 32.4842,292.295 27.4842,292.628 22.5,290C 14.5925,280.935 6.92579,271.769 -0.5,262.5C -0.5,259.5 -0.5,256.5 -0.5,253.5C 1.26589,251.229 3.26589,249.063 5.5,247C 80.8333,184.333 156.167,121.667 231.5,59C 247.5,49 263.5,49 279.5,59C 305,80.5 330.5,102 356,123.5C 356.333,102.5 356.667,81.5 357,60.5C 357.504,56.9798 359.337,54.4798 362.5,53C 374.167,52.8333 385.833,52.6667 397.5,52.5C 409.925,52.352 422.259,52.852 434.5,54C 436.049,55.214 437.215,56.714 438,58.5C 438.167,103.17 438.667,147.837 439.5,192.5C 463.983,212.387 487.983,232.72 511.5,253.5 Z"/></g>
<g><path style="opacity:0.993" fill="#000000" d="M 254.5,133.5 C 316.064,182.886 377.231,232.886 438,283.5C 438.667,337.5 438.667,391.5 438,445.5C 435.406,452.428 430.573,456.928 423.5,459C 380.835,459.5 338.168,459.667 295.5,459.5C 295.5,418.833 295.5,378.167 295.5,337.5C 268.833,337.5 242.167,337.5 215.5,337.5C 215.5,378.167 215.5,418.833 215.5,459.5C 172.832,459.667 130.165,459.5 87.5,459C 80,456.833 75.1667,452 73,444.5C 72.3333,390.833 72.3333,337.167 73,283.5C 133.69,233.636 194.19,183.636 254.5,133.5 Z"/></g>
</svg>
