<svg width="34" height="34" viewBox="0 0 34 34" fill="none" xmlns="http://www.w3.org/2000/svg">
<path fill-rule="evenodd" clip-rule="evenodd" d="M17 4.25C13.5371 4.25 13.1036 4.26445 11.7436 4.3265C10.3862 4.38855 9.4588 4.60445 8.6479 4.9198C7.7979 5.2394 7.02695 5.7409 6.38945 6.3903C5.74109 7.02706 5.23928 7.79747 4.91895 8.6479C4.6053 9.4588 4.38855 10.387 4.3265 11.7445C4.2653 13.1036 4.25 13.5363 4.25 17C4.25 20.4638 4.26445 20.8964 4.3265 22.2564C4.38855 23.6139 4.60445 24.5412 4.9198 25.3521C5.2394 26.2021 5.7409 26.9731 6.3903 27.6106C7.02708 28.2589 7.79748 28.7607 8.6479 29.0811C9.4588 29.3956 10.3862 29.6115 11.7436 29.6735C13.1036 29.7356 13.5371 29.75 17 29.75C20.4629 29.75 20.8964 29.7356 22.2564 29.6735C23.6139 29.6115 24.5412 29.3956 25.3521 29.0802C26.2021 28.7606 26.9731 28.2591 27.6106 27.6097C28.2589 26.9729 28.7607 26.2025 29.0811 25.3521C29.3956 24.5412 29.6115 23.6139 29.6735 22.2564C29.7356 20.8964 29.75 20.4629 29.75 17C29.75 13.5371 29.7356 13.1036 29.6735 11.7436C29.6115 10.3862 29.3956 9.4588 29.0802 8.6479C28.7601 7.7971 28.2583 7.02637 27.6097 6.38945C26.9729 5.74109 26.2025 5.23928 25.3521 4.91895C24.5412 4.6053 23.613 4.38855 22.2556 4.3265C20.8964 4.2653 20.4638 4.25 17 4.25ZM17 6.54755C20.4043 6.54755 20.808 6.5603 22.1527 6.6215C23.3954 6.67845 24.0703 6.885 24.52 7.06095C25.115 7.2913 25.54 7.5684 25.9862 8.0138C26.4325 8.46005 26.7087 8.88505 26.9391 9.48005C27.1142 9.9297 27.3215 10.6046 27.3785 11.8473C27.4397 13.192 27.4525 13.5958 27.4525 17C27.4525 20.4043 27.4397 20.808 27.3785 22.1527C27.3215 23.3954 27.115 24.0703 26.9391 24.52C26.735 25.0738 26.4094 25.5748 25.9862 25.9862C25.5749 26.4095 25.0738 26.7351 24.52 26.9391C24.0703 27.1142 23.3954 27.3215 22.1527 27.3785C20.808 27.4397 20.4051 27.4525 17 27.4525C13.5949 27.4525 13.192 27.4397 11.8473 27.3785C10.6046 27.3215 9.9297 27.115 9.48005 26.9391C8.92624 26.735 8.42521 26.4094 8.0138 25.9862C7.59065 25.5748 7.26506 25.0737 7.06095 24.52C6.88585 24.0703 6.67845 23.3954 6.6215 22.1527C6.5603 20.808 6.54755 20.4043 6.54755 17C6.54755 13.5958 6.5603 13.192 6.6215 11.8473C6.67845 10.6046 6.885 9.9297 7.06095 9.48005C7.2913 8.88505 7.5684 8.46005 8.0138 8.0138C8.42515 7.59054 8.9262 7.26493 9.48005 7.06095C9.9297 6.88585 10.6046 6.67845 11.8473 6.6215C13.192 6.5603 13.5958 6.54755 17 6.54755V6.54755Z" fill="#0D0D0D"/>
<path fill-rule="evenodd" clip-rule="evenodd" d="M17 21.2542C16.4414 21.2542 15.8881 21.1442 15.372 20.9304C14.8559 20.7166 14.3869 20.4032 13.9918 20.0082C13.5968 19.6131 13.2834 19.1441 13.0696 18.628C12.8558 18.1118 12.7458 17.5586 12.7458 16.9999C12.7458 16.4413 12.8558 15.8881 13.0696 15.3719C13.2834 14.8558 13.5968 14.3868 13.9918 13.9917C14.3869 13.5967 14.8559 13.2833 15.372 13.0695C15.8881 12.8557 16.4414 12.7457 17 12.7457C18.1283 12.7457 19.2104 13.1939 20.0082 13.9917C20.8061 14.7896 21.2543 15.8716 21.2543 16.9999C21.2543 18.1282 20.8061 19.2103 20.0082 20.0082C19.2104 20.806 18.1283 21.2542 17 21.2542V21.2542ZM17 10.4464C15.2619 10.4464 13.595 11.1369 12.366 12.3659C11.137 13.5949 10.4465 15.2618 10.4465 16.9999C10.4465 18.738 11.137 20.405 12.366 21.634C13.595 22.863 15.2619 23.5534 17 23.5534C18.7381 23.5534 20.405 22.863 21.6341 21.634C22.8631 20.405 23.5535 18.738 23.5535 16.9999C23.5535 15.2618 22.8631 13.5949 21.6341 12.3659C20.405 11.1369 18.7381 10.4464 17 10.4464V10.4464ZM25.4601 10.3274C25.4601 10.7383 25.2969 11.1323 25.0064 11.4228C24.7158 11.7134 24.3218 11.8766 23.911 11.8766C23.5001 11.8766 23.1061 11.7134 22.8156 11.4228C22.525 11.1323 22.3618 10.7383 22.3618 10.3274C22.3618 9.91659 22.525 9.52257 22.8156 9.23205C23.1061 8.94153 23.5001 8.77832 23.911 8.77832C24.3218 8.77832 24.7158 8.94153 25.0064 9.23205C25.2969 9.52257 25.4601 9.91659 25.4601 10.3274" fill="#0D0D0D"/>
</svg>
