<svg width="34" height="34" viewBox="0 0 34 34" fill="none" xmlns="http://www.w3.org/2000/svg">
<path d="M29.75 6.125V27.875C29.75 28.3723 29.5525 28.8492 29.2008 29.2008C28.8492 29.5525 28.3723 29.75 27.875 29.75H6.125C5.62772 29.75 5.15081 29.5525 4.79917 29.2008C4.44754 28.8492 4.25 28.3723 4.25 27.875V6.125C4.25 5.62772 4.44754 5.15081 4.79917 4.79917C5.15081 4.44754 5.62772 4.25 6.125 4.25H27.875C28.3723 4.25 28.8492 4.44754 29.2008 4.79917C29.5525 5.15081 29.75 5.62772 29.75 6.125ZM11.75 14H8V26H11.75V14ZM12.0875 9.875C12.0895 9.59134 12.0356 9.31007 11.9288 9.04725C11.8221 8.78443 11.6647 8.54521 11.4655 8.34324C11.2663 8.14127 11.0293 7.98051 10.768 7.87015C10.5066 7.75978 10.2262 7.70196 9.9425 7.7H9.875C9.29815 7.7 8.74493 7.92915 8.33704 8.33704C7.92915 8.74493 7.7 9.29815 7.7 9.875C7.7 10.4518 7.92915 11.0051 8.33704 11.413C8.74493 11.8208 9.29815 12.05 9.875 12.05C10.1587 12.057 10.4409 12.008 10.7057 11.9058C10.9704 11.8037 11.2124 11.6504 11.4179 11.4547C11.6234 11.2589 11.7883 11.0247 11.9032 10.7652C12.018 10.5057 12.0807 10.2262 12.0875 9.9425V9.875ZM26 18.71C26 15.1025 23.705 13.7 21.425 13.7C20.6785 13.6626 19.9352 13.8216 19.2693 14.1611C18.6034 14.5007 18.0382 15.0089 17.63 15.635H17.525V14H14V26H17.75V19.6175C17.6958 18.9638 17.9017 18.3152 18.323 17.8124C18.7443 17.3097 19.3469 16.9935 20 16.9325H20.1425C21.335 16.9325 22.22 17.6825 22.22 19.5725V26H25.97L26 18.71Z" fill="#0D0D0D"/>
</svg>
