<svg width="158" height="34" viewBox="0 0 158 34" fill="none" xmlns="http://www.w3.org/2000/svg">
<g clip-path="url(#clip0_1_367)">
<path d="M8.80189 6.44667C8.85248 6.47846 8.8937 6.52336 8.92127 6.57671C8.94882 6.63007 8.9617 6.6899 8.95857 6.74999V28.6219C8.95857 31.2441 9.56785 32.3782 11.276 32.6332C11.3649 32.6332 11.4501 32.6688 11.513 32.7323C11.5758 32.7959 11.6111 32.882 11.6111 32.9717C11.6111 33.0614 11.5758 33.1475 11.513 33.211C11.4501 33.2746 11.3649 33.3102 11.276 33.3102H0.480765C0.245754 33.3102 0.11084 33.2113 0.11084 32.9739C0.11084 32.7365 0.22617 32.6706 0.480765 32.6288C2.3391 32.3892 2.76995 31.2639 2.76995 28.6219V14.7264C2.76995 11.946 2.20418 10.4689 0.593918 10.1568C0.411132 10.1239 0.213113 10.0755 0.213113 9.81395C0.213846 9.7667 0.224186 9.72008 0.243491 9.67702C0.262797 9.63396 0.290659 9.59534 0.325345 9.56363C0.360028 9.53189 0.4008 9.50767 0.445128 9.49252C0.489456 9.47736 0.536397 9.47155 0.583038 9.47547C4.89157 9.33919 8.05987 6.76098 8.39062 6.48184C8.44563 6.4308 8.51588 6.39966 8.5903 6.39331C8.66474 6.38693 8.73916 6.4057 8.80189 6.44667Z" fill="black"/>
<path d="M21.7953 16.3V28.6218C21.7953 31.2418 22.4046 32.3781 24.1106 32.6331C24.1993 32.6331 24.2846 32.6687 24.3475 32.7322C24.4104 32.7957 24.4457 32.8819 24.4457 32.9716C24.4457 33.0612 24.4104 33.1474 24.3475 33.2109C24.2846 33.2744 24.1993 33.31 24.1106 33.31H13.3153C13.0802 33.31 12.9453 33.2111 12.9453 32.9738C12.9453 32.7364 13.0607 32.6704 13.3153 32.6287C15.1758 32.3891 15.6066 31.2637 15.6066 28.6218V24.2808C15.6066 21.5004 15.0386 20.0234 13.4306 19.7113C13.2478 19.6783 13.052 19.6299 13.052 19.3684C13.0524 19.3212 13.0624 19.2747 13.0815 19.2316C13.1006 19.1885 13.1282 19.1499 13.1628 19.1181C13.1973 19.0864 13.2379 19.0621 13.2821 19.047C13.3263 19.0318 13.3732 19.026 13.4197 19.0299C17.7282 18.8936 20.8965 16.3154 21.2273 16.0363C21.2754 15.9874 21.3371 15.9547 21.4042 15.9425C21.4713 15.9302 21.5405 15.9391 21.6024 15.9679C21.6643 15.9966 21.716 16.0439 21.7505 16.1033C21.785 16.1627 21.8007 16.2314 21.7953 16.3ZM21.7953 10.0424C21.7953 11.0095 21.4149 11.937 20.7379 12.6208C20.0608 13.3047 19.1426 13.6888 18.1852 13.6888C16.662 13.6888 14.5752 12.3371 14.5752 10.0424C14.5749 9.56348 14.668 9.08918 14.8494 8.64667C15.0307 8.20413 15.2966 7.80203 15.6319 7.46337C15.9672 7.12471 16.3652 6.85614 16.8034 6.67298C17.2415 6.48983 17.711 6.39571 18.1852 6.396C19.8346 6.396 21.7953 7.74994 21.7953 10.0424Z" fill="black"/>
<path d="M33.2932 15.9463C33.5282 15.9463 33.7915 15.9924 33.7915 16.2825C33.7915 16.5243 33.6218 16.5859 33.3954 16.6254C31.8069 17.1178 32.5424 19.085 33.1278 20.6037L36.2809 27.5229L39.0314 20.2477C39.5231 18.9487 40.2021 16.6232 38.3089 16.6232C38.2199 16.6232 38.1348 16.5876 38.0719 16.5241C38.0091 16.4606 37.9738 16.3745 37.9738 16.2847C37.9738 16.195 38.0091 16.1089 38.0719 16.0454C38.1348 15.9819 38.2199 15.9463 38.3089 15.9463H43.8121C44.0493 15.9463 44.182 16.043 44.182 16.2825C44.182 16.5221 44.0688 16.5859 43.8121 16.6254C41.8537 16.6628 40.7308 17.6475 39.5949 20.6697L34.8077 33.3102H31.8418L26.3016 20.5906C25.7924 19.5509 24.4933 16.6232 23.488 16.6232C23.3074 16.6056 23.1094 16.5441 23.1094 16.2825C23.1124 16.2348 23.1248 16.1881 23.1459 16.1452C23.1668 16.1023 23.1962 16.0641 23.2321 16.0328C23.268 16.0015 23.3096 15.9778 23.3546 15.9629C23.3997 15.948 23.4473 15.9424 23.4945 15.9463H33.2932Z" fill="black"/>
<path d="M57.1815 18.6828C58.7351 20.6917 58.5567 24.1007 54.9467 24.5183C52.7924 24.7711 50.6382 25.0349 48.4839 25.292C49.7242 31.2024 56.2479 32.064 58.4261 28.2329C58.5589 27.9911 58.7525 27.501 59.092 27.6636C59.1579 27.6986 59.2102 27.7555 59.2395 27.8247C59.2687 27.8942 59.2735 27.9716 59.253 28.0439C58.165 32.176 54.8031 33.5937 50.958 33.5937C47.2131 33.5937 43.4964 31.3584 42.3279 27.3999C42.158 26.8337 42.0426 26.2521 41.9841 25.6635C41.538 20.4895 43.9795 15.9397 50.8558 15.9397C53.1384 15.9463 55.7388 16.8277 57.1815 18.6828ZM48.3577 24.6392C51.2866 24.2832 53.6889 23.2325 53.3995 20.3576C53.1819 18.1025 52.6183 16.6211 50.8209 16.6211C48.3664 16.6189 47.5547 21.6148 48.3577 24.6392Z" fill="black"/>
<path d="M93.7713 22.1379L94.4241 27.9383C94.8789 30.833 95.8037 31.6265 96.5457 31.7672C96.7818 31.7764 97.0181 31.7683 97.2529 31.743C97.326 31.7447 97.3965 31.7709 97.4536 31.8173C97.5106 31.8637 97.5508 31.9276 97.5682 31.9995C97.5856 32.0714 97.5789 32.147 97.5495 32.2145C97.5201 32.2822 97.4694 32.3382 97.4053 32.3738C96.1649 33.1013 95.0399 33.4728 93.1772 33.4904C91.4038 33.4904 89.589 32.9475 88.7512 31.2375C88.7512 31.2704 86.9973 33.4596 83.1458 33.4596C80.1211 33.4596 77.0942 32.3123 77.0942 28.9802C77.0942 23.2984 83.4461 24.5425 86.19 23.2786C87.3324 22.7533 87.5457 22.0126 87.376 20.7136C87.1779 19.2146 86.4033 16.4935 84.1489 16.4935C82.7388 16.4935 82.2449 17.3112 82.2318 18.109C82.2101 19.4278 84.2251 19.441 83.8987 21.3334C83.5092 23.5776 79.5162 23.9336 78.8133 21.2345C78.1191 18.6299 80.0602 16.0451 84.6603 15.8253C89.6825 15.566 93.0075 17.3397 93.7713 22.1379ZM86.4773 23.9996C85.065 24.8788 82.9412 25.7052 82.9412 28.3537C82.9412 32.8332 88.7534 32.765 88.3813 29.6395L87.6327 22.9797C87.3329 23.4072 86.9368 23.7567 86.4773 23.9996Z" fill="black"/>
<path d="M73.9567 25.0743H63.4857C63.3621 25.0743 63.2437 25.0248 63.1565 24.9365C63.069 24.8483 63.02 24.7288 63.02 24.6039C63.02 24.4791 63.069 24.3595 63.1565 24.2714C63.2437 24.183 63.3621 24.1335 63.4857 24.1335H73.9567C74.0801 24.1335 74.1987 24.183 74.286 24.2714C74.3732 24.3595 74.4224 24.4791 74.4224 24.6039C74.4224 24.7288 74.3732 24.8483 74.286 24.9365C74.1987 25.0248 74.0801 25.0743 73.9567 25.0743Z" fill="#ED4624"/>
<path d="M87.35 11.5195C87.2886 11.5195 87.2279 11.5073 87.1713 11.4835C87.1145 11.4597 87.0632 11.4249 87.0199 11.381C86.9766 11.3371 86.9424 11.285 86.9191 11.2276C86.8958 11.1703 86.8839 11.1089 86.8843 11.047V0.470364C86.8843 0.345616 86.9333 0.225975 87.0207 0.137765C87.108 0.0495548 87.2264 0 87.35 0C87.4733 0 87.5919 0.0495548 87.6792 0.137765C87.7665 0.225975 87.8156 0.345616 87.8156 0.470364V11.047C87.8158 11.1089 87.8041 11.1703 87.7808 11.2276C87.7575 11.285 87.7231 11.3371 87.6801 11.381C87.6368 11.4249 87.5852 11.4597 87.5286 11.4835C87.472 11.5073 87.4113 11.5195 87.35 11.5195Z" fill="#ED4624"/>
<path d="M83.8662 12.1152C83.7635 12.1149 83.6639 12.0806 83.5825 12.0174C83.5011 11.9542 83.4426 11.8658 83.4158 11.7657L81.675 5.15645C81.6563 5.09596 81.65 5.03231 81.6561 4.96927C81.6624 4.90624 81.6813 4.84511 81.7115 4.78961C81.7416 4.73409 81.7827 4.68532 81.8321 4.64622C81.8813 4.60709 81.9381 4.57847 81.9986 4.56201C82.0593 4.54557 82.1224 4.54166 82.1846 4.55052C82.2466 4.55935 82.3063 4.5808 82.36 4.61353C82.4137 4.64626 82.4603 4.6896 82.4971 4.74097C82.5339 4.79236 82.5598 4.85067 82.5737 4.91248L84.3276 11.5218C84.3437 11.5815 84.348 11.6439 84.3402 11.7053C84.3324 11.7667 84.3128 11.826 84.2821 11.8797C84.2516 11.9334 84.2109 11.9805 84.1622 12.0183C84.1137 12.0561 84.0582 12.0838 83.999 12.0998C83.9557 12.1112 83.9111 12.1164 83.8662 12.1152Z" fill="#4D55A5"/>
<path d="M80.7502 13.5285C80.6684 13.5288 80.5881 13.5072 80.5174 13.4659C80.4467 13.4246 80.3881 13.365 80.3477 13.2933L78.8505 10.6733C78.8162 10.6198 78.7929 10.5598 78.7822 10.4969C78.7713 10.434 78.7735 10.3696 78.7883 10.3075C78.8029 10.2455 78.8301 10.1871 78.8677 10.1359C78.9056 10.0848 78.9533 10.0419 79.0079 10.01C79.0627 9.97803 79.1232 9.95765 79.1859 9.95009C79.2485 9.94253 79.3123 9.94794 79.3728 9.96598C79.4335 9.98405 79.4896 10.0144 79.5384 10.0551C79.5869 10.0958 79.627 10.1461 79.6557 10.203L81.1658 12.8229C81.1965 12.8764 81.2165 12.9355 81.2244 12.9968C81.2324 13.0581 81.2283 13.1203 81.2122 13.18C81.1963 13.2397 81.1687 13.2956 81.1312 13.3444C81.0938 13.3933 81.047 13.4342 80.9939 13.4647C80.9204 13.5092 80.8357 13.5313 80.7502 13.5285Z" fill="#FFE04A"/>
<path d="M77.9585 15.5879C77.8969 15.588 77.8362 15.5758 77.7794 15.552C77.7226 15.5283 77.6711 15.4934 77.6278 15.4494L72.8405 10.6139C72.772 10.5233 72.7382 10.4107 72.7456 10.2969C72.753 10.1832 72.8011 10.0761 72.881 9.99543C72.9608 9.91481 73.0668 9.86623 73.1795 9.8587C73.2923 9.85116 73.4037 9.8852 73.4933 9.95448L78.2806 14.79C78.345 14.8561 78.3889 14.9399 78.4066 15.0309C78.4244 15.122 78.415 15.2163 78.38 15.3021C78.345 15.388 78.2856 15.4614 78.2096 15.5134C78.1335 15.5654 78.0438 15.5936 77.952 15.5945L77.9585 15.5879Z" fill="#69BD45"/>
<path d="M75.7758 18.3244C75.694 18.3252 75.6133 18.3032 75.543 18.2607L66.4733 12.968C66.3663 12.9056 66.2882 12.8029 66.2562 12.6823C66.2242 12.5617 66.2407 12.4332 66.3025 12.3251C66.3643 12.217 66.4662 12.1381 66.5854 12.1057C66.7049 12.0733 66.8319 12.0902 66.939 12.1526L76.0087 17.4431C76.1153 17.5056 76.1932 17.6082 76.225 17.7285C76.2567 17.8488 76.24 17.977 76.1784 18.0849C76.1386 18.1574 76.0803 18.2178 76.0093 18.26C75.9386 18.3021 75.8581 18.3243 75.7758 18.3244Z" fill="#FFE04A"/>
<path d="M74.5179 21.6016C74.4775 21.6019 74.4372 21.5967 74.3982 21.5862L67.7897 19.797C67.7285 19.7831 67.6708 19.7568 67.6199 19.7197C67.569 19.6826 67.5261 19.6355 67.4937 19.5813C67.4613 19.527 67.4402 19.4667 67.4313 19.404C67.4226 19.3413 67.4265 19.2774 67.4428 19.2162C67.4589 19.155 67.4874 19.0978 67.5261 19.0479C67.5649 18.9981 67.6132 18.9567 67.668 18.9261C67.7231 18.8956 67.7836 18.8766 67.8458 18.8703C67.9083 18.8639 67.9714 18.8704 68.0312 18.8893L74.6376 20.6762C74.7473 20.7053 74.8426 20.7737 74.9059 20.8687C74.9692 20.9636 74.996 21.0786 74.9812 21.1921C74.9666 21.3056 74.9114 21.4098 74.8261 21.4852C74.7408 21.5606 74.6313 21.6019 74.5179 21.6016Z" fill="#4D55A5"/>
<path d="M100.182 21.6719C100.069 21.6723 99.9591 21.6309 99.874 21.5556C99.7887 21.4802 99.7334 21.376 99.7188 21.2625C99.704 21.149 99.7308 21.034 99.7941 20.939C99.8574 20.844 99.9527 20.7756 100.062 20.7466L106.634 18.9662C106.753 18.9342 106.881 18.9514 106.988 19.014C107.094 19.0767 107.172 19.1797 107.204 19.3003C107.236 19.421 107.219 19.5495 107.157 19.6574C107.095 19.7654 106.993 19.8441 106.873 19.8762L100.302 21.6543C100.263 21.6655 100.223 21.6715 100.182 21.6719Z" fill="#4D55A5"/>
<path d="M98.9266 18.3245C98.8234 18.3255 98.7227 18.2919 98.6406 18.229C98.5584 18.1661 98.4992 18.0773 98.4722 17.9767C98.4452 17.8761 98.4522 17.7693 98.492 17.6731C98.5316 17.5769 98.6019 17.4968 98.6916 17.4453L107.761 12.1548C107.814 12.1239 107.873 12.1038 107.933 12.0958C107.994 12.0878 108.056 12.0919 108.115 12.1079C108.174 12.1239 108.229 12.1515 108.278 12.1892C108.326 12.2268 108.367 12.2738 108.398 12.3273C108.428 12.3809 108.448 12.44 108.456 12.5012C108.464 12.5625 108.46 12.6248 108.444 12.6845C108.428 12.7442 108.401 12.8002 108.364 12.8492C108.326 12.8982 108.28 12.9393 108.227 12.9702L99.1594 18.2585C99.0891 18.3012 99.0086 18.324 98.9266 18.3245Z" fill="#FFE04A"/>
<path d="M96.7439 15.5659C96.6519 15.5655 96.562 15.5376 96.4856 15.4858C96.409 15.434 96.3494 15.3605 96.3141 15.2746C96.2789 15.1888 96.2693 15.0942 96.2869 15.003C96.3046 14.9117 96.3485 14.8277 96.4132 14.7615L101.2 9.92597C101.241 9.87276 101.292 9.82887 101.35 9.79722C101.409 9.76557 101.473 9.74691 101.539 9.74249C101.606 9.73805 101.672 9.74796 101.734 9.77155C101.796 9.79513 101.853 9.83184 101.9 9.87922C101.947 9.92661 101.983 9.98356 102.006 10.0463C102.029 10.109 102.039 10.176 102.035 10.2429C102.031 10.3098 102.012 10.3749 101.981 10.434C101.949 10.493 101.906 10.5446 101.853 10.5854L97.066 15.4209C96.9815 15.51 96.866 15.5621 96.7439 15.5659Z" fill="#69BD45"/>
<path d="M94.0041 13.4714C93.9225 13.4713 93.8422 13.4495 93.7715 13.4081C93.7007 13.3668 93.6422 13.3074 93.6013 13.2359C93.5606 13.1644 93.5391 13.0834 93.5391 13.0009C93.5391 12.9184 93.5606 12.8373 93.6015 12.7659L95.0703 10.1986C95.101 10.1451 95.1417 10.0982 95.1902 10.0605C95.2388 10.0229 95.294 9.99525 95.3532 9.97923C95.4124 9.9632 95.474 9.95909 95.5347 9.96714C95.5952 9.97518 95.6537 9.99523 95.7068 10.0261C95.7599 10.057 95.8063 10.0981 95.8435 10.1471C95.8809 10.1962 95.9081 10.2521 95.924 10.3118C95.9399 10.3715 95.944 10.4338 95.936 10.4951C95.9281 10.5564 95.9081 10.6155 95.8776 10.669L94.4088 13.2362C94.3679 13.308 94.3087 13.3675 94.2378 13.4088C94.1666 13.4501 94.0861 13.4717 94.0041 13.4714Z" fill="#FFE04A"/>
<path d="M90.8207 12.0889C90.7803 12.0884 90.74 12.0825 90.7011 12.0713C90.6419 12.0555 90.5864 12.028 90.5376 11.9905C90.4889 11.953 90.4482 11.9061 90.4173 11.8527C90.3866 11.7992 90.3668 11.7401 90.3586 11.6788C90.3505 11.6175 90.3544 11.5552 90.3703 11.4954L92.1111 4.90155C92.1431 4.78088 92.2212 4.67802 92.3285 4.61557C92.4356 4.55313 92.5629 4.5362 92.6823 4.56856C92.8018 4.60091 92.9036 4.67988 92.9654 4.78809C93.0272 4.89627 93.044 5.02485 93.012 5.14552L91.2712 11.7394C91.2446 11.8397 91.1863 11.9283 91.1047 11.9916C91.0233 12.0548 90.9234 12.089 90.8207 12.0889Z" fill="#4D55A5"/>
<path d="M111.195 25.0743H100.715C100.592 25.0743 100.473 25.0248 100.386 24.9365C100.299 24.8483 100.25 24.7288 100.25 24.6039C100.25 24.4791 100.299 24.3595 100.386 24.2714C100.473 24.183 100.592 24.1335 100.715 24.1335H111.195C111.319 24.1335 111.437 24.183 111.524 24.2714C111.612 24.3595 111.661 24.4791 111.661 24.6039C111.661 24.7288 111.612 24.8483 111.524 24.9365C111.437 25.0248 111.319 25.0743 111.195 25.0743Z" fill="#ED4624"/>
<path d="M121.544 6.50593C121.595 6.53554 121.636 6.57963 121.663 6.63273C121.69 6.68584 121.701 6.74566 121.694 6.80485V17.599C127.097 13.513 133.982 17.8936 134.141 24.371C134.261 29.2329 131.149 33.409 126.782 33.6771C124.514 33.8178 122.382 32.8441 120.835 31.1781L115.982 33.3343C115.764 33.4156 115.512 33.3343 115.512 33.0243V14.7813C115.512 11.9789 114.935 10.4996 113.301 10.2051C113.257 10.2057 113.213 10.1974 113.172 10.1808C113.131 10.1641 113.094 10.1394 113.063 10.1082C113.032 10.0769 113.007 10.0396 112.99 9.99852C112.973 9.95744 112.964 9.91335 112.964 9.86882C112.966 9.77958 113.002 9.69469 113.065 9.63198C113.128 9.56928 113.213 9.53363 113.301 9.53253C117.625 9.40065 120.808 6.81584 121.135 6.5389C121.19 6.48837 121.26 6.45773 121.334 6.45175C121.408 6.4458 121.482 6.46485 121.544 6.50593ZM122.247 18.2431C121.392 19.6036 121.594 22.617 122.484 25.9733C123.653 30.2791 125.511 33.4288 127.297 32.943C129.084 32.4573 128.96 28.3273 127.918 24.4787C126.851 20.452 125.176 17.4144 123.526 17.4452C122.969 17.4496 122.584 17.7002 122.247 18.2431Z" fill="black"/>
<path d="M142.991 16.3549V28.6767C142.991 31.2989 143.6 32.4352 145.306 32.688C145.395 32.688 145.48 32.7236 145.543 32.7871C145.606 32.8507 145.641 32.9368 145.641 33.0265C145.641 33.1162 145.606 33.2023 145.543 33.2659C145.48 33.3294 145.395 33.365 145.306 33.365H134.511C134.276 33.365 134.143 33.2683 134.143 33.0287C134.143 32.8221 134.256 32.7254 134.511 32.6858C136.371 32.444 136.802 31.3187 136.802 28.6767V24.3357C136.802 21.5553 136.236 20.0805 134.626 19.7684C134.446 19.7332 134.248 19.6871 134.248 19.4233C134.248 19.376 134.259 19.3294 134.278 19.2863C134.297 19.2433 134.325 19.2047 134.36 19.173C134.394 19.1412 134.435 19.117 134.479 19.1019C134.524 19.0867 134.571 19.0809 134.617 19.0848C138.924 18.9485 142.092 16.3703 142.423 16.0934C142.471 16.0447 142.532 16.0121 142.599 15.9998C142.666 15.9876 142.735 15.9962 142.797 16.0247C142.859 16.0532 142.91 16.1001 142.945 16.1591C142.98 16.2181 142.996 16.2865 142.991 16.3549ZM142.991 10.0973C142.991 11.0644 142.61 11.9919 141.933 12.6758C141.256 13.3596 140.338 13.7438 139.381 13.7438C137.858 13.7438 135.771 12.3942 135.771 10.0973C135.771 9.13024 136.151 8.20277 136.828 7.51894C137.505 6.83509 138.423 6.45093 139.381 6.45093C141.03 6.45093 142.991 7.80707 142.991 10.0973Z" fill="black"/>
<path d="M152.811 9.72369C152.885 9.74279 152.95 9.7882 152.993 9.85157C153.037 9.91496 153.057 9.99206 153.048 10.0688V16.9506H156.125C156.213 16.9506 156.298 16.986 156.361 17.0491C156.423 17.1121 156.458 17.1977 156.458 17.2869C156.458 17.3761 156.423 17.4616 156.361 17.5247C156.298 17.5877 156.213 17.6232 156.125 17.6232H153.048V27.3579C153.048 29.8812 153.686 30.8329 154.487 30.8197C155.288 30.8065 156.027 29.9405 156.336 29.1866C156.353 29.1444 156.378 29.106 156.41 29.0737C156.442 29.0414 156.48 29.0161 156.522 28.9992C156.564 28.9822 156.608 28.9741 156.653 28.975C156.699 28.9761 156.743 28.9864 156.784 29.0053C156.825 29.0244 156.862 29.0515 156.892 29.0851C156.922 29.119 156.945 29.1585 156.96 29.2016C156.975 29.2447 156.981 29.2902 156.978 29.3357C156.974 29.3809 156.962 29.4253 156.941 29.4658C155.986 31.5714 153.995 33.6419 151.466 33.6419C148.474 33.6419 146.86 31.9737 146.86 27.3557V20.4541C146.877 17.5396 146.795 17.5616 144.684 17.5616C144.501 17.5287 144.305 17.4803 144.305 17.2187C144.305 17.0143 144.464 16.9242 144.675 16.8803C146.929 16.4077 151.521 12.9459 152.439 9.95008C152.465 9.87436 152.517 9.81025 152.585 9.7689C152.653 9.72754 152.733 9.71154 152.811 9.72369Z" fill="black"/>
</g>
<defs>
<clipPath id="clip0_1_367">
<rect width="157.109" height="33.8486" fill="white"/>
</clipPath>
</defs>
</svg>
