<svg width="258" height="44" viewBox="0 0 258 44" fill="none" xmlns="http://www.w3.org/2000/svg">
<path d="M28.5469 2.85938L19.125 3L14.9297 16.5703L11.0859 3.16406L0.703125 3.30469L0.234375 41.6719L8.0625 41.5547L7.66406 17.7891L13.4297 41.0859L16.9922 41.2031L21.1641 15.5391L22.6641 41.0156L29.6719 40.7344L28.5469 2.85938ZM38.0156 3.65625L32.0156 40.5703H38.7656L40.6641 27.7734L45.2578 27.8906L48.1406 41.7656H54.7266L47.9297 3.65625H38.0156ZM43.3359 11.9531L45.7734 23.6719H41.0859L43.3359 11.9531ZM57.9375 3.39844L57.0938 40.7344L68.3203 40.3828L80.5078 33.6797V12.75L70.0781 3.91406L57.9375 3.39844ZM65.25 11.7422L68.1562 11.6719L73.5469 16.5234L73.9219 29.0391L68.3906 32.3672L64.8516 32.4609L65.25 11.7422ZM123.094 2.85938L113.672 3L109.477 16.5703L105.633 3.16406L95.25 3.30469L94.7812 41.6719L102.609 41.5547L102.211 17.7891L107.977 41.0859L111.539 41.2031L115.711 15.5391L117.211 41.0156L124.219 40.7344L123.094 2.85938ZM149.109 4.66406L126.562 5.48438V39.7969L149.109 39.1406V4.66406ZM133.617 12.6797L142.055 11.9297V31.9219L133.617 32.4141V12.6797ZM168.727 0.914062L167.766 27.1406L158.906 4.96875H151.992L151.453 43.8281L158.812 43.125L158.062 18.1875L167.344 40.5234H176.297L175.852 0.914062H168.727ZM178.641 2.64844V40.1719H186V23.6484L188.227 21.2109L194.203 39.3281H202.945L192.773 16.2422L203.484 4.57031L193.875 4.19531L184.922 16.6172V2.71875L178.664 2.64844H178.641ZM227.836 3.44531L205.828 4.6875L206.461 40.5L228.047 40.1719L227.367 32.2031L212.461 32.5312L212.602 24.1172H222.305L221.977 19.0078L212.672 19.2656L212.812 10.9453L228.469 11.3203L227.836 3.44531ZM250.266 3L244.172 15.1406L238.758 5.4375L230.812 5.13281L240.961 22.2188V39.9375H247.664V22.2188L257.766 3H250.266Z" fill="#FF6E1A"/>
</svg>
