<svg width="195" height="33" viewBox="0 0 195 33" fill="none" xmlns="http://www.w3.org/2000/svg">
<path d="M22.1602 1.89453L15.0938 2L11.9473 12.1777L9.06445 2.12305L1.27734 2.22852L0.925781 31.0039L6.79688 30.916L6.49805 13.0918L10.8223 30.5645L13.4941 30.6523L16.623 11.4043L17.748 30.5117L23.0039 30.3008L22.1602 1.89453ZM29.2617 2.49219L24.7617 30.1777H29.8242L31.248 20.5801L34.6934 20.668L36.8555 31.0742H41.7949L36.6973 2.49219H29.2617ZM33.252 8.71484L35.0801 17.5039H31.5645L33.252 8.71484ZM44.2031 2.29883L43.5703 30.3008L51.9902 30.0371L61.1309 25.0098V9.3125L53.3086 2.68555L44.2031 2.29883ZM49.6875 8.55664L51.8672 8.50391L55.9102 12.1426L56.1914 21.5293L52.043 24.0254L49.3887 24.0957L49.6875 8.55664ZM93.0703 1.89453L86.0039 2L82.8574 12.1777L79.9746 2.12305L72.1875 2.22852L71.8359 31.0039L77.707 30.916L77.4082 13.0918L81.7324 30.5645L84.4043 30.6523L87.5332 11.4043L88.6582 30.5117L93.9141 30.3008L93.0703 1.89453ZM112.582 3.24805L95.6719 3.86328V29.5977L112.582 29.1055V3.24805ZM100.963 9.25977L107.291 8.69727V23.6914L100.963 24.0605V9.25977ZM127.295 0.435547L126.574 20.1055L119.93 3.47656H114.744L114.34 32.6211L119.859 32.0938L119.297 13.3906L126.258 30.1426H132.973L132.639 0.435547H127.295ZM134.73 1.73633V29.8789H140.25V17.4863L141.92 15.6582L146.402 29.2461H152.959L145.33 11.9316L153.363 3.17773L146.156 2.89648L139.441 12.2129V1.78906L134.748 1.73633H134.73ZM171.627 2.33398L155.121 3.26562L155.596 30.125L171.785 29.8789L171.275 23.9023L160.096 24.1484L160.201 17.8379H167.479L167.232 14.0059L160.254 14.1992L160.359 7.95898L172.102 8.24023L171.627 2.33398ZM188.449 2L183.879 11.1055L179.818 3.82812L173.859 3.59961L181.471 16.4141V29.7031H186.498V16.4141L194.074 2H188.449Z" fill="#FF6E1A"/>
</svg>
