<svg width="50" height="50" viewBox="0 0 50 50" fill="none" xmlns="http://www.w3.org/2000/svg">
<path opacity="0.4" d="M45.8331 33.2087C45.8331 39.0212 41.1665 43.7295 35.354 43.7503H35.3331H14.6873C8.89563 43.7503 4.16646 39.0628 4.16646 33.2503V33.2295C4.16646 33.2295 4.17896 24.0087 4.19562 19.3712C4.19771 18.5003 5.19771 18.0128 5.87896 18.5545C10.829 22.4816 19.681 29.642 19.7915 29.7357C21.2706 30.9212 23.1456 31.5899 25.0623 31.5899C26.979 31.5899 28.854 30.9212 30.3331 29.7128C30.4435 29.6399 39.0977 22.6941 44.1227 18.7024C44.806 18.1587 45.8102 18.6462 45.8123 19.5149C45.8331 24.117 45.8331 33.2087 45.8331 33.2087Z" fill="#FFEFE8"/>
<path d="M44.7417 11.8201C42.9375 8.4201 39.3875 6.24927 35.4792 6.24927H14.6875C10.7792 6.24927 7.22916 8.4201 5.425 11.8201C5.02083 12.5805 5.2125 13.5284 5.88541 14.0659L21.3542 26.4389C22.4375 27.3139 23.75 27.7493 25.0625 27.7493C25.0708 27.7493 25.0771 27.7493 25.0833 27.7493C25.0896 27.7493 25.0979 27.7493 25.1042 27.7493C26.4167 27.7493 27.7292 27.3139 28.8125 26.4389L44.2812 14.0659C44.9542 13.5284 45.1458 12.5805 44.7417 11.8201Z" fill="white"/>
</svg>
