<?xml version="1.0" encoding="UTF-8"?>
<!DOCTYPE svg PUBLIC "-//W3C//DTD SVG 1.1//EN" "http://www.w3.org/Graphics/SVG/1.1/DTD/svg11.dtd">
<svg xmlns="http://www.w3.org/2000/svg" version="1.1" width="512px" height="512px" style="shape-rendering:geometricPrecision; text-rendering:geometricPrecision; image-rendering:optimizeQuality; fill-rule:evenodd; clip-rule:evenodd" xmlns:xlink="http://www.w3.org/1999/xlink">
<g><path style="opacity:0.985" fill="#000000" d="M 131.5,76.5 C 148.537,75.4364 162.037,81.7697 172,95.5C 184,112.833 196,130.167 208,147.5C 217.225,165.472 215.392,182.306 202.5,198C 195.001,203.339 187.668,208.839 180.5,214.5C 212.167,260.167 250.833,298.833 296.5,330.5C 302.861,320.962 310.194,312.129 318.5,304C 337.612,293.97 355.612,295.637 372.5,309C 386.659,319.246 400.992,329.246 415.5,339C 431.243,350.324 437.076,365.491 433,384.5C 423.189,412.307 403.689,428.474 374.5,433C 343.185,436.138 313.185,431.138 284.5,418C 200.581,378.081 137.748,316.581 96,233.5C 85.8071,211.92 79.4738,189.253 77,165.5C 74.353,141.756 79.6863,120.09 93,100.5C 103.486,88.5183 116.319,80.5183 131.5,76.5 Z"/></g>
</svg>
