<?xml version="1.0" encoding="UTF-8"?>
<!DOCTYPE svg PUBLIC "-//W3C//DTD SVG 1.1//EN" "http://www.w3.org/Graphics/SVG/1.1/DTD/svg11.dtd">
<svg xmlns="http://www.w3.org/2000/svg" version="1.1" width="512px" height="512px" style="shape-rendering:geometricPrecision; text-rendering:geometricPrecision; image-rendering:optimizeQuality; fill-rule:evenodd; clip-rule:evenodd" xmlns:xlink="http://www.w3.org/1999/xlink">
<g><path style="opacity:0.964" fill="#000000" d="M 44.5,-0.5 C 55.1667,-0.5 65.8333,-0.5 76.5,-0.5C 118.91,14.3248 133.077,43.3248 119,86.5C 112.348,98.4903 103.515,108.657 92.5,117C 77.2523,128.244 62.5856,140.244 48.5,153C 71.1667,153.333 93.8333,153.667 116.5,154C 128.961,158.703 132.461,167.203 127,179.5C 124.736,182.433 121.902,184.6 118.5,186C 82.5,186.667 46.5,186.667 10.5,186C 5.64549,183.643 1.97883,180.143 -0.5,175.5C -0.5,172.167 -0.5,168.833 -0.5,165.5C 8.8725,146.605 21.8725,130.439 38.5,117C 54.5831,104.921 70.0831,92.0878 85,78.5C 94.9855,63.3699 93.4855,49.5365 80.5,37C 65.6943,28.9433 51.5276,29.7766 38,39.5C 35.5224,42.7892 33.8558,46.4558 33,50.5C 32.7645,56.038 32.2645,61.538 31.5,67C 27.1073,75.6891 20.1073,78.6891 10.5,76C 4.78511,73.4627 1.11844,69.2961 -0.5,63.5C -0.5,58.1667 -0.5,52.8333 -0.5,47.5C 4.14697,21.8514 19.147,5.85144 44.5,-0.5 Z"/></g>
<g><path style="opacity:0.967" fill="#000000" d="M 214.5,-0.5 C 219.5,-0.5 224.5,-0.5 229.5,-0.5C 233.614,2.12126 236.447,5.78792 238,10.5C 238.5,43.8317 238.667,77.165 238.5,110.5C 256.473,108.969 263.64,116.969 260,134.5C 257.303,139.436 253.136,142.27 247.5,143C 244.518,143.498 241.518,143.665 238.5,143.5C 238.933,154.91 238.433,166.244 237,177.5C 230.8,186.718 222.633,188.884 212.5,184C 210.291,182.127 208.458,179.96 207,177.5C 205.567,166.244 205.067,154.91 205.5,143.5C 178.831,143.667 152.165,143.5 125.5,143C 113.621,139.413 109.454,131.58 113,119.5C 143.428,82.3155 174.095,45.3155 205,8.5C 208.062,5.26781 211.229,2.26781 214.5,-0.5 Z M 204.5,60.5 C 205.497,76.9916 205.83,93.6583 205.5,110.5C 191.496,110.667 177.496,110.5 163.5,110C 177.378,93.6266 191.045,77.1266 204.5,60.5 Z"/></g>
<g><path style="opacity:0.964" fill="#000000" d="M 511.5,233.5 C 511.5,248.5 511.5,263.5 511.5,278.5C 501.439,366.349 458.772,433.182 383.5,479C 352.735,495.977 320.068,506.811 285.5,511.5C 265.5,511.5 245.5,511.5 225.5,511.5C 131.93,497.413 64.0963,448.08 22,363.5C 10.0981,336.551 2.59809,308.551 -0.5,279.5C -0.5,269.833 -0.5,260.167 -0.5,250.5C 7.73532,237.688 17.5687,236.354 29,246.5C 30.8461,249.569 31.8461,252.902 32,256.5C 35.2563,342.894 73.7563,408.061 147.5,452C 212.919,485.669 279.586,488.336 347.5,460C 407.079,431.084 447.579,385.251 469,322.5C 490.806,243.518 475.806,172.518 424,109.5C 385.943,66.8838 338.443,41.7171 281.5,34C 271.929,30.0134 268.429,22.8467 271,12.5C 274.064,5.62742 279.398,1.96075 287,1.5C 380.152,16.0329 447.485,65.3663 489,149.5C 500.901,176.446 508.401,204.446 511.5,233.5 Z"/></g>
<g><path style="opacity:0.961" fill="#000000" d="M 354.5,99.5 C 372.578,99.7395 378.744,108.406 373,125.5C 293.167,205.333 213.333,285.167 133.5,365C 122.585,370.647 114.085,368.147 108,357.5C 106.909,351.903 107.576,346.57 110,341.5C 189.5,262 269,182.5 348.5,103C 350.432,101.541 352.432,100.375 354.5,99.5 Z"/></g>
<g><path style="opacity:0.962" fill="#000000" d="M 303.5,235.5 C 337.502,235.333 371.502,235.5 405.5,236C 416.903,242.218 419.403,251.052 413,262.5C 380.084,313.33 347.417,364.33 315,415.5C 309.224,423.403 301.724,425.57 292.5,422C 284.718,416.715 282.218,409.548 285,400.5C 312.793,356.412 340.959,312.579 369.5,269C 348.5,268.667 327.5,268.333 306.5,268C 297.58,266.412 292.913,261.079 292.5,252C 292.809,244.203 296.475,238.703 303.5,235.5 Z"/></g>
</svg>
