<?xml version="1.0" encoding="UTF-8"?>
<!DOCTYPE svg PUBLIC "-//W3C//DTD SVG 1.1//EN" "http://www.w3.org/Graphics/SVG/1.1/DTD/svg11.dtd">
<svg xmlns="http://www.w3.org/2000/svg" version="1.1" width="512px" height="512px" style="shape-rendering:geometricPrecision; text-rendering:geometricPrecision; image-rendering:optimizeQuality; fill-rule:evenodd; clip-rule:evenodd" xmlns:xlink="http://www.w3.org/1999/xlink">
<g><path style="opacity:0.984" fill="#000000" d="M 511.5,248.5 C 511.5,253.167 511.5,257.833 511.5,262.5C 509.473,267.537 506.639,272.203 503,276.5C 460.746,324.2 410.58,361.034 352.5,387C 269.352,419.408 189.686,412.408 113.5,366C 72.4478,339.299 35.9478,307.132 4,269.5C 2.20496,266.901 0.704964,264.234 -0.5,261.5C -0.5,257.167 -0.5,252.833 -0.5,248.5C 3.34266,241.516 8.17599,235.183 14,229.5C 53.0126,186.804 98.5126,152.971 150.5,128C 235.568,91.5471 317.901,96.8805 397.5,144C 438.037,170.231 474.204,201.731 506,238.5C 508.13,241.767 509.963,245.1 511.5,248.5 Z M 243.5,148.5 C 290.906,145.449 326.74,164.116 351,204.5C 373.815,255.088 365.315,299.588 325.5,338C 296.322,360.791 263.655,367.791 227.5,359C 178.347,342.003 152.014,307.503 148.5,255.5C 151.297,207.56 174.63,174.06 218.5,155C 226.842,152.332 235.176,150.166 243.5,148.5 Z M 252.5,208.5 C 260.646,207.99 265.646,211.657 267.5,219.5C 264.982,227.772 259.316,231.606 250.5,231C 236.784,235.403 229.951,244.903 230,259.5C 225.373,266.782 219.54,267.949 212.5,263C 209.757,259.239 208.924,255.072 210,250.5C 214.189,226.335 228.356,212.335 252.5,208.5 Z"/></g>
<g><path style="opacity:0.978" fill="#000000" d="M 244.5,179.5 C 282.607,176.294 310.107,191.627 327,225.5C 339.495,261.698 331.328,292.198 302.5,317C 269.85,337.836 237.85,336.836 206.5,314C 178.563,286.308 172.729,254.474 189,218.5C 201.88,197.446 220.38,184.446 244.5,179.5 Z M 252.5,208.5 C 228.356,212.335 214.189,226.335 210,250.5C 208.924,255.072 209.757,259.239 212.5,263C 219.54,267.949 225.373,266.782 230,259.5C 229.951,244.903 236.784,235.403 250.5,231C 259.316,231.606 264.982,227.772 267.5,219.5C 265.646,211.657 260.646,207.99 252.5,208.5 Z"/></g>
</svg>
